<svg xmlns="http://www.w3.org/2000/svg"><defs><font id="icomoon" horiz-adv-x="1024"><font-face units-per-em="1024" ascent="960" descent="-64"/><glyph horiz-adv-x="512"/><glyph unicode="" glyph-name="calendar" d="M313.158 958.929c-15.686-4.003-22.714-8.937-28.625-20.061-3.398-6.33-3.863-10.287-4.608-39.471l-.884-32.396-33.28-.977c-36.631-1.071-46.545-2.886-67.724-12.66-40.076-18.525-69.213-53.853-81.129-98.49l-3.77-14.196-.605-302.08c-.605-315.206-.326-329.216 6.656-351.884 15.686-50.874 54.179-86.9 107.334-100.538 12.381-3.119 23.133-3.258 328.518-3.258 296.029 0 316.509.186 328.518 3.025C917.399-1.23 959.213 39.778 972.99 92.154l.23 1.029 3.863 14.336v316.602c0 305.804-.14 317.021-3.258 329.356-11.171 43.892-35.84 75.776-74.612 96.303-23.831 12.66-34.63 14.988-73.402 15.919l-33.559.791-.838 30.115c-.419 16.57-1.722 33.047-2.839 36.631-1.979 5.059-4.685 9.41-8.042 13.168l.037-.042c-8.471 9.356-18.525 12.8-37.329 12.707-16.849-.047-26.112-3.398-34.49-12.428-8.471-9.169-9.588-14.289-10.333-48.5l-.698-32.023-324.794.884-.884 32.396c-.838 31.604-.977 32.628-5.539 40.448-7.727 13.172-17.967 18.525-37.097 19.409-1.874.135-4.06.211-6.264.211-3.516 0-6.986-.195-10.4-.575l.42.038zm-32.954-217.972l.559-32.954 5.167-8.378c3.519-5.959 8.707-10.607 14.92-13.369l.208-.082c8.844-4.515 11.59-5.073 24.669-5.027 17.222.14 27.927 3.956 36.166 12.94 8.239 9.03 10.147 18.665 10.147 51.2v28.672h326.004v-27.834c0-34.025 2.095-42.961 12.567-53.481 8.239-8.192 17.175-11.264 33.513-11.497 15.965-.186 26.671 3.351 34.956 11.636 9.914 9.961 11.404 16.105 12.381 51.06l.838 30.487 25.833-.652c23.459-.605 26.671-1.024 35.188-5.073 11.264-5.26 20.713-14.476 26.019-25.181 3.724-7.54 3.863-9.821 4.375-58.601l.465-50.781H185.811l.512 49.897c.559 47.895.698 50.269 4.468 58.461 6.889 14.941 20.247 26.065 35.747 29.696 8.263 1.104 17.815 1.734 27.515 1.734.783 0 1.566-.004 2.347-.012l-.119.001 23.366.14.559-33.001zm603.834-411.508c0-209.455 0-210.758-3.537-220.207-5.654-13.538-16.204-24.088-29.383-29.609l-9.855-3.671H535.04c-301.894 0-306.362.047-315.345 3.398-12.57 5.424-22.489 15.012-28.203 26.99l-.143.332-4.468 9.356-.931 424.122h698.089V329.449zM264.052 446.185c-8.625-1.729-15.993-6.228-21.32-12.513l-.045-.054c-8.751-9.961-9.402-14.429-10.147-71.633-.884-67.119.559-76.893 13.219-89.274 10.473-10.24 16.617-10.985 83.875-10.426 66.607.605 65.443.419 77.777 12.148 10.799 10.193 11.59 15.686 11.59 80.57 0 64.791-.791 70.237-11.59 80.663-11.59 11.264-12.893 11.45-78.01 11.776-32.396.186-61.812-.372-65.35-1.257z"/><glyph unicode="" glyph-name="alarm" d="M512-26.764c-232.727 0-423.564 190.836-423.564 428.218S279.272 829.672 512 829.672s423.564-190.836 423.564-428.218S744.728-26.764 512-26.764zm0 763.346c-181.527 0-330.473-148.945-330.473-335.127S330.472 66.328 512 66.328c181.527 0 330.473 148.945 330.473 335.127S693.528 736.582 512 736.582zm93.091-400.291H512c-27.927 0-46.545 18.618-46.545 46.545v176.873c0 27.927 18.618 46.545 46.545 46.545s46.545-18.618 46.545-46.545V424.727h46.545c27.927 0 46.545-18.618 46.545-46.545 0-23.273-18.618-41.891-46.545-41.891zM88.436 736.582c-18.618 0-32.582 9.309-41.891 23.273-13.964 23.273-4.655 51.2 13.964 65.164l139.636 88.436c23.273 13.964 51.2 9.309 65.164-13.964s9.309-51.2-13.964-65.164l-139.636-88.436c-9.309-4.655-13.964-9.309-23.273-9.309zm847.128 0c-9.309 0-18.618 4.655-23.273 9.309l-139.636 88.436c-23.273 13.964-27.927 41.891-13.964 65.164s41.891 27.927 65.164 13.964l139.636-88.436c23.273-13.964 27.927-41.891 13.964-65.164-9.309-13.964-23.273-23.273-41.891-23.273z"/><glyph unicode="" glyph-name="persone" d="M514.56 912.058c-118.691-9.03-214.807-99.654-232.82-219.462-2.56-17.129-2.234-56.599.605-74.007 16.617-101.19 88.017-181.108 185.856-207.965 40.82-11.171 90.298-11.59 130.513-1.117 47.209 12.556 87.663 36.839 119.469 69.571l.059.061c77.452 78.569 94.906 199.168 43.055 297.658-12.401 23.517-27.544 43.665-45.379 61.067l-.049.048c-53.807 53.76-124.835 79.965-201.309 74.147zM576 815.057c36.045-9.82 66.314-30.548 87.877-58.364l.28-.376c20.974-27.018 33.624-61.41 33.624-98.756 0-43.379-17.067-82.772-44.852-111.83l.058.061c-21.288-22.758-48.967-39.292-80.172-46.744l-1.096-.221c-18.758-4.655-53.062-4.98-70.796-.698-57.716 13.964-101.236 53.062-119.948 107.753-8.751 25.6-10.38 61.812-4.049 88.343 14.196 59.02 59.857 105.984 117.155 120.46 19.689 4.934 21.597 5.12 46.08 4.515 15.453-.419 26.345-1.676 35.84-4.143zM374.598 351.372c-46.998-7.362-88.848-25.097-124.574-50.809l.856.586c-60.183-42.868-96.535-101.236-108.497-173.987-2.746-16.896-3.444-149.83-.791-161.187 4.003-17.361 18.665-28.207 39.936-29.603 22.202-1.396 37.888 5.679 45.94 20.759 3.677 6.842 3.817 9.076 4.794 79.546.838 59.764 1.536 74.938 4.003 86.202 16.337 75.124 81.082 129.443 163.933 137.495 12.195 1.21 64.233 1.583 148.48 1.164 124.369-.652 130.374-.791 145.082-4.236 70.47-16.384 122.88-64.791 139.311-128.652 3.398-13.219 3.77-20.015 4.701-88.529 1.024-73.495 1.117-74.333 5.073-82.385 6.935-14.15 21.364-21.737 41.193-21.737 21.783 0 37.423 9.263 43.567 25.879 3.165 8.564 3.398 13.498 3.351 79.919-.047 73.263-.559 80.151-7.866 110.08-25.414 103.657-116.224 182.598-229.748 199.633-24.529 3.677-294.912 3.537-318.743-.14z"/><glyph unicode="" glyph-name="place" horiz-adv-x="1126" d="M540.672 954.266c-5.503-2.961-10.25-6.222-14.607-9.927l.117.097C522.291 940.545 13.875 27.29 4.454 7.271 1.024-.051.051-5.375 0-16.537c0-13.414.41-14.95 6.144-22.477 3.379-4.454 9.523-10.394 13.619-13.21C36.301-63.642 27.289-63.13 221.542-63.13c200.346 0 190.976-.666 205.261 13.722 4.301 4.301 36.506 51.558 71.629 104.96 31.589 49.202 52.934 80.857 74.662 112.225l-9.894-15.099c.512 0 29.645-43.725 64.768-97.126s67.328-100.659 71.68-105.011c14.387-14.49 4.403-13.824 211.046-13.261l182.835.512 9.421 5.222c11.059 6.144 17.459 14.746 20.941 28.109 3.328 12.851 3.072 20.992-.922 32.358-3.84 10.854-512.358 927.232-521.114 939.008-3.795 4.852-8.148 9.026-13.021 12.518l-.189.129c-6.451 4.198-9.421 4.864-22.528 4.813-13.261 0-16.384-.717-25.446-5.683zm234.65-532.48C891.495 212.583 986.829 40.704 987.188 39.834c.307-.922-49.664-1.434-112.589-1.126l-113.203.461-68.096 103.27c-8.915 11.967-31.374 46.016-53.5 80.3l-14.596 24.148c-.051.666 9.574 15.872 21.35 33.792 28.826 43.981 31.898 53.811 22.477 72.704-7.629 15.309-27.75 29.747-46.182 33.126a35.651 35.651 0 01-4.651.295c-4.542 0-8.892-.821-12.909-2.324l.255.083c-11.571-3.635-21.555-12.954-33.894-31.539-3.891-5.888-7.731-10.65-8.448-10.65s-4.557 4.762-8.448 10.65c-21.248 32.051-39.987 40.294-65.69 28.877-12.954-5.683-26.368-17.766-31.693-28.518-9.37-18.739-6.298-28.774 21.504-71.27 11.213-17.152 20.838-32.358 21.35-33.792.512-1.485-29.184-48.333-67.123-105.882l-68.096-103.27-113.203-.461c-62.925-.307-112.896.205-112.589 1.126 1.843 4.71 423.219 762.317 423.987 762.317.512 0 96-171.162 212.122-380.365z"/><glyph unicode="" glyph-name="chevron-down-radius" horiz-adv-x="1792" d="M77.952 953.216c-18.56-9.472-51.584-40.96-65.92-62.848L0 871.936v-38.784c0-37.888.256-39.296 9.344-55.296 7.04-12.544 105.088-112.384 408.32-416.128C662.912 116.352 823.552-42.368 834.304-49.664L851.84-61.44h88.32l17.536 11.776c10.752 7.296 171.392 166.016 416.64 411.392 303.232 303.744 401.28 403.584 408.32 416.128 9.088 16 9.344 17.408 9.344 55.296v38.784l-12.032 18.304c-14.72 22.656-46.08 52.352-65.664 62.336-13.312 6.784-18.176 7.424-51.328 7.424-35.456 0-37.248-.384-53.12-9.344-12.544-6.912-101.12-93.824-365.184-357.504L896 244.736 547.328 593.152c-264.064 263.68-352.64 350.592-365.184 357.504-15.872 8.96-17.536 9.344-53.76 9.216-32.64 0-38.912-.768-50.432-6.656z"/><glyph unicode="" glyph-name="chevrone-down" horiz-adv-x="1463" d="M85.723 836.535L0 749.056 731.429 17.627l731.429 731.429-171.447 174.811-559.982-559.982-559.982 559.982-85.723-87.333z"/><glyph unicode="" glyph-name="calendar-2" horiz-adv-x="1053" d="M235.11 955.173c-9.459-4.442-16.481-12.74-19.11-22.812l-.054-.242c-.965-3.482-1.755-20.773-1.785-38.385v-32.037l-62.757-.029c-70.48-.029-76.42-.731-97.69-11.791-18.653-10.033-33.395-25.274-42.544-43.773l-.26-.581c-3.95-8.192-8.016-19.602-9.04-25.337C.583 773.047-.002 671.203.027 456.309c.029-344.005-.527-325.925 10.62-348.57C17.61 93.637 32.824 76.668 46.37 67.891c5.734-3.686 16.794-8.865 24.576-11.527l14.19-4.798 505.095-.995-.878 4.886c-2.707 14.234-4.291 21.509-5.948 28.756l1.384-7.193c-2.113 9.523-3.834 21.072-4.794 32.836l-.063.956-1.17 17.115H338.473c-264.514 0-248.891-.673-255.912 10.854-3.511 5.764-3.569 8.221-3.569 235.344v229.522h767.122V392.996h7.519c10.445 0 34.904-3.16 49.532-6.407 6.758-1.521 14.482-3.131 17.174-3.628l4.857-.907-.497 199.007c-.468 187.597-.702 199.563-3.716 208.662-8.748 26.156-26.975 48.274-49.591 60.094-21.211 11.088-27.18 11.82-97.514 11.849l-62.552.029-.644 34.728c-.585 33.148-.819 35.109-5.091 43.418-2.943 5.897-7.399 10.663-12.866 13.901l-.153.084-8.543 5.296-75.893 1.053-9.567-5.003c-7.022-3.657-10.971-7.256-14.863-13.546l-5.296-8.543-.585-35.694-.614-35.694H345.816v35.167c0 38.268-.819 42.481-9.86 51.551-10.445 10.445-15.448 11.498-55.208 11.557-35.957.029-36.162 0-45.641-4.798zm49.123-416.33l-5.12-5.149v-76.01l5.12-5.149 5.149-5.12h77.765l5.149 5.12 5.12 5.149v76.01l-5.12 5.149-5.149 5.12h-77.765l-5.149-5.12zm134.905 0l-5.734-5.12v-76.069l11.469-10.24h38.502c38.151 0 38.532.029 43.418 4.242l4.915 4.242v79.579l-4.915 4.242c-4.886 4.213-5.266 4.242-43.418 4.242h-38.502l-5.734-5.12zm137.07 2.458c-7.227-3.95-8.514-10.767-8.514-45.612 0-35.255 1.258-41.75 8.894-45.7 7.109-3.686 75.045-3.745 82.125-.059 8.133 4.184 9.04 8.806 9.04 45.758s-.907 41.574-9.04 45.758c-6.992 3.628-75.776 3.511-82.505-.146zm132.447-1.58l-4.915-4.242V455.9l4.915-4.242c4.886-4.213 5.266-4.242 43.418-4.242h38.502l11.469 10.24v76.069l-11.469 10.24h-38.502c-38.151 0-38.532-.029-43.418-4.242zm-535.26-126.683c-8.689-4.301-9.45-8.046-9.45-47.309V329.86l10.24-11.469 33.938-.556c38.619-.614 44.091.029 49.942 5.851 4.155 4.155 4.184 4.476 4.184 42.13 0 23.815-.702 39.263-1.902 41.487-3.803 7.139-11.615 8.514-47.631 8.485-26.858-.029-34.992-.614-39.322-2.75zm135.08.234c-3.049-1.316-5.571-3.359-7.425-5.917l-.035-.051c-1.2-2.224-1.902-17.437-1.902-40.58 0-40.96.644-43.739 10.913-47.338 3.131-1.083 19.485-1.872 38.678-1.872 36.337 0 42.862 1.375 46.724 9.83 2.633 5.822 2.721 75.015.088 79.96-3.803 7.139-11.615 8.514-47.631 8.455-24.781-.059-35.343-.731-39.409-2.487zm134.583-.468c-9.04-4.593-10.328-10.445-10.328-46.139 0-50.235-.819-49.474 53.043-48.772l36.571.497 10.24 11.469v73.611l-10.24 11.469-36.571.497c-32.183.41-37.303.117-42.715-2.633zm136.046 1.404c-2.727-1.425-5.049-3.224-7.004-5.364l-.017-.019c-3.218-3.569-3.54-6.788-4.037-39.351-.322-21.445.176-37.303 1.258-40.17.995-2.633 4.389-6.378 7.578-8.338 5.354-3.306 8.163-3.511 43.008-3.072l37.274.497 4.857 4.857 4.857 4.886v77.063l-4.857 4.886-4.857 4.857-37.274.38c-20.509.205-38.853-.293-40.784-1.112zm253.659-95.788c-40.284-6.767-75.392-25.306-102.581-51.906l.034.034c-49.766-47.806-69.895-119.194-51.814-183.764 9.918-35.46 25.659-61.528 52.78-87.45 16.208-15.477 27.092-23.376 44.559-32.329 28.555-14.599 56.261-21.153 89.468-21.153 43.242 0 82.183 12.522 114.951 37.01 60.036 44.793 88.093 114.191 75.396 186.397-9.86 56.144-49.737 108.573-102.956 135.344-35.255 17.759-80.574 24.488-119.837 17.818zm-663.786-37.742l-5.237-5.208.556-38.619c.702-51.024-3.95-46.431 48.011-47.133l39.497-.527 10.445 10.445v77.18l-10.796 9.099h-77.239l-5.237-5.237zm135.256.117l-5.12-5.149v-76.01l5.12-5.149 5.149-5.12h77.765l5.149 5.12 5.12 5.149v76.01l-5.12 5.149-5.149 5.12h-77.765l-5.149-5.12zm137.714 3.072c-7.665-3.716-8.543-8.514-8.543-47.514v-36.747l11.469-10.24h36.718c20.187 0 38.707.761 41.136 1.668 9.04 3.452 10.094 9.04 9.509 49.503l-.527 36.923-4.915 4.213c-4.886 4.213-5.208 4.242-43.008 4.125-22.382-.059-39.643-.878-41.838-1.931zm507.582-82.973c11.176-4.681 16.384-19.602 10.62-30.486-2.721-5.149-104.477-105.209-110.504-108.69-3.181-1.387-6.888-2.195-10.783-2.195h-.137.007c-9.626-.088-15.214 4.242-45.904 35.489-24.635 25.132-25.015 25.629-25.015 33.324 0 15.214 12.844 26.097 27.56 23.347 5.296-.995 10.328-4.886 25.073-19.397l18.461-18.11 43.008 42.072c23.64 23.142 45.378 43.184 48.274 44.559 6.788 3.189 11.82 3.218 19.339.088z"/><glyph unicode="" glyph-name="trank" horiz-adv-x="979" d="M712.348 692.87c-26.713 0-44.522 17.809-44.522 44.522 0 13.357-4.452 26.713-13.357 35.617-4.452 4.452-8.904 8.904-22.261 8.904-8.904 0-13.357-4.452-22.261-8.904-17.809-17.809-44.522-22.261-62.33-4.452s-22.261 44.522-4.452 62.33c22.261 26.713 53.426 40.07 89.043 40.07s66.783-13.357 89.043-40.07c22.261-26.713 35.617-57.878 35.617-93.496 0-26.713-17.809-44.522-44.522-44.522zm-133.565 89.043c-17.809 0-40.07 13.357-44.522 35.617s-17.809 40.07-40.07 48.974c-17.809 8.904-40.07 8.904-57.878 0s-31.165-26.713-35.617-48.974c-8.904-22.261-35.617-35.617-57.878-31.165-22.261 8.904-35.617 35.617-31.165 57.878 13.357 44.522 44.522 84.591 89.043 102.4s93.496 17.809 133.565-4.452c44.522-17.809 75.687-57.878 89.043-106.852 4.452-22.261-8.904-48.974-31.165-53.426h-13.357zM222.609 692.87c-26.713 0-44.522 17.809-44.522 44.522 0 35.617 17.809 71.235 44.522 97.948 31.165 22.261 66.783 35.617 106.852 35.617 35.617 0 71.235-13.357 102.4-35.617 17.809-17.809 22.261-44.522 4.452-62.33s-44.522-22.261-62.33-4.452c-13.357 8.904-31.165 13.357-48.974 13.357-13.357 0-31.165-4.452-44.522-13.357-8.904-8.904-13.357-22.261-13.357-31.165 0-26.713-17.809-44.522-44.522-44.522zM654.47-64H284.94c-40.07 0-75.687 13.357-102.4 40.07s-44.522 62.33-44.522 97.948v543.165c-4.452 31.165 22.261 57.878 57.878 57.878h195.896c-4.452 8.904-4.452 22.261 0 31.165 8.904 26.713 31.165 35.617 57.878 26.713 8.904-4.452 66.783-26.713 89.043-97.948v-8.904c0-4.452 4.452-13.357 4.452-22.261 0-4.452 0-4.452 4.452-4.452 4.452-4.452 8.904-4.452 13.357-4.452 8.904 4.452 22.261 22.261 26.713 66.783 4.452 22.261 26.713 40.07 48.974 40.07 13.357 0 26.713-8.904 31.165-22.261h71.235c35.617 0 62.33-26.713 62.33-57.878v-40.07c31.165 0 62.33-13.357 89.043-35.617s40.07-57.878 40.07-89.043V296.628c0-35.617-13.357-66.783-40.07-89.043-22.261-22.261-53.426-35.617-89.043-35.617V82.925c0-35.617-17.809-75.687-44.522-97.948-26.713-35.617-62.33-48.974-102.4-48.974zM222.609 91.826V74.017c0-13.357 4.452-22.261 17.809-31.165 8.904-13.357 26.713-17.809 44.522-17.809h373.983c17.809 0 31.165 4.452 44.522 17.809 8.904 8.904 17.809 22.261 17.809 31.165v17.809H222.611zm298.295 89.044h57.878v253.774c0 26.713 17.809 44.522 44.522 44.522s44.522-17.809 44.522-44.522V180.87H716.8v405.148h-53.426c-13.357-31.165-26.713-57.878-48.974-71.235-17.809-13.357-44.522-17.809-66.783-13.357s-44.522 13.357-57.878 26.713c-17.809 13.357-26.713 35.617-31.165 53.426H222.609v-409.6h53.426v253.774c0 26.713 17.809 44.522 44.522 44.522s44.522-17.809 44.522-44.522V171.965h66.783v253.774c0 26.713 17.809 44.522 44.522 44.522s44.522-17.809 44.522-44.522v-244.87zm284.939 307.2V256.557c8.904 0 22.261 4.452 26.713 13.357 8.904 4.452 13.357 13.357 13.357 22.261v160.278c0 8.904-4.452 17.809-13.357 22.261-4.452 4.452-17.809 8.904-26.713 13.357zm-62.33 97.947z"/><glyph unicode="" glyph-name="music" horiz-adv-x="791" d="M283.927-22.109c-18.618 0-32.582 0-51.2 4.655C130.327 1.164 51.2 70.982 18.618 168.728 4.654 210.619 4.654 247.855 0 285.092v214.109c0 79.127 37.236 153.6 102.4 190.836 37.236 23.273 79.127 37.236 121.018 32.582 69.818-4.655 130.327-46.545 162.909-111.709 9.309-23.273 13.964-51.2 13.964-79.127v-13.964h74.473v37.236C470.109 666.764 390.982 755.2 297.891 755.2c-27.927 0-46.545 18.618-46.545 46.545v69.818c0 27.927 18.618 46.545 46.545 46.545h442.182c13.964 0 23.273-4.655 32.582-13.964 13.964-9.309 18.618-18.618 18.618-32.582v-69.818c0-27.927-18.618-46.545-46.545-46.545-93.091 0-172.218-88.436-176.873-200.145v-41.891h153.6c27.927 0 46.545-18.618 46.545-46.545s-18.618-46.545-46.545-46.545h-153.6V247.855c0-88.436-41.891-167.564-116.364-218.764-46.545-32.582-107.055-51.2-167.564-51.2zm-74.472 651.636c-18.618 0-37.236-4.655-55.855-18.618-37.236-23.273-60.509-65.164-60.509-111.709v-41.891c0-51.2 0-107.055 4.655-158.255v-9.309c0-32.582 0-60.509 9.309-88.436 23.273-69.818 79.127-116.364 144.291-125.673 51.2-9.309 102.4 4.655 148.945 32.582C446.836 140.8 474.764 192 474.764 252.509v172.218h-74.473v-153.6c0-27.927-9.309-51.2-27.927-69.818-23.273-27.927-55.855-41.891-93.091-41.891h-9.309c-46.545 0-83.782 23.273-102.4 60.509-9.309 13.964-13.964 32.582-13.964 51.2v139.636c0 41.891 23.273 79.127 65.164 97.745 13.964 4.655 27.927 9.309 41.891 9.309h41.891v13.964c0 13.964-4.655 27.927-9.309 41.891-13.964 32.582-46.545 55.855-83.782 55.855 4.655 0 0 0 0 0zm60.509-204.8h-4.655c-4.655 0-9.309-9.309-9.309-13.964V261.818c4.655-9.309 9.309-9.309 18.618-9.309h9.309c9.309 0 18.618 4.655 23.273 9.309 0 0 4.655 4.655 4.655 9.309v153.6h-41.891zm134.981 400.291c46.545-23.273 88.436-60.509 116.364-107.055 27.927 46.545 69.818 83.782 116.364 107.055H404.946z"/><glyph unicode="" glyph-name="image" d="M800.582-17.455H214.109c-32.582 0-65.164 9.309-93.091 23.273C74.473 38.4 46.545 84.945 46.545 140.8v614.401c0 74.473 46.545 134.982 121.018 158.255h646.982c74.473 0 134.982-41.891 158.255-111.709 4.655-13.964 9.309-32.582 9.309-46.545V150.111c0-83.782-65.164-153.6-148.945-162.909-13.964-4.655-23.273-4.655-32.582-4.655zM139.636 182.691V140.8c0-13.964 4.655-37.236 32.582-55.855 13.964-4.655 27.927-9.309 41.891-9.309H819.2c37.236 4.655 65.164 32.582 65.164 69.818v297.891c-23.273-27.927-51.2-55.855-79.127-83.782-60.509-60.509-121.018-125.673-167.564-167.564l-9.309-9.309c-27.927-23.273-60.509-23.273-88.436 0l-9.309 9.309-158.255 153.6c-32.582-23.273-74.473-51.2-111.709-79.127-41.891-27.927-88.436-60.509-121.018-83.782zm237.382 269.964c13.964 0 27.927-4.655 41.891-18.618l162.909-162.909c46.545 46.545 97.745 102.4 153.6 158.255 51.2 55.855 107.055 107.055 148.945 148.945v172.218c0 4.655 0 13.964-4.655 18.618-9.309 32.582-32.582 51.2-69.818 51.2H209.453c-4.655 0-13.964 0-18.618-4.655-32.582-4.655-51.2-32.582-51.2-65.164v-460.8c23.273 13.964 41.891 32.582 65.164 46.545 46.545 32.582 97.745 69.818 134.982 93.091 9.309 13.964 23.273 23.273 37.236 23.273zm274.618 41.89c-13.964 0-27.927 0-41.891 4.655-41.891 13.964-74.473 41.891-88.436 83.782-13.964 37.236-9.309 79.127 9.309 116.364s55.855 60.509 93.091 69.818c37.236 9.309 74.473 0 107.055-23.273s51.2-55.855 55.855-93.091c9.309-55.855-9.309-102.4-55.855-134.982-23.273-13.964-51.2-23.273-79.127-23.273zm0 186.182h-9.309c-13.964-4.655-23.273-9.309-32.582-23.273-4.655-13.964-4.655-27.927 0-41.891s13.964-23.273 32.582-27.927c9.309 0 23.273 0 37.236 9.309s23.273 27.927 18.618 46.545c0 13.964-9.309 23.273-18.618 32.582-9.309 0-18.618 4.655-27.927 4.655z"/><glyph unicode="" glyph-name="location" d="M512-17.455c-18.618 0-32.582 4.655-46.545 18.618l-13.964 13.964c-41.891 55.855-83.782 102.4-116.364 144.291l-4.655 4.655c-125.673 153.6-190.836 237.382-190.836 372.364 0 97.745 37.236 195.491 107.055 265.309C321.164 876.219 414.255 913.455 512 913.455s195.491-37.236 265.309-111.709c69.818-69.818 107.055-167.564 107.055-265.309 0-134.982-65.164-214.109-195.491-377.018-37.236-46.545-74.473-93.091-121.018-148.945-13.964-13.964-27.927-23.273-51.2-27.927H512zM409.6 215.273C437.527 178.037 474.764 136.146 512 89.6c37.236 46.545 74.473 93.091 102.4 130.327 125.673 153.6 176.873 218.764 176.873 321.164 0 74.473-27.927 148.945-83.782 200.145-51.2 51.2-121.018 79.127-195.491 79.127s-144.291-27.927-195.491-83.782c-55.855-51.2-83.782-125.673-83.782-200.145 0-102.4 51.2-167.564 176.873-321.164zM512 354.909c-51.2 0-97.745 18.618-130.327 55.855-37.236 32.582-55.855 79.127-55.855 130.327s18.618 97.745 55.855 130.327C414.255 708.654 460.8 727.273 512 727.273s97.745-18.618 130.327-55.855c37.236-32.582 55.855-79.127 55.855-130.327s-18.618-97.745-55.855-130.327C609.745 373.528 563.2 354.909 512 354.909zm-65.164 121.018c37.236-37.236 97.745-37.236 130.327 0 18.618 18.618 27.927 41.891 27.927 65.164s-9.309 46.545-27.927 65.164c-37.236 37.236-97.745 37.236-130.327 0-18.618-18.618-27.927-41.891-27.927-65.164s9.309-46.545 27.927-65.164z"/><glyph unicode="" glyph-name="time" d="M512-58.88c-281.6 0-512 230.4-512 512C0 729.6 230.4 960 512 960s512-230.4 512-512c-5.12-281.6-230.4-506.88-512-506.88zm0 916.48c-225.28 0-409.6-184.32-409.6-409.6S286.72 38.4 512 38.4 921.6 222.72 921.6 448 737.28 857.6 512 857.6zM512-64C230.4-64 0 166.4 0 448s230.4 512 512 512 512-230.4 512-512S793.6-64 512-64zm0 916.48c-225.28 0-409.6-184.32-409.6-409.6S286.72 33.28 512 33.28s409.6 184.32 409.6 409.6-184.32 409.6-409.6 409.6zm0-517.12c-30.72 0-51.2 20.48-51.2 51.2v312.32c0 30.72 20.48 51.2 51.2 51.2s51.2-20.48 51.2-51.2V386.56c0-25.6-25.6-51.2-51.2-51.2zm0 0c-10.24 0-20.48 5.12-30.72 10.24-25.6 15.36-30.72 46.08-15.36 71.68l102.4 153.6c15.36 25.6 46.08 30.72 71.68 15.36s30.72-46.08 15.36-71.68l-102.4-153.6c-10.24-15.36-25.6-25.6-40.96-25.6z"/><glyph unicode="" glyph-name="table" horiz-adv-x="1408" d="M1331.2 768H76.8c-38.4 0-64 25.6-64 64s25.6 64 64 64h1254.4c38.4 0 64-25.6 64-64s-25.6-64-64-64zM1190.4 0c-32 0-57.6 19.2-64 51.2l-140.8 768c-6.4 32 19.2 70.4 51.2 76.8s70.4-19.2 76.8-51.2l140.8-768c6.4-32-19.2-70.4-51.2-76.8h-12.8zM217.6 0h-12.8c-32 6.4-57.6 38.4-51.2 76.8l140.8 768c6.4 32 38.4 57.6 70.4 51.2s57.6-38.4 51.2-76.8l-140.8-768c0-32-32-51.2-57.6-51.2z"/><glyph unicode="" glyph-name="menu" d="M302.545 489.891c-41.891 0-83.782 23.273-111.709 60.509-32.582 37.236-46.545 93.091-46.545 148.945s18.618 111.709 46.545 148.945c60.509 79.127 167.564 79.127 228.073 0 32.582-37.236 46.545-93.091 46.545-148.945S446.836 587.636 418.909 550.4c-37.236-37.236-74.473-60.509-116.364-60.509zm0 330.473c-13.964 0-27.927-9.309-41.891-23.273-18.618-23.273-27.927-60.509-27.927-93.091s9.309-69.818 27.927-93.091c9.309-9.309 23.273-23.273 41.891-23.273s32.582 13.964 41.891 23.273c18.618 23.273 27.927 55.855 27.927 93.091s-13.964 69.818-32.582 93.091c-9.309 9.309-23.273 23.273-37.236 23.273zm418.91-330.473c-13.964 0-32.582 0-51.2 9.309-18.618 4.655-51.2 18.618-79.127 51.2s-32.582 69.818-32.582 83.782c0 46.545 0 111.709 4.655 232.727 0 27.927 23.273 46.545 46.545 46.545 27.927 0 46.545-23.273 46.545-46.545-4.655-121.018 0-181.527 0-228.073 0-9.309 0-23.273 9.309-32.582 13.964-13.964 27.927-18.618 32.582-18.618 23.273-4.655 41.891 0 51.2 0 23.273 9.309 41.891 27.927 41.891 46.545v232.727c0 27.927 18.618 46.545 46.545 46.545 23.273 0 46.545-18.618 46.545-46.545V634.181c0-65.164-41.891-116.364-107.055-139.636-13.964 0-32.582-4.655-55.855-4.655zm0 0c-27.927 0-46.545 18.618-46.545 46.545v330.473c0 27.927 18.618 46.545 46.545 46.545S768 894.836 768 866.909V536.436c0-23.273-18.618-46.545-46.545-46.545zM302.545-64C274.618-64 256-45.382 256-17.455v553.891c0 27.927 18.618 46.545 46.545 46.545s46.545-18.618 46.545-46.545V-17.455C349.09-45.382 325.817-64 302.545-64zm418.91 0c-27.927 0-46.545 18.618-46.545 46.545v553.891c0 27.927 18.618 46.545 46.545 46.545S768 564.363 768 536.436V-17.455C768-45.382 749.382-64 721.455-64z"/><glyph unicode="" glyph-name="personen" d="M335.127 396.8c-121.018 0-223.418 97.745-223.418 223.418s97.745 223.418 223.418 223.418 223.418-102.4 223.418-228.073S460.8 396.799 335.127 396.799zm0 349.091c-69.818 0-130.327-55.855-130.327-130.327s55.855-130.327 130.327-130.327 130.327 60.509 130.327 130.327-55.855 130.327-130.327 130.327zM595.782 33.745c-27.927 0-46.545 18.618-46.545 46.545v79.127c0 27.927-13.964 55.855-37.236 79.127s-55.855 32.582-93.091 32.582H251.346c-32.582 0-69.818-13.964-93.091-32.582-23.273-23.273-37.236-46.545-37.236-79.127V80.29c0-27.927-18.618-46.545-46.545-46.545S27.929 52.363 27.929 80.29v79.127c0 55.855 23.273 107.055 65.164 144.291s97.745 60.509 153.6 60.509h172.218c55.855 0 111.709-18.618 153.6-60.509 41.891-37.236 65.164-93.091 65.164-144.291V80.29c4.655-27.927-13.964-46.545-41.891-46.545zm158.254 484.073c-102.4 0-186.182 83.782-186.182 186.182s83.782 186.182 186.182 186.182S940.218 806.4 940.218 704s-83.782-186.182-186.182-186.182zm0 279.273c-51.2 0-93.091-41.891-93.091-93.091s41.891-93.091 93.091-93.091S847.127 652.8 847.127 704s-41.891 93.091-93.091 93.091zm204.8-563.2c-27.927 0-46.545 18.618-46.545 46.545v60.509c0 18.618-9.309 37.236-23.273 55.855-18.618 13.964-41.891 23.273-65.164 23.273H684.218c-23.273 0-51.2-9.309-65.164-23.273s-23.273-32.582-23.273-55.855v-60.509c0-27.927-18.618-46.545-46.545-46.545s-46.545 18.618-46.545 46.545v60.509c0 46.545 18.618 93.091 55.855 121.018 32.582 32.582 79.127 46.545 130.327 46.545h139.636c46.545 0 93.091-18.618 130.327-46.545 37.236-32.582 55.855-79.127 55.855-121.018v-60.509c-9.309-27.927-32.582-46.545-55.855-46.545z"/><glyph unicode="" glyph-name="service-1" d="M533.333-29.867c-17.067 0-34.133 8.533-38.4 25.6l-4.267 25.6V64c-51.2 4.267-98.133 12.8-140.8 34.133-59.733 29.867-106.667 76.8-136.533 136.533-21.333 38.4-34.133 81.067-42.667 128-4.267 17.067 0 34.133 12.8 46.933-4.267 17.067-4.267 34.133-4.267 55.467 0 38.4 4.267 72.533 17.067 110.933 4.267 17.067 12.8 29.867 21.333 46.933 4.267 12.8 12.8 21.333 25.6 25.6v25.6c4.267 64 29.867 115.2 76.8 157.867 12.8 12.8 29.867 17.067 46.933 17.067 21.333 38.4 51.2 72.533 93.867 102.4 21.333 12.8 46.933 17.067 68.267 4.267 42.667-21.333 76.8-55.467 102.4-93.867h25.6c8.533-4.267 17.067-8.533 25.6-17.067 29.867-29.867 51.2-64 68.267-102.4 8.533-21.333 12.8-46.933 12.8-68.267 12.8-4.267 21.333-12.8 29.867-25.6 12.8-21.333 21.333-42.667 29.867-68.267 12.8-34.133 17.067-68.267 17.067-106.667 0-12.8 0-21.333-4.267-34.133 12.8-12.8 17.067-29.867 17.067-46.933-4.267-46.933-12.8-89.6-29.867-128-12.8-29.867-29.867-55.467-51.2-81.067s-46.933-42.667-64-55.467c-38.4-25.6-76.8-38.4-123.733-46.933h-12.8V46.93l-38.4-17.067 42.667 8.533c8.533-21.333-4.267-51.2-25.6-55.467-8.533-12.8-12.8-12.8-17.067-12.8zM260.267 345.6c4.267-25.6 12.8-51.2 25.6-72.533 25.6-46.933 55.467-76.8 98.133-98.133 29.867-17.067 68.267-25.6 106.667-25.6h38.4c12.8 0 25.6 4.267 38.4 4.267 34.133 4.267 64 17.067 93.867 34.133 21.333 12.8 34.133 25.6 42.667 38.4 17.067 17.067 29.867 38.4 38.4 59.733s17.067 42.667 21.333 68.267l-89.6-21.333h-8.533c-8.533-4.267-21.333-4.267-38.4-4.267-29.867 0-51.2 21.333-64 34.133l-4.267 4.267c-8.533 8.533-21.333 17.067-29.867 25.6l-38.4 4.267c-8.533-4.267-17.067-12.8-25.6-25.6s-17.067-21.333-25.6-29.867c-12.8-12.8-34.133-29.867-72.533-21.333h-8.533c-21.333 4.267-42.667 12.8-59.733 12.8-8.533 12.8-21.333 12.8-38.4 12.8zm-25.6 4.267zm29.866 81.066c17.067 0 34.133-4.267 51.2-4.267 25.6-4.267 46.933-8.533 68.267-17.067l12.8 12.8c4.267 4.267 8.533 8.533 12.8 17.067-8.533 25.6-38.4 81.067-51.2 98.133-12.8 8.533-25.6 17.067-42.667 21.333-8.533 4.267-17.067 8.533-29.867 8.533-4.267-8.533-8.533-17.067-8.533-21.333-8.533-25.6-12.8-55.467-12.8-81.067v-34.133zM605.867 448l12.8-12.8 8.533-8.533 8.533-8.533s4.267 0 4.267 4.267c4.267 0 8.533 4.267 12.8 4.267l93.867 21.333c0 8.533 4.267 17.067 4.267 25.6 0 25.6-4.267 51.2-12.8 76.8-4.267 12.8-8.533 25.6-17.067 38.4-29.867-8.533-51.2-17.067-68.267-34.133-12.8-21.333-21.333-42.667-34.133-68.267 0-12.8-4.267-25.6-12.8-38.4zM435.2 576c17.067-25.6 38.4-59.733 46.933-89.6 17.067 4.267 34.133 4.267 46.933 0 4.267 12.8 12.8 21.333 12.8 29.867 8.533 21.333 21.333 42.667 34.133 64-17.067 34.133-42.667 64-76.8 89.6-4.267-8.533-17.067-21.333-29.867-34.133-12.8-17.067-25.6-38.4-34.133-59.733zm307.2 8.533zm-413.867 64c8.533-4.267 17.067-4.267 25.6-8.533 4.267-4.267 8.533-4.267 12.8-8.533 8.533 21.333 21.333 38.4 38.4 59.733s38.4 42.667 59.733 55.467c12.8 8.533 29.867 8.533 42.667 4.267 12.8 4.267 29.867 4.267 42.667-8.533 34.133-25.6 68.267-59.733 93.867-98.133 12.8 4.267 21.333 12.8 34.133 17.067 0 17.067-4.267 34.133-8.533 51.2-8.533 21.333-17.067 42.667-34.133 59.733-8.533-4.267-21.333-4.267-34.133-4.267-12.8 4.267-21.333 12.8-29.867 21.333l-8.533 12.8c-17.067 29.867-38.4 55.467-68.267 72.533-34.133-25.6-55.467-51.2-68.267-85.333 0-17.067-8.533-25.6-21.333-34.133-12.8-4.267-25.6-4.267-38.4 0h-4.267c-17.067-21.333-29.867-51.2-34.133-89.6v-17.067zm25.6 115.2zm268.8 17.067zm-140.8-115.2H473.6c-17.067 4.267-25.6 17.067-29.867 25.6-17.067 29.867-42.667 51.2-72.533 64h4.267c-21.333 8.533-34.133 34.133-25.6 55.467 4.267 21.333 29.867 34.133 51.2 25.6 4.267 0 8.533-4.267 12.8-4.267 34.133-17.067 64-42.667 89.6-76.8 4.267 4.267 4.267 8.533 8.533 8.533 21.333 25.6 46.933 51.2 81.067 72.533 21.333 12.8 46.933 4.267 59.733-12.8 12.8-21.333 4.267-46.933-12.8-59.733-25.6-17.067-46.933-29.867-59.733-51.2 0-4.267-4.267-4.267-4.267-8.533-4.267-4.267-4.267-8.533-8.533-17.067-4.267-12.8-17.067-21.333-29.867-25.6-8.533-4.267-21.333 0-29.867 4.267h-25.6zm59.734 81.067zm-166.4 8.533zm0 0z"/><glyph unicode="" glyph-name="check" horiz-adv-x="1280" d="M448 0c-12.8 0-38.4 0-51.2 12.8l-384 384C0 422.4 0 473.6 12.8 499.2s64 25.6 89.6 0l332.8-332.8L1152 883.2c25.6 25.6 64 25.6 89.6 0s25.6-64 0-89.6l-768-768C486.4 0 460.8 0 448 0z"/><glyph unicode="" glyph-name="cross" horiz-adv-x="922" d="M889.588-25.838c26.66 26.66 26.66 69.884 0 96.544L551.731 408.563l337.95 337.949c26.66 26.66 26.66 69.884 0 96.544s-69.884 26.66-96.544 0l-337.95-337.949-337.949 337.949c-26.66 26.66-69.884 26.66-96.544 0s-26.66-69.884 0-96.544l337.949-337.949L20.787 70.706c-26.66-26.66-26.66-69.884 0-96.544s69.884-26.66 96.543 0l337.857 337.857L793.044-25.838c26.66-26.66 69.884-26.66 96.544 0z"/><glyph unicode="" glyph-name="edit" horiz-adv-x="843" d="M89.664 50.423h675.535c26.648 0 48.254-21.6 48.254-48.248 0-26.654-21.606-48.254-48.254-48.254H89.664c-26.649 0-48.253 21.6-48.253 48.254 0 26.648 21.603 48.248 48.253 48.248zM41.412 291.689l482.511 482.524 144.773-144.758-482.527-482.523H41.412v144.757zM572.19 822.465l96.489 96.505 144.776-144.757-96.557-96.555-144.707 144.807z"/><glyph unicode="" glyph-name="bin" horiz-adv-x="808" d="M699.715 631.012c18.109-2.171 32.445-17.827 33.167-36.691V78.692c-.366-57.247-48.397-109.223-106.593-110.366-144.472-.922-288.981 0-433.451 0-56.464.366-107.489 49.696-107.851 110.366v515.629c.651 17.605 13.504 33.632 30.359 36.361 18.616 3.018 38.172-11.274 41.162-30.614.394-2.541.362-3.207.466-5.748 0-171.996-1.077-343.984 0-515.989.362-19.009 16.205-35.948 35.504-36.357 144.287-.922 288.59-.922 432.874 0 18.804.366 35.398 17.095 35.544 36.945v515.398c.684 17.721 13.431 33.632 30.359 36.361 5.368.888 6.694.403 8.461.329v.007zm-217.496-73.569c6.551-.592 8.319-1.291 11.775-2.763 11.775-5.007 20.529-16.799 21.967-29.872.217-1.842.177-2.286.25-4.128V226.078c-.25-8.435-1.334-11.199-3.569-15.985-10.626-22.506-46.201-27.777-61.795-5.303-4.284 6.193-6.446 13.743-6.663 21.288v294.601c.217 6.702.828 8.585 2.05 12.153 4.429 12.968 16.421 22.876 29.925 24.423 3.891.444 4.791.222 6.053.181l.007.007zm-142.528 0c6.519-.592 8.319-1.291 11.736-2.763 11.775-4.974 20.56-16.799 21.999-29.872.177-1.842.177-2.286.217-4.128V226.078c-.217-8.435-1.334-11.199-3.569-15.985-10.626-22.506-46.201-27.777-61.794-5.303-4.284 6.193-6.406 13.743-6.623 21.288v294.601c.177 6.702.795 8.585 2.017 12.153 4.429 12.968 16.421 22.876 29.958 24.423 3.89.444 4.79.222 6.052.181l.008.007zM228.963 778.43v110.441c.177 6.743.795 8.584 2.017 12.194 4.429 12.968 16.421 22.844 29.958 24.423 1.768.181 2.234.181 3.995.222h287.973c.684-.033 1.337-.033 2.016-.074 6.554-.551 8.354-1.291 11.776-2.73 11.808-5.008 20.529-16.799 21.967-29.915.221-1.809.178-2.286.253-4.128V778.422l183.107-.148c2.732-.37 3.455-.37 6.155-1.102 26.759-7.335 35.36-51.721 8.682-67.485-4.969-2.911-7.739-4.457-18.006-4.901H48.997c-2.773.107-3.496.033-6.27.551-28.196 5.082-39.643 51.647-11.735 68.151 5.008 2.943 7.781 4.457 18.005 4.934l179.965.008zm287.932 0v73.643H300.941V778.43h215.954z"/><glyph unicode="" glyph-name="preload" horiz-adv-x="3328" d="M1558.999 67c212.078 0 384 171.922 384 384s-171.922 384-384 384c-212.076 0-384-171.922-384-384s171.924-384 384-384zm1151.99 0c212.096 0 384 171.922 384 384s-171.904 384-384 384c-212.065 0-383.99-171.922-383.99-384s171.924-384 383.99-384zm-2303.99 0c212.078 0 384 171.922 384 384s-171.922 384-384 384C194.923 835 23 663.078 23 451S194.923 67 406.999 67z"/><glyph unicode="" glyph-name="card" horiz-adv-x="1502" d="M1297.067-64H204.8C88.747-64 0 24.747 0 140.8v614.4C0 871.253 88.747 960 204.8 960h1092.267c116.053 0 204.8-88.747 204.8-204.8V140.8c0-116.053-88.747-204.8-204.8-204.8zM204.8 823.467c-40.96 0-68.267-27.307-68.267-68.267V140.8c0-40.96 27.307-68.267 68.267-68.267h1092.267c40.96 0 68.267 27.307 68.267 68.267v614.4c0 40.96-27.307 68.267-68.267 68.267H204.8zM68.267 686.933H1433.6v-204.8H68.267v204.8z"/><glyph unicode="" glyph-name="lang" d="M1001.667 594.286c-7.286 25.6-18.212 51.2-29.138 73.143-76.493 157.257-225.833 266.972-400.666 288.915l-18.212 3.657h-80.136l-21.855-3.657c-174.836-18.286-324.176-128-400.667-288.915-10.927-21.943-21.855-47.543-29.139-73.143-29.139-95.086-29.139-197.486 0-292.569 7.285-25.6 18.212-51.2 29.139-73.144C127.484 71.317 276.824-38.399 451.66-60.343l21.855-3.656h80.136l21.852 3.656C750.341-38.399 899.681 71.318 976.169 228.573c10.931 21.944 21.857 47.544 29.143 73.144 25.492 98.739 25.492 197.484-3.645 292.569zm-109.271 73.142H702.987c-18.212 73.143-47.35 142.629-87.414 208.457 116.557-29.257 214.902-102.4 276.823-208.457zM659.277 448c0-47.544-3.64-98.744-14.566-146.284H378.813c-18.212 95.084-18.212 197.484 0 292.569h265.898c10.926-47.543 14.566-98.743 14.566-146.286zm-29.138-219.428c-21.852-80.456-58.276-153.6-109.271-219.428H509.94c-50.994 65.828-87.418 138.972-109.273 219.428h229.472zM397.024 667.428c21.855 80.457 58.279 153.6 109.273 219.429h10.925c50.995-65.829 87.419-138.972 109.276-219.429H397.024zm14.57 208.458c-40.067-65.828-69.206-135.314-87.418-208.457H134.77c61.921 106.057 160.267 179.2 276.825 208.457zM76.491 448c0 51.2 7.285 98.743 25.497 146.286h207.619c-18.212-95.086-18.212-197.486 0-292.569H101.988c-18.212 47.539-25.497 95.084-25.497 146.284zm58.279-219.428h189.406c18.212-73.144 47.352-142.628 87.418-208.456-116.558 29.256-214.903 102.4-276.825 208.456zM615.572 20.116c40.064 65.828 69.202 135.311 87.414 208.456h189.409c-61.921-106.056-160.266-179.2-276.823-208.456zm105.626 281.6c7.286 47.539 10.931 98.739 10.931 146.284 0 47.543-3.645 98.743-10.931 146.286h203.981c32.778-95.086 32.778-197.486 0-292.569H721.198z"/><glyph unicode="" glyph-name="lock" horiz-adv-x="745" d="M437.527-40.727H83.782C27.927-40.727 0-17.454 0 38.4v456.145c0 55.855 23.273 79.127 79.127 79.127h558.545c55.855 0 79.127-23.273 79.127-79.127v-460.8c0-51.2-23.273-74.473-79.127-74.473H437.527zM670.255 38.4zM358.4 52.364h260.655v423.564H93.091V52.364H358.4zm204.8 428.218c-27.927 0-46.545 23.273-46.545 46.545V704c0 69.818-41.891 130.327-107.055 153.6-13.964 4.655-32.582 9.309-51.2 9.309s-41.891-4.655-65.164-13.964c-55.855-23.273-97.745-83.782-97.745-148.945V522.473c0-27.927-18.618-46.545-46.545-46.545s-46.545 18.618-46.545 46.545V704c0 102.4 60.509 195.491 153.6 237.382C293.237 955.346 330.474 960 363.056 960c27.927 0 55.855-9.309 83.782-18.618 102.4-37.236 167.564-134.982 167.564-242.036V522.473c-4.655-23.273-23.273-41.891-51.2-41.891zM432.873 345.6c-13.964 32.582-37.236 46.545-69.818 46.545s-60.509-13.964-74.473-41.891c-13.964-27.927-13.964-55.855 4.655-79.127 13.964-18.618 18.618-37.236 18.618-55.855v-27.927c0-27.927 18.618-46.545 46.545-46.545s46.545 18.618 46.545 46.545v51.2c0 9.309 4.655 18.618 9.309 27.927 23.273 23.273 32.582 51.2 18.618 79.127z"/><glyph unicode="" glyph-name="chevrone-right" horiz-adv-x="614" d="M143.36-2.56c-10.24 0-30.72 0-40.96 10.24-20.48 20.48-20.48 51.2 0 71.68L471.04 448l-358.4 368.64c-20.48 20.48-20.48 51.2 0 71.68s51.2 20.48 71.68 0l399.36-399.36c20.48-20.48 20.48-51.2 0-71.68L184.32 7.68C174.08-2.56 153.6-2.56 143.36-2.56z"/><glyph unicode="" glyph-name="facebook-01" horiz-adv-x="605" d="M523.469 384l25.809 185.6H375.063v121.6c0 51.2 25.81 102.4 103.238 102.4h83.884v153.6S491.208 960 420.23 960c-154.859 0-251.646-89.6-251.646-249.6V569.6H7.272V384h161.312V-64H368.61v448h154.858z"/><glyph unicode="" glyph-name="linkedin" horiz-adv-x="977" d="M368.865 601.6h178.523v-96C571.191 563.2 636.653 608 737.815 608c190.427 0 232.08-108.8 232.08-307.2V-64H779.468v320c0 115.2-23.803 179.2-89.26 179.2-89.26 0-124.965-70.4-124.965-179.2V-64H374.816v665.6h-5.951zM41.572-57.6h190.425v672H41.572v-672zM261.752 832c0-19.2-5.951-32-11.902-51.2-5.951-12.8-17.853-32-23.803-44.8-23.803-25.6-53.557-38.4-89.262-38.4-29.754 0-65.459 12.8-89.262 38.4-11.902 12.8-17.852 25.6-23.803 44.8-5.951 12.8-11.902 32-11.902 51.2 0 32 11.901 70.4 35.705 89.6 23.803 25.6 59.508 38.4 89.262 38.4s65.459-12.8 89.262-38.4C243.9 896 261.752 864 261.752 832z"/><glyph unicode="" glyph-name="twitter" horiz-adv-x="1210" d="M1182.548 842.02c-41.57-19.277-89.074-32.128-136.583-38.554 47.509 32.128 89.079 83.534 106.892 141.365-47.509-32.128-100.952-51.405-154.401-64.257-35.631 38.554-83.139 70.682-136.583 77.108-53.448 6.426-106.896 0-154.405-25.703-47.504-25.703-83.135-70.683-106.892-122.088-23.752-51.405-29.691-109.237-17.813-167.067-95.018 6.426-190.033 32.128-273.172 77.108-83.139 51.405-154.401 115.662-219.724 199.196-17.816-38.554-29.693-83.534-29.693-128.513s11.877-83.534 29.693-122.088c17.815-38.554 47.508-70.682 77.2-96.385-35.631 0-77.2 12.851-106.893 32.128v-6.426c0-57.831 17.816-115.662 53.447-167.067 35.631-44.982 83.139-77.107 136.585-89.958-35.631-12.856-71.262-12.856-106.893-6.428 17.816-51.405 47.508-96.386 83.139-128.512 41.57-32.13 89.077-51.405 136.585-51.405C279.898 83.79 173.005 45.236 66.112 45.236c-17.815 0-35.631 0-59.385 6.423C113.62-25.448 244.267-64.002 374.914-64.002c439.45 0 682.929 398.392 682.929 738.953v32.128c47.504 38.554 89.074 83.534 124.705 134.939z"/><glyph unicode="" glyph-name="password" d="M512 320c70.692 0 128 57.308 128 128s-57.308 128-128 128c-70.692 0-128-57.308-128-128s57.308-128 128-128zm469.722 162.8C928.8 564.64 860.141 634.16 783.181 683.86 698.042 738.9 604.041 768 511.36 768c-85.04 0-168.66-24.3-248.54-72.22-81.46-48.86-155.26-120.24-219.36-212.14a63.834 63.834 0 01-1.28-71.08C95 329.9 162.98 260.282 238.74 211.258 324.04 156 415.84 128 511.36 128c93.42 0 187.622 28.858 272.403 83.443 76.915 49.536 145.44 119.317 198.157 201.837a64.345 64.345 0 0110.086 34.789 64.362 64.362 0 01-10.285 34.731zM512.04 256a191.974 191.974 0 00-106.669 32.358 191.993 191.993 0 00-29.095 295.405 192.002 192.002 0 00209.239 41.621 191.974 191.974 0 0086.164-70.716 191.97 191.97 0 0032.358-106.669A192.19 192.19 0 00647.736 312.3a192.211 192.211 0 00-135.697-56.301z"/><glyph unicode="" glyph-name="phone" horiz-adv-x="1088" d="M995.635 237.971L872.262 361.015c-24.365 25.208-53.805 38.431-85.011 38.431-31.002 0-60.653-13.224-85.741-38.122l-64.277-64.052a731.57 731.57 0 01-9.227 4.646c-7.569 3.725-14.826 7.443-21.047 11.366-65.21 41.22-124.614 95.252-181.739 164.985-25.192 31.716-42.611 58.369-55.257 84.61 16.276 15.187 31.621 30.683 46.135 45.559 6.116 6.198 12.544 12.604 18.765 18.803 25.71 25.619 39.293 55.476 39.293 86.262 0 30.993-13.581 60.849-39.293 86.263l-61.27 61.055c-6.947 6.922-13.581 13.637-20.423 20.765l-.311.31c-13.374 13.74-27.784 28.306-42.195 41.633-24.467 23.865-53.703 36.469-84.598 36.469-30.688 0-60.233-12.707-85.426-36.675l-77.236-76.965c-31.206-30.786-48.831-68.39-52.459-111.78-4.147-51.654 5.287-106.202 29.651-171.39 36.7-99.382 91.959-191.325 173.86-289.366C313.672 155.633 433.509 62.148 570.476-4.085l.104-.102c52.977-24.998 123.89-54.342 202.373-59.398h.928c4.563-.211 9.229-.416 14.208-.416 56.294 0 101.702 19.424 138.714 59.405.621.723 1.453 1.549 2.278 2.682 10.368 12.294 22.189 23.866 34.835 35.955l2.906 2.784c11.814 11.264 21.146 20.563 29.44 29.139 24.781 25.722 37.843 55.578 37.734 86.464 0 30.995-13.267 60.544-38.355 85.542h-.006zM96.483 727.34c2.074 23.451 10.886 42.149 27.577 58.782l76.408 76.14c8.397 8.058 17.21 12.397 25.399 12.397 9.953 0 18.765-6.819 24.364-12.5l.622-.62c11.611-10.744 22.808-22.108 34.627-34.092l5.391-5.475c3.525-3.616 7.153-7.232 10.782-10.951 3.524-3.512 7.05-7.128 10.575-10.744l61.478-61.263c6.428-6.405 14.1-16.116 14.1-25.827s-7.672-19.422-14.1-25.828c-3.213-3.203-6.428-6.405-9.642-9.711-3.11-3.203-6.324-6.405-9.538-9.608l-4.354-4.339c-17.313-17.459-33.797-33.988-51.526-49.794l-1.763-1.756c-26.851-26.757-17.624-54.444-14.618-63.535.207-.723.415-1.24.622-1.86l.415-1.033c16.795-40.084 39.811-77.482 74.644-121.181l.104-.103c62.723-77.069 128.867-137.091 202.371-183.683 8.086-5.267 16.276-9.402 24.26-13.325 1.452-.723 3.006-1.446 4.458-2.272l.104-.109c7.569-3.718 14.826-7.437 21.047-11.36l1.866-1.037c.622-.307 1.244-.723 1.866-1.03 9.123-4.646 18.557-7.027 27.994-7.027 15.962 0 30.477 6.406 43.13 19.117l76.922 76.653c6.016 5.99 15.136 13.018 25.088 13.018 10.163 0 18.976-7.853 23.43-12.608l.205-.205 124.205-123.558c17.83-17.766 17.523-33.472-.832-52.48l-.205-.205c-8.71-9.299-17.933-18.182-26.643-26.554l-2.49-2.374c-13.894-13.427-28.198-27.27-41.574-43.181-20.32-21.696-43.437-31.302-74.957-31.302-2.899 0-6.221.205-9.536.416-64.384 4.128-125.03 29.44-170.749 51.136-125.86 60.742-236.058 146.694-327.395 255.59-75.371 90.396-125.962 174.385-159.449 264.377-19.801 53.1-27.784 96.076-24.675 134.922l-.008-.016z"/><glyph unicode="" glyph-name="email" horiz-adv-x="1489" d="M64.418 960c-13.23-.012-25.916-5.405-35.262-15-9.357-9.607-14.611-22.631-14.611-36.203V-12.809c0-13.573 5.253-26.596 14.611-36.203C38.502-58.61 51.188-64 64.418-64h1296.617c13.228 0 25.917 5.39 35.263 14.988 9.356 9.607 14.606 22.63 14.606 36.203v921.606c0 13.571-5.25 26.596-14.606 36.203-9.346 9.595-22.035 14.988-35.263 15H64.418zm136.618-102.407h1023.379L712.712 412.79 201.036 857.593zm-86.759-59.203l566.237-491.736c9.01-7.821 20.419-12.107 32.214-12.107s23.203 4.286 32.213 12.107l566.236 491.736V38.371H114.289V798.39h-.012z"/><glyph unicode="" glyph-name="subsc" horiz-adv-x="1144" d="M572.235-57.976H168.659c-42.165 0-84.329 18.071-114.447 48.188S6.024 56.471 6.024 104.659v686.682c0 42.165 18.071 84.329 48.188 114.447s72.282 48.188 114.447 48.188h403.576c42.165 0 84.329-18.071 114.447-48.188s48.188-72.282 48.188-114.447V676.894c0-24.094-18.071-48.188-48.188-48.188s-48.188 18.071-48.188 48.188v114.447c0 18.071-6.024 36.141-18.071 48.188S590.305 857.6 572.235 857.6H168.659c-18.071 6.024-36.141 0-48.188-12.047-18.071-12.047-24.094-30.118-24.094-54.212V98.635c0-18.071 6.024-36.141 18.071-48.188s30.118-18.071 48.188-18.071h403.576c18.071 0 36.141 6.024 48.188 18.071s18.071 30.118 18.071 48.188v114.447c0 24.094 18.071 48.188 48.188 48.188s48.188-18.071 48.188-48.188V98.635c0-42.165-18.071-84.329-48.188-114.447-24.094-24.094-66.259-42.165-108.424-42.165zm343.341 289.129c-12.047 0-24.094 6.024-30.118 12.047-18.071 18.071-18.071 48.188 0 66.259l96.376 96.376H283.105c-24.094 0-42.165 18.071-42.165 42.165s18.071 48.188 48.188 48.188h698.729l-96.376 96.376c-18.071 18.071-18.071 48.188 0 66.259s48.188 18.071 66.259 0l168.659-180.706c6.024-6.024 6.024-12.047 12.047-12.047 0-6.024 6.024-12.047 6.024-18.071s0-12.047-6.024-18.071c0-6.024-6.024-12.047-12.047-12.047L951.717 243.199c-12.047-12.047-24.094-12.047-36.141-12.047z"/></font>
</defs>
</svg>
