<?xml version="1.0" encoding="utf-8"?>
<!-- Generator: Adobe Illustrator 27.0.1, SVG Export Plug-In . SVG Version: 6.00 Build 0)  -->
<svg version="1.1" id="Layer_1" xmlns="http://www.w3.org/2000/svg" xmlns:xlink="http://www.w3.org/1999/xlink" x="0px" y="0px"
	 viewBox="0 0 22 22" style="enable-background:new 0 0 22 22;" xml:space="preserve">
<style type="text/css">
	.st0{clip-path:url(#SVGID_00000140716053383765066290000011439616172928227504_);}
	.st1{fill:#FFFFFF;}
</style>
<g>
	<defs>
		<rect id="SVGID_1_" width="22" height="22"/>
	</defs>
	<clipPath id="SVGID_00000085239460013184156660000017005868655572330422_">
		<use xlink:href="#SVGID_1_"  style="overflow:visible;"/>
	</clipPath>
	<g style="clip-path:url(#SVGID_00000085239460013184156660000017005868655572330422_);">
		<g>
			<path class="st1" d="M11,21.2c-5,0-9.1-4.1-9.1-9.2S6,2.8,11,2.8s9.1,4.1,9.1,9.2S16,21.2,11,21.2z M11,4.8C7.1,4.8,3.9,8,3.9,12
				c0,4,3.2,7.2,7.1,7.2c3.9,0,7.1-3.2,7.1-7.2C18.1,8,14.9,4.8,11,4.8z"/>
		</g>
		<g>
			<path class="st1" d="M13,13.4h-2c-0.6,0-1-0.4-1-1V8.6c0-0.6,0.4-1,1-1s1,0.4,1,1v2.9h1c0.6,0,1,0.4,1,1C14,13,13.6,13.4,13,13.4
				z"/>
		</g>
		<g>
			<path class="st1" d="M1.9,4.8C1.5,4.8,1.2,4.6,1,4.3C0.7,3.8,0.9,3.2,1.3,2.9l3-1.9c0.5-0.3,1.1-0.2,1.4,0.3
				c0.3,0.5,0.2,1.1-0.3,1.4l-3,1.9C2.2,4.7,2.1,4.8,1.9,4.8z"/>
		</g>
		<g>
			<path class="st1" d="M20.1,4.8c-0.2,0-0.4-0.1-0.5-0.2l-3-1.9c-0.5-0.3-0.6-0.9-0.3-1.4c0.3-0.5,0.9-0.6,1.4-0.3l3,1.9
				c0.5,0.3,0.6,0.9,0.3,1.4C20.8,4.6,20.5,4.8,20.1,4.8z"/>
		</g>
	</g>
</g>
</svg>
