<svg width="41" height="41" viewBox="0 0 41 41" fill="none" xmlns="http://www.w3.org/2000/svg">
<path d="M20.5 41C31.8218 41 41 31.8218 41 20.5C41 9.17816 31.8218 0 20.5 0C9.17816 0 0 9.17816 0 20.5C0 31.8218 9.17816 41 20.5 41Z" fill="#E9EFF6"/>
<mask id="mask0_5526_145771" style="mask-type:luminance" maskUnits="userSpaceOnUse" x="0" y="0" width="41" height="41">
<path d="M20.5 41C31.8218 41 41 31.8218 41 20.5C41 9.17816 31.8218 0 20.5 0C9.17816 0 0 9.17816 0 20.5C0 31.8218 9.17816 41 20.5 41Z" fill="white"/>
</mask>
<g mask="url(#mask0_5526_145771)">
<path d="M0 49.3445L11.7453 43.508C11.7453 43.508 10.0088 42.4951 12.8547 42.0127C15.7006 41.5304 20.9341 40.4451 20.9341 40.4451L21.0788 38.5398L22.8153 39.5769L25.8541 39.4321L28.4588 37.5269L28.3382 39.818C28.3382 39.818 39.8182 37.5269 44.2559 39.0221C45.51 48.2833 48.1629 64.2251 48.1629 64.2251" fill="white"/>
<path d="M28.5547 79.4191L30.9423 39.3597L34.1017 38.8291L30.0741 79.4432" fill="#49422F"/>
<path d="M19.6809 81.0109L17.0762 40.9756L14.375 41.4579L18.4509 81.3968" fill="#49422F"/>
<path d="M28.2641 40.3003C27.9988 41.1926 27.6852 42.0368 27.3476 42.905C27.1788 43.3391 27.0099 43.7491 26.817 44.1591C26.6482 44.5691 26.4311 45.0032 26.2623 45.4132L26.0452 45.8232L25.8282 45.4615C25.5388 44.9791 25.2252 44.4726 24.9599 43.9662C24.6705 43.4597 24.4052 42.9532 24.1641 42.4226C24.5499 42.8568 24.8876 43.3391 25.2252 43.7974C25.5629 44.2556 25.9005 44.7379 26.2141 45.2203L25.8041 45.2444C25.997 44.8344 26.1658 44.4003 26.3588 43.9903C26.5517 43.5803 26.7447 43.1703 26.9376 42.7362C27.3476 41.9162 27.7817 41.0962 28.2641 40.3003Z" fill="#DDDDDD"/>
<path d="M14.2753 12.5892C14.2753 12.5892 12.9006 29.4474 12.997 35.6215C17.7964 35.8386 23.4641 35.8145 23.4641 35.8145L22.837 39.5768L22.7888 43.098L25.8759 39.408L26.4547 11.9621C26.4064 11.9621 17.2417 11.2386 14.2753 12.5892Z" fill="#FFCD97"/>
<path d="M24.2364 13.8436C24.2364 13.8436 21.6076 18.1124 18.424 19.1012C15.2164 20.0901 16.6875 18.016 18.3758 16.7377C12.0087 19.8489 8.48755 20.693 11.3334 18.4983C13.9381 16.5448 13.9381 16.5448 13.9381 16.5448C13.9381 16.5448 9.54872 17.2924 13.2146 14.133C17.2181 10.9012 20.9805 11.4318 20.9805 11.4318L26.4552 11.9383L27.3234 13.2889L26.6481 22.5501C26.624 22.5501 23.8746 21.3683 24.2364 13.8436Z" fill="#49422F"/>
<path d="M25.1328 23.3939C25.1328 23.3939 27.8099 20.0174 28.9434 22.7909C30.0769 25.5645 26.604 28.3139 25.3981 26.6498" fill="#FFCD97"/>
<path d="M18.2049 22.8394C17.7708 23.9246 17.2885 24.9858 16.782 26.047C16.5408 26.5776 16.2755 27.1082 16.0102 27.6147C15.745 28.1452 15.4797 28.6517 15.1902 29.1582L14.925 28.8205C15.6244 28.6276 16.3238 28.4347 17.0473 28.2417C17.7467 28.0729 18.4702 27.8799 19.1938 27.7594C18.5185 28.0488 17.8432 28.3141 17.1438 28.5552C16.4444 28.7964 15.7691 29.0376 15.0697 29.2788L14.5391 29.4476L14.8044 28.9411C15.0697 28.4105 15.335 27.9041 15.6002 27.3735C15.8655 26.867 16.1549 26.3364 16.4202 25.8299C16.9749 24.817 17.5538 23.8041 18.2049 22.8394Z" fill="#EAA968"/>
<path d="M22.7655 27.0117C22.6449 27.7835 22.4037 28.5311 22.1143 29.2305C21.8249 29.9541 21.439 30.6535 20.9325 31.2564C20.6672 31.5458 20.3778 31.8352 19.992 32.0523C19.6302 32.2452 19.1719 32.3658 18.7619 32.2935C18.3278 32.2211 17.9661 31.98 17.6767 31.7147C17.3872 31.4494 17.1461 31.1358 16.9531 30.7982C17.2425 31.0635 17.5078 31.3288 17.8214 31.5217C18.1349 31.7388 18.4725 31.8835 18.8102 31.9076C19.1478 31.9317 19.4855 31.8353 19.7749 31.6423C20.0643 31.4735 20.3296 31.2082 20.5708 30.9429C20.8119 30.6776 21.029 30.3641 21.222 30.0505C21.4149 29.737 21.6078 29.3994 21.7767 29.0617C22.1384 28.4105 22.452 27.7111 22.7655 27.0117Z" fill="#EAA968"/>
<path d="M27.7331 23.5629C27.6607 23.4182 27.5884 23.2976 27.4919 23.177C27.4437 23.1288 27.3954 23.0806 27.3472 23.0806C27.299 23.0565 27.2749 23.0806 27.2266 23.0806C27.1543 23.1288 27.0578 23.2253 26.9854 23.3459C26.9131 23.4665 26.8407 23.587 26.7925 23.7318C26.5513 24.2623 26.3343 24.8412 26.1172 25.3959L25.876 25.1065C26.0449 25.0823 26.1896 25.0582 26.4307 25.1306C26.479 25.1547 26.5513 25.1788 26.5996 25.2512C26.6478 25.3235 26.6719 25.42 26.6478 25.4682C26.6237 25.5888 26.5754 25.6612 26.5272 25.7335C26.4307 25.8782 26.3101 25.9747 26.1896 26.0953C26.069 26.1918 25.9484 26.2882 25.8037 26.3606C25.9001 26.24 25.9725 26.0953 26.0449 25.9747C26.1172 25.8541 26.1896 25.7094 26.2619 25.5888C26.286 25.5406 26.286 25.4682 26.286 25.4441C26.286 25.4441 26.286 25.4441 26.2619 25.4441C26.1896 25.4441 26.0449 25.4441 25.9002 25.4923L25.5625 25.5647L25.659 25.2029C25.7313 24.9135 25.8278 24.6 25.9484 24.3106C26.069 24.0212 26.1896 23.7318 26.3584 23.4665C26.4307 23.3218 26.5272 23.2012 26.6478 23.0565C26.7684 22.9359 26.889 22.7912 27.106 22.7429C27.2025 22.7188 27.3472 22.7429 27.4196 22.8153C27.516 22.8876 27.5643 22.96 27.5884 23.0323C27.6849 23.2494 27.709 23.4182 27.7331 23.5629Z" fill="#EAA968"/>
<path d="M20.4018 23.2733C20.45 23.7074 20.2571 24.0692 19.9918 24.0933C19.7265 24.1174 19.4853 23.7797 19.4371 23.3456C19.3889 22.9115 19.5818 22.5497 19.8471 22.5256C20.1124 22.5015 20.3536 22.8392 20.4018 23.2733Z" fill="#333333"/>
<path d="M17.3393 23.4906C17.3875 23.9247 17.1946 24.2864 16.9293 24.3106C16.664 24.3347 16.4228 23.997 16.3746 23.5629C16.3264 23.1288 16.5193 22.767 16.7846 22.7429C17.0499 22.7188 17.3152 23.0564 17.3393 23.4906Z" fill="#333333"/>
<path d="M19.1016 20.1622C19.1016 20.1622 20.9827 17.8469 22.1645 20.7169L19.1016 20.1622Z" fill="#49422F"/>
<path d="M17.7718 20.2345C17.7718 20.2345 15.4324 18.6186 15.3359 21.0304L17.7718 20.2345Z" fill="#49422F"/>
<path d="M12.6641 14.3017L17.367 7.13875C17.367 7.13875 24.8194 4.65463 28.1717 5.54698C28.6299 11.0699 27.7135 15.3387 27.7135 15.3387L12.6641 14.3017Z" fill="#3E664C"/>
<path d="M12.6641 14.3015L27.7135 15.3385C27.7135 15.3385 28.1717 13.1438 28.2682 9.8638C24.4817 9.83968 17.6082 10.6597 14.8105 11.0214L12.6641 14.3015Z" fill="#F9B74D"/>
<path d="M30.0299 16.8822C30.0299 16.8822 10.6876 14.8322 8.46875 14.7116C11.5799 14.0363 20.3588 14.3257 20.3588 14.3257C20.3588 14.3257 26.4846 10.5392 29.4993 11.7692C32.514 12.9992 30.0299 16.8822 30.0299 16.8822Z" fill="#3E664C"/>
</g>
</svg>
