<svg width="21" height="30" viewBox="0 0 21 30" fill="none" xmlns="http://www.w3.org/2000/svg">
<g clip-path="url(#clip0_3532_114327)">
<path opacity="0.5" d="M17.7466 16.4418V0.876465H14.7707V8.57913H8.06588V0.876465H5.09053V16.4418H2.05432V29.3607H8.92523L11.3526 21.8196L13.9354 29.3607H20.6739V16.4418H17.7466ZM8.06588 16.4418V11.2578H14.7707V16.4418H8.06588H8.06588Z" fill="#4090E7"/>
<path d="M7.01183 1.25098H4.11975V18.7519H7.01183V1.25098Z" stroke="#4090E7" stroke-width="0.5" stroke-linecap="round" stroke-linejoin="round"/>
<path d="M16.4207 1.25098H13.5286V18.7519H16.4207V1.25098Z" stroke="#4090E7" stroke-width="0.5" stroke-linecap="round" stroke-linejoin="round"/>
<path d="M13.4966 11.3408H7.06079" stroke="#4090E7" stroke-width="0.5" stroke-linecap="round" stroke-linejoin="round"/>
<path d="M7.01184 8.7373H13.4966" stroke="#4090E7" stroke-width="0.5" stroke-linecap="round" stroke-linejoin="round"/>
<path d="M16.4861 28.936H12.726L10.2152 21.6064L7.85614 28.936H7.72724H4.05444" stroke="#4090E7" stroke-width="0.5" stroke-linecap="round" stroke-linejoin="round"/>
<path d="M13.5287 16.3794H7.01196" stroke="#4090E7" stroke-width="0.5" stroke-linecap="round" stroke-linejoin="round"/>
<path d="M16.4206 16.3794H19.3192V28.9359H18.4451" stroke="#4090E7" stroke-width="0.5" stroke-linecap="round" stroke-linejoin="round"/>
<path d="M2.12414 28.9359H1.22144V16.3794H4.11955" stroke="#4090E7" stroke-width="0.5" stroke-linecap="round" stroke-linejoin="round"/>
<path d="M12.3513 1.25098V6.6681" stroke="black" stroke-width="0.5" stroke-linecap="round" stroke-linejoin="round"/>
</g>
<defs>
<clipPath id="clip0_3532_114327">
<rect width="19.8478" height="28.5087" fill="white" transform="translate(0.82605 0.852051)"/>
</clipPath>
</defs>
</svg>
