<svg width="15" height="19" viewBox="0 0 15 19" fill="none" xmlns="http://www.w3.org/2000/svg">
<path d="M12.983 6.10427C13.319 6.14455 13.585 6.43505 13.5984 6.78506V16.3524C13.5916 17.4146 12.7004 18.379 11.6206 18.4002C8.93997 18.4173 6.25865 18.4002 3.57805 18.4002C2.53037 18.3934 1.58362 17.4781 1.5769 16.3524V6.78506C1.58898 6.4584 1.82746 6.16102 2.14021 6.1104C2.48562 6.05441 2.84848 6.31958 2.90395 6.67843C2.91126 6.72557 2.91067 6.73793 2.9126 6.78508C2.9126 9.97642 2.89262 13.1676 2.9126 16.3591C2.91932 16.7118 3.21327 17.0261 3.57136 17.0337C6.24856 17.0508 8.92606 17.0508 11.6032 17.0337C11.9521 17.0269 12.26 16.7165 12.2627 16.3482V6.78516C12.2754 6.45636 12.5119 6.16112 12.826 6.1105C12.9256 6.09402 12.9502 6.10302 12.983 6.1044L12.983 6.10427ZM8.94742 7.46932C9.06897 7.48031 9.10178 7.49328 9.16591 7.52059C9.3844 7.6135 9.54681 7.83229 9.57351 8.07486C9.57754 8.10904 9.5768 8.11728 9.57814 8.15145V13.6177C9.57351 13.7742 9.55338 13.8255 9.51192 13.9143C9.31476 14.3319 8.65467 14.4297 8.36534 14.0127C8.28585 13.8978 8.24573 13.7577 8.24171 13.6177V8.15147C8.24573 8.02712 8.25707 7.99218 8.27974 7.92597C8.36191 7.68536 8.58443 7.50152 8.83498 7.47281C8.90717 7.46457 8.92387 7.46869 8.94729 7.46945L8.94742 7.46932V7.46932ZM6.30286 7.46932C6.42382 7.48031 6.45722 7.49328 6.52061 7.52059C6.7391 7.61289 6.9021 7.83229 6.92879 8.07486C6.93207 8.10904 6.93207 8.11728 6.93281 8.15145V13.6177C6.92879 13.7742 6.90806 13.8255 6.86659 13.9143C6.66943 14.3319 6.00934 14.4297 5.72002 14.0127C5.64053 13.8978 5.60115 13.7577 5.59713 13.6177V8.15147C5.60041 8.02712 5.61189 7.99218 5.63456 7.92597C5.71673 7.68536 5.93925 7.50152 6.19042 7.47281C6.2626 7.46457 6.2793 7.46869 6.30272 7.46945L6.30286 7.46932L6.30286 7.46932ZM4.24834 3.36897V1.31977C4.25162 1.19466 4.2631 1.16049 4.28577 1.09351C4.36795 0.852898 4.59046 0.669644 4.84163 0.64035C4.87444 0.636993 4.88309 0.636993 4.91575 0.63623H10.259C10.2717 0.636841 10.2838 0.636841 10.2964 0.637604C10.418 0.647826 10.4514 0.661558 10.5149 0.688259C10.734 0.781175 10.8958 0.999964 10.9225 1.24332C10.9266 1.27688 10.9258 1.28573 10.9272 1.31991V3.36911H14.2659L14.3247 3.37185C14.3754 3.37872 14.3888 3.37872 14.4389 3.3923C14.9354 3.52839 15.095 4.35196 14.6 4.64447C14.5078 4.69848 14.4564 4.72717 14.2659 4.7354H0.909148C0.857693 4.73342 0.844273 4.73479 0.792818 4.72518C0.269642 4.63089 0.0572477 3.76688 0.575076 3.46066C0.667989 3.40605 0.719441 3.37797 0.909148 3.36912H4.24854L4.24834 3.36897H4.24834ZM9.59082 3.36897V2.00255H5.58386V3.36897H9.59082V3.36897Z" fill="white"/>
</svg>
