<svg width="22" height="22" fill="none" xmlns="http://www.w3.org/2000/svg"><path d="M6.728.023c-.337.086-.488.192-.615.431-.073.136-.083.221-.099.848l-.019.696-.715.021c-.787.023-1 .062-1.455.272-.861.398-1.487 1.157-1.743 2.116l-.081.305-.013 6.49c-.013 6.772-.007 7.073.143 7.56.337 1.093 1.164 1.867 2.306 2.16.266.067.497.07 7.058.07 6.36 0 6.8-.004 7.058-.065a3.174 3.174 0 0 0 2.356-2.304l.083-.308v-6.802c0-6.57-.003-6.811-.07-7.076-.24-.943-.77-1.628-1.603-2.069-.512-.272-.744-.322-1.577-.342l-.721-.017-.018-.647c-.009-.356-.037-.71-.061-.787a.923.923 0 0 0-.172-.282c-.182-.201-.398-.275-.802-.273-.362.001-.561.073-.741.267-.182.197-.206.307-.222 1.042l-.015.688-3.489-.009-3.489-.01-.019-.696C7.975.623 7.972.601 7.874.433 7.708.15 7.488.035 7.077.016a1.998 1.998 0 0 0-.349.007M6.02 4.706l.012.708.111.18a.7.7 0 0 0 .325.289c.19.097.249.109.53.108.37-.003.6-.085.777-.278.177-.194.218-.401.218-1.1v-.616h7.004v.598c0 .731.045.923.27 1.149.177.176.369.242.72.247.343.004.573-.072.751-.25.213-.214.245-.346.266-1.097l.018-.655.555.014c.504.013.573.022.756.109.242.113.445.311.559.541.08.162.083.211.094 1.259l.01 1.091H3.992l.011-1.072c.012-1.029.015-1.08.096-1.256.148-.321.435-.56.768-.638A4.71 4.71 0 0 1 5.506 4l.502-.003.012.709m12.973 8.841c0 4.5 0 4.528-.076 4.731a1.171 1.171 0 0 1-.639.639l-.204.076h-6.579c-6.486 0-6.582-.001-6.775-.073a1.182 1.182 0 0 1-.609-.587l-.096-.201-.01-4.556-.01-4.556h14.998v4.527m-13.32-2.508a.802.802 0 0 0-.459.27c-.188.214-.202.31-.218 1.539-.019 1.442.012 1.652.284 1.918.225.22.357.236 1.802.224 1.431-.013 1.406-.009 1.671-.261.232-.219.249-.337.249-1.731 0-1.392-.017-1.509-.249-1.733-.249-.242-.277-.246-1.676-.253-.696-.004-1.328.008-1.404.027" fill-rule="evenodd" fill="#000"/></svg>