<?xml version="1.0" encoding="utf-8"?>
<!-- Generator: Adobe Illustrator 27.0.1, SVG Export Plug-In . SVG Version: 6.00 Build 0)  -->
<svg version="1.1" id="Layer_1" xmlns="http://www.w3.org/2000/svg" xmlns:xlink="http://www.w3.org/1999/xlink" x="0px" y="0px"
	 viewBox="0 0 22 15" style="enable-background:new 0 0 22 15;" xml:space="preserve">
<g>
	<path d="M19,15H3c-1.7,0-3-1.3-3-3V3c0-1.7,1.3-3,3-3h16c1.7,0,3,1.3,3,3v9C22,13.7,20.7,15,19,15z M3,2C2.4,2,2,2.4,2,3v9
		c0,0.6,0.4,1,1,1h16c0.6,0,1-0.4,1-1V3c0-0.6-0.4-1-1-1H3z"/>
</g>
<g>
	<rect x="1" y="4" width="20" height="3"/>
</g>
</svg>
