<svg width="9" height="10" viewBox="0 0 9 10" fill="none" xmlns="http://www.w3.org/2000/svg">
<path d="M8.68738 9.62732C8.94773 9.36697 8.94773 8.94486 8.68738 8.68451L5.388 5.38513L8.68829 2.08485C8.94864 1.8245 8.94864 1.40239 8.68829 1.14204C8.42794 0.881692 8.00583 0.881691 7.74548 1.14204L4.44519 4.44232L1.14491 1.14204C0.884558 0.88169 0.462448 0.88169 0.202098 1.14204C-0.0582515 1.40239 -0.0582514 1.8245 0.202098 2.08485L3.50238 5.38513L0.203003 8.68451C-0.0573462 8.94486 -0.0573458 9.36697 0.203004 9.62732C0.463353 9.88767 0.885464 9.88767 1.14581 9.62732L4.44519 6.32794L7.74457 9.62732C8.00492 9.88767 8.42703 9.88767 8.68738 9.62732Z" fill="white"/>
</svg>
