<svg width="14" height="17" viewBox="0 0 14 17" fill="none" xmlns="http://www.w3.org/2000/svg">
<path fill-rule="evenodd" clip-rule="evenodd" d="M1.48857 15.1004H12.7035C13.1459 15.1004 13.5046 15.459 13.5046 15.9014C13.5046 16.3439 13.1459 16.7025 12.7035 16.7025H1.48857C1.04615 16.7025 0.6875 16.3439 0.6875 15.9014C0.6875 15.459 1.04615 15.1004 1.48857 15.1004ZM0.6875 11.095C0.6875 11.095 3.35765 8.4248 8.69794 3.08435L11.1014 5.48756C5.76093 10.828 3.0907 13.4982 3.0907 13.4982C2.56514 13.4982 1.76408 13.4982 0.6875 13.4982C0.6875 12.3852 0.6875 11.5842 0.6875 11.095ZM9.49924 2.28329L11.1011 0.681152L13.5046 3.08435L11.9016 4.68731L9.49924 2.28329Z" fill="white"/>
</svg>
