<svg width="16" height="11" viewBox="0 0 16 11" fill="none" xmlns="http://www.w3.org/2000/svg">
<path d="M0.691995 0C0.549871 0.000128007 0.413598 0.0580581 0.313199 0.161135C0.212679 0.264336 0.15625 0.404242 0.15625 0.550033V10.4501C0.15625 10.5959 0.212676 10.7358 0.313199 10.839C0.413595 10.9421 0.549868 11 0.691995 11H14.6205C14.7626 11 14.8989 10.9421 14.9993 10.839C15.0998 10.7358 15.1562 10.5959 15.1562 10.4501V0.550033C15.1562 0.404246 15.0998 0.264339 14.9993 0.161135C14.8989 0.0580617 14.7626 0.000128007 14.6205 0H0.691995ZM2.15957 1.10007H13.1529L7.65609 5.87823L2.15957 1.10007ZM1.22758 1.73605L7.3102 7.01837C7.40699 7.10239 7.52955 7.14843 7.65625 7.14843C7.78294 7.14843 7.9055 7.10239 8.00229 7.01837L14.0849 1.73605V9.90032H1.22771V1.73605L1.22758 1.73605Z" fill="white"/>
</svg>
