<svg width="16" height="16" viewBox="0 0 16 16" fill="none" xmlns="http://www.w3.org/2000/svg">
<path fill-rule="evenodd" clip-rule="evenodd" d="M15.6801 8.18081C15.6801 7.61354 15.6292 7.06808 15.5346 6.54443H8V9.63901H12.3055C12.12 10.639 11.5564 11.4863 10.7091 12.0536V14.0609H13.2946C14.8073 12.6681 15.6801 10.6172 15.6801 8.18081Z" fill="white"/>
<path fill-rule="evenodd" clip-rule="evenodd" d="M7.99682 16.0001C10.1568 16.0001 11.9678 15.2837 13.2914 14.0619L10.7059 12.0546C9.98957 12.5346 9.0732 12.8182 7.99682 12.8182C5.91316 12.8182 4.14951 11.4109 3.52041 9.52002H0.847656V11.5928C2.16403 14.2073 4.86952 16.0001 7.99682 16.0001Z" fill="white"/>
<path fill-rule="evenodd" clip-rule="evenodd" d="M3.52367 9.52001C3.36367 9.04 3.27276 8.52727 3.27276 7.99999C3.27276 7.47271 3.36367 6.95998 3.52367 6.47998V4.40723H0.850918C0.309094 5.48724 0 6.70907 0 7.99999C0 9.29091 0.309094 10.5127 0.850918 11.5928L3.52367 9.52001Z" fill="white"/>
<path fill-rule="evenodd" clip-rule="evenodd" d="M7.99682 3.18136C9.17138 3.18136 10.2259 3.585 11.055 4.37774L13.3496 2.08317C11.9641 0.792247 10.1532 -0.000488281 7.99682 -0.000488281C4.86952 -0.000488281 2.16403 1.79226 0.847656 4.40683L3.52041 6.47958C4.14951 4.58865 5.91316 3.18136 7.99682 3.18136Z" fill="white"/>
</svg>
