<svg width="24" height="24" viewBox="0 0 24 24" fill="none" xmlns="http://www.w3.org/2000/svg">
<path fill-rule="evenodd" clip-rule="evenodd" d="M22.9306 12.7331C22.9306 11.9177 22.8574 11.1336 22.7215 10.3809H11.8906V14.8293H18.0797C17.8131 16.2668 17.0029 17.4847 15.7849 18.3002V21.1856H19.5015C21.6761 19.1836 22.9306 16.2354 22.9306 12.7331Z" fill="#4285F4"/>
<path fill-rule="evenodd" clip-rule="evenodd" d="M11.8862 23.9732C14.9912 23.9732 17.5944 22.9434 19.4971 21.1871L15.7805 18.3016C14.7507 18.9916 13.4335 19.3993 11.8862 19.3993C8.89097 19.3993 6.35574 17.3764 5.45142 14.6582H1.60938V17.6377C3.50165 21.3962 7.39074 23.9732 11.8862 23.9732Z" fill="#34A853"/>
<path fill-rule="evenodd" clip-rule="evenodd" d="M5.45585 14.6581C5.22585 13.9681 5.09517 13.2311 5.09517 12.4731C5.09517 11.7152 5.22585 10.9781 5.45585 10.2881V7.30859H1.61381C0.834943 8.86109 0.390625 10.6175 0.390625 12.4731C0.390625 14.3288 0.834943 16.0852 1.61381 17.6377L5.45585 14.6581Z" fill="#FBBC05"/>
<path fill-rule="evenodd" clip-rule="evenodd" d="M11.8862 5.54652C13.5746 5.54652 15.0905 6.12675 16.2823 7.26629L19.5807 3.96788C17.5891 2.1122 14.986 0.972656 11.8862 0.972656C7.39074 0.972656 3.50165 3.5497 1.60938 7.30811L5.45142 10.2877C6.35574 7.56947 8.89097 5.54652 11.8862 5.54652Z" fill="#EA4335"/>
</svg>
