<?xml version="1.0" encoding="utf-8"?>
<!-- Generator: Adobe Illustrator 27.0.1, SVG Export Plug-In . SVG Version: 6.00 Build 0)  -->
<svg version="1.1" id="Layer_1" xmlns="http://www.w3.org/2000/svg" xmlns:xlink="http://www.w3.org/1999/xlink" x="0px" y="0px"
	 viewBox="0 0 22 22" style="enable-background:new 0 0 22 22;" xml:space="preserve">
<style type="text/css">
	.st0{fill:#9499A3;}
</style>
<g>
	<path class="st0" d="M17.2,21H4.6c-0.7,0-1.4-0.2-2-0.5C1.6,19.8,1,18.8,1,17.6c0-1.6,0-3.1,0-4.7l0-1.8c0,0,0,0,0-0.1l0-2
		c0-1.5,0-3,0-4.6c0-1.6,1-2.9,2.6-3.4C3.9,1,4.2,1,4.5,1l11.4,0c0.5,0,1.1,0,1.6,0c1.6,0,2.9,0.9,3.4,2.4c0.1,0.3,0.2,0.7,0.2,1
		l0,3.9c0,3,0,6.1,0,9.1c0,1.8-1.4,3.3-3.2,3.5C17.6,21,17.4,21,17.2,21z M3,16.7c0,0.3,0,0.6,0,0.9c0,0.3,0.1,0.8,0.7,1.2
		C4,18.9,4.3,19,4.6,19h12.6c0.1,0,0.2,0,0.4,0c0.8-0.1,1.4-0.7,1.4-1.5c0-2.1,0-4.3,0-6.4c-0.5,0.6-1.1,1.2-1.7,1.8
		c-1.3,1.3-2.6,2.7-3.6,3.6c-0.1,0.1-0.1,0.1-0.2,0.2c-0.6,0.5-1.3,0.5-1.9,0c-0.1-0.1-0.1-0.1-0.2-0.2L8,13.2
		c-0.7,0.5-1.6,1.1-2.4,1.7C4.7,15.5,3.7,16.2,3,16.7z M8.1,10.9c0.3,0,0.6,0.1,0.9,0.4l3.5,3.5c1-1,2.1-2.2,3.3-3.4
		c1.1-1.2,2.3-2.3,3.2-3.2l0-3.7c0-0.1,0-0.3-0.1-0.4C18.7,3.4,18.2,3,17.4,3c-0.5,0-1.1,0-1.6,0L4.5,3C4.4,3,4.2,3,4.1,3.1
		C3.4,3.2,3,3.8,3,4.5c0,1.5,0,3,0,4.6l0,1.9c0,0,0,0,0,0.1l0,1.9c0,0.5,0,0.9,0,1.4c0.5-0.3,0.9-0.7,1.4-1c1-0.7,2.1-1.5,2.9-2
		C7.5,11.1,7.8,10.9,8.1,10.9z"/>
</g>
<g>
	<path class="st0" d="M14,10c-0.3,0-0.6,0-0.9-0.1c-0.9-0.3-1.6-0.9-1.9-1.8c-0.3-0.8-0.2-1.7,0.2-2.5c0.4-0.8,1.2-1.3,2-1.5
		c0.8-0.2,1.6,0,2.3,0.5c0.7,0.5,1.1,1.2,1.2,2c0,0,0,0,0,0c0.2,1.2-0.2,2.2-1.2,2.9C15.2,9.8,14.6,10,14,10z M14,6
		c-0.1,0-0.1,0-0.2,0c-0.3,0.1-0.5,0.2-0.7,0.5C13,6.8,13,7.1,13.1,7.4c0.1,0.3,0.3,0.5,0.7,0.6C14,8,14.3,8,14.6,7.8
		c0.3-0.2,0.5-0.6,0.4-1c0-0.3-0.2-0.5-0.4-0.7C14.4,6.1,14.2,6,14,6z"/>
</g>
</svg>
