<svg width="20" height="20" viewBox="0 0 20 20" fill="none" xmlns="http://www.w3.org/2000/svg">
<path d="M19.5638 7.14286C19.4215 6.64286 19.2081 6.14286 18.9947 5.71429C17.5007 2.64286 14.5839 0.5 11.1692 0.0714286L10.8135 0H9.24835L8.8215 0.0714286C5.40673 0.428571 2.48994 2.57143 0.995976 5.71429C0.782553 6.14286 0.569129 6.64286 0.426847 7.14286C-0.142282 9 -0.142282 11 0.426847 12.8571C0.569129 13.3571 0.782553 13.8571 0.995976 14.2857C2.48994 17.3571 5.40673 19.5 8.8215 19.9286L9.24835 20H10.8135L11.2403 19.9286C14.6551 19.5 17.5719 17.3571 19.0658 14.2857C19.2793 13.8571 19.4927 13.3571 19.635 12.8571C20.1329 10.9286 20.1329 9 19.5638 7.14286ZM17.4296 5.71429H13.7302C13.3745 4.28571 12.8054 2.92857 12.0229 1.64286C14.2994 2.21429 16.2202 3.64286 17.4296 5.71429ZM12.8765 10C12.8765 10.9286 12.8054 11.9286 12.592 12.8571H7.39868C7.04297 11 7.04297 9 7.39868 7.14286H12.592C12.8054 8.07143 12.8765 9.07143 12.8765 10ZM12.3074 14.2857C11.8806 15.8571 11.1692 17.2857 10.1732 18.5714H9.95976C8.96379 17.2857 8.25237 15.8571 7.82553 14.2857H12.3074ZM7.75438 5.71429C8.18123 4.14286 8.89264 2.71429 9.88862 1.42857H10.102C11.098 2.71429 11.8094 4.14286 12.2363 5.71429H7.75438ZM8.03895 1.64286C7.2564 2.92857 6.68727 4.28571 6.33156 5.71429H2.63222C3.84162 3.64286 5.76243 2.21429 8.03895 1.64286ZM1.49396 10C1.49396 9 1.63625 8.07143 1.99195 7.14286H6.047C5.69129 9 5.69129 11 6.047 12.8571H1.99195C1.63625 11.9286 1.49396 11 1.49396 10ZM2.63222 14.2857H6.33156C6.68727 15.7143 7.2564 17.0714 8.03895 18.3571C5.76243 17.7857 3.84162 16.3571 2.63222 14.2857ZM12.0229 18.3571C12.8054 17.0714 13.3745 15.7143 13.7302 14.2857H17.4296C16.2202 16.3571 14.2994 17.7857 12.0229 18.3571ZM14.0859 12.8571C14.2282 11.9286 14.2994 10.9286 14.2994 10C14.2994 9.07143 14.2282 8.07143 14.0859 7.14286H18.0699C18.7101 9 18.7101 11 18.0699 12.8571H14.0859Z" fill="#4090E7"/>
</svg>
