<svg width="21" height="22" viewBox="0 0 21 22" fill="none" xmlns="http://www.w3.org/2000/svg">
<path fill-rule="evenodd" clip-rule="evenodd" d="M7.92484 7.7H11.7603V9.7625C12.2717 8.525 13.6781 7.5625 15.8515 7.5625C19.9427 7.5625 20.8376 9.9 20.8376 14.1625V22H16.7464V15.125C16.7464 12.65 16.235 11.275 14.8287 11.275C12.911 11.275 12.1439 12.7875 12.1439 15.125V22H8.0527V7.7H7.92484ZM0.893151 21.8625H4.98432V7.425H0.893151V21.8625ZM5.62357 2.75C5.62357 3.1625 5.49572 3.4375 5.36787 3.85C5.24002 4.125 4.98432 4.5375 4.85647 4.8125C4.34507 5.3625 3.70583 5.6375 2.93873 5.6375C2.29949 5.6375 1.53239 5.3625 1.021 4.8125C0.7653 4.5375 0.637454 4.2625 0.509605 3.85C0.381756 3.575 0.253906 3.1625 0.253906 2.75C0.253906 2.0625 0.509602 1.2375 1.021 0.825C1.53239 0.275 2.29949 0 2.93873 0C3.57798 0 4.34507 0.275 4.85647 0.825C5.24002 1.375 5.62357 2.0625 5.62357 2.75Z" fill="black"/>
</svg>
