<?xml version="1.0" encoding="utf-8"?>
<!-- Generator: Adobe Illustrator 27.0.1, SVG Export Plug-In . SVG Version: 6.00 Build 0)  -->
<svg version="1.1" id="Layer_1" xmlns="http://www.w3.org/2000/svg" xmlns:xlink="http://www.w3.org/1999/xlink" x="0px" y="0px"
	 viewBox="0 0 22 22" style="enable-background:new 0 0 22 22;" xml:space="preserve">
<style type="text/css">
	.st0{fill:#9499A3;}
</style>
<g>
	<path class="st0" d="M11,21c-0.4,0-0.7-0.1-1-0.4c-0.1-0.1-0.2-0.2-0.3-0.3c-0.9-1.2-1.8-2.2-2.5-3.1l-0.1-0.1C4.4,13.8,3,12,3,9.1
		C3,7,3.8,4.9,5.3,3.4c0,0,0,0,0,0l0,0C6.9,1.8,8.9,1,11,1c2.1,0,4.2,0.8,5.7,2.4C18.2,4.9,19,7,19,9.1c0,2.9-1.4,4.6-4.2,8.1
		c-0.8,1-1.6,2-2.6,3.2c-0.3,0.3-0.6,0.5-1.1,0.6C11.1,21,11.1,21,11,21z M8.8,16c0.6,0.8,1.4,1.7,2.2,2.7c0.8-1,1.6-2,2.2-2.8
		c2.7-3.3,3.8-4.7,3.8-6.9c0-1.6-0.6-3.2-1.8-4.3C14.1,3.6,12.6,3,11,3C9.4,3,7.9,3.6,6.8,4.8c0,0,0,0,0,0l0,0C5.6,5.9,5,7.5,5,9.1
		C5,11.3,6.1,12.7,8.8,16L8,16.6L8.8,16z"/>
</g>
<g>
	<path class="st0" d="M11,13c-1.1,0-2.1-0.4-2.8-1.2c0,0,0,0,0,0C7.4,11.1,7,10.1,7,9c0-1.1,0.4-2.1,1.2-2.8C8.9,5.4,9.9,5,11,5
		c1.1,0,2.1,0.4,2.8,1.2C14.6,6.9,15,7.9,15,9s-0.4,2.1-1.2,2.8C13.1,12.6,12.1,13,11,13z M9.6,10.4C9.6,10.4,9.6,10.4,9.6,10.4
		c0.8,0.8,2.1,0.8,2.8,0C12.8,10,13,9.5,13,9c0-0.5-0.2-1-0.6-1.4c-0.8-0.8-2.1-0.8-2.8,0C9.2,8,9,8.5,9,9C9,9.5,9.2,10,9.6,10.4z"
		/>
</g>
</svg>
