<?xml version="1.0" encoding="utf-8"?>
<!-- Generator: Adobe Illustrator 27.0.1, SVG Export Plug-In . SVG Version: 6.00 Build 0)  -->
<svg version="1.1" id="Layer_1" xmlns="http://www.w3.org/2000/svg" xmlns:xlink="http://www.w3.org/1999/xlink" x="0px" y="0px"
	 viewBox="0 0 16 22" style="enable-background:new 0 0 16 22;" xml:space="preserve">
<g>
	<path d="M9.4,21.5H1.8c-1.2,0-1.8-0.5-1.8-1.7V10c0-1.2,0.5-1.7,1.7-1.7h12c1.2,0,1.7,0.5,1.7,1.7v9.9c0,0,0,0,0,0
		c0,1.1-0.5,1.6-1.7,1.6L9.4,21.5z M14.4,19.8L14.4,19.8L14.4,19.8z M7.7,19.5l5.6,0v-9.1H2v9.1H7.7z"/>
</g>
<g>
	<path d="M12.1,10.3C12.1,10.3,12.1,10.3,12.1,10.3c-0.6,0-1-0.5-1-1l0-3.8c0-1.5-0.9-2.8-2.3-3.3C8.5,2.1,8.1,2,7.7,2
		C7.3,2,6.8,2.1,6.3,2.3C5.1,2.8,4.2,4.1,4.2,5.5v3.9c0,0.6-0.4,1-1,1s-1-0.4-1-1V5.5c0-2.2,1.3-4.2,3.3-5.1C6.3,0.1,7.1,0,7.8,0
		C8.4,0,9,0.2,9.6,0.4c2.2,0.8,3.6,2.9,3.6,5.2l0,3.8C13.1,9.9,12.7,10.3,12.1,10.3z"/>
</g>
<g>
	<path d="M9.3,13.2c-0.3-0.7-0.8-1-1.5-1c-0.7,0-1.3,0.3-1.6,0.9c-0.3,0.6-0.3,1.2,0.1,1.7c0.3,0.4,0.4,0.8,0.4,1.2
		c0,0.2,0,0.4,0,0.6c0,0.6,0.4,1,1,1c0.6,0,1-0.4,1-1c0-0.4,0-0.7,0-1.1c0-0.2,0.1-0.4,0.2-0.6C9.4,14.4,9.6,13.8,9.3,13.2L9.3,13.2
		z"/>
</g>
</svg>
