<?xml version="1.0" encoding="utf-8"?>
<!-- Generator: Adobe Illustrator 27.0.1, SVG Export Plug-In . SVG Version: 6.00 Build 0)  -->
<svg version="1.1" id="Layer_1" xmlns="http://www.w3.org/2000/svg" xmlns:xlink="http://www.w3.org/1999/xlink" x="0px" y="0px"
	 viewBox="0 0 22 22" style="enable-background:new 0 0 22 22;" xml:space="preserve">
<g>
	<path d="M6.5,10.1c-0.9,0-1.8-0.5-2.4-1.3c-0.7-0.8-1-2-1-3.2s0.4-2.4,1-3.2c1.3-1.7,3.6-1.7,4.9,0c0.7,0.8,1,2,1,3.2
		s-0.4,2.4-1,3.2C8.2,9.6,7.4,10.1,6.5,10.1z M6.5,3C6.2,3,5.9,3.2,5.6,3.5C5.2,4,5,4.8,5,5.5s0.2,1.5,0.6,2
		c0.2,0.2,0.5,0.5,0.9,0.5c0.4,0,0.7-0.3,0.9-0.5c0.4-0.5,0.6-1.2,0.6-2S7.7,4,7.3,3.5C7.1,3.3,6.8,3,6.5,3z"/>
</g>
<g>
	<path d="M15.5,10.1c-0.3,0-0.7,0-1.1-0.2c-0.4-0.1-1.1-0.4-1.7-1.1c-0.6-0.7-0.7-1.5-0.7-1.8C12,6,12,4.6,12.1,2c0-0.6,0.5-1,1-1
		c0.6,0,1,0.5,1,1c-0.1,2.6,0,3.9,0,4.9c0,0.2,0,0.5,0.2,0.7C14.6,7.9,14.9,8,15,8c0.5,0.1,0.9,0,1.1,0C16.6,7.8,17,7.4,17,7l0-5
		c0-0.6,0.4-1,1-1c0,0,0,0,0,0c0.5,0,1,0.4,1,1l0,5c0,1.4-0.9,2.5-2.3,3C16.4,10,16,10.1,15.5,10.1z"/>
</g>
<g>
	<path d="M15.5,10.1c-0.6,0-1-0.4-1-1V2c0-0.6,0.4-1,1-1s1,0.4,1,1v7.1C16.5,9.6,16.1,10.1,15.5,10.1z"/>
</g>
<g>
	<path d="M6.5,22c-0.6,0-1-0.4-1-1V9.1c0-0.6,0.4-1,1-1s1,0.4,1,1V21C7.5,21.6,7,22,6.5,22z"/>
</g>
<g>
	<path d="M15.5,22c-0.6,0-1-0.4-1-1V9.1c0-0.6,0.4-1,1-1s1,0.4,1,1V21C16.5,21.6,16.1,22,15.5,22z"/>
</g>
</svg>
