<?xml version="1.0" encoding="utf-8"?>
<!-- Generator: Adobe Illustrator 27.0.1, SVG Export Plug-In . SVG Version: 6.00 Build 0)  -->
<svg version="1.1" id="Layer_1" xmlns="http://www.w3.org/2000/svg" xmlns:xlink="http://www.w3.org/1999/xlink" x="0px" y="0px"
	 viewBox="0 0 17 22" style="enable-background:new 0 0 17 22;" xml:space="preserve">
<style type="text/css">
	.st0{fill:#9499A3;}
</style>
<g>
	<path class="st0" d="M6.1,21.1c-0.4,0-0.7,0-1.1-0.1c-2.2-0.4-3.9-1.9-4.6-4c-0.3-0.9-0.3-1.7-0.4-2.5l0-0.2C0,13.2,0,12,0,10.8
		l0-0.9c0-1.7,0.8-3.3,2.2-4.1C3,5.3,3.9,5,4.8,5.1c1.5,0.1,2.8,1,3.5,2.4C8.5,8,8.6,8.6,8.6,9.2l0,0.3h1.6V8.9c0-0.1,0-0.2,0-0.2
		c-0.1-2.4-1.8-4.3-3.8-4.3c-0.6,0-1-0.4-1-1l0-1.5c0-0.6,0.4-1,1-1l9.5,0c0,0,0,0,0,0c0.3,0,0.5,0.1,0.7,0.3
		C16.9,1.4,17,1.6,17,1.9v1.5c0,0.6-0.4,1-1,1c-2,0-3.7,1.9-3.8,4.3c0,0.1,0,0.2,0,0.3v0.6h3.3c0.6,0,1,0.4,1,1s-0.4,1-1,1h-3.3
		l0,3.7c0,1.9-0.9,3.6-2.5,4.7C8.7,20.7,7.4,21.1,6.1,21.1z M4.5,7.1c-0.4,0-0.8,0.1-1.2,0.4C2.5,8,2,8.9,2,9.9l0,0.9
		c0,1.1,0,2.3,0.1,3.4l0,0.2c0,0.7,0,1.3,0.2,1.9C2.8,17.8,4,18.8,5.4,19c1.1,0.2,2.2-0.1,3.2-0.7c1-0.7,1.6-1.8,1.6-3.1l0-3.7H8.6
		l0,3.3c0,0.6-0.2,1.1-0.6,1.5c-0.5,0.6-1.2,0.9-2,0.9l-0.2,0c-1,0-1.8-0.5-2.2-1.3c-0.2-0.3-0.3-0.7-0.3-1.1l0-3
		c0-0.9,0.5-1.7,1.4-2.1c0.3-0.1,0.6-0.2,0.9-0.2h0.9l0-0.3c0-0.3-0.1-0.6-0.2-0.9c-0.3-0.7-1-1.2-1.8-1.2C4.6,7.1,4.5,7.1,4.5,7.1z
		 M5.8,11.5c-0.1,0-0.1,0-0.1,0c-0.1,0-0.2,0.2-0.2,0.3l0,3c0,0.1,0,0.2,0,0.2c0.1,0.2,0.2,0.2,0.4,0.2c0,0,0,0,0,0l0.2,0
		c0.2,0,0.4-0.1,0.5-0.2c0,0,0.1-0.1,0.1-0.2l0-3.3H5.8z M8.7,2.9c1,0.5,1.9,1.3,2.5,2.3c0.6-1,1.5-1.8,2.5-2.3L8.7,2.9z"/>
</g>
</svg>
