<svg width="92" height="88" viewBox="0 0 92 88" fill="none" xmlns="http://www.w3.org/2000/svg">
<g clip-path="url(#clip0_5555_145059)">
<path d="M45.2344 0H57.6722L54.8824 3.03404L57.6722 5.5434H45.2344V0Z" fill="#4090E7"/>
<path d="M46.1411 0H45.2344V19.9608H46.1411V0Z" fill="#4C537A"/>
<path d="M87.8272 41.1533H4.17969V88.1468H87.8272V41.1533Z" fill="white"/>
<path d="M16.43 41.1533H3.99219V88.1468H16.43V41.1533Z" fill="#9EC3E5"/>
<path d="M35.4237 41.1533H23.1719V88.1468H35.4237V41.1533Z" fill="#9EC3E5"/>
<path d="M50.3487 41.1533H41.3516V87.9643H50.3487V41.1533Z" fill="#9EC3E5"/>
<path d="M68.5699 41.1533H56.9922V88.1696H68.5699V41.1533Z" fill="#9EC3E5"/>
<path d="M87.7995 41.1533H75.6406V88.1696H87.7995V41.1533Z" fill="#9EC3E5"/>
<path d="M87.8239 41.1536C87.3357 40.4921 45.7212 11.9082 45.7212 11.9082L4.73438 41.1536H87.8239Z" fill="#9EC3E5"/>
<path d="M45.6982 11.9082L41.2578 41.1536H45.6982H45.8145H50.2549L45.6982 11.9082Z" fill="#4090E7"/>
<path d="M16.2208 41.1536L45.7229 11.9082L3.99219 41.1536H16.2208Z" fill="#4090E7"/>
<path d="M23.4922 41.2449L45.7176 11.9082L34.9769 41.4274L23.4922 41.2449Z" fill="#4090E7"/>
<path d="M75.6394 41.2449L45.7188 11.9082L87.8215 41.1537L75.6394 41.2449Z" fill="#4090E7"/>
<path d="M68.5719 41.2221L45.7188 11.9082L57.0872 41.3818L68.5719 41.2221Z" fill="#4090E7"/>
<path d="M10.153 46.0808C13.524 46.0808 16.2441 43.9821 16.2441 41.1533H3.99219C3.99219 43.9821 6.78199 46.0808 10.153 46.0808Z" fill="#4090E7"/>
<path d="M29.281 46.2633C32.466 46.2633 35.0699 43.9821 35.0699 41.1533H23.4922C23.4922 43.9821 26.096 46.2633 29.281 46.2633Z" fill="#4090E7"/>
<path d="M45.8621 46.2633C48.3497 46.2633 50.3723 43.9821 50.3723 41.1533H41.3752C41.352 43.9821 43.3746 46.2633 45.8621 46.2633Z" fill="#4090E7"/>
<path d="M81.732 46.3549C78.361 46.3549 75.641 44.0508 75.6642 41.2221L87.8231 41.1309C87.8231 43.9824 85.0798 46.3777 81.732 46.3549Z" fill="#4090E7"/>
<path d="M62.7892 46.2861C59.6042 46.2861 57.0003 43.9821 57.0236 41.1533L68.6013 41.1761C68.578 44.0049 65.9742 46.2861 62.7892 46.2861Z" fill="#4090E7"/>
<path d="M57.1151 74.5404C57.1151 61.3024 38.8594 60.8136 38.8594 74.5404V89.5706H57.1151V74.5404Z" fill="#EBEBEB"/>
</g>
<defs>
<clipPath id="clip0_5555_145059">
<rect width="92" height="88" fill="white"/>
</clipPath>
</defs>
</svg>
