<svg width="102" height="99" viewBox="0 0 102 99" fill="none" xmlns="http://www.w3.org/2000/svg">
<g clip-path="url(#clip0_3775_117645)">
<path d="M13.9566 51.6997C13.8907 51.2427 14.1541 50.7858 14.5821 50.6226C21.4963 48.0115 28.4763 44.0296 37.5306 37.8609C44.9386 32.8019 50.7992 27.5471 55.277 22.9124C55.6721 22.5207 56.2976 22.5207 56.6927 22.9124C61.6643 27.8735 68.1505 33.5526 76.217 39.0032C84.5799 44.6497 94.1609 46.6733 100.845 49.4802C101.273 49.6761 101.536 50.1004 101.437 50.5573C101.108 52.2872 100.812 56.0732 100.614 57.9336C99.2643 68.9981 100.252 78.9203 101.997 87.1126C102.129 87.7327 101.668 88.2875 101.009 88.2875H12.9688C12.3103 88.2875 11.8494 87.7001 12.014 87.0473C13.1993 82.4779 14.22 76.9619 14.648 70.6627C15.1418 63.319 14.6809 56.8566 13.9566 51.6997Z" fill="#9EC3E5"/>
<path d="M10.3394 49.9047C10.2735 49.4478 10.5369 48.9909 10.9649 48.8277C17.8791 46.2166 24.8591 42.2347 33.9134 36.066C41.3214 31.007 47.182 25.7522 51.6598 21.1175C52.0549 20.7258 52.6804 20.7258 53.0755 21.1175C58.0472 26.0785 64.5333 31.7577 72.5998 37.2083C80.9627 42.8548 90.5438 44.8784 97.2275 47.6853C97.6555 47.8811 97.9189 48.3054 97.8201 48.7624C97.4909 50.4922 97.1945 54.2783 96.997 56.1387C95.6471 67.2032 96.6348 77.1253 98.3798 85.3176C98.5115 85.9378 98.0506 86.4926 97.3921 86.4926H9.35163C8.69314 86.4926 8.2322 85.9051 8.39682 85.2524C9.58211 80.683 10.6028 75.167 11.0308 68.8678C11.5247 61.5241 11.0637 55.0616 10.3394 49.9047Z" stroke="#4090E7" stroke-width="2" stroke-miterlimit="10" stroke-linecap="round" stroke-linejoin="round"/>
<path d="M5.43359 90.7358C37.8643 90.7358 32.5964 90.7358 65.0272 90.7358" stroke="black" stroke-width="2" stroke-miterlimit="10" stroke-linecap="round" stroke-linejoin="round"/>
<path d="M74.5703 90.7358C80.7931 90.7358 86.1269 90.7358 92.3496 90.7358" stroke="black" stroke-width="2" stroke-miterlimit="10" stroke-linecap="round" stroke-linejoin="round"/>
<path d="M52.0229 23.0103C51.7595 24.2832 46.8867 37.8282 39.8408 43.899C29.8317 52.5482 18.5056 53.0051 15.4766 53.0378" stroke="#4090E7" stroke-width="2" stroke-miterlimit="10" stroke-linecap="round" stroke-linejoin="round"/>
<path d="M52.6758 23.0103C53.3013 26.1109 55.6719 36.0004 64.8579 43.899C74.867 52.5482 86.1931 53.0051 89.2221 53.0378" stroke="#4090E7" stroke-width="2" stroke-miterlimit="10" stroke-linecap="round" stroke-linejoin="round"/>
<path d="M62.8205 73.5344C62.8205 62.9268 48.0703 62.5351 48.0703 73.5344V85.578H62.8205V73.5344Z" fill="#FDFEFF" stroke="#4090E7" stroke-width="2" stroke-miterlimit="10" stroke-linecap="round" stroke-linejoin="round"/>
<path d="M56.4325 1.14209C55.9387 3.16568 56.3338 4.2754 56.7947 4.89553C57.2886 5.58094 57.9141 5.77677 58.1117 6.52746C58.3422 7.44134 57.7824 8.32259 57.4532 8.81216C56.1362 10.8031 53.8315 11.5212 52.8438 11.7496" stroke="#0689FF" stroke-width="2" stroke-miterlimit="10" stroke-linecap="round" stroke-linejoin="round"/>
<path d="M52.8438 20.2365C52.8438 13.9698 52.8438 7.67059 52.8438 1.40398C53.3047 1.46926 53.9632 1.46926 54.7205 1.30606C55.6423 1.07759 56.2021 0.685929 56.4655 0.881761" stroke="#0689FF" stroke-width="2" stroke-miterlimit="10" stroke-linecap="round" stroke-linejoin="round"/>
</g>
<defs>
<clipPath id="clip0_3775_117645">
<rect width="102" height="99" fill="white"/>
</clipPath>
</defs>
</svg>
