<?xml version="1.0" encoding="utf-8"?>
<!-- Generator: Adobe Illustrator 27.0.1, SVG Export Plug-In . SVG Version: 6.00 Build 0)  -->
<svg version="1.1" id="Layer_1" xmlns="http://www.w3.org/2000/svg" xmlns:xlink="http://www.w3.org/1999/xlink" x="0px" y="0px"
	 viewBox="0 0 22 22" style="enable-background:new 0 0 22 22;" xml:space="preserve">
<style type="text/css">
	.st0{clip-path:url(#SVGID_00000026122097667257285710000004444764246882053768_);}
</style>
<g>
	<defs>
		<rect id="SVGID_1_" width="22" height="22"/>
	</defs>
	<clipPath id="SVGID_00000114758818213718491130000003003512963193035940_">
		<use xlink:href="#SVGID_1_"  style="overflow:visible;"/>
	</clipPath>
	<g style="clip-path:url(#SVGID_00000114758818213718491130000003003512963193035940_);">
		<g>
			<path d="M7.2,12.1c-2.6,0-4.8-2.1-4.8-4.8s2.1-4.8,4.8-4.8S12,4.7,12,7.4S9.9,12.1,7.2,12.1z M7.2,4.6c-1.5,0-2.8,1.2-2.8,2.8
				s1.2,2.8,2.8,2.8S10,8.9,10,7.4S8.8,4.6,7.2,4.6z"/>
		</g>
		<g>
			<path d="M12.8,19.9c-0.6,0-1-0.4-1-1v-1.7c0-0.6-0.3-1.2-0.8-1.7c-0.5-0.5-1.2-0.7-2-0.7H5.4c-0.7,0-1.5,0.3-2,0.7
				c-0.5,0.5-0.8,1-0.8,1.7v1.7c0,0.6-0.4,1-1,1s-1-0.4-1-1v-1.7c0-1.2,0.5-2.3,1.4-3.1c0.9-0.8,2.1-1.3,3.3-1.3h3.7
				c1.2,0,2.4,0.4,3.3,1.3c0.9,0.8,1.4,2,1.4,3.1v1.7C13.8,19.5,13.4,19.9,12.8,19.9z"/>
		</g>
		<g>
			<path d="M16.2,9.5c-2.2,0-4-1.8-4-4s1.8-4,4-4s4,1.8,4,4S18.4,9.5,16.2,9.5z M16.2,3.5c-1.1,0-2,0.9-2,2s0.9,2,2,2s2-0.9,2-2
				S17.3,3.5,16.2,3.5z"/>
		</g>
		<g>
			<path d="M20.6,15.6c-0.6,0-1-0.4-1-1v-1.3c0-0.4-0.2-0.8-0.5-1.2c-0.4-0.3-0.9-0.5-1.4-0.5h-3c-0.5,0-1.1,0.2-1.4,0.5
				c-0.3,0.3-0.5,0.7-0.5,1.2v1.3c0,0.6-0.4,1-1,1s-1-0.4-1-1v-1.3c0-1,0.4-2,1.2-2.6c0.7-0.7,1.7-1,2.8-1h3c1,0,2,0.4,2.8,1
				c0.8,0.7,1.2,1.7,1.2,2.6v1.3C21.6,15.2,21.1,15.6,20.6,15.6z"/>
		</g>
	</g>
</g>
</svg>
