<svg width="17" height="16" viewBox="0 0 17 16" fill="none" xmlns="http://www.w3.org/2000/svg">
<path d="M15.5568 11.2817L13.6291 9.35913C13.2484 8.96526 12.7884 8.75864 12.3008 8.75864C11.8164 8.75864 11.3531 8.96526 10.9611 9.35429L9.95677 10.3551C9.90655 10.3293 9.85795 10.305 9.8126 10.2825C9.69434 10.2243 9.58095 10.1662 9.48374 10.1049C8.46484 9.46083 7.53664 8.61659 6.64407 7.52701C6.25044 7.03145 5.97828 6.615 5.78068 6.20498C6.035 5.96769 6.27476 5.72556 6.50154 5.49312C6.59711 5.39627 6.69754 5.29619 6.79474 5.19933C7.19646 4.79903 7.40869 4.33251 7.40869 3.85148C7.40869 3.36722 7.19648 2.90071 6.79474 2.50362L5.83739 1.54964C5.72885 1.44148 5.62518 1.33656 5.51828 1.22519L5.51342 1.22034C5.30445 1.00566 5.0793 0.778064 4.85412 0.569823C4.47183 0.196936 4.01501 0 3.53228 0C3.05278 0 2.59114 0.198548 2.1975 0.57304L0.990686 1.77562C0.503095 2.25665 0.227709 2.84421 0.171015 3.52219C0.106219 4.32929 0.25363 5.18159 0.634316 6.20016C1.20775 7.75301 2.07117 9.18962 3.35088 10.7215C4.90113 12.5682 6.77358 14.0289 8.9137 15.0638L8.91532 15.0654C9.74308 15.456 10.8511 15.9145 12.0774 15.9935H12.0919C12.1632 15.9968 12.2361 16 12.3139 16C13.1935 16 13.903 15.6965 14.4813 15.0718C14.491 15.0605 14.504 15.0476 14.5169 15.0299C14.6789 14.8378 14.8636 14.657 15.0612 14.4681L15.1066 14.4246C15.2912 14.2486 15.437 14.1033 15.5666 13.9693C15.9538 13.5674 16.1579 13.1009 16.1562 12.6183C16.1562 12.134 15.9489 11.6723 15.5569 11.2817L15.5568 11.2817V11.2817ZM1.50754 3.63531C1.53994 3.26889 1.67763 2.97673 1.93843 2.71684L3.13231 1.52716C3.26352 1.40126 3.40121 1.33346 3.52917 1.33346C3.68468 1.33346 3.82237 1.44 3.90986 1.52878L3.91958 1.53846C4.101 1.70634 4.27595 1.8839 4.46063 2.07115L4.54487 2.1567C4.59995 2.2132 4.65664 2.2697 4.71334 2.32781C4.76841 2.38269 4.82349 2.43919 4.87857 2.49569L5.83917 3.45292C5.93961 3.553 6.05948 3.70473 6.05948 3.85647C6.05948 4.00821 5.93961 4.15994 5.83917 4.26003C5.78896 4.31007 5.73874 4.36011 5.68852 4.41176C5.63993 4.4618 5.58971 4.51184 5.53949 4.56188L5.47146 4.62968C5.20094 4.90248 4.94338 5.16075 4.66636 5.40771L4.63882 5.43515C4.21927 5.85323 4.36344 6.28583 4.41042 6.42789C4.41366 6.43919 4.4169 6.44726 4.42014 6.45695L4.42662 6.47309C4.68904 7.09941 5.04866 7.68375 5.59294 8.36654L5.59456 8.36815C6.5746 9.57235 7.60811 10.5102 8.7566 11.2382C8.88295 11.3205 9.01092 11.3851 9.13566 11.4464C9.15834 11.4577 9.18263 11.469 9.20531 11.4819L9.20693 11.4836C9.32519 11.5417 9.43858 11.5998 9.53579 11.6611L9.56494 11.6773C9.57466 11.6821 9.58438 11.6886 9.5941 11.6934C9.73665 11.766 9.88406 11.8032 10.0315 11.8032C10.2809 11.8032 10.5077 11.7031 10.7054 11.5045L11.9073 10.3068C12.0013 10.2132 12.1438 10.1034 12.2993 10.1034C12.4581 10.1034 12.5958 10.2261 12.6654 10.3004L12.6686 10.3036L14.6093 12.2342C14.8879 12.5118 14.8831 12.7572 14.5963 13.0542L14.5931 13.0574C14.457 13.2027 14.3129 13.3415 14.1768 13.4723L14.1379 13.5094C13.9208 13.7192 13.6973 13.9355 13.4883 14.1841C13.1708 14.5231 12.8096 14.6732 12.3171 14.6732C12.2718 14.6732 12.2199 14.67 12.1681 14.6667C11.1621 14.6022 10.2145 14.2067 9.50014 13.8677C7.53358 12.9186 5.81174 11.5756 4.3846 9.8741C3.20693 8.46166 2.41644 7.14934 1.89321 5.74321C1.58382 4.91353 1.45909 4.24202 1.50767 3.63506L1.50754 3.63532L1.50754 3.63531Z" fill="white"/>
</svg>
