<svg width="22" height="20" fill="none" xmlns="http://www.w3.org/2000/svg"><path d="M10.56.112a1.61 1.61 0 0 0-.283.192C10.201.38.271 18.217.087 18.608c-.067.143-.086.247-.087.465 0 .262.008.292.12.439.066.087.186.203.266.258.323.223.147.213 3.941.213 3.913 0 3.73.013 4.009-.268.084-.084.713-1.007 1.399-2.05A88.894 88.894 0 0 1 11 15.768c.01 0 .579.854 1.265 1.897.686 1.043 1.315 1.966 1.4 2.051.281.283.086.27 4.122.259l3.571-.01.184-.102c.216-.12.341-.288.409-.549.065-.251.06-.41-.018-.632C21.858 18.47 11.926.572 11.755.342a1.225 1.225 0 0 0-.258-.247c-.126-.082-.184-.095-.44-.094-.259 0-.32.014-.497.111m4.583 10.4c2.269 4.086 4.131 7.443 4.138 7.46.006.018-.97.028-2.199.022l-2.211-.009-1.33-2.017a119.84 119.84 0 0 1-1.33-2.04c-.001-.013.187-.31.417-.66.563-.859.623-1.051.439-1.42-.149-.299-.542-.581-.902-.647a.72.72 0 0 0-.338.038c-.226.071-.421.253-.662.616-.076.115-.151.208-.165.208-.014 0-.089-.093-.165-.208-.415-.626-.781-.787-1.283-.564-.253.111-.515.347-.619.557-.183.366-.123.562.42 1.392.219.335.407.632.417.66.01.029-.57.944-1.311 2.068l-1.33 2.017-2.211.009c-1.229.006-2.205-.004-2.199-.022C2.755 17.88 10.985 3.083 11 3.083c.01 0 1.875 3.343 4.143 7.429" fill-rule="evenodd" fill="#000"/></svg>