<svg width="13" height="4" viewBox="0 0 13 4" fill="none" xmlns="http://www.w3.org/2000/svg">
<path d="M6.08984 3.48828C6.91827 3.48828 7.58984 2.81671 7.58984 1.98828C7.58984 1.15985 6.91827 0.488281 6.08984 0.488281C5.26142 0.488281 4.58984 1.15985 4.58984 1.98828C4.58984 2.81671 5.26142 3.48828 6.08984 3.48828Z" fill="white"/>
<path d="M10.5898 3.48828C11.4183 3.48828 12.0898 2.81671 12.0898 1.98828C12.0898 1.15985 11.4183 0.488281 10.5898 0.488281C9.76142 0.488281 9.08984 1.15985 9.08984 1.98828C9.08984 2.81671 9.76142 3.48828 10.5898 3.48828Z" fill="white"/>
<path d="M1.58984 3.48828C2.41827 3.48828 3.08984 2.81671 3.08984 1.98828C3.08984 1.15985 2.41827 0.488281 1.58984 0.488281C0.761417 0.488281 0.0898438 1.15985 0.0898438 1.98828C0.0898438 2.81671 0.761417 3.48828 1.58984 3.48828Z" fill="white"/>
</svg>
