<?xml version="1.0" encoding="utf-8"?>
<!-- Generator: Adobe Illustrator 27.0.1, SVG Export Plug-In . SVG Version: 6.00 Build 0)  -->
<svg version="1.1" id="Layer_1" xmlns="http://www.w3.org/2000/svg" xmlns:xlink="http://www.w3.org/1999/xlink" x="0px" y="0px"
	 viewBox="0 0 24 24" style="enable-background:new 0 0 24 24;" xml:space="preserve">
<style type="text/css">
	.st0{clip-path:url(#SVGID_00000070836280034009918210000011966652288033204609_);}
</style>
<g>
	<defs>
		<rect id="SVGID_1_" width="24" height="24"/>
	</defs>
	<clipPath id="SVGID_00000143575409249850039860000009414302493327659450_">
		<use xlink:href="#SVGID_1_"  style="overflow:visible;"/>
	</clipPath>
	<g style="clip-path:url(#SVGID_00000143575409249850039860000009414302493327659450_);">
		<g>
			<path d="M12.5,23.2c-0.4,0-0.8-0.2-0.9-0.6l-0.1-0.6c0,0,0-0.1,0-0.1l0-0.4c0-0.2,0-0.3,0-0.5c-1.2-0.1-2.3-0.3-3.3-0.8
				C6.8,19.5,5.7,18.4,5,17c-0.5-0.9-0.8-1.9-1-3c-0.1-0.4,0-0.8,0.3-1.1c-0.1-0.4-0.1-0.8-0.1-1.3c0-0.9,0.1-1.7,0.4-2.6
				c0.1-0.4,0.3-0.7,0.5-1.1c0.1-0.3,0.3-0.5,0.6-0.6c0-0.2,0-0.4,0-0.6C5.8,5.2,6.4,4,7.5,3c0.3-0.3,0.7-0.4,1.1-0.4
				c0.5-0.9,1.2-1.7,2.2-2.4c0.5-0.3,1.1-0.4,1.6-0.1c1,0.5,1.8,1.3,2.4,2.2c0.2,0,0.4,0,0.6,0c0.2,0.1,0.4,0.2,0.6,0.4
				c0.7,0.7,1.2,1.5,1.6,2.4c0.2,0.5,0.3,1.1,0.3,1.6c0.3,0.1,0.5,0.3,0.7,0.6c0.3,0.5,0.5,1,0.7,1.6c0.3,0.8,0.4,1.6,0.4,2.5
				c0,0.3,0,0.5-0.1,0.8c0,0,0,0,0,0c0.3,0.3,0.4,0.7,0.4,1.1c-0.1,1.1-0.3,2.1-0.7,3c-0.3,0.7-0.7,1.3-1.2,1.9
				c-0.5,0.6-1.1,1-1.5,1.3c-0.9,0.6-1.8,0.9-2.9,1.1c-0.1,0-0.2,0-0.3,0c0,0.1,0,0.3,0,0.4c0,0,0,0.1,0,0.1c0,0,0,0.1,0,0.1
				c0,0,0,0.1,0,0.1l0,0.1l-0.9,0.4l1-0.2c0.2,0.5-0.1,1.2-0.6,1.3C12.7,23.2,12.6,23.2,12.5,23.2z M6.1,14.4
				c0.1,0.6,0.3,1.2,0.6,1.7c0.6,1.1,1.3,1.8,2.3,2.3c0.7,0.4,1.6,0.6,2.5,0.6l0.2,0c0.3,0,0.5,0,0.7,0c0.3,0,0.6-0.1,0.9-0.1
				c0.8-0.1,1.5-0.4,2.2-0.8c0.5-0.3,0.8-0.6,1-0.9c0.4-0.4,0.7-0.9,0.9-1.4c0.2-0.5,0.4-1,0.5-1.6l-2.1,0.5c-0.1,0-0.1,0-0.2,0
				c-0.2,0.1-0.5,0.1-0.9,0.1c-0.7,0-1.2-0.5-1.5-0.8l-0.1-0.1c-0.2-0.2-0.5-0.4-0.7-0.6l-0.9-0.1c-0.2,0.1-0.4,0.3-0.6,0.6
				c-0.2,0.3-0.4,0.5-0.6,0.7c-0.3,0.3-0.8,0.7-1.7,0.5l-0.2,0c-0.5-0.1-1-0.3-1.4-0.3C6.8,14.4,6.5,14.4,6.1,14.4z M5.5,14.3
				C5.5,14.3,5.5,14.3,5.5,14.3C5.5,14.3,5.5,14.3,5.5,14.3z M6.2,12.4c0.4,0,0.8,0.1,1.2,0.1C8,12.6,8.5,12.7,9,12.9
				c0.1-0.1,0.2-0.2,0.3-0.3c0.1-0.1,0.2-0.2,0.3-0.4c-0.2-0.6-0.9-1.9-1.2-2.3c-0.3-0.2-0.6-0.4-1-0.5C7.2,9.3,7,9.2,6.7,9.2
				C6.6,9.4,6.5,9.6,6.5,9.7c-0.2,0.6-0.3,1.3-0.3,1.9C6.2,11.9,6.2,12.1,6.2,12.4z M14.2,12c0.1,0.1,0.2,0.2,0.3,0.3
				c0.1,0.1,0.1,0.1,0.2,0.2c0.1,0.1,0.2,0.2,0.2,0.2c0,0,0.1,0,0.1-0.1c0.1,0,0.2-0.1,0.3-0.1l2.2-0.5c0-0.2,0.1-0.4,0.1-0.6
				c0-0.6-0.1-1.2-0.3-1.8c-0.1-0.3-0.2-0.6-0.4-0.9c-0.7,0.2-1.2,0.4-1.6,0.8c0,0,0,0,0,0c-0.3,0.5-0.5,1-0.8,1.6
				C14.5,11.4,14.4,11.7,14.2,12z M10.2,9c0.4,0.6,0.9,1.4,1.1,2.1c0.4-0.1,0.8-0.1,1.1,0c0.1-0.3,0.3-0.5,0.3-0.7
				c0.2-0.5,0.5-1,0.8-1.5c-0.4-0.8-1-1.5-1.8-2.1C11.6,7,11.3,7.3,11,7.6C10.7,8,10.4,8.5,10.2,9z M17.4,8.8L17.4,8.8
				C17.4,8.8,17.4,8.8,17.4,8.8z M7.7,7.3c0.2,0.1,0.4,0.1,0.6,0.2c0.1,0.1,0.2,0.1,0.3,0.2c0.2-0.5,0.5-0.9,0.9-1.4
				c0.4-0.5,0.9-1,1.4-1.3c0.3-0.2,0.7-0.2,1-0.1c0.3-0.1,0.7-0.1,1,0.2c0.8,0.6,1.6,1.4,2.2,2.3c0.3-0.1,0.5-0.3,0.8-0.4
				c0-0.4-0.1-0.8-0.2-1.2c-0.2-0.5-0.4-1-0.8-1.4c-0.2,0.1-0.5,0.1-0.8,0.1c-0.3-0.1-0.5-0.3-0.7-0.5l-0.2-0.3
				c-0.4-0.7-0.9-1.3-1.6-1.7c-0.8,0.6-1.3,1.2-1.6,2C10,4.4,9.8,4.6,9.5,4.8c-0.3,0.1-0.6,0.1-0.9,0l-0.1,0C8.1,5.3,7.8,6,7.7,6.9
				C7.7,7,7.7,7.2,7.7,7.3z M8.3,4.6C8.3,4.6,8.3,4.6,8.3,4.6L8.3,4.6z M14.6,4.2C14.6,4.2,14.6,4.2,14.6,4.2
				C14.6,4.2,14.6,4.2,14.6,4.2z"/>
		</g>
		<g>
			<path d="M11.3,6.9c-0.1,0-0.2,0-0.2,0c-0.4-0.1-0.6-0.4-0.7-0.6C10,5.6,9.4,5.1,8.7,4.8c0,0,0,0,0.1,0C8.3,4.6,8,4,8.2,3.5
				C8.3,3,8.9,2.7,9.4,2.9C9.5,2.9,9.6,3,9.7,3c0.8,0.4,1.5,1,2.1,1.8c0,0,0,0,0,0c0.1-0.1,0.1-0.2,0.2-0.2c0.5-0.6,1.1-1.2,1.9-1.7
				c0.5-0.3,1.1-0.1,1.4,0.3c0.3,0.5,0.1,1.1-0.3,1.4c-0.6,0.4-1.1,0.7-1.4,1.2c0,0.1-0.1,0.1-0.1,0.2c-0.1,0.1-0.1,0.2-0.2,0.4
				c-0.1,0.3-0.4,0.5-0.7,0.6c-0.2,0.1-0.5,0-0.7-0.1C11.6,6.9,11.5,6.9,11.3,6.9z M12.7,5C12.7,5,12.7,5,12.7,5
				C12.7,5,12.7,5,12.7,5z M8.8,4.8C8.8,4.8,8.8,4.8,8.8,4.8C8.8,4.8,8.8,4.8,8.8,4.8z M8.8,4.8C8.8,4.8,8.8,4.8,8.8,4.8
				C8.8,4.8,8.8,4.8,8.8,4.8z"/>
		</g>
	</g>
</g>
</svg>
