<?xml version="1.0" encoding="utf-8"?>
<!-- Generator: Adobe Illustrator 27.0.1, SVG Export Plug-In . SVG Version: 6.00 Build 0)  -->
<svg version="1.1" id="Layer_1" xmlns="http://www.w3.org/2000/svg" xmlns:xlink="http://www.w3.org/1999/xlink" x="0px" y="0px"
	 viewBox="0 0 22 16" style="enable-background:new 0 0 22 16;" xml:space="preserve">
<g>
	<path d="M20.8,3H1.2c-0.6,0-1-0.4-1-1s0.4-1,1-1h19.6c0.6,0,1,0.4,1,1S21.4,3,20.8,3z"/>
</g>
<g>
	<path d="M18.6,15c-0.5,0-0.9-0.3-1-0.8l-2.2-12c-0.1-0.5,0.3-1.1,0.8-1.2c0.5-0.1,1.1,0.3,1.2,0.8l2.2,12c0.1,0.5-0.3,1.1-0.8,1.2
		C18.8,15,18.7,15,18.6,15z"/>
</g>
<g>
	<path d="M3.4,15c-0.1,0-0.1,0-0.2,0c-0.5-0.1-0.9-0.6-0.8-1.2l2.2-12C4.7,1.3,5.2,0.9,5.7,1c0.5,0.1,0.9,0.6,0.8,1.2l-2.2,12
		C4.3,14.7,3.8,15,3.4,15z"/>
</g>
</svg>
