<?xml version="1.0" encoding="utf-8"?>
<!-- Generator: Adobe Illustrator 27.0.1, SVG Export Plug-In . SVG Version: 6.00 Build 0)  -->
<svg version="1.1" id="Layer_1" xmlns="http://www.w3.org/2000/svg" xmlns:xlink="http://www.w3.org/1999/xlink" x="0px" y="0px"
	 viewBox="0 0 20 20" style="enable-background:new 0 0 20 20;" xml:space="preserve">
<g>
	<path d="M10,19.9c-5.5,0-10-4.5-10-10C0,4.5,4.5,0,10,0c5.5,0,10,4.5,10,10C19.9,15.5,15.5,19.9,10,19.9z M10,2c-4.4,0-8,3.6-8,8
		s3.6,8,8,8s8-3.6,8-8S14.4,2,10,2z"/>
</g>
<g>
	<path d="M10,20c-5.5,0-10-4.5-10-10s4.5-10,10-10c5.5,0,10,4.5,10,10S15.5,20,10,20z M10,2.1c-4.4,0-8,3.6-8,8s3.6,8,8,8s8-3.6,8-8
		S14.4,2.1,10,2.1z"/>
</g>
<g>
	<path d="M10,12.2c-0.6,0-1-0.4-1-1V5.1c0-0.6,0.4-1,1-1s1,0.4,1,1v6.1C11,11.7,10.5,12.2,10,12.2z"/>
</g>
<g>
	<path d="M10,12.2c-0.2,0-0.4-0.1-0.6-0.2c-0.5-0.3-0.6-0.9-0.3-1.4l2-3c0.3-0.5,0.9-0.6,1.4-0.3c0.5,0.3,0.6,0.9,0.3,1.4l-2,3
		C10.6,12,10.3,12.2,10,12.2z"/>
</g>
</svg>
