<?xml version="1.0" encoding="utf-8"?>
<!-- Generator: Adobe Illustrator 27.0.1, SVG Export Plug-In . SVG Version: 6.00 Build 0)  -->
<svg version="1.1" id="Layer_1" xmlns="http://www.w3.org/2000/svg" xmlns:xlink="http://www.w3.org/1999/xlink" x="0px" y="0px"
	 viewBox="0 0 22 23" style="enable-background:new 0 0 22 23;" xml:space="preserve">
<style type="text/css">
	.st0{fill:#9499A3;}
</style>
<g>
	<path class="st0" d="M16,6c-0.6,0-1-0.4-1-1c0-0.3-0.1-0.6-0.3-0.8C14.6,4.1,14.5,4,14.2,4c-0.2,0-0.3,0.1-0.5,0.2
		c-0.4,0.4-1,0.5-1.4,0.1c-0.4-0.4-0.5-1-0.1-1.4c0.5-0.6,1.2-0.9,2-0.9c0.8,0,1.5,0.3,2,0.9C16.7,3.5,17,4.2,17,5
		C17,5.6,16.6,6,16,6z"/>
</g>
<g>
	<path class="st0" d="M13,4c-0.4,0-0.9-0.3-1-0.8c-0.1-0.5-0.4-0.9-0.9-1.1c-0.4-0.2-0.9-0.2-1.3,0C9.4,2.3,9.1,2.7,9,3.2
		C8.8,3.7,8.2,4,7.7,3.9C7.2,3.7,6.9,3.1,7,2.6c0.3-1,1-1.9,2-2.3c1-0.4,2.1-0.4,3,0.1C13,0.8,13.7,1.7,14,2.8
		c0.1,0.5-0.2,1.1-0.7,1.2C13.2,4,13.1,4,13,4z"/>
</g>
<g>
	<path class="st0" d="M5,6C5,6,5,6,5,6C4.4,6,4,5.6,4,5c0-0.8,0.4-1.6,1-2.2C5.7,2.3,6.5,2,7.4,2C8.2,2,9,2.3,9.7,2.8
		c0.4,0.4,0.5,1,0.1,1.4c-0.4,0.4-1,0.5-1.4,0.1C8.1,4.1,7.7,4,7.3,4C7,4,6.6,4.1,6.3,4.3C6.1,4.5,6,4.8,6,5C6,5.6,5.6,6,5,6z"/>
</g>
<g>
	<path class="st0" d="M14.7,23H6.4c-0.9,0-1.7-0.3-2.3-0.9c-0.6-0.6-1-1.4-1-2.2V7.7C3,7,3.6,6.4,4.4,6.4h4.4
		c-0.1-0.2-0.1-0.5,0-0.7C9,5.1,9.5,4.9,10.1,5.1c0.2,0.1,1.5,0.6,2,2.2c0,0,0,0.1,0,0.2c0,0.1,0.1,0.3,0.1,0.5c0,0.1,0,0.1,0.1,0.1
		c0.1,0.1,0.2,0.1,0.3,0.1c0.2-0.1,0.5-0.5,0.6-1.5c0.1-0.5,0.6-0.9,1.1-0.9c0.3,0,0.6,0.2,0.7,0.5h1.6c0.8,0,1.4,0.6,1.4,1.3v0.9
		c0.7,0,1.4,0.3,2,0.8c0.6,0.5,0.9,1.3,0.9,2v3.6c0,0.8-0.3,1.5-0.9,2c-0.5,0.5-1.2,0.8-2,0.8v2c0,0.8-0.4,1.7-1,2.2
		C16.4,22.7,15.6,23,14.7,23z M5,19.5v0.4c0,0.3,0.1,0.5,0.4,0.7C5.6,20.9,6,21,6.4,21h8.4c0.4,0,0.7-0.1,1-0.4
		c0.2-0.2,0.4-0.5,0.4-0.7v-0.4L5,19.5z M11.7,17.5H13v-5.7c0-0.6,0.4-1,1-1s1,0.4,1,1v5.7h1.1V8.4h-1.2c-0.3,0.7-0.6,1.3-1.1,1.6
		c-0.4,0.3-1,0.4-1.5,0.3c-0.5-0.1-1-0.3-1.3-0.6c-0.4-0.3-0.6-0.8-0.7-1.2H5v9.2h1.2v-5.7c0-0.6,0.4-1,1-1s1,0.4,1,1v5.7h1.5v-5.7
		c0-0.6,0.4-1,1-1s1,0.4,1,1V17.5z M18.1,10.6v5.2c0.2,0,0.5-0.1,0.6-0.3c0.2-0.1,0.3-0.3,0.3-0.5v-3.6c0-0.2-0.1-0.4-0.3-0.5
		C18.6,10.8,18.3,10.7,18.1,10.6z M16.7,8.4L16.7,8.4L16.7,8.4z"/>
</g>
</svg>
