<svg width="22" height="17" viewBox="0 0 22 17" fill="none" xmlns="http://www.w3.org/2000/svg">
<path d="M19.6902 4.54984C19.7036 4.72003 19.7036 4.89023 19.7036 5.06199C19.7036 10.2957 15.1971 16.3318 6.95686 16.3318V16.3287C4.52267 16.3318 2.13904 15.7153 0.0898438 14.553C0.443795 14.5906 0.799521 14.6094 1.15613 14.6102C3.17339 14.6118 5.13299 14.0134 6.72 12.9114C4.80299 12.8792 3.12194 11.7741 2.53468 10.1608C3.20621 10.2753 3.89815 10.2518 4.55726 10.0926C2.46726 9.71925 0.963634 8.09572 0.963634 6.21023V6.16003C1.58638 6.4667 2.28363 6.63689 2.99686 6.65572C1.02839 5.49258 0.421618 3.17729 1.61033 1.36709C3.88484 3.8416 7.24073 5.34591 10.8432 5.50513C10.4822 4.12944 10.9754 2.68787 12.1393 1.72082C13.9436 0.221208 16.7815 0.29807 18.4776 1.89258C19.4809 1.71768 20.4425 1.39219 21.3225 0.931012C20.9881 1.84787 20.2881 2.6267 19.3531 3.1216C20.2411 3.02905 21.1087 2.81885 21.9257 2.49807C21.3243 3.29493 20.5667 3.98905 19.6902 4.54984Z" fill="white"/>
</svg>
