<svg width="26" height="22" viewBox="0 0 26 22" fill="none" xmlns="http://www.w3.org/2000/svg">
<path d="M25.4063 2.53472C24.5132 2.94888 23.4926 3.22498 22.4719 3.36303C23.4926 2.67277 24.3857 1.56836 24.7684 0.325896C23.7477 1.01615 22.5995 1.43031 21.4512 1.70641C20.6857 0.878102 19.665 0.187844 18.5168 0.0497924C17.3685 -0.0882592 16.2202 0.0497924 15.1995 0.601999C14.1789 1.15421 13.4134 2.12057 12.903 3.22498C12.3927 4.32939 12.2651 5.57186 12.5203 6.81432C10.4789 6.67627 8.43755 6.12406 6.65136 5.1577C4.86517 4.05329 3.33415 2.67277 1.93072 0.878102C1.54796 1.70641 1.29279 2.67277 1.29279 3.63913C1.29279 4.6055 1.54796 5.43381 1.93072 6.26212C2.31347 7.09043 2.9514 7.78068 3.58932 8.33289C2.82381 8.33289 1.93072 8.05679 1.29279 7.64263V7.78068C1.29279 9.02315 1.67555 10.2656 2.44106 11.37C3.20657 12.3364 4.22725 13.0266 5.37551 13.3027C4.61 13.5789 3.84449 13.5789 3.07898 13.4408C3.46174 14.5452 4.09966 15.5116 4.86517 16.2018C5.75827 16.8921 6.77894 17.3062 7.79962 17.3062C6.01343 18.8248 3.71691 19.6531 1.42038 19.6531C1.03763 19.6531 0.654871 19.6531 0.144531 19.5151C2.44106 21.1717 5.24793 22 8.05479 22C17.4961 22 22.7271 13.4408 22.7271 6.12406C22.7271 5.84796 22.7271 5.70991 22.7271 5.43381C23.7477 4.6055 24.6408 3.63913 25.4063 2.53472Z" fill="black"/>
</svg>
