<svg width="83" height="86" fill="none" xmlns="http://www.w3.org/2000/svg"><g clip-path="url(#clip0_2070_98686)"><path d="M42 76c17.12 0 31-14.103 31-31.5S59.12 13 42 13c-17.12 0-31 14.103-31 31.5S24.88 76 42 76z" fill="#9EC3E5"/><path d="M52.266 78.245c14.24-4.462 24.58-17.842 24.58-33.655 0-16.01-10.6-29.528-25.118-33.818a34.758 34.758 0 00-9.865-1.42c-19.321 0-34.984 15.777-34.984 35.238 0 7.13 2.102 13.766 5.716 19.313 6.251 9.592 17.025 15.926 29.268 15.926" stroke="#5BA5F5" stroke-width="3" stroke-linecap="round" stroke-linejoin="round"/><path d="M40.578 30.225v16.583h8.746M14.345 1.205L1.227 9.497M66.82 1.205l13.12 8.292" stroke="#000" stroke-width="3" stroke-linecap="round" stroke-linejoin="round"/><path d="M3.153 54.43a40.25 40.25 0 0013.53 21.356c6.868 5.632 15.632 9.008 25.179 9.008 22.043 0 39.913-18 39.913-40.204S63.904 4.387 41.862 4.387c-22.043 0-39.913 18-39.913 40.203" stroke="#5BA5F5" stroke-width="3" stroke-linecap="round" stroke-linejoin="round"/></g><defs><clipPath id="clip0_2070_98686"><path fill="#fff" d="M0 0h83v86H0z"/></clipPath></defs></svg>