<svg width="243" height="163" fill="none" xmlns="http://www.w3.org/2000/svg"><g clip-path="url(#clip0_4287_123418)"><path d="M97.87 51.117c11.447-11.178 38.22-34.099 53.668-47.192 6.173-5.232 16.866-5.234 23.042-.003 15.494 13.123 42.404 36.14 53.724 47.195 3.417 3.338 7.011 5.792 10.563 7.588v63.183H88.074V58.307c3.301-1.756 6.625-4.092 9.796-7.19z" fill="#3479B7"/><path d="M.852 136.053h62.88m-42.584 10.845H73.91m-61.68 10.305h52.761" stroke="#1D1D1B" stroke-width="2" stroke-miterlimit="10" stroke-linecap="round"/><path d="M232.61 56.953H93.774c-5.739 0-10.391 4.658-10.391 10.404v85.19c0 5.746 4.652 10.404 10.391 10.404H232.61c5.739 0 10.391-4.658 10.391-10.404v-85.19c0-5.746-4.652-10.404-10.391-10.404z" fill="#3379B8"/><path d="M236.715 65.559H89.638a6.274 6.274 0 00-6.27 6.278v84.885a6.274 6.274 0 006.27 6.278h147.077a6.275 6.275 0 006.271-6.278V71.837a6.275 6.275 0 00-6.271-6.278z" fill="#4090E7"/><path d="M150.863 128.161L86 158.541 145.294 122l5.569 6.161zm24.137.875l64.863 30.38-59.293-36.541-5.57 6.161z" fill="#3479B7"/><path d="M101.106 71.345c10.888 13.253 36.353 40.426 51.045 55.948 5.871 6.203 16.042 6.205 21.916.004 14.737-15.558 40.331-42.847 51.098-55.952 3.25-3.957 6.668-6.866 10.047-8.996V28.5H91.789v34.321c3.14 2.082 6.3 4.852 9.317 8.524v0z" fill="#fff" stroke="#9EC3E5" stroke-width="2" stroke-miterlimit="10"/><path opacity=".38" d="M162.261 101.208c13.285 0 24.055-10.782 24.055-24.083 0-13.301-10.77-24.084-24.055-24.084-13.284 0-24.054 10.783-24.054 24.084 0 13.3 10.77 24.083 24.054 24.083z" fill="#9EC3E5"/><path d="M169.993 98.428c8.833-2.815 15.247-11.255 15.247-21.23 0-10.1-6.576-18.627-15.581-21.333a21.227 21.227 0 00-6.119-.896c-11.985 0-21.7 9.952-21.7 22.229a22.51 22.51 0 003.546 12.182c3.877 6.051 10.56 10.047 18.154 10.047" stroke="#4090E7" stroke-width="2" stroke-linecap="round" stroke-linejoin="round"/><path d="M146.469 49.83l-8.137 5.23m40.688-5.23l8.137 5.23" stroke="#1D1D1B" stroke-width="2" stroke-linecap="round" stroke-linejoin="round"/><path d="M139.528 83.406a25.444 25.444 0 008.392 13.471c4.26 3.553 9.697 5.683 15.618 5.683 13.673 0 24.758-11.354 24.758-25.361 0-14.007-11.085-25.361-24.758-25.361-13.673 0-24.757 11.354-24.757 25.36" stroke="#4090E7" stroke-width="2" stroke-linecap="round" stroke-linejoin="round"/><path d="M162.746 68.143v10.46h5.425" stroke="#1D1D1B" stroke-width="2" stroke-linecap="round" stroke-linejoin="round"/></g><defs><clipPath id="clip0_4287_123418"><path fill="#fff" d="M0 0h243v163H0z"/></clipPath></defs></svg>