<svg width="155" height="149" fill="none" xmlns="http://www.w3.org/2000/svg"><path fill-rule="evenodd" clip-rule="evenodd" d="M93.322 17.722c17.529 4.968 38.425 6.712 47.496 22.575 9.074 15.867 4.066 36.477-4.447 52.708-7.021 13.386-22.631 17.51-36.015 24.441-12.344 6.393-23.859 14.98-37.667 13.717-16.366-1.498-33.416-7.311-42.5-21.053-9.485-14.353-7.607-32.68-4.2-49.602 3.72-18.473 7.573-39.685 24.013-48.78 16.313-9.026 35.434.926 53.32 5.994z" fill="#91C3FA" fill-opacity=".4"/><g clip-path="url(#clip0_2070_98760)"><path d="M48.847 76.38l-18.041 26.31h82.852V46.25l-64.81 30.13z" fill="#4090E7"/><path d="M82.589 74.47L59.773 61.728V76.38L72.23 89.34l12.46-12.96-2.101-1.91z" fill="#4090E7"/><path d="M59.773 76.38l-28.967 26.31V46.25l28.967 15.565v14.564z" fill="#91C3FA"/><path d="M61.876 74.47l-2.103 1.91-28.967-30.13 31.07 28.22z" fill="#4090E7"/><path d="M108.195 51.934V97.73L84.691 76.38l23.504-24.446z" fill="#91C3FA"/><path d="M30.806 46.25l41.426 37.627 41.426-37.627H30.806z" fill="#fff"/><path d="M113.658 44.885H30.806c-.754 0-1.365.611-1.365 1.365v56.44c0 .754.61 1.365 1.365 1.365h82.852c.755 0 1.366-.611 1.366-1.365V46.25c0-.754-.611-1.365-1.366-1.365zm-1.365 56.439H32.172V47.616h80.121v53.708z" fill="#000"/><path d="M35.81 98.146a1.362 1.362 0 001.929.093l24.137-21.923 9.438 8.572a1.363 1.363 0 001.837 0l9.438-8.573 24.138 21.925a1.363 1.363 0 001.929-.093 1.365 1.365 0 00-.093-1.929L84.62 74.471l23.943-21.747a1.366 1.366 0 10-1.837-2.022l-34.494 31.33-34.494-31.33a1.366 1.366 0 00-1.836 2.022l23.943 21.747-23.943 21.747c-.558.507-.6 1.37-.093 1.928z" fill="#000"/></g><defs><clipPath id="clip0_2070_98760"><path fill="#fff" transform="translate(29.44 31.686)" d="M0 0h85.583v85.57H0z"/></clipPath></defs></svg>