<svg width="126" height="136" fill="none" xmlns="http://www.w3.org/2000/svg"><g clip-path="url(#clip0_1507_25385)"><path d="M.5 55.57h34.616S53.796 32.244 62.999 0C42.371 32.244.5 55.57.5 55.57z" fill="url(#paint0_linear_1507_25385)"/><path d="M.508 74.597V57.253H17.58L.508 74.597zm124.994 0V57.253H108.43l17.072 17.344z" fill="#FDC525"/><path d="M85.477 78.893c-3.96 0-7.021 1.276-9.098 3.795-2.044 2.477-3.08 6.118-3.08 10.82v27.876c0 4.702 1.036 8.343 3.08 10.821 2.077 2.518 5.138 3.795 9.098 3.795 4.03 0 7.135-1.276 9.231-3.792 2.058-2.471 3.102-6.112 3.102-10.824V93.509c0-4.712-1.044-8.354-3.102-10.824-2.096-2.517-5.202-3.792-9.23-3.792zm9.14 42.569c0 7.603-3.075 11.458-9.14 11.458-2.956 0-5.206-.943-6.69-2.802-1.523-1.91-2.295-4.822-2.295-8.656V93.43c0-3.833.772-6.745 2.296-8.655 1.483-1.86 3.734-2.802 6.69-2.802 6.064 0 9.139 3.855 9.139 11.457v28.032zm19.628-15.203c-5.033-3.416-9.787-6.643-9.787-13.142 0-3.395.657-6.071 1.951-7.955 1.455-2.116 3.744-3.19 6.803-3.19 7.171 0 8.676 6.104 8.676 11.224v1.853h3.193v-1.775c0-4.224-.899-7.615-2.673-10.078-2.057-2.855-5.177-4.303-9.281-4.303-7.649.076-11.862 5.156-11.862 14.303 0 8.124 5.601 11.913 11.018 15.577 4.979 3.368 9.682 6.549 9.682 12.924 0 3.426-.68 6.119-2.021 8.004-1.484 2.084-3.801 3.14-6.887 3.14-3.086 0-5.403-1.056-6.886-3.14-1.342-1.885-2.022-4.578-2.022-8.004v-3.498h-3.116v3.42c0 4.244.914 7.646 2.715 10.111 2.072 2.833 5.204 4.27 9.309 4.27 4.139 0 7.294-1.436 9.375-4.269 1.809-2.461 2.726-5.863 2.726-10.112 0-7.954-5.547-11.719-10.913-15.36zM63.651 79.95h-1.344v55.016h1.344V79.95zM5.272 94.652h5.074v-4.38H5.272v-6.307h6.468v-4.38H.594v26.116h4.678V94.652zm19.68 6.501h-6.79v-7.032h5.397v-4.38h-5.396v-5.945h6.79v-4.38h-11.47v26.116h11.468v-4.379zm12.342 2.954c1.073-1.178 1.618-2.873 1.618-5.04 0-1.648-.327-3.11-.973-4.343-.64-1.22-1.81-2.585-3.48-4.057-1.252-1.105-2.124-2.051-2.59-2.812a4.481 4.481 0 01-.676-2.373c0-.954.18-2.048 1.592-2.048.533 0 .919.152 1.18.464.273.326.412.884.412 1.657v1.682h4.463v-1.429c0-2.138-.518-3.814-1.541-4.98-1.035-1.177-2.566-1.774-4.55-1.774-2.005 0-3.564.595-4.634 1.77-1.062 1.166-1.6 2.819-1.6 4.912a8.517 8.517 0 001.012 4.151c.66 1.204 1.83 2.56 3.476 4.032 1.25 1.104 2.115 2.054 2.569 2.825.451.794.68 1.698.662 2.614 0 .794-.143 1.362-.425 1.688-.274.315-.68.469-1.239.469-1.474 0-1.663-1.114-1.663-2.085v-2.118h-4.464v1.828c0 2.141.526 3.817 1.562 4.981 1.045 1.177 2.593 1.774 4.601 1.774 2.03 0 3.606-.602 4.688-1.788zm2.534-20.311h4.11v21.736h4.678V83.796h4.11v-4.38H39.827v4.38zM.597 113.759h7.106L.62 131.424l-.027.069v4.002h12.254v-4.38H5.739l7.082-17.665.027-.068v-4.003H.597v4.38zm14.958 21.736h11.468v-4.38h-6.79v-7.031h5.396v-4.38h-5.396v-5.945h6.79v-4.38H15.555v26.116zm18.965-26.116h-4.678v26.116h11.146v-4.38H34.52v-21.736zm5.308 4.38h4.11v21.736h4.678v-21.736h4.11v-4.38H39.827v4.38z" fill="#fff"/><path d="M35.117 55.57h55.767S72.241 32.244 63.001 0c-9.203 32.244-27.884 55.57-27.884 55.57z" fill="url(#paint1_linear_1507_25385)"/><path d="M63.004.007v.008C72.245 32.251 90.883 55.57 90.883 55.57h-27.88H125.5S83.716 32.247 63.004.007z" fill="url(#paint2_linear_1507_25385)"/></g><defs><linearGradient id="paint0_linear_1507_25385" x1="19.308" y1="53.88" x2="61.538" y2="7.615" gradientUnits="userSpaceOnUse"><stop stop-color="#FDC525"/><stop offset=".951" stop-color="#FECD52"/></linearGradient><linearGradient id="paint1_linear_1507_25385" x1="63.001" y1="53.156" x2="63.001" y2="3.21" gradientUnits="userSpaceOnUse"><stop offset=".006" stop-color="#F6AF2B"/><stop offset="1" stop-color="#FDC525"/></linearGradient><linearGradient id="paint2_linear_1507_25385" x1="93.858" y1="54.906" x2="62.52" y2="3.458" gradientUnits="userSpaceOnUse"><stop offset=".16" stop-color="#EB7D1F"/><stop offset="1" stop-color="#F09445"/></linearGradient><clipPath id="clip0_1507_25385"><path fill="#fff" transform="translate(.5)" d="M0 0h125v136H0z"/></clipPath></defs></svg>