<svg width="503" height="317" fill="none" xmlns="http://www.w3.org/2000/svg"><g clip-path="url(#clip0_4287_123239)"><path d="M283.374 31.063c8.709 0 15.769-6.671 15.769-14.9 0-8.23-7.06-14.901-15.769-14.901s-15.769 6.671-15.769 14.9c0 8.23 7.06 14.901 15.769 14.901z" fill="#fff"/><path d="M252.727.344c-9.547 1.851-15.698 10.665-13.738 19.686 1.959 9.021 11.287 14.834 20.833 12.982 9.547-1.851 15.698-10.665 13.738-19.687-1.959-9.02-11.286-14.833-20.833-12.981z" fill="#fff"/><path d="M295.157 17.468l-48.548 9.415 16.127 74.251 48.548-9.415-16.127-74.251z" fill="#FCE29A"/><path d="M287.393 80.558c.542 2.495 3.122 4.103 5.762 3.591 2.641-.512 4.342-2.95 3.8-5.445l-8.69-40.014c-.542-2.496-3.122-4.103-5.763-3.591-2.64.512-4.342 2.95-3.8 5.445l8.691 40.014zm-16.547 3.207c.542 2.495 3.122 4.103 5.763 3.591 2.64-.512 4.341-2.95 3.8-5.445l-8.691-40.014c-.542-2.496-3.122-4.103-5.763-3.591-2.64.512-4.342 2.95-3.8 5.445l8.691 40.014z" fill="#E3BE2C"/><path d="M142.814 138.779l3.57 4.671-15.104 7.785-1.647-7.266 13.181-5.19z" fill="#fff"/><path d="M369.869 299.869s-52.118 119.597-58.275 131.234c3.079 4.073 6.157 6.982 12.315 5.818 6.158-1.163 8.621-4.655 0-5.236 10.468-12.801 52.34-78.552 52.34-78.552s-7.389 59.35-6.774 73.315c6.158 5.236 17.857 2.909 18.473 0 .616-2.909-8.62-2.328-8.62-2.328s35.098-69.241 39.409-82.624c4.31-13.383-.616-33.166-.616-33.166l-48.252-8.461z" fill="#495C33"/><path d="M451.216 182.772l10.873-2.573-3.4 6.827 32.416 7.058-7.342 14.628-56.098 88.75s11.05 10.442-4.25 11.245c2.125 2.811-5.949 1.606-5.949 1.606l-47.599-10.441s21.674-79.916 27.199-96.782a214.645 214.645 0 013.47-25.14l-.07-.161s-4.25-5.22 5.525-3.212c9.775 2.008 28.049 5.22 28.049 5.22l2.975-5.622 4.221 5.317 9.98 3.28z" fill="#fff"/><path d="M407.586 307.833l60.115-118.948 10.893 2.287-66.167 118.567-4.841-1.906zm-30.664-6.1l43.977-125.048-9.279-1.906-39.136 126.573" fill="#495C33"/><path d="M457.787 188.471a70.279 70.279 0 01-3.116 3.447 127.075 127.075 0 01-3.268 3.299 143.448 143.448 0 01-3.377 3.191c-1.126 1.063-2.306 2.073-3.459 3.11l-1.109.997-.24-1.406a152.898 152.898 0 01-.865-5.641c-.236-1.889-.45-3.782-.548-5.695.637 1.818 1.157 3.658 1.656 5.501.486 1.845.924 3.699 1.339 5.556l-1.348-.409c1.143-1.047 2.259-2.12 3.429-3.14a142.338 142.338 0 013.513-3.057 126.1 126.1 0 013.621-2.951 72.65 72.65 0 013.772-2.802zm-23.149-.001c-1.515 1.482-3.115 2.86-4.731 4.219a141.618 141.618 0 01-4.961 3.94l-3.462 2.615 2.262-3.624a124.524 124.524 0 012.271-3.517c.759-1.171 1.572-2.311 2.365-3.462 1.633-2.276 3.293-4.536 5.154-6.68-1.171 2.543-2.542 4.97-3.94 7.381-.723 1.192-1.426 2.395-2.182 3.568a123.087 123.087 0 01-2.275 3.514l-1.2-1.009a142.3 142.3 0 015.234-3.611c1.782-1.159 3.581-2.298 5.465-3.334zm2.204 3.907l-11.518 25.524c-3.785 8.525-7.607 17.036-11.157 25.633-1.785 4.293-3.365 8.641-4.933 13.025l-4.617 13.158-9.081 26.381-.052.15-.151.048c-.916.289-1.83.698-2.641 1.214-.804.518-1.546 1.177-1.895 2.025-.358.844-.184 1.827.308 2.638.473.828 1.176 1.534 1.923 2.172-.788-.594-1.541-1.256-2.087-2.082-.569-.798-.83-1.874-.474-2.839.345-.965 1.118-1.707 1.939-2.292a11.76 11.76 0 012.727-1.403l-.203.198c1.279-4.468 2.674-8.902 4.044-13.343 1.384-4.438 2.759-8.879 4.227-13.293 1.45-4.42 2.928-8.832 4.479-13.224 1.537-4.387 3.116-8.797 4.951-13.099a384.817 384.817 0 015.624-12.838l2.937-6.364 3.033-6.322c4.053-8.424 8.234-16.792 12.617-25.067z" fill="#DDD"/><path d="M449.045 86.824s-26.469 49.612-34.279 68.474c15.187 6.56 33.411 13.53 33.411 13.53l-6.942 10.661-4.774 10.661 14.754-7.381 37.75-82.825s-28.638-13.53-39.92-13.12z" fill="#FFCD97"/><path d="M479.471 102.951s-14.054 9.765-25.628 8.789c-11.574-.977-4.134-5.468 2.893-7.226-24.594 1.562-36.995-.196-25.008-3.32l10.954-2.734s-15.087-3.125.827-8.203c17.154-4.882 28.521 1.367 28.521 1.367l16.939 8.322 1.042 5.154-14.261 27.341s-7.233-7.03 3.721-29.49z" fill="#49422F"/><path d="M469.878 133.155s13.017-6.97 13.017 2.87c0 9.841-14.753 13.941-16.489 7.381" fill="#FFCD97"/><path d="M448.281 122.852a113.741 113.741 0 01-4.311 4.082 200.078 200.078 0 01-4.454 3.924 224.616 224.616 0 01-4.556 3.812c-1.519 1.271-3.09 2.483-4.634 3.726l-.454-1.334 3.787.397 3.782.455c2.518.333 5.034.688 7.541 1.152-2.554.049-5.097-.012-7.639-.095l-3.808-.169-3.802-.226-1.948-.116 1.494-1.218c1.536-1.252 3.044-2.534 4.605-3.758a232.007 232.007 0 014.683-3.672 202.426 202.426 0 014.786-3.559 116.537 116.537 0 014.928-3.401zm9.24 18.396c-1.416 2.166-3.135 4.143-5.033 5.963-1.899 1.821-4.033 3.462-6.491 4.715-1.247.588-2.589 1.081-4.045 1.257-1.44.162-3.04-.034-4.308-.81-1.286-.746-2.137-1.904-2.735-3.071-.614-1.178-.925-2.439-1.147-3.688.579 1.149 1.095 2.309 1.861 3.298.718 1.004 1.605 1.886 2.666 2.383 1.063.487 2.254.607 3.442.4 1.19-.184 2.371-.619 3.495-1.177 1.135-.546 2.217-1.22 3.276-1.935 1.07-.701 2.083-1.489 3.101-2.28 2.016-1.605 3.967-3.308 5.918-5.055zm20.457-4.365c-.043-.511-.129-1.019-.297-1.453-.082-.214-.2-.408-.335-.513a.495.495 0 00-.399-.114c-.31.035-.739.249-1.124.51-.386.28-.775.575-1.152.902a42.704 42.704 0 00-2.194 2.08c-.742.699-1.433 1.455-2.177 2.167l-.414-1.155c.549.152 1.104.269 1.716.761.149.143.322.32.394.605a.99.99 0 01-.094.744c-.214.375-.485.538-.729.702-.498.309-1.009.493-1.524.655-.515.158-1.039.272-1.571.346a45.55 45.55 0 001.309-.843c.42-.282.832-.583 1.154-.892.157-.149.28-.335.288-.413.01-.045-.019-.011-.02.025.011.039-.011.03-.05.007-.226-.114-.725-.241-1.188-.308l-1.203-.175.788-.98a32.627 32.627 0 012.106-2.34c.769-.729 1.542-1.465 2.45-2.089.445-.319.921-.62 1.446-.867.533-.229 1.112-.495 1.885-.392.381.052.775.291.958.592.189.299.241.599.262.877.028.559-.096 1.076-.285 1.561z" fill="#EAA968"/><path d="M454.797 126.947c-.441 1.373-1.516 2.28-2.4 2.026-.884-.254-1.243-1.572-.802-2.945.441-1.373 1.515-2.28 2.4-2.026.884.253 1.243 1.572.802 2.945zm-10.113-3.15c-.441 1.372-1.516 2.28-2.4 2.026-.884-.254-1.244-1.573-.802-2.945.441-1.373 1.515-2.281 2.4-2.027.884.254 1.243 1.573.802 2.946z" fill="#333"/><path d="M454.668 115.842s9.094-4.688 9.094 5.468l-9.094-5.468zm-4.34-1.369s-5.373-7.812-8.887-.586l8.887.586z" fill="#49422F"/><path d="M441.602 90.1l24.506-15.977s27.27 1.647 36.891 8.53c-5.782 17.356-14.288 29.207-14.288 29.207L441.602 90.1z" fill="#3E664C"/><path d="M441.602 90.098l47.109 21.761s4.376-6.116 8.983-15.965c-12.176-4.803-35.358-10.761-44.854-13.123l-11.238 7.327z" fill="#F9B74D"/><path d="M494.156 119.391s-59.581-30.187-66.617-33.24c10.894 1.828 38.761 13.524 38.761 13.524s24.673-3.925 32.792 3.532c8.12 7.457-4.936 16.184-4.936 16.184z" fill="#3E664C"/><path d="M354.997 181.001l-6.216-70.778-10.487-.412-1.747 94.133 11.797-.826 6.653-22.117zm116.02 99.193l-70.243-1.933s-1.748-12.798-7.865-15.276c-6.117-2.477-10.486-5.78-5.243 4.955-17.04-.413-21.409 4.954-26.215 12.799-4.807 7.844-2.185 14.863 8.301 10.734s30.148-5.78 30.148-5.78l84.763 17.34 5.903-17.217-19.549-5.622z" fill="#FFCD97"/><path d="M466.828 278.816l20.178 23.97s7.783-4.63 3.171-9.806c4.612-2.724 3.171-8.989 3.171-8.989l-23.349-6.809-3.171 1.634zm-110.69-101.328l-13.837 28.056s-1.729 5.448 4.613 3.542c2.306 2.179 9.8.272 9.8.272l5.478-31.052-6.054-.818z" fill="#EDEAE2"/><path d="M446.835 250.653c-1.317 3.58-5.199 5.557-8.672 4.417-3.473-1.14-5.221-4.967-3.904-8.547 1.317-3.58 5.199-5.558 8.672-4.417 3.473 1.14 5.221 4.967 3.904 8.547zm-42.516-13.467c-1.316 3.58-5.199 5.558-8.672 4.417-3.473-1.14-5.22-4.967-3.904-8.547 1.317-3.58 5.2-5.557 8.672-4.417 3.473 1.141 5.221 4.967 3.904 8.547z" stroke="#CCC" stroke-width="3.289" stroke-miterlimit="10"/><path d="M399.938 242.687l3.623-12.783s23.432-8.217 34.544 11.87c-.966 4.109-4.107 10.044-4.107 10.044s-28.504 7.533-34.06-9.131z" fill="#495C33"/><path d="M6.523 244.098s-15.865 17.133 1.889 39.263c17.753 22.13 69.125 30.696 69.125 30.696l-.755-24.985-34.91-22.777-35.349-22.197zm180.938-87.806s48.35-48.187 61.571-75.67c-.756-9.995-.756-17.49-.756-17.49l7.555 9.994s18.887-15.706 25.686-19.99c6.799-4.283 19.642-3.925 15.109 11.78-4.532 15.705-22.664 23.2-31.352 24.628 1.134 22.131-31.886 94.63-41.629 102.641-9.743 8.01-36.184-35.893-36.184-35.893zm-70.985-50.19l24.846 24.544 11.011-2.934-7.624 7.203 4.236 4.002-14.964 7.203s7.905 19.209 22.869 11.472c3.388 3.735 8.188 8.538-13.552 11.739-6.776 8.271-13.834 22.944-13.834 22.944l-36.987-9.871-10.446-58.161 34.445-18.141z" fill="#FFCD97"/><path d="M116.476 106.102s6.002 11.729 5.743 18.579c-.259 6.85-1.036 9.052-3.107.734-.518 17.859-12.168 47.462-12.168 47.462l-16.57 1.223-8.343-49.857 34.445-18.141z" fill="#FEE299"/><path d="M122.404 139.716s-9.317-5.602-12.14 2.135c-2.823 7.737 16.093 18.141 15.811 10.138" fill="#FFCD97"/><path d="M126.674 111.889l-23.282-15.178s-25.908 1.564-35.048 8.103c5.492 16.49 13.574 27.749 13.574 27.749l44.756-20.674z" fill="#49422F"/><path d="M126.674 111.889l-44.757 20.673s-4.157-5.81-8.534-15.168c11.568-4.562 33.592-10.223 42.613-12.466l10.678 6.961z" fill="#F9B74D"/><path d="M76.744 139.719s56.606-28.68 63.29-31.58c-10.35 1.737-36.824 12.849-36.824 12.849s-23.44-3.729-31.155 3.355c-7.714 7.084 4.69 15.376 4.69 15.376z" fill="#49422F"/><path d="M123.913 184.968s-26.953-11.885-37.734-11.885c-.898 7.64-.898 8.914-.898 8.914s-38.184 9.763-72.773 53.485c9.433 11.037 28.3 25.469 28.3 25.469l12.578-6.792 26.055 77.681s47.617 6.791 70.976 19.95c16.621 4.245 42.676-1.273 51.211-41.175 8.535-39.901-17.969-84.047-17.969-84.047s25.156-16.131 39.981-34.383c-11.68-11.037-39.532-33.535-39.532-33.535s-36.386 22.498-60.195 26.318z" fill="#4090E7"/><path d="M179.305 159.947l34.842 46.25s14.656-9.929 17.698-18.552c-19.357-15.678-46.457-32.663-46.457-32.663l-6.083 4.965zM47.956 259.762l-31.8-31.356s-11.061 10.975-12.168 15.94c19.08 12.019 37.884 21.949 37.884 21.949l6.084-6.533z" fill="#3479B7"/><path d="M117.108 337.564s-16.15-116.862 5.524-152.603c6.375-1.606 8.5-2.008 8.5-2.008s-20.399 5.221-8.5 156.217c-5.949 5.622-7.224-1.606-7.224-1.606m-35.964-5.726S46.56 215.882 77.584 184.96c6.375-3.213 7.7-2.965 7.7-2.965s-12.8 17.422-14.925 47.541c-2.125 30.119 9.085 102.302 9.085 102.302z" fill="#49422F"/><path d="M123.914 184.967c.846.912-38.633-2.971-38.633-2.971l1.152-9.875s32.744 7.74 37.481 12.846zm59.751 41.601s-8.037 6.715-12.946 14.446l12.946-14.446z" fill="#3479B7"/><path d="M134.573 126.581c-.95.212-1.733.331-2.374.498-.654.161-1.007.378-1.184.555-.206.169-.451.592-.732 1.181-.094.318-.25.641-.394 1.005-.143.368-.278.748-.534 1.173-.357-.323-.592-.691-.836-1.071-.212-.386-.322-.819-.432-1.255a5.36 5.36 0 01-.022-.709c.002-.12.003-.242.015-.362.024-.125.064-.255.099-.384.122-.504.433-1.05.889-1.477a3.308 3.308 0 011.657-.798c.287-.037.576-.084.835-.046.268.012.526.047.761.118.952.263 1.734.772 2.252 1.572z" fill="#333"/><path d="M136.343 132.437c1.16-1.095 1.395-2.65.525-3.472-.87-.822-2.515-.6-3.675.496-1.159 1.096-1.394 2.651-.524 3.472.869.822 2.514.6 3.674-.496z" fill="#3D3726"/><path d="M358.675 49.447c3.124-6.28.294-13.754-6.322-16.692-6.615-2.938-14.51-.227-17.634 6.054-3.124 6.28-.294 13.754 6.321 16.692 6.616 2.938 14.511.228 17.635-6.054z" fill="#fff"/><path d="M382.107 55.536c3.497-7.028.333-15.392-7.069-18.681-7.402-3.29-16.238-.259-19.736 6.77-3.498 7.027-.333 15.391 7.069 18.68 7.402 3.29 16.238.26 19.736-6.769z" fill="#fff"/><path d="M336.805 43.016l-28.774 57.853 37.645 16.718 28.774-57.853-37.645-16.718z" fill="#FCE29A"/><path d="M329.875 96.15c-.967 1.945-3.411 2.784-5.458 1.874-2.048-.909-2.924-3.222-1.957-5.166l15.506-31.178c.967-1.944 3.411-2.783 5.459-1.874 2.047.91 2.923 3.223 1.956 5.167L329.875 96.15zm12.832 5.7c-.967 1.944-3.411 2.783-5.458 1.874-2.048-.91-2.924-3.223-1.957-5.167l15.506-31.178c.967-1.944 3.411-2.783 5.459-1.873 2.047.909 2.923 3.222 1.956 5.166l-15.506 31.178z" fill="#E3BE2C"/></g><defs><clipPath id="clip0_4287_123239"><path fill="#fff" d="M0 0h503v550H0z"/></clipPath></defs></svg>