<svg width="149" height="121" fill="none" xmlns="http://www.w3.org/2000/svg"><path d="M28.895 70.697c-3.944.74-7.89-.493-11.095-3.206-4.438-3.944-6.657-11.095-5.918-18.492.494-4.438 1.973-7.644 4.932-9.616 4.438-3.206 10.356-1.726 10.602-1.48l-1.233 4.932s-3.698-.986-6.41.74c-1.48 1.232-2.22 3.205-2.466 5.917-.493 5.918.986 11.342 4.192 14.301 1.232 1.233 3.452 2.466 6.657 1.973l.74 4.93z" fill="#E4E4E4" opacity=".8"/><path d="M57.998 38.501c8.361 1.664 16.404-3.347 17.965-11.19 1.56-7.845-3.954-15.552-12.315-17.215-8.362-1.664-16.405 3.347-17.965 11.19-1.56 7.845 3.953 15.552 12.315 17.215z" fill="#FFF9EA"/><path d="M34.396 3.368c-9.517-.058-17.093 7.168-16.923 16.14.171 8.974 8.025 16.295 17.542 16.354 9.517.058 17.093-7.168 16.923-16.141-.171-8.973-8.025-16.294-17.542-16.353z" fill="#FFF9EA"/><path d="M71.881 27.795l-48.397-.298 1.406 73.854 48.397.298-1.406-73.854z" fill="#FCE29A"/><path d="M52.468 86.447c.047 2.482 2.22 4.507 4.852 4.523 2.632.016 4.728-1.983 4.68-4.464l-.757-39.8c-.047-2.483-2.22-4.508-4.852-4.524-2.632-.016-4.728 1.983-4.68 4.465l.757 39.8zm-16.492-.104c.047 2.482 2.22 4.507 4.852 4.524 2.632.016 4.727-1.983 4.68-4.465l-.757-39.8c-.047-2.482-2.22-4.507-4.852-4.523-2.632-.016-4.728 1.982-4.681 4.464l.758 39.8z" fill="#E3BE2C"/><path d="M122.744 74.754c2.887.54 5.774-.361 8.12-2.346 3.248-2.887 4.872-8.12 4.33-13.533-.361-3.248-1.443-5.594-3.609-7.038-3.248-2.346-7.578-1.263-7.759-1.082l.903 3.608s2.706-.721 4.691.542c1.083.902 1.624 2.346 1.805 4.33.36 4.331-.722 8.3-3.068 10.466-.902.902-2.526 1.805-4.872 1.444l-.541 3.609z" fill="#E4E4E4" opacity=".8"/><path d="M115.303 53.706c5.699 1.134 11.181-2.28 12.244-7.627 1.063-5.346-2.694-10.598-8.393-11.732-5.698-1.133-11.18 2.282-12.243 7.627-1.064 5.346 2.694 10.599 8.392 11.733z" fill="#FFF9EA"/><path d="M99.214 29.762c-6.486-.04-11.65 4.885-11.533 11 .117 6.115 5.469 11.105 11.955 11.145 6.486.04 11.649-4.885 11.533-11-.116-6.115-5.469-11.105-11.955-11.145z" fill="#FFF9EA"/><path d="M124.765 46.409l-32.984-.203.958 50.333 32.984.203-.958-50.333z" fill="#FCE29A"/><path d="M111.53 86.382c.032 1.692 1.513 3.072 3.307 3.083 1.794.01 3.222-1.351 3.19-3.043l-.516-27.124c-.032-1.692-1.513-3.072-3.307-3.083-1.794-.011-3.222 1.351-3.19 3.043l.516 27.124zm-11.242-.071c.032 1.691 1.513 3.071 3.307 3.083 1.794.01 3.222-1.352 3.19-3.043l-.516-27.125c-.033-1.691-1.513-3.071-3.307-3.082-1.794-.011-3.222 1.35-3.19 3.042l.516 27.125z" fill="#E3BE2C"/><g clip-path="url(#clip0_5389_146888)"><path d="M2.217 110.644l21.135-45.19-2.08 45.19H2.216z" fill="#116ABA"/><path d="M148.203 118.318l-129.32 1.702 4.467-54.578 115.498-.422 9.355 53.298z" fill="#4090E7"/><path d="M47.655 98.493c.203.384.43.756.677 1.113.242.345.536.716.88 1.138-.663.097-1.333.139-2.004.128a4.713 4.713 0 01-1.595-.32 2.244 2.244 0 01-1.161-1.023l-.88-1.867-1.392-2.917a246.978 246.978 0 01-1.148-2.43h-.447l-1.634 8.442h-3.56l3.33-17.204h5.437a5.988 5.988 0 014.212 1.152 3.212 3.212 0 01.83 3.044 5.34 5.34 0 01-1.353 2.814 5.445 5.445 0 01-3.28 1.637 222.72 222.72 0 001.76 3.607 257.252 257.252 0 011.328 2.686zM41.99 85.229l-1.123 5.807a5.822 5.822 0 003.126-.819 3.836 3.836 0 001.736-2.123 2.27 2.27 0 00-.204-2.085 1.952 1.952 0 00-1.66-.78H41.99zm15.486 13.903c.8.064 1.605.034 2.399-.09v.231a8.424 8.424 0 01-2.182 1.279 7.65 7.65 0 01-2.706.397c-2.102 0-3.471-.559-4.11-1.676a7.588 7.588 0 01-.293-5.116 9.975 9.975 0 012.272-5.117 6.276 6.276 0 014.76-1.7c2.255 0 3.671.643 4.25 1.93l-8.615 6.984c.046.41.163.808.345 1.177a2.884 2.884 0 001.8 1.28 11.5 11.5 0 002.08.421zm-2.987-9.605a3.367 3.367 0 00-.893 1.97 16.93 16.93 0 00-.345 2.8v.909l5.54-4.695a3.584 3.584 0 00-1.545-.908 6.767 6.767 0 00-1.493-.294 2 2 0 00-1.264.192v.026zm13.481 3.209l1.518 1.765a23.48 23.48 0 011.277 1.6 2.409 2.409 0 01.472 2.417 2.9 2.9 0 01-1.276 1.611 6.196 6.196 0 01-1.991.729c-.786.156-1.586.233-2.387.231a4.584 4.584 0 01-4.02-1.535l-.102-.154 2.259-2.417a6.677 6.677 0 002.476 1.855l.957.268c.355.09.719.142 1.085.154a1.019 1.019 0 00.778-.243c.136-.188.026-.474-.332-.857a13.525 13.525 0 00-1.352-1.28 20.911 20.911 0 01-1.06-.959 25.569 25.569 0 01-2.629-3.082 2.998 2.998 0 01-.344-2.635 3.044 3.044 0 011.276-1.752 7.274 7.274 0 013.93-.934 5.184 5.184 0 012.157.435 4.924 4.924 0 011.647 1.19l-2.016 2.314c-.278-.3-.58-.573-.907-.818a8.663 8.663 0 00-1.276-.793 5.898 5.898 0 00-1.404-.55c-.25-.07-.515-.07-.766 0a.434.434 0 00-.28.32c0 .23.178.6.612 1.138.434.537.92 1.074 1.442 1.65l.256.332zm12.771 6.396c.8.064 1.606.034 2.4-.09v.231a8.423 8.423 0 01-2.183 1.279 7.65 7.65 0 01-2.705.397c-2.102 0-3.472-.559-4.11-1.676a7.588 7.588 0 01-.293-5.116 9.974 9.974 0 012.271-5.117 6.276 6.276 0 014.76-1.7c2.255 0 3.672.643 4.25 1.93l-8.614 6.984c.046.41.162.808.345 1.177a2.885 2.885 0 001.8 1.28 11.47 11.47 0 002.08.421zm-2.986-9.605a3.368 3.368 0 00-.893 1.97 16.93 16.93 0 00-.345 2.8v.909l5.539-4.695a3.585 3.585 0 00-1.544-.908 6.767 6.767 0 00-1.493-.294 2 2 0 00-1.264.192v.026zm12.597-.218c1.965-1.91 3.99-2.213 6.075-.909l-2.476 2.162a1.623 1.623 0 00-1.097-.934 1.846 1.846 0 00-1.558.23 3.233 3.233 0 00-1.046 1.152 7.094 7.094 0 00-.638 1.982l-1.506 7.739h-3.254l2.475-12.791 3.344-.473-.319 1.842zm11.49 8.391l4.696-9.747h1.8l-6.139 12.79h-3.305l-1.136-12.79h3.203l.881 9.746zm13.407 1.432c.801.064 1.606.034 2.399-.09v.231a8.411 8.411 0 01-2.182 1.279 7.649 7.649 0 01-2.705.397c-2.102 0-3.472-.559-4.11-1.676a7.586 7.586 0 01-.293-5.116 9.974 9.974 0 012.271-5.117 6.284 6.284 0 014.761-1.7c2.254 0 3.671.643 4.249 1.93l-8.614 6.984c.046.41.162.808.344 1.177a2.886 2.886 0 001.8 1.28c.679.204 1.375.345 2.08.421zm-2.986-9.605a3.373 3.373 0 00-.894 1.97 17.017 17.017 0 00-.344 2.8v.909l5.539-4.695a3.583 3.583 0 00-1.545-.908 6.767 6.767 0 00-1.493-.294 1.998 1.998 0 00-1.263.192v.026zm16.879-6.025l3.344-.473-3.433 17.702h-3.255l.166-.831a6.226 6.226 0 01-3.663 1.177 2.937 2.937 0 01-2.297-1.548 5.813 5.813 0 01-.523-2.814 19.45 19.45 0 01.319-2.827c.203-.952.543-1.87 1.008-2.724a9.776 9.776 0 011.876-2.558 3.365 3.365 0 012.348-1.075c.546.01 1.086.113 1.596.307.532.188 1.049.42 1.544.69l.97-5.026zm-5.105 16.231a6.178 6.178 0 002.055-.6l1.825-9.415a2.422 2.422 0 00-1.366-.473 2.165 2.165 0 00-1.557.793 7.271 7.271 0 00-1.276 1.893 8.508 8.508 0 00-.702 2.034l-.102.55c-.153.7-.281 1.454-.383 2.264a4.75 4.75 0 00.128 2.097 1.197 1.197 0 001.352.857h.026z" fill="#fff"/></g><defs><clipPath id="clip0_5389_146888"><path fill="#fff" transform="matrix(-1 0 0 1 148.203 65.02)" d="M0 0h146v55H0z"/></clipPath></defs></svg>