<svg width="164" height="196" fill="none" xmlns="http://www.w3.org/2000/svg"><g clip-path="url(#clip0_3465_112031)"><path d="M81.589 90.467c20.16 0 36.503-16.313 36.503-36.437 0-20.123-16.343-36.436-36.503-36.436S45.086 33.907 45.086 54.03c0 20.124 16.343 36.437 36.503 36.437z" fill="#9EC3E5"/><path d="M79.531 39.176v17.147h9.126M52.15 9.17l-13.69 8.573m68.446-8.573l13.689 8.573" stroke="#000" stroke-width="3" stroke-linecap="round" stroke-linejoin="round"/><path d="M40.475 64.203c2.222 8.817 7.266 16.515 14.117 22.082A41.52 41.52 0 0080.865 95.6c23 0 41.646-18.612 41.646-41.57 0-22.96-18.646-41.571-41.646-41.571s-41.646 18.612-41.646 41.57" stroke="#4090E7" stroke-width="3" stroke-linecap="round" stroke-linejoin="round"/></g><path d="M155.634 108.998H1.988" stroke="#4090E7" stroke-width="3" stroke-linecap="round" stroke-linejoin="round"/><path d="M136.935 181.696l-19.107-71.518m-78.022 0l-19.107 71.518" stroke="#000" stroke-width="3" stroke-linecap="round" stroke-linejoin="round"/><path d="M162.012 108.998H8.367m134.935 72.698l-19.107-71.518m-78.018 0L27.07 181.696" stroke="#4090E7" stroke-width="3" stroke-linecap="round" stroke-linejoin="round"/><defs><clipPath id="clip0_3465_112031"><path fill="#fff" transform="translate(34)" d="M0 0h95v100H0z"/></clipPath></defs></svg>