<svg width="231" height="231" fill="none" xmlns="http://www.w3.org/2000/svg"><path d="M181.61 54.194l-3.969-3.612 32.313-35.99a2.648 2.648 0 011.848-.898 2.628 2.628 0 011.929.704 2.667 2.667 0 01.89 1.862 2.67 2.67 0 01-.698 1.943L181.61 54.194z" fill="#90EE90"/><path opacity=".1" d="M178.711 49.395l3.565 4.06-.668.739-3.962-3.612 1.065-1.187zm4.611 2.893l-3.565-4.052.668-.747 3.962 3.613-1.065 1.186z" fill="#000"/><path d="M213.359 77.435l-61.842-56.352a41.72 41.72 0 0113.055-9.778 41.407 41.407 0 0131.869-1.612 41.63 41.63 0 0113.961 8.41 41.994 41.994 0 019.705 13.154 42.254 42.254 0 013.969 15.895c.275 5.51-.53 11.02-2.369 16.215a42.08 42.08 0 01-8.348 14.068z" fill="#90EE90"/><path opacity=".5" d="M213.359 77.435l-61.842-56.352a41.72 41.72 0 0113.055-9.778 41.407 41.407 0 0131.869-1.612 41.63 41.63 0 0113.961 8.41 41.994 41.994 0 019.705 13.154 42.254 42.254 0 013.969 15.895c.275 5.51-.53 11.02-2.369 16.215a42.08 42.08 0 01-8.348 14.068z" fill="#fff"/><path d="M49.538 55.227l3.91-3.672-32.857-35.51a2.647 2.647 0 00-1.86-.867 2.628 2.628 0 00-1.917.733 2.666 2.666 0 00-.86 1.875 2.684 2.684 0 00.728 1.93l32.856 35.511z" fill="#90EE90"/><path opacity=".1" d="M52.36 50.388l-3.505 4.113.681.733 3.91-3.673-1.085-1.173zm-4.561 2.966l3.506-4.112-.682-.733-3.91 3.672 1.086 1.173z" fill="#000"/><path d="M18.145 78.948l60.989-57.319a41.711 41.711 0 00-13.207-9.576 41.418 41.418 0 00-31.897-1.118 41.65 41.65 0 00-13.835 8.628 42.008 42.008 0 00-9.504 13.306 42.304 42.304 0 00-1.11 32.139 42.068 42.068 0 008.564 13.94z" fill="#90EE90"/><path opacity=".5" d="M18.145 78.948l60.989-57.319a41.711 41.711 0 00-13.207-9.576 41.418 41.418 0 00-31.897-1.118 41.65 41.65 0 00-13.835 8.628 42.008 42.008 0 00-9.504 13.306 42.304 42.304 0 00-1.11 32.139 42.068 42.068 0 008.564 13.94z" fill="#fff"/><path d="M54.803 195.883l-7.792 26.393 9.38-.066 17.251-14.59-18.839-11.737z" fill="#90EE90"/><path opacity=".1" d="M54.803 195.883l-7.792 26.393 9.38-.066 17.251-14.59-18.839-11.737z" fill="#000"/><path d="M177.284 194.95l8.183 26.273-9.38.067-17.47-14.323 18.667-12.017z" fill="#90EE90"/><path opacity=".1" d="M177.284 194.95l8.183 26.273-9.38.067-17.47-14.323 18.667-12.017z" fill="#000"/><path d="M125.452 11.956l-20.538.155.065 8.738 20.539-.156-.066-8.737z" fill="#37474F"/><path d="M120.291 20.732l-10.067.076.061 8.205 10.067-.076-.061-8.205z" fill="#37474F"/><path d="M183.758 190.277c37.137-37.984 36.682-99.109-1.016-136.526-37.699-37.418-98.364-36.96-135.5 1.024-37.137 37.984-36.682 99.109 1.017 136.526 37.698 37.418 98.363 36.959 135.499-1.024z" fill="#90EE90"/><path d="M116.102 208.204c47.196-.357 85.168-39.195 84.814-86.748-.355-47.553-38.901-85.812-86.096-85.455-47.195.357-85.168 39.195-84.813 86.747.354 47.553 38.9 85.813 86.095 85.456z" fill="#fff"/><path d="M117.229 205.392a41.59 41.59 0 01-1.901.012l-.061-6.311 1.909-.008.053 6.307zM157.018 50.16l-3.075 5.468-1.655-.936 3.076-5.468c.278.146.561.305.811.473.25.167.579.293.843.464zm-41.297-5.1l-1.936.008-.055-6.313a41.45 41.45 0 011.901-.013l.09 6.317zM77.44 55.11l-1.636.97-3.187-5.453a57.461 57.461 0 011.637-.97l3.186 5.453zM49.333 83.114l-.924 1.662-5.462-3.132a9.01 9.01 0 01.466-.815c.166-.252.311-.553.467-.815l5.453 3.1zM38.987 123.47l-6.263.036a34.47 34.47 0 01-.026-1.911l6.27-.038.019 1.913zm11.095 38.317l-5.405 3.187a41.917 41.917 0 01-.97-1.652l5.399-3.185.976 1.65zm28.608 27.669l-3.073 5.474a8.995 8.995 0 01-.811-.472c-.259-.172-.558-.32-.812-.473l3.074-5.474 1.623.945zm79.674 4.092a35.01 35.01 0 01-1.64.957l-3.183-5.44 1.637-.969 3.186 5.452zm29.209-30.224c-.156.284-.315.561-.466.815l-5.45-3.114.924-1.663 5.45 3.115c-.142.286-.301.563-.458.847zm10.71-40.771l-6.27.038-.019-1.913 6.269-.038c.027.635.027 1.276.02 1.913zm-11.009-41.728l-5.399 3.185-.972-1.658 5.406-3.187c.331.546.659 1.107.965 1.66z" fill="#263238"/><path d="M187.674 137.932l-77.023-12.357 1.614-8.024 75.846 18.202-.437 2.179z" fill="#C7F7C7"/><path d="M130.619 179.709L111 119.001l7.893-1.949 13.865 62.128-2.139.529z" fill="#263238"/><path d="M116.635 70.038l3.214 50.851H111.5l2.926-50.871 2.209.02z" fill="#263238"/><path d="M115.482 124.901c1.53-.011 2.762-1.271 2.75-2.813a2.782 2.782 0 00-2.792-2.772 2.783 2.783 0 00-2.751 2.814 2.782 2.782 0 002.793 2.771z" fill="#FBFBFD"/></svg>