<svg width="19" height="24" fill="none" xmlns="http://www.w3.org/2000/svg"><path d="M4.505 6.551C4.505 3.048 8.916 0 8.916 0s4.444 2.66 4.444 6.42c0 3.146-1.751 4.93-4.443 4.93-2.724-.032-4.41-1.654-4.41-4.8zm5.159 15.016v1.946h-.908v-1.946h.908z" fill="#FDC525"/><path d="M8.136 11.286c.52-3.762-1.783-5.221-3.502-5.773-.097.357-.13.681-.13 1.038 0 2.822 1.395 4.443 3.632 4.735zm5.254-4.865c0-.227-.032-.454-.032-.648-1.621.648-3.502 2.108-3.113 5.416 1.946-.519 3.146-2.173 3.146-4.768z" fill="#fff"/><path d="M2.398 13.07c-.584-.81-2.01-2.173 0-7.394 0 0 6.681.259 5.092 6.972-1.005 4.217-4.508 1.265-5.092.422z" fill="#FDC525"/><path d="M2.394 13.07c.519.713 3.016 2.886 4.41 1.135-.55-.584-1.167-1.038-1.653-1.395-.973-.648-2.206-.616-3.244-.454.163.292.325.52.487.714z" fill="#fff"/><path d="M15.923 13.07c.584-.81 2.01-2.173 0-7.394 0 0-6.681.259-5.092 6.972.973 4.217 4.476 1.265 5.092.422z" fill="#FDC525"/><path d="M15.92 13.07c.13-.195.324-.422.486-.713-1.038-.163-2.302-.195-3.243.454-.519.324-1.103.81-1.686 1.394 1.427 1.751 3.924-.421 4.443-1.135z" fill="#fff"/><path d="M7.263 21.568s-6.519.291-7.265-7.914c0 0 3.21-1.394 5.157-.097 1.946 1.297 5.448 4.735 2.108 8.01zm3.793 0s6.518.291 7.264-7.914c0 0-3.21-1.394-5.156-.097-1.979 1.297-5.449 4.735-2.108 8.01z" fill="#FDC525"/><path d="M3.793 14.627c0-4.022 5.157-7.946 5.157-7.946s5.027 3.47 5.027 7.784c0 3.6 0 5.643-5.125 5.643-3.665 0-5.06-1.881-5.06-5.481z" fill="#fff"/><path d="M4.215 16.28c0-4.02 4.832-7.945 4.832-7.945s4.703 3.47 4.703 7.784c0 3.6 0 5.643-4.8 5.643-3.438 0-4.735-1.881-4.735-5.481z" fill="#FDC525"/><path d="M9.462 22.021s3.924 1.492 6.843-1.038c0 0-.876-1.038-2.562-1.07-.909 0-4.606.195-4.281 2.108zm-.552 0s-3.925 1.492-6.844-1.038c0 0 .876-1.038 2.563-1.07.908 0 4.605.195 4.28 2.108z" fill="#FDC525"/></svg>