<svg width="23" height="29" fill="none" xmlns="http://www.w3.org/2000/svg"><g clip-path="url(#clip0_5309_144830)"><path d="M4.53 19.027c.06.786.253 1.541.608 2.26.252.51.576.981.967 1.409.329.36.733.645 1.161.9.717.43 1.503.691 2.342.821.303.047.608.079.913.107l.922-.002c.94-.038 1.847-.21 2.697-.599 1.1-.503 1.912-1.283 2.5-2.27.412-.689.656-1.43.774-2.207.002-.02.009-.04.01-.06.03-.204-.08-.356-.297-.395-.071-.012-.076-.033-.058-.09a4.8 4.8 0 00.222-1.364 4.912 4.912 0 00-.348-1.869 6.897 6.897 0 00-.412-.861c-.09-.163-.227-.23-.42-.217-.216.014-.218.014-.213-.188a6.42 6.42 0 00-.015-.92c-.112-1.005-.53-1.87-1.357-2.549a.465.465 0 00-.488-.081c-.125.046-.25.09-.374.139-.046.017-.067.013-.084-.032-.364-.99-1.1-1.695-2.02-2.26-.177-.109-.338-.104-.52-.013a4.758 4.758 0 00-2.021 1.865c-.057.095-.12.188-.176.283-.021.037-.04.045-.08.023-.084-.047-.172-.09-.258-.133a.542.542 0 00-.387-.057.323.323 0 00-.15.075c-.54.497-.958 1.066-1.225 1.728a3.593 3.593 0 00-.254 1.476c.004.12.017.242.029.363.004.046-.006.062-.061.052-.11-.02-.224-.028-.334-.043a.385.385 0 00-.41.186 6.063 6.063 0 00-.585 1.171 4.677 4.677 0 00-.305 1.77c.012.4.091.79.205 1.175l.008.038c-.04-.004-.068-.009-.097-.01-.255-.013-.428.143-.41.38z" fill="#fff" opacity=".5"/><path d="M11.505 26.631l.025-.083.007-.024.007-.025.003-.011a2.89 2.89 0 00.067-.292 3.176 3.176 0 01.013-.074 1.192 1.192 0 00.012-.076 2.223 2.223 0 00.023-.192c.035-.362.015-.725.018-1.087.001-.073-.03-.091-.097-.097-.31-.03-.618-.061-.925-.109-.85-.132-1.648-.396-2.374-.831-.433-.26-.844-.548-1.177-.914a6.142 6.142 0 01-.98-1.428 6.206 6.206 0 01-.617-2.29c-.018-.239.156-.397.415-.385m.09-.027a4.662 4.662 0 01-.206-1.192 4.736 4.736 0 01.307-1.794c.154-.414.353-.809.594-1.186a.39.39 0 01.416-.19c.112.016.226.025.337.045.057.01.067-.006.063-.053-.012-.123-.025-.246-.03-.369a3.622 3.622 0 01.258-1.495c.27-.67.695-1.248 1.243-1.751a.334.334 0 01.15-.077.547.547 0 01.393.057c.088.045.176.088.262.136.04.023.059.015.08-.023.057-.097.121-.19.178-.288a4.833 4.833 0 012.05-1.89c.184-.092.347-.096.526.014.933.573 1.68 1.287 2.048 2.29.017.047.039.05.085.032.125-.05.252-.093.378-.14a.47.47 0 01.495.082c.838.688 1.263 1.565 1.375 2.584.035.31.026.621.017.933-.005.203-.003.205.216.19.195-.014.334.055.425.22.158.283.3.572.418.873a4.833 4.833 0 01.127 3.276c-.019.057-.014.079.058.092.221.04.333.193.303.4l-.011.06a6.091 6.091 0 01-.784 2.238c-.597 1-1.42 1.79-2.535 2.3-.861.393-1.78.569-2.734.608-.073.002-1.107-.022-1.03.003m-.21-6.605l2.052-.107c.148-.597.996-2.128 1.531-2.53m-8.842 3.263l1.741.348.888.177c.241.048.489.15.736.137.414-.024.654-.334.934-.575.333-.287.677-.58 1.107-.736a2.02 2.02 0 011.325-.012c.434.148.742.48 1.026.808.149.171.295.345.467.497.218.194.352.254.654.179.535-.134 1.056-.272 1.602-.346a17.887 17.887 0 011.736-.136M9.55 15.296c.313.53.618 1.066.9 1.61.146.285.443.82.646 1.152m-3.749-3.715c.808.14 1.569.441 2.164.974.045.04.06.036.08-.019.369-1.1 1.26-1.89 2.203-2.59m.784-.047a5.18 5.18 0 011.08.935c.489.542.884 1.156 1.073 1.844.015.054.034.05.078.025.354-.21.722-.43 1.114-.587.415-.166.842-.222 1.287-.27" stroke="#fff" stroke-linecap="round" stroke-linejoin="round"/><path d="M9.818 10.837c.575.315 1.133.712 1.536 1.208a3.981 3.981 0 01.41.61c.023.042.043.058.09.029a.805.805 0 01.766.01c.076.041.092.021.158-.082.44-.69 1.104-1.25 1.871-1.62.032-.015.063-.032.097-.042m-13.543-.137c-.11-.074-.212-.16-.317-.24l-.572-.445m4.1 3.162l-1.4-1.072-.944-.722" stroke="#fff" stroke-linecap="round" stroke-linejoin="round"/><path d="M1.203 10.813c-.11-.074-.212-.16-.317-.24l-.572-.445m6.393-1.137L5.645 7.627l-.717-.919m-.647-.861c-.086-.098-.162-.204-.241-.307l-.433-.563m8.331-.487l-.007 1.134-.008 1.681m-.003-3.866c.01-.126.005-.253.005-.38l-.002-.69M22.586 9.28l-.58.451-.322.244m-.875.692l-.957.732-1.418 1.087m-.364-5.907l-.716.919c-.355.454-.71.909-1.063 1.364m2.434-3.145c.086-.098.162-.204.241-.307.145-.187.289-.375.432-.563" stroke="#fff" stroke-linecap="round" stroke-linejoin="round"/></g><defs><clipPath id="clip0_5309_144830"><path fill="#fff" transform="matrix(-1 0 0 1 23 0)" d="M0 0h23v29H0z"/></clipPath></defs></svg>