<svg width="82" height="81" fill="none" xmlns="http://www.w3.org/2000/svg"><g clip-path="url(#clip0_5389_146685)"><path d="M65.944 17.683l-1.499-1.36 12.2-13.559a1 1 0 011.09-.279c.124.046.239.116.337.207a1.004 1.004 0 01.277 1.094 1.006 1.006 0 01-.205.34l-12.2 13.557z" fill="#4090E7"/><path opacity=".1" d="M64.855 15.875l1.346 1.529-.252.279-1.496-1.361.402-.447zm1.741 1.09l-1.346-1.527.252-.28 1.496 1.36-.402.447z" fill="#000"/><path d="M77.935 26.438L54.585 5.21a15.749 15.749 0 014.93-3.683 15.675 15.675 0 0117.304 2.56 15.818 15.818 0 013.663 4.956 15.892 15.892 0 01-2.547 17.395z" fill="#4090E7"/><path opacity=".5" d="M77.935 26.438L54.585 5.21a15.749 15.749 0 014.93-3.683 15.675 15.675 0 0117.304 2.56 15.818 15.818 0 013.663 4.956 15.892 15.892 0 01-2.547 17.395z" fill="#fff"/><path opacity=".5" d="M77.269 4.555C71.722.31 63.093 1.69 57.523 7.88l-1.46-1.328C61.894.07 71.075-1.135 76.567 3.86c.245.224.48.455.702.696z" fill="#fff"/><path d="M16.079 18.072l1.476-1.383L5.15 3.312a1 1 0 00-1.092-.262.998.998 0 00-.334.212 1.004 1.004 0 00-.26 1.097c.047.125.118.24.21.336l12.405 13.377z" fill="#4090E7"/><path opacity=".1" d="M17.144 16.249l-1.324 1.55.258.275 1.476-1.383-.41-.442zm-1.719 1.117l1.324-1.549-.257-.276-1.476 1.383.41.442z" fill="#000"/><path d="M4.231 27.008L27.258 5.416a15.748 15.748 0 00-4.986-3.608 15.676 15.676 0 00-17.267 2.83A15.826 15.826 0 001.417 9.65 15.897 15.897 0 004.23 27.007z" fill="#4090E7"/><path opacity=".5" d="M4.231 27.008L27.258 5.416a15.748 15.748 0 00-4.986-3.608 15.676 15.676 0 00-17.267 2.83A15.826 15.826 0 001.417 9.65 15.897 15.897 0 004.23 27.007z" fill="#fff"/><path opacity=".5" d="M4.563 5.12c5.494-4.326 14.13-3.081 19.792 3.025l1.441-1.35C19.867.401 10.671-.666 5.254 4.411c-.241.227-.472.463-.691.708z" fill="#fff"/><path d="M18.067 71.058L15.125 81l3.541-.025 6.514-5.496-7.113-4.421z" fill="#4090E7"/><path opacity=".1" d="M18.067 71.058L15.125 81l3.541-.025 6.514-5.496-7.113-4.421z" fill="#000"/><path d="M64.314 70.706l3.089 9.897-3.542.025-6.595-5.395 7.048-4.527z" fill="#4090E7"/><path opacity=".1" d="M64.314 70.706l3.089 9.897-3.542.025-6.595-5.395 7.048-4.527z" fill="#000"/><path d="M44.536 1.772l-7.755.058.025 3.292 7.754-.059-.024-3.291z" fill="#37474F"/><path d="M42.59 5.078l-3.8.028.022 3.091 3.801-.029-.023-3.09z" fill="#37474F"/><path d="M42.603 5.621l-3.799.281-.007-.808 3.801-.028.005.555z" fill="#263238"/><path d="M66.759 68.945c14.021-14.308 13.85-37.334-.384-51.43-14.233-14.095-37.138-13.922-51.16.387-14.02 14.308-13.849 37.334.385 51.43 14.233 14.095 37.138 13.922 51.159-.386z" fill="#4090E7"/><path opacity=".1" d="M41.23 77.524c19.063-.144 34.401-15.796 34.258-34.96C75.345 23.4 59.775 7.981 40.712 8.125c-19.063.144-34.4 15.796-34.258 34.96.143 19.164 15.713 34.583 34.776 34.439z" fill="#000"/><path d="M41.217 75.699c17.82-.135 32.156-14.765 32.022-32.678-.134-17.914-14.687-32.326-32.506-32.192-17.82.135-32.156 14.765-32.022 32.678.134 17.914 14.687 32.326 32.506 32.192z" fill="#fff"/><path d="M63.152 21.135l-1.656 1.69-.512-.502 1.656-1.69c.088.08.175.166.25.25.075.086.182.164.262.252zM48.59 15.252l-.707-.186.597-2.302c.232.055.467.116.694.18l-.584 2.308zm-14.94-.075l-.692.193-.63-2.294c.23-.068.46-.133.692-.194l.63 2.295zm-12.988 7.449l-.5.515-1.685-1.672c.08-.088.164-.176.25-.251.084-.076.167-.17.25-.251l1.685 1.66zm-7.718 13.676l-2.288-.597c.053-.236.113-.467.178-.698l2.29.597-.18.698zm.304 15.024l-2.282.633a15.85 15.85 0 01-.193-.696l2.28-.632.195.695zm7.728 12.857l-1.656 1.692a3.36 3.36 0 01-.25-.25c-.077-.088-.172-.171-.25-.252l1.656-1.692.5.502zm12.499 9.556a15.725 15.725 0 01-.694-.18l.595-2.303.696.183-.597 2.3zm16.159-.299c-.23.068-.46.133-.692.189l-.63-2.29.692-.194.63 2.295zm13.604-8.15c-.085.088-.17.174-.25.252l-1.683-1.665.5-.515 1.682 1.665c-.08.09-.164.176-.25.263zm7.888-13.79l-2.29-.598.18-.698 2.29.597c-.052.234-.115.467-.18.698zm.065-16.258l-2.28.633-.192-.698L71 34.544c.068.231.133.467.19.698z" fill="#263238"/><path d="M68.237 49.227l-29.08-4.655.609-3.023 28.636 6.857-.165.821z" fill="#FBFBFD"/><path d="M41.054 21.08l1.539 23.984-3.07-.02.7-23.97.831.006z" fill="#263238"/><path d="M30.836 57.686l9.738-16.553 2.532 1.74-11.583 15.285-.687-.472z" fill="#263238"/><path d="M40.976 44.319a1.05 1.05 0 001.039-1.06 1.05 1.05 0 00-1.054-1.044 1.05 1.05 0 00-1.04 1.06 1.05 1.05 0 001.055 1.044z" fill="#FBFBFD"/></g><defs><clipPath id="clip0_5389_146685"><path fill="#fff" d="M0 0h82v81H0z"/></clipPath></defs></svg>