<svg width="102" height="109" fill="none" xmlns="http://www.w3.org/2000/svg"><g clip-path="url(#clip0_2404_30506)"><path d="M81.927 73.972c-.271 3.417-1.127 6.7-2.702 9.825a26.36 26.36 0 01-4.286 6.127c-1.46 1.566-3.253 2.805-5.151 3.918-3.177 1.868-6.664 3.003-10.384 3.568a70.915 70.915 0 01-4.048.466l-4.09-.008c-4.172-.169-8.192-.92-11.959-2.606-4.88-2.188-8.481-5.58-11.093-9.869-1.821-2.999-2.906-6.218-3.43-9.6-.009-.087-.037-.173-.047-.26-.133-.888.357-1.548 1.323-1.717.314-.056.337-.146.257-.392a20.386 20.386 0 01-.985-5.933c-.043-2.792.5-5.502 1.541-8.125.51-1.29 1.137-2.529 1.827-3.746.4-.707 1.008-1 1.864-.945.956.065.966.06.942-.815-.043-1.333-.08-2.667.072-4 .494-4.371 2.35-8.134 6.017-11.085.642-.518 1.36-.647 2.164-.354.552.203 1.108.393 1.655.604.205.078.3.06.376-.138 1.613-4.306 4.876-7.37 8.957-9.825.785-.475 1.498-.453 2.307-.056 3.877 1.894 6.85 4.608 8.962 8.108.252.414.532.815.78 1.23.095.163.176.198.352.099.375-.203.765-.389 1.146-.578.542-.268 1.103-.398 1.717-.247.252.06.471.156.661.328 2.398 2.158 4.253 4.635 5.437 7.513.847 2.07 1.204 4.211 1.128 6.416-.02.526-.077 1.053-.129 1.58-.019.202.024.271.271.228.49-.086.99-.125 1.48-.19.813-.108 1.403.173 1.817.811a26.144 26.144 0 012.597 5.092c.942 2.494 1.427 5.053 1.35 7.698-.052 1.739-.404 3.434-.908 5.109l-.038.164c.176-.018.305-.04.433-.048 1.132-.052 1.898.626 1.817 1.653z" fill="#F8E1A4" opacity=".5"/><path d="M51 107.039a10.56 10.56 0 01-.145-.469c-.012-.036-.021-.072-.032-.106l-.013-.048a12.03 12.03 0 01-.08-.298 12.38 12.38 0 01-.216-.971l-.022-.119a3.224 3.224 0 01-.034-.202 5.785 5.785 0 01-.054-.333c-.02-.135-.04-.27-.054-.406a19.469 19.469 0 01-.05-.43c-.156-1.574-.066-3.151-.08-4.726-.004-.317.133-.395.432-.422 1.37-.127 2.74-.264 4.1-.471 3.773-.575 7.309-1.723 10.53-3.616 1.92-1.128 3.74-2.384 5.22-3.973a26.7 26.7 0 004.344-6.209c1.593-3.167 2.463-6.495 2.737-9.957.082-1.041-.692-1.73-1.84-1.676m-.401-.12c.512-1.696.866-3.415.918-5.179.08-2.678-.412-5.271-1.365-7.802a26.538 26.538 0 00-2.634-5.159c-.422-.647-1.017-.932-1.842-.822-.5.066-1.002.107-1.498.191-.252.043-.297-.024-.277-.23.051-.533.11-1.067.128-1.602.08-2.232-.28-4.404-1.141-6.502-1.198-2.918-3.08-5.43-5.51-7.616a1.495 1.495 0 00-.669-.332c-.621-.154-1.193-.023-1.74.249-.389.193-.781.381-1.162.588-.182.1-.261.066-.36-.1-.25-.423-.532-.83-.787-1.25-2.144-3.544-5.154-6.293-9.085-8.217-.82-.401-1.541-.422-2.336.057-4.138 2.491-7.447 5.596-9.082 9.961-.075.202-.172.22-.378.139-.553-.217-1.119-.406-1.677-.612-.816-.3-1.543-.168-2.194.356-3.717 2.995-5.6 6.806-6.1 11.24-.153 1.349-.114 2.7-.074 4.053.025.885.014.891-.955.827-.866-.058-1.484.239-1.888.955-.7 1.233-1.334 2.491-1.852 3.797-1.057 2.66-1.605 5.404-1.56 8.234a20.6 20.6 0 00.997 6.013c.081.25.06.343-.26.399-.98.173-1.475.84-1.343 1.74.013.09.038.177.052.265.528 3.428 1.628 6.69 3.476 9.728 2.646 4.35 6.292 7.786 11.242 10.003 3.817 1.71 7.893 2.473 12.121 2.64.328.013 4.91-.094 4.573.017m.925-28.724l-9.095-.464c-.66-2.596-4.42-9.252-6.792-11.002m39.211 14.19l-7.721 1.513-3.937.77c-1.07.21-2.167.654-3.264.593-1.833-.103-2.898-1.45-4.14-2.5-1.477-1.246-3.003-2.523-4.91-3.2a9.152 9.152 0 00-5.876-.051c-1.926.645-3.29 2.084-4.552 3.513-.658.744-1.308 1.5-2.07 2.16-.969.844-1.56 1.108-2.902.779-2.37-.581-4.683-1.181-7.104-1.501-2.55-.338-5.125-.5-7.699-.593m38.52-16.25c-1.393 2.304-2.742 4.633-3.99 7.004a99.566 99.566 0 01-2.87 5.006M69.44 53.605c-3.583.606-6.955 1.917-9.596 4.233-.198.173-.268.16-.35-.08-1.639-4.781-5.588-8.22-9.774-11.264m-3.474-.204c-1.825 1.126-3.381 2.532-4.79 4.065-2.168 2.357-3.921 5.029-4.76 8.02-.066.234-.152.22-.344.108-1.573-.91-3.203-1.87-4.943-2.553-1.84-.722-3.733-.965-5.706-1.174" stroke="#FDC525" stroke-width="3" stroke-linecap="round" stroke-linejoin="round"/><path d="M58.464 38.357c-2.551 1.368-5.022 3.096-6.813 5.25a17.252 17.252 0 00-1.815 2.652c-.104.184-.191.252-.404.128a2.22 2.22 0 00-.236-.116c-1.015-.442-2.193-.366-3.16.158-.336.182-.404.093-.697-.355-1.956-3.004-4.899-5.435-8.301-7.043-.14-.066-.279-.139-.429-.182m60.019-.587c.49-.323.942-.692 1.408-1.045.846-.643 1.692-1.287 2.536-1.934M82.405 49.036c2.067-1.556 4.137-3.109 6.207-4.663 1.395-1.047 2.79-2.094 4.187-3.14" stroke="#FDC525" stroke-width="3" stroke-linecap="round" stroke-linejoin="round"/><path d="M96.629 38.262c.49-.323.942-.692 1.407-1.045.847-.643 1.692-1.288 2.536-1.934m-28.335-4.937c1.568-1.978 3.14-3.954 4.71-5.932l3.18-3.996m2.881-3.748c.384-.425.72-.886 1.071-1.334a736.37 736.37 0 001.917-2.451m-36.923-2.121l.03 4.928c.012 2.437.026 4.874.036 7.31m-.011-16.808c-.04-.548-.019-1.1-.018-1.65 0-1.002.003-2.003.009-3.005M1.837 31.6l2.57 1.96 1.427 1.059m3.883 3.01c1.415 1.06 2.829 2.122 4.243 3.183 2.098 1.575 4.196 3.15 6.29 4.726m1.622-25.692l3.179 3.996c1.57 1.978 3.142 3.954 4.71 5.932m-10.77-13.677c-.384-.425-.72-.886-1.071-1.334-.641-.815-1.28-1.632-1.917-2.45" stroke="#FDC525" stroke-width="3" stroke-linecap="round" stroke-linejoin="round"/></g><defs><clipPath id="clip0_2404_30506"><path fill="#fff" transform="translate(0 .244)" d="M0 0h102v108.089H0z"/></clipPath></defs></svg>