<svg width="92" height="94" fill="none" xmlns="http://www.w3.org/2000/svg"><g clip-path="url(#clip0_2070_98794)"><path d="M50.871 87.257c21.184 0 38.356-17.245 38.356-38.517 0-21.273-17.172-38.517-38.356-38.517-21.183 0-38.355 17.244-38.355 38.517 0 21.272 17.172 38.517 38.355 38.517z" fill="#fff"/><path d="M57.804 85.525c15.614-4.877 26.95-19.502 26.95-36.785 0-17.5-11.622-32.275-27.539-36.965A38.219 38.219 0 0046.4 10.224c-21.184 0-38.356 17.244-38.356 38.517a38.453 38.453 0 006.268 21.108C21.165 80.334 32.977 87.258 46.4 87.258" stroke="#90EE90" stroke-width="3" stroke-linecap="round" stroke-linejoin="round"/><path d="M44.992 33.037v18.126h9.59M16.227 1.316L1.844 10.38m71.914-9.064L88.14 10.38" stroke="#000" stroke-width="3" stroke-linecap="round" stroke-linejoin="round"/><path d="M3.957 59.493A43.979 43.979 0 0018.79 82.836c7.53 6.156 17.14 9.846 27.606 9.846 24.168 0 43.76-19.674 43.76-43.944 0-24.27-19.592-43.943-43.76-43.943S2.636 24.469 2.636 48.739" stroke="#90EE90" stroke-width="3" stroke-linecap="round" stroke-linejoin="round"/></g><defs><clipPath id="clip0_2070_98794"><path fill="#fff" transform="translate(.5)" d="M0 0h91v94H0z"/></clipPath></defs></svg>