<svg width="156" height="35" fill="none" xmlns="http://www.w3.org/2000/svg"><path d="M13.674 0H.935A.916.916 0 000 .923v31.154c0 .462.467.923.935.923h12.74c.584 0 .934-.346.934-.923V.923C14.726.462 14.26 0 13.674 0zm5.142 1.038v12.577c0 .577.351.924.935.924h31.556c.468 0 .935-.462.935-.924V1.038C52.126.462 51.775 0 51.191 0H19.634c-.467 0-.818.462-.818 1.038zm0 18.346v12.577c0 .577.351.924.935.924h31.556c.468 0 .935-.462.935-.924V19.385c0-.577-.35-.924-.935-.924H19.751a.916.916 0 00-.935.924z" fill="#4090E7"/><path d="M65.683 14.078c-.701 0-1.286-.116-1.87-.462a3.526 3.526 0 01-1.403-1.5c-.35-.692-.584-1.385-.584-2.308 0-.923.234-1.73.584-2.307A3.526 3.526 0 0163.813 6c.584-.347 1.286-.462 1.87-.462.701 0 1.286.115 1.987.462.701.346 1.052.807 1.402 1.5.351.692.585 1.384.585 2.307s-.234 1.616-.585 2.308a3.526 3.526 0 01-1.402 1.5c-.585.23-1.286.462-1.987.462zm0-1.616c.35 0 .701-.115 1.052-.346.234-.23.467-.577.701-.923.117-.462.234-.923.234-1.385a4.9 4.9 0 00-.234-1.384c-.117-.462-.35-.693-.701-.923-.35-.231-.585-.347-1.052-.347-.35 0-.701.116-1.052.347-.234.23-.467.577-.701.923-.117.346-.117.807-.117 1.384 0 .577.117 1.039.234 1.385.117.461.35.692.701.923.234.23.584.346.935.346zm5.844 1.384V2.077h1.87v7.27l3.038-3.693h2.104L75.734 9l3.273 4.846h-2.104l-2.104-3.576-1.286 1.5v2.076h-1.986zm11.804.231c-.935 0-1.636-.23-1.987-.807-.35-.577-.584-1.27-.584-2.193V7.27h-1.17v-1.5l1.286-.116.233-2.538h1.637v2.538h2.103v1.5h-2.103v3.808c0 .461.117.808.233 1.038.234.231.468.347.935.347h.468c.117 0 .234-.116.467-.116l.351 1.385c-.234.115-.467.23-.701.23-.234 0-.935.231-1.169.231zm6.545.001c-.701 0-1.286-.116-1.87-.462a3.525 3.525 0 01-1.403-1.5c-.35-.692-.584-1.385-.584-2.308 0-.923.234-1.73.584-2.307A3.525 3.525 0 0188.006 6c.584-.347 1.285-.462 1.87-.462.701 0 1.285.115 1.987.462.701.346 1.052.807 1.402 1.5.35.692.585 1.384.585 2.307s-.234 1.616-.585 2.308a3.525 3.525 0 01-1.402 1.5c-.701.23-1.286.462-1.987.462zm0-1.616c.35 0 .701-.115 1.052-.346.234-.23.467-.577.701-.923.117-.462.234-.923.234-1.385a4.9 4.9 0 00-.234-1.384c-.117-.462-.35-.693-.701-.923-.35-.231-.585-.347-1.052-.347-.35 0-.701.116-1.052.347-.234.23-.468.577-.701.923-.117.461-.234.923-.234 1.384a4.9 4.9 0 00.234 1.385c.117.461.35.692.701.923.234.23.584.346 1.052.346zm9.817 1.615c-.35 0-.7-.115-1.168-.23-.35-.231-.818-.462-1.169-.808l-.117.807h-1.52V2.077h1.988v4.385c.35-.346.7-.577 1.168-.693.468-.23.818-.23 1.286-.23.701 0 1.286.115 1.753.461.468.346.818.808 1.169 1.385.234.577.35 1.384.35 2.192 0 .923-.116 1.73-.467 2.423a4.18 4.18 0 01-1.286 1.5c-.467.346-1.402.577-1.987.577zm-.35-1.615c.35 0 .701-.116 1.052-.346.35-.231.467-.577.701-.923.117-.462.234-.923.234-1.5a4.25 4.25 0 00-.234-1.385 2.519 2.519 0 00-.584-.923c-.234-.23-.585-.346-1.052-.346-.35 0-.585.115-.935.23-.35.116-.585.347-.935.693v3.808c.233.23.584.461.935.576.35.116.584.116.818.116zm9.35 1.616c-.818 0-1.52-.116-2.104-.462-.584-.346-1.169-.808-1.519-1.5-.351-.692-.585-1.385-.585-2.308 0-.923.234-1.615.585-2.307a3.522 3.522 0 011.402-1.5c.585-.347 1.169-.462 1.87-.462.701 0 1.403.115 1.87.462.468.346.935.807 1.169 1.384.234.577.351 1.27.351 1.962v.461c0 .116 0 .346-.117.462h-5.727v-1.5h4.09c0-.577-.116-1.039-.35-1.385-.234-.346-.701-.461-1.286-.461-.35 0-.584.115-.935.23-.35.116-.35.577-.584.924-.234.346-.351.923-.351 1.615s.117 1.154.351 1.615c.234.462.467.693.935.923.35.231.818.347 1.169.347.35 0 .701 0 1.051-.116a3.5 3.5 0 00.935-.461l.702 1.269c-.351.23-.818.461-1.286.577-.584.115-1.052.23-1.636.23zm5.025-.232V5.654h1.637l.116 1.5h.117c.234-.577.585-.923 1.052-1.27.468-.23.818-.46 1.286-.46h.584c.117 0 .234.115.351.115l-.351 1.615c-.117 0-.234-.115-.351-.115h-.467c-.351 0-.701.115-1.052.346-.351.23-.701.692-.935 1.27v5.191h-1.987zm5.376-6.576v-1.5l1.403-.116h3.389v1.5h-4.792v.116zm1.286 6.577v-9c0-.577.117-1.039.234-1.5.234-.462.467-.808.935-1.039.35-.23.935-.346 1.636-.346.351 0 .584 0 .818.115.234 0 .468.116.701.231l-.35 1.385c-.468-.231-.701-.231-1.052-.231-.351 0-.584.115-.818.346-.234.23-.234.577-.234 1.039v9h-1.87zm8.532.231c-.818 0-1.52-.116-2.104-.462-.584-.346-1.169-.808-1.519-1.5-.351-.692-.585-1.385-.585-2.308 0-.923.234-1.615.585-2.307a3.522 3.522 0 011.402-1.5c.585-.347 1.169-.462 1.87-.462.701 0 1.403.115 1.87.462.468.346.935.807 1.169 1.384.234.577.351 1.27.351 1.962v.461c0 .116 0 .346-.117.462h-5.727v-1.5h4.09c0-.577-.116-1.039-.35-1.385-.234-.346-.701-.461-1.286-.461-.35 0-.584.115-.935.23-.35.116-.584.462-.701.808-.234.346-.351.923-.351 1.616 0 .692.117 1.153.351 1.615.234.461.467.692.935.923.351.23.818.346 1.169.346.35 0 .701 0 1.052-.115.35-.116.584-.231.935-.462l.701 1.27c-.351.23-.818.461-1.286.576a3.265 3.265 0 01-1.519.347zm7.363-.001a4.741 4.741 0 01-1.753-.346c-.584-.23-1.052-.461-1.403-.923l.819-1.154c.35.346.701.462 1.168.692.468.231.818.231 1.169.231.467 0 .818-.115 1.052-.23.234-.231.35-.462.35-.693a.874.874 0 00-.233-.577c-.117-.115-.351-.23-.585-.346-.233-.115-.584-.23-.818-.346a5.515 5.515 0 01-1.169-.577 2.723 2.723 0 01-.818-.808 1.936 1.936 0 01-.35-1.154c0-.692.234-1.269.818-1.73.584-.462 1.285-.693 2.22-.693.585 0 1.052.116 1.52.231.467.23.935.462 1.169.692l-.819 1.039c-.233-.23-.584-.346-.935-.462-.35-.115-.584-.115-.935-.115a1.83 1.83 0 00-.935.23c-.233.231-.35.347-.35.578 0 .23.117.346.234.461.116.116.35.231.584.346.234.116.584.231.935.346.467.116.818.347 1.169.577.35.231.701.462.935.808.233.346.35.692.35 1.154 0 .462-.117.923-.35 1.27a2.754 2.754 0 01-1.052.922c-.701.462-1.286.577-1.987.577zm7.83 0c-.935 0-1.636-.23-1.986-.807-.351-.577-.585-1.27-.585-2.193V7.27h-1.169v-1.5l1.286-.116.234-2.538h1.636v2.538h2.104v1.5h-2.104v3.808c0 .461.117.808.234 1.038.234.231.467.347.935.347h.467c.117 0 .234-.116.468-.116l.35 1.385c-.233.115-.467.23-.701.23-.234 0-.818.231-1.169.231zM66.267 31.039c-.35 0-.7-.116-1.168-.23-.35-.232-.818-.462-1.17-.809l-.116.924h-1.52v-11.77h1.988v4.385c.35-.346.7-.577 1.168-.692.468-.231.818-.231 1.286-.231.701 0 1.285.115 1.753.461.468.346.818.808 1.169 1.385.234.577.35 1.385.35 2.192 0 .923-.117 1.731-.467 2.423a4.182 4.182 0 01-1.286 1.5c-.467.346-1.285.462-1.987.462zm-.35-1.5c.35 0 .701-.116 1.052-.346.35-.231.467-.577.7-.923.235-.346.235-.923.235-1.5s-.117-1.039-.234-1.385a2.508 2.508 0 00-.585-.923c-.233-.23-.584-.346-1.051-.346-.35 0-.585.115-.935.23-.35.116-.585.347-.935.693v3.808c.233.23.584.461.935.576.35.116.584.116.818.116zm9.233 1.5c-.701 0-1.286-.115-1.87-.462a3.526 3.526 0 01-1.403-1.5c-.35-.692-.584-1.384-.584-2.307s.234-1.731.584-2.308c.351-.577.819-1.154 1.403-1.5.584-.346 1.285-.462 1.87-.462.701 0 1.285.116 1.987.462a3.526 3.526 0 011.402 1.5c.35.692.585 1.385.585 2.308 0 .923-.234 1.615-.585 2.307a3.526 3.526 0 01-1.402 1.5c-.585.347-1.286.462-1.987.462zm0-1.5c.35 0 .701-.115 1.052-.346.233-.231.467-.577.7-.923.118-.462.235-.923.235-1.385 0-.577-.117-1.038-.234-1.385-.117-.461-.35-.692-.701-.923-.35-.23-.585-.346-1.052-.346-.35 0-.701.116-1.052.346-.234.231-.468.577-.701.923-.117.462-.234.924-.234 1.385 0 .577.117 1.039.234 1.385.117.461.35.692.7.923.352.23.702.346 1.053.346zm9.35 1.5c-.702 0-1.286-.115-1.87-.462a3.524 3.524 0 01-1.403-1.5c-.35-.692-.584-1.384-.584-2.307s.234-1.731.584-2.308c.35-.577.818-1.154 1.403-1.5.584-.346 1.285-.462 1.87-.462.7 0 1.285.116 1.987.462a3.525 3.525 0 011.402 1.5c.35.692.584 1.385.584 2.308 0 .923-.233 1.615-.584 2.307a3.524 3.524 0 01-1.402 1.5c-.585.347-1.403.462-1.987.462zm0-1.5c.35 0 .7-.115 1.052-.346.233-.231.467-.577.7-.923.118-.462.235-.923.235-1.385 0-.577-.117-1.038-.234-1.385-.117-.461-.35-.692-.701-.923-.351-.23-.585-.346-1.052-.346-.351 0-.702.116-1.052.346-.234.231-.468.577-.701.923-.117.462-.234.924-.234 1.385 0 .577.117 1.039.234 1.385.116.461.35.692.7.923.235.23.585.346 1.053.346zm5.844 1.385v-11.77h1.87v7.27l3.038-3.693h2.104l-2.805 3.346 3.156 4.846h-2.104l-2.104-3.576-1.285 1.5v2.076h-1.87zm9.7-9.693c-.35 0-.584-.115-.818-.346-.234-.23-.35-.346-.35-.692s.116-.577.35-.808c.234-.23.467-.346.818-.346.351 0 .584.115.818.346.234.231.351.462.351.808 0 .346-.117.577-.351.808-.117.23-.467.23-.818.23zm-.935 9.693V22.73h1.987v8.193h-1.987zm4.441-.001v-8.192h1.637l.116 1.154h.117a8.165 8.165 0 011.169-.923 3.27 3.27 0 011.519-.346c.935 0 1.52.23 1.987.807.351.577.585 1.385.585 2.424v5.076h-1.987v-4.846c0-.692-.117-1.154-.351-1.384-.234-.231-.584-.462-1.052-.462-.35 0-.701.115-.935.23-.233.116-.584.462-.935.809v5.653h-1.87zm12.272 3.577a7.156 7.156 0 01-1.753-.23c-.468-.116-.935-.347-1.169-.693-.351-.346-.467-.692-.467-1.154 0-.346.116-.692.35-.923.234-.23.468-.577.818-.807v-.116c-.233-.115-.35-.346-.467-.577-.117-.23-.234-.461-.234-.807 0-.347.117-.577.234-.924.234-.23.35-.461.584-.692v-.115c-.234-.23-.584-.462-.701-.923-.234-.346-.351-.808-.351-1.27 0-.576.117-1.153.468-1.615.35-.461.701-.808 1.169-1.038.467-.231 1.051-.346 1.636-.346h.701c.234 0 .351.115.584.115h2.922v1.384h-1.519v.462c.117.115.234.346.351.577.116.23.116.462.116.808 0 .577-.116 1.154-.467 1.5-.234.461-.701.692-1.169.923-.467.23-1.052.346-1.636.346h-.584c-.234 0-.351-.116-.585-.116-.117.116-.234.231-.234.347-.116.115-.116.23-.116.461s.116.462.35.577c.234.116.585.23 1.052.23h1.519c1.052 0 1.754.116 2.221.462.468.347.818.808.818 1.5 0 .577-.234 1.039-.584 1.5-.351.462-.818.808-1.52 1.039-.584 0-1.402.115-2.337.115zm.351-1.269c.467 0 .818 0 1.168-.23.351-.116.585-.231.818-.462.234-.231.234-.462.234-.693 0-.346-.117-.576-.35-.692-.234-.115-.585-.115-1.052-.115h-1.753c-.234 0-.351 0-.468-.116-.234.116-.351.347-.467.462-.117.23-.117.346-.117.577 0 .346.233.692.584.808.234.346.701.461 1.403.461zm-.234-6.115c.234 0 .467-.116.701-.231.234-.116.351-.346.468-.577.116-.23.233-.577.233-.923 0-.577-.117-.923-.467-1.154-.351-.23-.585-.462-1.052-.462-.351 0-.701.116-1.052.462-.351.346-.467.692-.467 1.154 0 .346.116.692.233.923.117.23.351.462.468.577.117.115.701.23.935.23zm6.895 3.923c-.35 0-.701-.115-.935-.346-.233-.231-.35-.577-.35-.923 0-.346.117-.693.35-.923.234-.231.585-.347.935-.347.351 0 .702.116.935.347.234.23.351.577.351.923 0 .346-.117.692-.351.923-.233.23-.584.346-.935.346zm7.013 0c-.818 0-1.403-.115-2.104-.462a3.522 3.522 0 01-1.402-1.5c-.351-.692-.585-1.384-.585-2.307s.234-1.731.585-2.308c.35-.692.935-1.154 1.519-1.5.584-.346 1.286-.462 2.104-.462.584 0 .935.116 1.402.231.351.116.702.346 1.052.693l-.935 1.153c-.234-.115-.35-.346-.584-.346-.234-.115-.468-.115-.818-.115-.468 0-.818.115-1.169.346-.351.23-.584.577-.818.923a3.038 3.038 0 00-.351 1.385c0 .577.117 1.038.234 1.384.234.462.467.693.818.923.351.231.701.347 1.169.347.35 0 .584-.116.935-.231.234-.116.584-.231.818-.462l.818 1.154c-.351.346-.701.577-1.169.692-.467.116-1.052.462-1.519.462zm7.714 0c-.702 0-1.286-.115-1.87-.462a3.524 3.524 0 01-1.403-1.5c-.35-.692-.584-1.384-.584-2.307s.234-1.731.584-2.308c.351-.577.818-1.154 1.403-1.5.584-.346 1.285-.462 1.87-.462.701 0 1.285.116 1.987.462a3.529 3.529 0 011.402 1.5c.351.692.584 1.385.584 2.308 0 .923-.233 1.615-.584 2.307a3.528 3.528 0 01-1.402 1.5c-.585.347-1.286.462-1.987.462zm0-1.5c.35 0 .701-.115 1.052-.346.233-.231.467-.577.701-.923.117-.462.234-.923.234-1.385a4.25 4.25 0 00-.234-1.385c-.117-.461-.351-.692-.701-.923-.351-.23-.585-.346-1.052-.346-.351 0-.702.116-1.052.346-.234.231-.468.577-.701.923-.117.462-.234.924-.234 1.385 0 .577.117 1.039.234 1.385.116.461.35.692.701.923.234.23.584.346 1.052.346zm5.843 1.385V22.73h1.637l.116 1.154h.117c.351-.346.702-.692 1.169-.923.468-.23.818-.346 1.403-.346.584 0 1.051.115 1.519.346.35.23.584.577.818 1.038a3.644 3.644 0 011.286-1.038c.467-.23.935-.462 1.402-.462.935 0 1.519.231 1.987.808.467.577.584 1.385.584 2.423v5.077h-1.987v-4.846c0-.692-.116-1.154-.35-1.385-.234-.23-.468-.461-.935-.461-.234 0-.585.115-.818.23-.234.116-.585.462-.935.808v5.654h-1.987v-4.846c0-.692-.117-1.154-.351-1.385-.233-.23-.584-.461-.935-.461-.467 0-1.052.346-1.753 1.038v5.654h-1.987v.116z" fill="#000"/></svg>