<svg width="148" height="50" fill="none" xmlns="http://www.w3.org/2000/svg"><path d="M40.86 13.792c.307-.47.171-1.1-.304-1.406-.423-.272-.866-.53-1.316-.764a16.773 16.773 0 00-3.542-1.355c-.24-2.124-2.1-3.784-4.354-3.784-2.27 0-4.14 1.682-4.359 3.827a16.86 16.86 0 00-7.726 4.586c-2.013-.754-4.347.03-5.414 1.912-1.076 1.896-.492 4.248 1.274 5.484a17.153 17.153 0 00-.516 4.114 17 17 0 00.534 4.179 4.217 4.217 0 00-1.668 2.296 4.104 4.104 0 00.39 3.228 4.331 4.331 0 002.63 2.014 4.454 4.454 0 002.83-.146c.56.576 1.169 1.103 1.806 1.594l1.284-1.576a14.878 14.878 0 01-1.395-1.205c1.152-1.313 1.411-3.232.495-4.823a4.331 4.331 0 00-2.631-2.014 4.484 4.484 0 00-1.81-.113 14.707 14.707 0 01-.416-3.434c0-1.142.154-2.285.405-3.352.205.03.412.048.62.048.41 0 .824-.057 1.229-.17a4.33 4.33 0 002.617-2.033 4.103 4.103 0 00.368-3.23 4.19 4.19 0 00-.905-1.602 14.799 14.799 0 016.306-3.728c.656 1.545 2.224 2.637 4.052 2.637 1.844 0 3.423-1.112 4.068-2.679.995.276 1.961.648 2.874 1.124.395.207.785.433 1.156.672a1.03 1.03 0 001.417-.3zM17.68 31.316c.257 0 .515.034.769.104.722.198 1.32.657 1.686 1.291.755 1.31.27 2.971-1.082 3.703a2.86 2.86 0 01-2.134.242 2.776 2.776 0 01-1.686-1.291c-.755-1.31-.27-2.971 1.082-3.703a2.86 2.86 0 011.365-.346zm2.464-11.152a2.775 2.775 0 01-1.677 1.303 2.867 2.867 0 01-2.136-.229 2.72 2.72 0 01-1.343-1.625 2.63 2.63 0 01.236-2.07c.51-.9 1.473-1.41 2.465-1.41.456 0 .92.108 1.347.336a2.72 2.72 0 011.344 1.625 2.63 2.63 0 01-.236 2.07zm11.2-6.713c-1.548 0-2.807-1.22-2.807-2.721 0-1.5 1.26-2.721 2.807-2.721 1.548 0 2.807 1.22 2.807 2.72 0 1.501-1.259 2.722-2.807 2.722z" fill="#000"/><path d="M31.42 18.168c-4.55 0-8.252 3.674-8.252 8.19 0 2.697 1.327 5.087 3.36 6.58l1.288-1.58c-1.57-1.119-2.599-2.94-2.599-5 0-3.395 2.783-6.156 6.203-6.156 3.42 0 6.202 2.761 6.202 6.155 0 2.072-1.04 3.905-2.626 5.02l1.287 1.58c2.05-1.49 3.388-3.89 3.388-6.6 0-4.515-3.702-8.189-8.251-8.189z" fill="#000"/><path d="M26.988 10.31c.151-1.488 1.099-2.75 2.422-3.386a16.087 16.087 0 00-6.3-1.282c-8.873 0-16.067 7.14-16.067 15.946 0 5.145 2.457 9.72 6.268 12.635v-.002a4.179 4.179 0 01.022-.632l.014-.098a4.17 4.17 0 01.101-.513c.009-.032.01-.065.02-.097.271-.953.863-1.737 1.672-2.296a16.766 16.766 0 01-.534-4.18c0-1.408.183-2.805.516-4.113-1.756-1.228-2.326-3.52-1.267-5.432.796-1.437 2.236-2.224 3.844-2.247a4.297 4.297 0 011.563.283 16.859 16.859 0 017.726-4.586zm5.209 17.629c-.389-.478-1.205-.478-1.593 0L19.189 41.95a1.012 1.012 0 00.152 1.43 1.03 1.03 0 001.441-.152l10.619-13.034L42.019 43.23a1.025 1.025 0 001.44.151c.44-.352.509-.993.153-1.43L32.197 27.94z" fill="#4090E7"/><path d="M43.162 22.562c.624.349 1.322.523 2.095.523a4.46 4.46 0 002.147-.523 3.895 3.895 0 001.537-1.482c.376-.639.565-1.371.565-2.197 0-.825-.184-1.558-.55-2.197a3.79 3.79 0 00-1.5-1.474c-.635-.344-1.343-.516-2.125-.516-.783 0-1.49.172-2.125.516a3.784 3.784 0 00-1.5 1.474c-.366.64-.55 1.372-.55 2.197 0 .836.179 1.57.535 2.204a3.77 3.77 0 001.47 1.475zm.044-5.175a2.22 2.22 0 01.884-.922 2.45 2.45 0 011.211-.31c.436 0 .842.104 1.219.31.376.207.678.514.906.922.227.408.341.906.341 1.496s-.118 1.091-.356 1.504a2.368 2.368 0 01-.929.929 2.54 2.54 0 01-1.225.31c-.683 0-1.25-.239-1.701-.716-.451-.476-.676-1.152-.676-2.027 0-.59.109-1.088.326-1.496zm9.671 2.072l3.031 3.494h2.288l-3.774-4.055 3.774-4.069h-2.347l-2.971 3.553v-6.34h-1.694v10.91h1.694v-3.494zm10.503 3.494v-1.4h-1.04c-.347 0-.592-.067-.736-.2-.143-.133-.215-.351-.215-.656V16.2h1.99v-1.37h-1.99v-2.02h-1.708v2.02h-.966v1.37h.966v4.497c0 .796.203 1.371.609 1.725.406.354.99.53 1.753.53h1.337zm8.795-1.873c.377-.639.565-1.371.565-2.197 0-.825-.183-1.558-.55-2.197a3.79 3.79 0 00-1.5-1.474c-.634-.344-1.342-.516-2.125-.516-.782 0-1.49.172-2.124.516a3.784 3.784 0 00-1.5 1.474c-.367.64-.55 1.372-.55 2.197 0 .836.178 1.57.535 2.204a3.77 3.77 0 001.47 1.475c.624.349 1.322.523 2.095.523.782 0 1.498-.174 2.147-.523a3.895 3.895 0 001.537-1.482zm-1.53-.693a2.367 2.367 0 01-.929.929c-.38.206-.79.31-1.225.31-.683 0-1.25-.239-1.701-.716-.45-.476-.676-1.152-.676-2.027 0-.59.11-1.088.327-1.496a2.22 2.22 0 01.884-.922 2.45 2.45 0 011.21-.31 2.5 2.5 0 011.219.31c.376.207.678.514.906.922.228.408.342.906.342 1.496s-.119 1.091-.357 1.504zm10.28-5.175a3.795 3.795 0 00-1.961-.516c-.614 0-1.171.126-1.671.376-.5.251-.894.573-1.181.966v-3.995h-1.694v10.91h1.694v-1.18c.287.384.676.698 1.166.944.49.245 1.052.369 1.686.369a3.68 3.68 0 001.953-.539 3.758 3.758 0 001.39-1.503c.336-.644.504-1.374.504-2.19 0-.816-.168-1.54-.504-2.175a3.644 3.644 0 00-1.382-1.467zm-.186 5.116c-.233.423-.54.745-.92.966-.382.221-.79.332-1.226.332a2.414 2.414 0 01-2.132-1.276c-.233-.417-.35-.906-.35-1.466 0-.56.117-1.047.35-1.46a2.42 2.42 0 01.921-.944c.38-.216.784-.324 1.21-.324.436 0 .845.106 1.226.317.382.211.688.52.921.929.233.408.35.892.35 1.452 0 .56-.117 1.052-.35 1.474zm9.337-5.131c-.604-.334-1.293-.501-2.065-.501-.802 0-1.513.172-2.132.516a3.59 3.59 0 00-1.44 1.467c-.343.634-.513 1.369-.513 2.204 0 .836.175 1.57.527 2.204a3.734 3.734 0 001.456 1.475c.619.349 1.32.523 2.102.523.96 0 1.765-.238 2.414-.715a3.662 3.662 0 001.344-1.835h-1.827c-.376.756-1.02 1.135-1.931 1.135-.634 0-1.169-.197-1.604-.59-.436-.393-.679-.914-.728-1.563h6.254c.04-.246.06-.52.06-.825 0-.787-.169-1.482-.506-2.087a3.556 3.556 0 00-1.411-1.408zm-4.382 2.964c.079-.63.326-1.128.742-1.497a2.187 2.187 0 011.5-.553c.644 0 1.184.187 1.62.56.436.374.659.87.669 1.49h-4.531zm9.656.516c0-.826.17-1.406.512-1.74.342-.334.845-.501 1.508-.501h.43v-1.74c-.563 0-1.051.116-1.462.346a2.65 2.65 0 00-.988.966v-1.18h-1.694v8.124h1.694v-4.275zm5.925-4.423c0-.472.105-.804.313-.995.207-.192.569-.288 1.084-.288v-1.4c-1.07 0-1.855.213-2.355.64-.5.428-.75 1.11-.75 2.043v.575h-.965v1.37h.965v6.753h1.708V16.2h1.516v-1.371h-1.516v-.575zm8.602.943c-.604-.334-1.293-.501-2.065-.501-.802 0-1.513.172-2.132.516a3.594 3.594 0 00-1.441 1.467c-.342.634-.512 1.369-.512 2.204 0 .836.175 1.57.527 2.204a3.733 3.733 0 001.456 1.475c.618.349 1.319.523 2.102.523.96 0 1.765-.238 2.414-.715a3.66 3.66 0 001.344-1.835h-1.827c-.376.756-1.02 1.135-1.931 1.135-.634 0-1.169-.197-1.605-.59-.435-.393-.678-.914-.728-1.563h6.255c.039-.246.059-.52.059-.825 0-.787-.168-1.482-.505-2.087a3.557 3.557 0 00-1.411-1.408zm-4.382 2.964c.079-.63.326-1.128.742-1.497.416-.368.916-.553 1.501-.553.643 0 1.183.187 1.619.56.435.374.658.87.668 1.49h-4.53zm12.649.553a10.998 10.998 0 00-1.463-.48 15.901 15.901 0 01-1.01-.317 1.686 1.686 0 01-.579-.346.714.714 0 01-.238-.546c0-.275.119-.496.356-.663.238-.167.58-.25 1.025-.25.456 0 .818.108 1.085.324.268.216.416.506.446.87h1.693c-.039-.806-.344-1.443-.913-1.91-.57-.467-1.32-.7-2.251-.7-.624 0-1.176.103-1.656.31-.481.206-.85.489-1.107.847a1.987 1.987 0 00-.386 1.187c0 .531.141.958.423 1.283.282.324.616.565 1.003.722.386.158.886.32 1.5.487.634.177 1.097.339 1.389.486.292.148.438.374.438.679 0 .285-.131.518-.393.7-.263.182-.632.273-1.107.273-.456 0-.834-.116-1.137-.347-.302-.23-.467-.518-.497-.862h-1.753c.02.491.178.936.475 1.334.298.398.701.713 1.211.944.51.23 1.087.346 1.731.346.633 0 1.186-.103 1.656-.31.471-.206.834-.49 1.092-.855.258-.363.386-.776.386-1.238-.01-.521-.153-.939-.431-1.253a2.717 2.717 0 00-.988-.715zm7.212-2.514v-1.37h-1.99v-2.02h-1.709v2.02h-.966v1.37h.966v4.497c0 .796.203 1.371.609 1.725.406.354.991.53 1.753.53h1.337v-1.4h-1.04c-.346 0-.591-.066-.735-.199-.144-.133-.215-.351-.215-.656V16.2h1.99zM48.51 28.43a3.795 3.795 0 00-1.96-.515c-.614 0-1.171.125-1.672.376-.5.25-.893.572-1.18.965v-3.995h-1.694v10.91h1.694v-1.18c.287.384.676.698 1.166.944.49.246 1.052.369 1.686.369.713 0 1.364-.18 1.953-.538a3.757 3.757 0 001.39-1.504c.336-.644.504-1.374.504-2.19 0-.815-.168-1.54-.504-2.174a3.644 3.644 0 00-1.382-1.467zm-.185 5.117c-.233.422-.54.744-.92.965-.382.221-.79.332-1.226.332a2.415 2.415 0 01-2.133-1.275c-.232-.418-.348-.907-.348-1.467s.116-1.047.349-1.46a2.42 2.42 0 01.921-.943c.38-.217.784-.325 1.21-.325.436 0 .845.106 1.226.317.381.212.688.521.921.93.233.407.35.891.35 1.451s-.117 1.052-.35 1.475zm9.502-5.117c-.635-.343-1.343-.515-2.125-.515s-1.49.172-2.125.516a3.785 3.785 0 00-1.5 1.474c-.366.64-.55 1.371-.55 2.197 0 .836.179 1.57.536 2.204a3.77 3.77 0 001.47 1.474c.624.35 1.322.524 2.095.524a4.46 4.46 0 002.147-.524 3.895 3.895 0 001.537-1.481c.376-.64.565-1.371.565-2.197 0-.826-.184-1.558-.55-2.197a3.79 3.79 0 00-1.5-1.474zm-.045 5.176a2.367 2.367 0 01-.929.928c-.381.207-.79.31-1.225.31-.683 0-1.25-.238-1.701-.715-.451-.477-.676-1.152-.676-2.027 0-.59.109-1.089.326-1.496a2.22 2.22 0 01.884-.922c.372-.207.775-.31 1.212-.31.435 0 .841.104 1.218.31.376.206.678.514.906.921.227.408.341.907.341 1.497 0 .59-.118 1.09-.356 1.504zm9.521-5.176c-.634-.343-1.342-.515-2.124-.515-.783 0-1.491.172-2.125.516a3.785 3.785 0 00-1.5 1.474c-.367.64-.55 1.371-.55 2.197 0 .836.178 1.57.535 2.204a3.77 3.77 0 001.47 1.474c.625.35 1.323.524 2.096.524a4.46 4.46 0 002.146-.524 3.894 3.894 0 001.537-1.481c.377-.64.565-1.371.565-2.197 0-.826-.183-1.558-.55-2.197a3.79 3.79 0 00-1.5-1.474zm-.045 5.176a2.366 2.366 0 01-.928.928 2.53 2.53 0 01-1.225.31c-.684 0-1.251-.238-1.702-.715-.45-.477-.676-1.152-.676-2.027 0-.59.11-1.089.327-1.496a2.22 2.22 0 01.884-.922c.372-.207.775-.31 1.211-.31.436 0 .842.104 1.218.31.376.206.679.514.906.921.228.408.342.907.342 1.497 0 .59-.119 1.09-.357 1.504zm8.438-5.559l-2.97 3.553v-6.34H71.03v10.911h1.694v-3.494l3.03 3.494h2.288l-3.773-4.054 3.773-4.07h-2.347zm5.26 0h-1.694v8.124h1.694v-8.124zm-.832-3.229c-.307 0-.565.104-.773.31a1.04 1.04 0 00-.312.767c0 .305.104.56.312.766.208.207.466.31.773.31.296 0 .549-.103.757-.31.208-.206.312-.461.312-.766s-.104-.56-.312-.767a1.036 1.036 0 00-.757-.31zm8.92 3.495c-.51-.266-1.087-.398-1.73-.398-.486 0-.944.093-1.374.28a2.812 2.812 0 00-1.063.781v-.929h-1.693v8.124h1.694V31.63c0-.727.185-1.285.556-1.673.372-.388.874-.583 1.508-.583s1.134.195 1.5.583c.367.388.55.946.55 1.673v4.541h1.68V31.38c0-.738-.144-1.367-.432-1.888a2.844 2.844 0 00-1.196-1.18zm9.914.914c-.278-.374-.662-.686-1.152-.936-.49-.251-1.052-.376-1.686-.376a3.76 3.76 0 00-1.953.523 3.743 3.743 0 00-1.397 1.467c-.342.63-.512 1.352-.512 2.167 0 .816.17 1.546.512 2.19a3.81 3.81 0 001.397 1.504 3.68 3.68 0 001.953.538c.624 0 1.181-.13 1.672-.39.49-.261.878-.583 1.166-.967v1.357c0 .786-.21 1.386-.632 1.798-.42.413-.973.62-1.656.62-.585 0-1.087-.13-1.508-.39-.42-.262-.696-.603-.825-1.026H92.66c.099.885.515 1.585 1.248 2.102.733.515 1.654.773 2.763.773.832 0 1.547-.167 2.147-.501a3.426 3.426 0 001.374-1.379c.317-.584.475-1.25.475-1.997v-8.257h-1.708v1.18zm-.35 4.342a2.426 2.426 0 01-.913.95 2.404 2.404 0 01-2.43-.007 2.45 2.45 0 01-.92-.965c-.233-.423-.35-.914-.35-1.475 0-.56.117-1.044.35-1.452a2.4 2.4 0 012.132-1.246 2.404 2.404 0 012.132 1.268c.232.413.349.9.349 1.46 0 .56-.117 1.05-.35 1.467z" fill="#000"/><path d="M103.581 34.122c-.307 0-.565.103-.773.31a1.037 1.037 0 00-.312.766c0 .305.104.56.312.767.208.206.466.31.773.31.297 0 .549-.104.758-.31a1.04 1.04 0 00.311-.767c0-.305-.104-.56-.311-.767a1.038 1.038 0 00-.758-.31zm6.34-4.792c.495 0 .906.113 1.233.34.327.225.565.54.713.943h1.827c-.227-.865-.666-1.531-1.314-1.998-.649-.467-1.469-.7-2.459-.7-.782 0-1.475.172-2.08.516a3.637 3.637 0 00-1.419 1.467c-.341.634-.512 1.369-.512 2.204 0 .836.171 1.57.512 2.204a3.683 3.683 0 001.419 1.474c.605.35 1.298.524 2.08.524.971 0 1.783-.243 2.437-.73.653-.486 1.099-1.143 1.336-1.968h-1.827c-.317.855-.965 1.282-1.946 1.282-.693 0-1.245-.245-1.656-.737-.411-.491-.617-1.174-.617-2.05 0-.874.206-1.555.617-2.041.411-.487.963-.73 1.656-.73zm11.218-.9c-.634-.343-1.342-.515-2.124-.515-.783 0-1.491.172-2.125.516a3.781 3.781 0 00-1.5 1.474c-.367.64-.55 1.371-.55 2.197 0 .836.178 1.57.535 2.204a3.774 3.774 0 001.47 1.474c.625.35 1.323.524 2.096.524a4.46 4.46 0 002.146-.524 3.888 3.888 0 001.537-1.481c.377-.64.565-1.371.565-2.197 0-.826-.183-1.558-.55-2.197a3.781 3.781 0 00-1.5-1.474zm-.045 5.176a2.363 2.363 0 01-.928.928 2.53 2.53 0 01-1.225.31c-.684 0-1.251-.238-1.702-.715-.451-.477-.676-1.152-.676-2.027 0-.59.109-1.089.327-1.496a2.22 2.22 0 01.884-.922c.372-.207.775-.31 1.211-.31.436 0 .841.104 1.218.31.376.206.679.514.906.921.228.408.342.907.342 1.497 0 .59-.119 1.09-.357 1.504zm16.616-4.114a2.887 2.887 0 00-1.203-1.18c-.51-.265-1.087-.397-1.731-.397-.604 0-1.169.145-1.693.435-.525.29-.912.68-1.159 1.172a2.839 2.839 0 00-1.189-1.195c-.514-.275-1.099-.412-1.753-.412a3.36 3.36 0 00-1.366.28 2.814 2.814 0 00-1.055.781v-.929h-1.694v8.124h1.694V31.63c0-.727.186-1.285.557-1.673.372-.388.874-.583 1.508-.583s1.134.195 1.5.583c.367.388.55.946.55 1.673v4.541h1.679V31.63c0-.727.185-1.285.557-1.673.371-.388.874-.583 1.508-.583.633 0 1.133.195 1.5.583.366.388.55.946.55 1.673v4.541h1.678V31.38c0-.738-.146-1.367-.438-1.888z" fill="#4090E7"/></svg>