<svg width="69" height="83" fill="none" xmlns="http://www.w3.org/2000/svg"><path d="M4.695 48.648c0 7.772 3.26 15.488 8.871 20.991 5.612 5.503 13.507 8.68 21.434 8.68 7.938 0 15.819-3.205 21.44-8.68 5.62-5.503 8.865-13.219 8.865-20.99V3.687L4.695 3.68v44.967z" fill="#fff" stroke="#000" stroke-width="4.8"/><path d="M56.99 17.389l2.694 5.384-3.767 2-2.665-5.512 3.737-1.872z" fill="#DA121A"/><path d="M51.63 25.558h2.26l1.912-1.064-1.13-2.343 2-1.344-.262-.638-2.52 1.418m-39.344-1.39l-2.289-2.122-.759 1.56 3.048 1.385m3.07 1.985l-2.427-4.68-.353 1.872 2.78 5.361m-2.2-4.794h-1.16c-.475.82-1.028 1.62-1.275 2.27l2.434.283" fill="#000"/><path d="M31.008 12.595c-.185.366.99.108 1.136.508.145.402 1.3 7.914 1.3 7.914l-.663.703v1.816h3.19V13.018c-1.478-.108-2.665-.99-4.948-.423h-.015z" fill="#FCDD09"/><path d="M31.131 12.686a1.393 1.393 0 00-.217.034c-2.135.922-1.055 2.944-1.704 6.098l.69.142c0 .672.11 1.098.209 1.915 1.92.176 3.007-.071 3.152 0 .492.425 1.246 1.951 1.246 1.951l.144-.07s.261-6.916.058-7.483c-.174-.885-1.188-1.702-1.947-2.162-.51-.25-1.118-.47-1.63-.425zm-18.878 5.39l-.324.566c1.159.886 1.918 1.17 2.352 1.56l-.145.355c-.614-.283-2.062-1.208-2.39-1.384l-.252.462c1.124.778 2.173 1.314 2.39 1.49.617.32 1.197.317 1.521.638v.46c-.834-.176-1.376-.676-1.738-.46l-.255.354c.617 0 1.559.602 1.559.602l-.145.425c-.724-.246-.791-.462-1.62-.638l-.29.638 6.664 3.512-.02-3.483c-.214-.066-.423-.18-.606-.275-1.051-.639-.472-1.703-.617-2.057 0-.071-2.277-1.918-3.149-2.519-.724.993.832 1.668 1.121 2.164.507.744-.035 1.915 1.27 2.695l-.038.567c-1.956-.533-1.304-2.343-1.666-3.015-.362-.425-.652-.567-1.16-.922-.947-.638-1.555-1.203-2.462-1.736zm43.603 1.514a.7.7 0 00-.29.08l-1.767.87c-.724.426-1.217.681-1.217.681-.695.369.55 1.557-.405 1.906-.435.165-.84.34-1.13.417v3.744l4.2-2.493-.666-1.359c-.318.965-.84 1.277-1.767 1.447l-.145-.567c.753-.227 1.246-.394 1.449-1.189.116-.595-.29-.88-.03-1.418.03-.142 1.073-.825 1.768-1.251.232-.142.464-.252.55-.31-.202-.303-.318-.55-.55-.558z" fill="#F2A772"/><path d="M32.886 12.402c1.651.766 1.883 1.075 2.52 1.898.377.737.348 1.418.348 4.368 0 1.9-.174 3.719-.145 3.804l-1.97.539c-.174-.057-.521-.933-.84-1.302-1.738 1.929-4.395 2.462-6.736 2.632-1.321.17-5.134-.596-6.663-1.248 0 0-.079 24.562-.082 35.855 2.115 0 3.665-.653 4.908-2.581.31-.37.678-1.078.678-4.34 0-3.404.026-16.283.026-16.283 0-.794.554-1.843 1.423-2.638.669-.624 1.179-.879 2.074-1.106v26.72l13.933.058V31.603c.695.227 1.68.908 2.115 1.532.434.595.956 1.248 1.332 2.581.377 1.702.203 15.97.203 16.282 0 2.27-.203 4.028.782 5.418.87 1.163 3.216 1.759 4.52 1.872V23.462c-2.694.885-5.881 1.222-8.344.74-2.115-.369-3.563-1.929-3.708-2.24-1.101-2.185 4.027-1.643 6.229-1.643-.29-1.617-.55-2.043-1.16-3.262-1.216-2.043-2.288-2.95-4.258-3.801-1.738-.653-5.447-.851-7.185-.851v-.003z" fill="#000"/><path d="M35.926 28.854c2.499-.07 4.346-.957 5.395-2.02.615-.568 1.159-1.1 1.376-1.916l-1.014-.39c-.181.639-.507.958-1.014 1.419-.978.992-3.007 1.843-5.36 1.843-1.956 0-3.694-.638-4.78-1.347-.833-.532-1.377-1.028-1.666-1.915l-1 .46c.29 1.028 1.087 1.773 2.064 2.375 1.16.78 2.68 1.419 4.67 1.49v10.033h-5.562v1.205h5.577v18.047h1.304v-18.04h5.83v-1.206H35.95V28.827l-.025.027z" fill="#FCDD09"/><path d="M30.455 59.768c-.373.113-.553 1.22-.988 1.758-.562.71-3.088 2.213-3.088 5.191 1.677-1.05 2.399-1.56 4.137-2.78 1.414-.964 2.028-1.106 2.156-1.276v-2.893h-2.217zm7.153 0c.03 1.843 0 2.58.174 2.893.319.425.985.482 2.492 1.588 1.39 1.078 2.144 1.674 3.563 2.468-.26-3.319-1.043-3.092-2.288-4.482-.667-.595-1.594-2.41-1.652-2.467h-2.289z" fill="#DA121A" stroke="#C20000"/><path d="M33.609 15.063c.029-.639-.116-.71-.695-1.277-.218.675-.116.922.695 1.277zm-.846.034c.035-.636.093-.811-.58-1.31-.179.674-.179.884.58 1.31zm-.834-.068c.072-.641.217-.75-.58-1.314-.18.673-.145.993.58 1.314zm-.922.07c.22-.57.365-.958-.541-1.347-.108.78.072.851.541 1.348zm-.058 1.629c.98.496 1.05.496 1.994-.105-.29-.533-.8-.888-1.449-.746-.365.176-.51.388-.545.777v.074z" fill="#231F20"/></svg>