<svg version="1.0" xmlns="http://www.w3.org/2000/svg" width="341.333" height="341.333" viewBox="0 0 256 256"><path d="M79.8 17.6c-4.3.8-11.9 3-17 5C33.3 34.2 12.1 58.9 4.9 89.8c-1.8 7.9-2.1 11.2-1.6 23.5.5 15.2 1.7 21.1 6.8 33.3 4.6 11 12.1 21.9 21.2 30.8 5.2 5.1 8.3 8.9 8.5 10.5.6 4.4 3.5 9.4 7.9 13.7 6.3 6.1 15.4 8.2 25.8 6 1.4-.3 3.3.8 6 3.5 2.2 2.1 4.3 3.9 4.7 3.9 1.8 0 .5 2.2-5.2 9.2-6.4 7.8-7.4 11.2-4.2 14.1 3.5 3.2 7.1 2 11.5-3.7 1.8-2.3 5.1-6.4 7.4-9.2 3.7-4.5 8.7-10.6 31.3-38.4 4.1-5.1 10.6-13 14.4-17.6l6.8-8.3 18.5 22.7c10.2 12.5 19.7 24.1 21.2 25.9 1.4 1.8 7.3 9.1 13.1 16.2 5.8 7.2 11.3 13.3 12.3 13.7 5 1.7 9.9-3.4 7.5-7.9-.6-1.2-3.8-5.6-7.2-9.6-3.3-4.1-5.6-7.2-5-6.8.6.3 3.5-1.4 6.4-3.9 4-3.4 5.7-4.3 7.4-3.8 6.9 2.3 16.5.4 23.3-4.6 11.4-8.4 12.6-26.6 2.4-36.8l-3.2-3.2 1.4-8.2c1.7-9.5 1.5-27.9-.3-35l-1.2-4.7 4.1-4.7c4.6-5.2 6.1-9.5 6.1-17 0-6.2-1.9-11.1-6.2-15.9-5.3-6.1-9.9-7.9-20.6-8-9.1-.1-9.3-.2-12.9-3.6-2.1-1.9-4-3.7-4.3-4-1.3-1.4-13-8.9-17.5-11.1-2.7-1.4-8.5-3.8-12.7-5.3-5.4-1.9-7.8-3.3-7.8-4.4-.1-2.8-3.6-9.5-6.6-12.5-6.4-6.3-16-8.8-25.3-6.6-4.5 1-5.7.9-11.3-.9-14.9-4.9-32.5-6.2-48-3.5zm75.1 15.2c6.1 4.6 8.7 11.5 6.6 17.7-3.5 10-14.1 14.2-23.5 9.2-11.5-6.1-11.2-21.8.5-27.8 4.8-2.4 12.5-2 16.4.9zM186 61.5c4.8 2.5 11.6 7.1 17.3 11.8l4.7 3.9-1.9 2.6c-9.2 13.2-2.6 32.4 12.8 37.7 2.4.8 6.1 1.5 8.2 1.5 2.1 0 4 .4 4.3.9 1.7 2.8 2.5 21.6 1.3 30.8-1 7.6-1.2 7.8-6.5 8-13 .4-24 11.4-24.4 24.4-.1 4.6 1.8 11.1 4.2 14.1l1.9 2.5-2.7 2.5c-6.3 5.7-4.8 6.4-16.5-8.2-.7-.8-4-5-7.5-9.2l-6.2-7.7 2.7-2.1c3.9-3 10-10.8 12.2-15.5 9.1-19.5 5.6-40.3-9.3-55-6.9-6.8-13.6-10.7-22.1-13-30.3-7.8-60.6 15.2-60.7 46 0 13.6 4.2 24.1 13.6 34l5.5 5.8-3.2 4.1c-10.7 13.8-20 24.6-21 24.6-.6 0-2.6-1.4-4.4-3.2-3.2-3.1-3.2-3.1-1.4-5.7 10.7-15.4-.5-37-19.9-38.4-2.8-.2-5.2-.6-5.4-.8-1.8-1.9-2.7-22.2-1.3-31.7l1-7.2h4.2c9.7 0 18.8-5.7 23.1-14.6 2.3-4.7 2.6-6.3 2.2-11.9-.4-4.4-1.4-7.8-3.2-10.9L85 77.1l6.8-5.6c6.8-5.7 22-13.9 28-15.1 2.5-.5 3.2-.3 3.2.9 0 2.7 8.7 10.4 13.7 12.1 12.1 4.1 26.4-1 31.8-11.3l1.4-2.9 6.3 2.2c3.5 1.3 7.9 3.1 9.8 4.1zM72.8 80.1c16.3 7.9 8.2 32-10 29.6-13.3-1.8-18.5-18.2-8.6-27.4 5-4.7 11.7-5.5 18.6-2.2zm164.9 1.5c10.4 7.9 7.3 23.9-5.2 27.4-14.2 4-26.3-10.2-19.2-22.5 4.9-8.6 16.5-11 24.4-4.9zm-76.6 23.6c18.8 8.6 26.7 29.8 18.1 48.2-2.8 5.9-9.4 13.6-11.8 13.6-.6 0-2-1.2-3-2.8-1-1.5-2.3-3.3-3-4-.7-.7-3.5-4-6.1-7.3-5.3-6.8-8.1-8.4-11.6-6.8-1.2.6-5.8 5.5-10.1 11-4.4 5.4-8.5 9.9-9.2 9.9-2 0-8.4-8-11.3-14-2.2-4.8-2.6-6.8-2.6-15 0-7.8.4-10.4 2.3-14.3 4.4-9.3 13.7-17.2 23.5-20.2 6.8-2.1 18.2-1.3 24.8 1.7zm-87.9 64.4c1.5.8 3.8 2.9 5.2 4.7 6.5 8.5 3 19.9-7.4 24-14 5.6-27.2-9.7-19.7-22.6 4.5-7.7 13.8-10.3 21.9-6.1zm162.3 0c1.7.8 4.3 3.3 5.8 5.6 10.6 16.3-12.6 33.2-25.7 18.7-12.1-13.3 3.3-32.1 19.9-24.3z"/></svg>