<svg width="85" height="45" fill="none" xmlns="http://www.w3.org/2000/svg"><path d="M14.025 30.786c-2.399.5-4.695 1.415-6.803 2.61-1.075.608-2.147 1.23-3.133 1.966-.508.378-.994.786-1.429 1.24-.371.39-.892.922-1.039 1.443-.038.137-.024.296.075.403.128.139.348.148.543.147 3.63-.023 7.26-.007 10.89-.007h61.824c.626 0 .66-.021.903-.57.01-.025.02-.052.033-.075 2.312-3.853 4.465-7.79 6.688-11.689.21-.37.24-.751.069-1.126-.11-.236-.286-.446-.443-.66-1.186-1.615-2.972-2.763-4.874-3.489-.941-.36-1.925-.62-2.926-.778-1.044-.165-2.19-.012-3.157-.487-1.173-.576-1.39-1.91-1.671-3.01-.545-2.129-1.088-4.256-1.668-6.376-.451-1.65-.823-3.351-1.677-4.868-1.428-2.538-3.702-3.886-6.673-3.886-7.793 0-15.587.045-23.38.006a6.212 6.212 0 00-1.956.323 6.75 6.75 0 00-3.245 2.222 7.48 7.48 0 00-.781 1.127c-3.743 6.901-7.32 13.886-10.963 20.835-.597 1.14-1.186 2.282-1.794 3.416-.471.881-.944 1.762-1.408 2.646a5.962 5.962 0 00-.365.796c-.102.293.031.502.347.576.164.04.34.045.509.045 6.8.003 16.85.003 23.65.005m31.687-9.117c-.232-.793-1.758-5.73-1.96-6.53M30.272 38.587c.894-.482 4.169-2.29 5.083-2.738 2.423-1.186 4.866-2.333 7.377-3.347 1.568-.634 3.118-1.311 4.71-1.885 2.056-.74 4.13-1.443 6.224-2.074 2.095-.629 4.22-1.169 6.342-1.709a38.97 38.97 0 013.155-.64c1.313-.22 2.63-.437 3.955-.565 2.742-.263 5.48-.563 8.253-.44 1.806.08 3.592.261 5.37.547.189.03 1.438.284 1.627.303" stroke="#4090E7" stroke-width="1.5" stroke-linecap="round" stroke-linejoin="round"/><path d="M56.107 11.287a30.508 30.508 0 00-3.735 1.424c-6.062 2.794-10.838 8.347-12.71 14.497-.664 2.182-.963 4.439-.824 6.674 8.693-2.142 15.735-10.164 16.994-18.772.185-1.268.273-2.564.275-3.823h0zm-.002 0l-17.27 22.595m7.275-9.515l5.766.384M50.04 13.957l1.005 3.95M41.41 30.512l-1.527-3.996" stroke="#4090E7" stroke-width="1.5" stroke-linecap="round" stroke-linejoin="round"/><path d="M15.185 43.955H1.602m54.175 0H19.531" stroke="#000" stroke-width="1.5" stroke-linecap="round" stroke-linejoin="round"/><g opacity=".5" fill="#4090E7"><path d="M46.67 38.49h30.269c.212 0 .424-.013.636-.017a.459.459 0 00.431-.27c.073-.146.138-.295.22-.436 2.182-3.817 4.362-7.635 6.553-11.448.327-.57.272-1.078-.101-1.604-.93-1.313-2.135-2.328-3.585-3.086a13.545 13.545 0 00-4.761-1.486c-.603-.07-1.213-.083-1.815-.16-1.014-.129-1.734-.645-2.11-1.564a5.547 5.547 0 01-.24-.687c-.642-2.436-1.262-4.877-1.919-7.309a58.906 58.906 0 00-1.11-3.678c-.334-.978-.88-1.865-1.578-2.656-1.487-1.687-3.413-2.433-5.7-2.43-7.726.006-15.452.005-23.178.008-.184 0-.37-.005-.552.016-1.844.222-3.357 1.014-4.542 2.384-.59.682-1.006 1.46-1.417 2.243L21.305 26.985a827.767 827.767 0 01-2.033 3.836c-.034.063-.125.15-.182.144-.527-.045-1.052-.116-1.58-.162a8.113 8.113 0 00-1.09-.043c-.242.011-.48.103-.719.164-3.353.863-6.316 2.455-9.072 4.426a8.97 8.97 0 00-2.023 1.975 2.246 2.246 0 00-.326.711c-.064.225.086.392.329.432.138.023.28.031.422.03 3.134-.009 6.267-.022 9.401-.03.487-.002.975.022 1.462.022 5.716.006 11.433.01 17.15.012 1.733 0 3.466-.01 5.2-.01 2.808-.003 5.617-.001 8.426-.001z"/><path d="M46.67 38.49l-8.427.001c-1.733.001-3.466.012-5.2.011-5.716-.002-11.433-.006-17.149-.012-.487 0-.975-.024-1.462-.023l-9.401.032a2.55 2.55 0 01-.422-.031c-.243-.04-.393-.207-.329-.432.071-.248.173-.502.326-.71A8.97 8.97 0 016.63 35.35c2.756-1.971 5.719-3.563 9.072-4.426.239-.061.477-.153.72-.164.361-.018.727.011 1.09.043.527.046 1.052.117 1.579.162.057.005.148-.08.182-.144.681-1.277 1.36-2.556 2.033-3.837L32.17 6.31c.411-.782.827-1.56 1.417-2.243 1.185-1.37 2.698-2.162 4.542-2.384.182-.021.368-.016.552-.016 7.726-.003 15.452-.002 23.179-.009 2.286-.002 4.212.744 5.7 2.43.697.792 1.243 1.68 1.577 2.657a58.973 58.973 0 011.11 3.678c.657 2.432 1.277 4.873 1.918 7.309.062.233.149.462.241.687.376.919 1.096 1.435 2.11 1.564.602.077 1.212.09 1.815.16 1.689.195 3.272.707 4.76 1.486 1.45.758 2.656 1.773 3.586 3.085.373.527.428 1.035.1 1.605-2.19 3.813-4.37 7.63-6.553 11.448-.08.141-.146.29-.219.435a.459.459 0 01-.431.271c-.212.004-.424.017-.636.017H46.67z"/></g></svg>