<svg width="69" height="79" fill="none" xmlns="http://www.w3.org/2000/svg"><g clip-path="url(#clip0_3734_116814)"><path d="M20.902 17.377a8.623 8.623 0 01-4.012.983c-4.777 0-8.648-3.863-8.648-8.628 0-4.765 3.871-8.627 8.648-8.627 2.251 0 4.302.86 5.841 2.265m22.762 14.007c1.2.628 2.565.983 4.013.983 4.776 0 8.649-3.863 8.649-8.628 0-4.765-3.873-8.627-8.65-8.627a8.633 8.633 0 00-5.84 2.265M39.95 40.783v9.434c0 3.744-3.042 6.779-6.795 6.779s-6.796-3.035-6.796-6.78v-9.433M12.688 77.897H8.195l12.661-37.114" stroke="#4090E7" stroke-width="1.5" stroke-linecap="round" stroke-linejoin="round"/><path d="M18.89 77.897h39.22L45.45 40.783M45.422 3.37H20.828v37.412h24.594V3.369zM6.72 10.729H1.11l3.894 8.56 3.829-3.753m51.037-4.807h5.611l-3.894 8.56-3.83-3.753M38.516 3.37v37.412m-10.438 0V3.369" stroke="#4090E7" stroke-width="1.5" stroke-linecap="round" stroke-linejoin="round"/><path d="M64.567 77.895L51.907 40.78" stroke="#000" stroke-width="1.5" stroke-linecap="round" stroke-linejoin="round"/><g opacity=".5" fill="#4090E7"><path d="M48.935 41.82L61.62 78.93H11.703l12.638-37.11V18.445a8.556 8.556 0 01-3.942.95c-4.776 0-8.648-3.862-8.648-8.627 0-4.765 3.872-8.627 8.648-8.627a8.65 8.65 0 015.843 2.264h20.936a8.643 8.643 0 015.84-2.264c4.775 0 8.65 3.862 8.65 8.627 0 4.764-3.875 8.627-8.65 8.627a8.609 8.609 0 01-4.013-.983l-.07-.538V41.82z"/><path d="M10.236 11.766H4.625l3.895 8.56 3.828-3.753-2.112-4.807zm53.15 0h5.61l-3.894 8.56-3.829-3.753 2.113-4.807z"/></g></g><defs><clipPath id="clip0_3734_116814"><path fill="#fff" d="M0 0h69v79H0z"/></clipPath></defs></svg>