<svg width="55" height="79" fill="none" xmlns="http://www.w3.org/2000/svg"><g clip-path="url(#clip0_3734_116837)"><path opacity=".5" d="M46.89 43.201V.068h-8.246v21.345h-18.58V.068H11.82v43.133H3.406v35.8h19.04l6.727-20.897L36.33 79h18.673V43.2H46.89zm-26.825 0V28.836h18.58v14.365h-18.58z" fill="#4090E7"/><path d="M17.14 1.105H9.124v48.497h8.014V1.105zm26.07 0h-8.015v48.497h8.014V1.105zm-8.102 27.961H17.273m-.133-7.214h17.97m8.284 55.971H32.975l-6.958-20.311-6.537 20.31H8.945M35.2 43.027H17.14m26.07 0h8.033v34.796h-2.422m-45.226 0H1.094V43.027h8.03" stroke="#4090E7" stroke-width="1.5" stroke-linecap="round" stroke-linejoin="round"/><path d="M31.938 1.105v15.012" stroke="#000" stroke-width="1.5" stroke-linecap="round" stroke-linejoin="round"/></g><defs><clipPath id="clip0_3734_116837"><path fill="#fff" d="M0 0h55v79H0z"/></clipPath></defs></svg>