<svg width="115" height="115" fill="none" xmlns="http://www.w3.org/2000/svg"><mask id="a" style="mask-type:luminance" maskUnits="userSpaceOnUse" x="0" y="0" width="115" height="115"><path d="M57.5 115c31.756 0 57.5-25.744 57.5-57.5S89.256 0 57.5 0 0 25.744 0 57.5 25.744 115 57.5 115z" fill="#fff"/></mask><g mask="url(#a)"><path d="M20.835 151.868l28.953-36.733s-9.876-12.514-22.39-9.809c-12.515 2.706-13.733 27.736-13.733 27.736s-9.538 2.706-3.856 3.314c-1.218 2.368 2.097 2.098 3.315 2.368-2.097 3.585 0 5.344 2.097 5.074-.27 3.314 1.488 5.547 3.314 5.073 1.692-.473 2.3 2.977 2.3 2.977z" fill="#F7F4ED"/><path d="M66.768 156.603l18.4-49.991s12.65-7.915 20.429 6.426c7.78 14.341-4.802 37.612-4.802 37.612" fill="#fff"/><path d="M28.344 162.015l3.518-27.465 17.926-19.415 1.827 1.015 3.112 14.544 26.652-23 3.789-1.082-15.559 49.517" fill="#AF3849"/><path d="M42.144 59.53c10.012 14.814-.27 14.205-.27 14.205s7.44 10.62 1.961 13.394c9.133 13.8.745 16.371.745 16.371s7.644 11.432 1.488 11.703c7.44 11.297 0 11.568 0 11.568l4.397 11.905-2.03.609-1.759-4.803.474 4.533-4.262.811s.136-4.464.812-12.988c-4.532 1.083-4.6-6.223-1.353-11.162-4.33.406-4.803-4.938-1.353-11.973-6.02-1.962-4.803-10.62-.068-16.776-3.652-2.842-6.088-6.562-3.652-12.312-6.833-6.156 2.638-15.086 2.638-15.086h2.232z" fill="#EFBB70"/><path d="M59.53 168.847c7.847-9.741 21.917-61.153 21.917-61.153l-4.803 1.353-17.52 15.626-3.924-6.832c-.609 0-3.518-1.623-3.518-1.623s-26.247 24.42-31.388 32.267c-5.141 7.847.406 18.197 8.253 21.309" fill="#fff"/><path d="M48.841 23.744S37.68 32.335 31.118 49.653c-6.494 17.318-9.133 30.17 5.209 34.635 14.34 4.465 19.956 3.518 21.038 17.115 1.082 13.597-.406 14.138-.406 14.138s-21.782 17.521-26.653 24.015c-4.87 6.494 31.456 7.103 34.433 5.615 2.976-1.489 11.702-36.124 11.702-36.124l-10.079 3.721s3.924-31.862 8.388-45.662c4.465-13.8 9.674-37.815 9.674-37.815S66.362 14.206 48.84 23.744z" fill="#FFCD97"/><path d="M61.694 22.323s-12.65 12.65-21.24 15.762c-8.592 3.112-3.721-1.556.202-3.923-6.02 2.367-1.556-4.262 3.315-9.133 4.87-4.87 18.738-9.538 29.63-10.147 10.89-.608 17.723 2.91 18.129 3.924.405.947-4.465 24.353-8.794 33.891-4.262 9.538-5.683 10.553-5.683 10.553S63.047 34.432 61.694 22.323zm17.724 122.036l-1.42-4.871.134 4.533-4.261.473s.473-4.465 1.69-12.92c-4.6.744-4.126-6.495-.54-11.23-4.33.135-4.465-5.209-.541-12.041-5.886-2.368-4.06-10.891 1.082-16.777-3.45-3.044-5.615-6.967-2.841-12.514-6.36-6.63 3.653-14.883 3.653-14.883l2.232.136c8.997 15.423-1.218 14.206-1.218 14.206S84.085 89.632 78.471 92c8.185 14.409-.339 16.371-.339 16.371s6.9 11.905.677 11.77c6.63 11.771-.744 11.5-.744 11.5l3.585 12.177" fill="#EFBB70"/><path d="M72.585 60.544s9.539-2.503 11.095.947c1.555 3.518-2.504 13.259-9.945 9.944-7.373-3.314-3.111-5.817-3.111-5.817" fill="#FFCD97"/><path d="M69.135 154.844l16.033-48.232s12.65-7.915 20.429 6.426c7.779 14.341-4.803 37.612-4.803 37.612" fill="#fff"/><path d="M49.18 53.847c-.812 1.42-1.692 2.841-2.571 4.262-.88 1.42-1.827 2.773-2.774 4.126l-.27.406-.406-.203-2.097-1.082c-.677-.338-1.353-.744-2.03-1.083l.745-.54c.135.811.338 1.69.54 2.435.271.811.474 1.623.88 2.3.203.338.474.676.744.811.136.068.27.136.474.136h.609c.811-.068 1.69-.203 2.435-.744-.609.676-1.488 1.014-2.368 1.15-.203.067-.473.067-.676.067-.203 0-.541 0-.744-.135-.474-.203-.812-.609-1.083-.947-.54-.744-.88-1.624-1.217-2.435-.271-.88-.541-1.692-.677-2.571l-.203-1.082.947.473c.677.338 1.353.677 2.03 1.082l2.03 1.083-.677.135c1.014-1.353 1.961-2.638 2.976-3.923 1.285-1.218 2.3-2.503 3.383-3.721zm9.267 19.077c-1.218.879-2.638 1.623-4.126 1.961-1.489.406-3.112.474-4.668.27-1.556-.27-3.044-.743-4.397-1.555-.677-.338-1.285-.88-1.894-1.285a11.858 11.858 0 01-1.624-1.556c.677.338 1.286.812 1.962 1.15l1.015.541c.135.068.338.203.473.27l.541.204 1.015.405 1.015.339c.338.135.676.203 1.082.27.338.068.677.135 1.083.203 1.42.203 2.908.203 4.329 0 1.285-.27 2.706-.744 4.194-1.218zm22.662-9.404c-.406 0-.812-.202-1.218-.27-.406-.068-.812-.135-1.15-.135-.744 0-1.488.203-2.165.54-.676.34-1.285.88-1.826 1.354-.27.27-.541.541-.812.88l-.812.879-.27-.745c.338.136.676.203 1.015.339.338.135.676.27 1.014.676.068.136.135.27.135.406 0 .135-.135.27-.203.338-.135.136-.338.27-.54.339a2.714 2.714 0 01-1.015.203c.338-.136.608-.339.879-.542.135-.067.27-.203.27-.338.068-.135 0-.068 0-.135-.135-.135-.473-.203-.811-.338-.338-.068-.609-.136-.947-.203l-.744-.136.473-.609.744-1.014c.27-.338.61-.609.88-.947.676-.541 1.353-1.15 2.164-1.488.812-.339 1.76-.542 2.639-.339.88.339 1.623.88 2.3 1.286z" fill="#EAA968"/><path d="M56.62 54.456c0 1.285-.54 2.3-1.15 2.3-.608 0-1.15-1.015-1.15-2.3s.542-2.3 1.15-2.3c.61 0 1.15 1.082 1.15 2.3zm-9.74-1.759c0 1.285-.542 2.3-1.15 2.3-.61 0-1.15-1.015-1.15-2.3s.54-2.3 1.15-2.3c.676 0 1.15 1.015 1.15 2.3z" fill="#333"/><path d="M54.997 43.97s6.765-4.126 7.712 5.615l-7.712-5.614zm-5.614-.811s-2.3-6.427-7.915 1.014l7.914-1.014z" fill="#EFBB70"/></g></svg>