<svg width="115" height="115" fill="none" xmlns="http://www.w3.org/2000/svg"><mask id="a" style="mask-type:luminance" maskUnits="userSpaceOnUse" x="0" y="0" width="115" height="115"><path d="M57.5 115c31.756 0 57.5-25.744 57.5-57.5S89.256 0 57.5 0 0 25.744 0 57.5 25.744 115 57.5 115z" fill="#fff"/></mask><g mask="url(#a)"><path d="M31.997 74.615l-5.75-2.639-1.082 5.006-58.312 9.2 7.847 36.733 22.594-2.368s-23.135 38.627-17.047 56.215c6.02 17.588 38.085 29.426 65.618 34.162 27.532 4.735 50.397 0 49.382-28.886-1.082-28.885-4.465-53.035-4.465-53.035s34.365 7.373 50.939 3.923c-1.827-19.414-6.021-35.717-6.021-35.717L85.303 85.64l-.541-5.006-8.93 2.638-43.835-8.658z" fill="#344E3D"/><path d="M43.294 105.732c-2.097 1.624-4.261 3.18-6.426 4.736-2.165 1.556-4.33 3.044-6.494 4.6l-.88.609-.135-1.15c-.406-2.842-.812-5.683-1.15-8.524l-1.015-8.523a181.455 181.455 0 01-.811-8.524c-.271-2.841-.474-5.682-.542-8.591.541 2.84 1.083 5.614 1.556 8.456.474 2.84.88 5.682 1.286 8.456.405 2.841.744 5.682 1.15 8.523.338 2.841.676 5.682.947 8.524l-1.083-.474a365.724 365.724 0 016.765-4.194c2.232-1.285 4.532-2.638 6.832-3.924zm4.262 1.286a275.529 275.529 0 013.585 5.953l3.45 6.088-1.014-.135c1.15-1.353 2.3-2.639 3.517-3.992 1.15-1.353 2.368-2.638 3.518-3.923a392.336 392.336 0 017.17-7.78l3.654-3.855 3.652-3.789a260.057 260.057 0 017.51-7.44c-2.165 2.773-4.465 5.479-6.765 8.117l-3.45 3.991-3.518 3.924a818.734 818.734 0 01-7.103 7.779c-1.218 1.285-2.368 2.571-3.585 3.856a198.477 198.477 0 01-3.653 3.788l-.609.609-.406-.744-3.044-6.291a74.092 74.092 0 01-2.909-6.156zm-3.586 1.961a325.4 325.4 0 00-3.043 11.636c-1.015 3.856-1.894 7.779-2.841 11.635-.88 3.924-1.76 7.779-2.571 11.703a359.962 359.962 0 00-2.232 11.771c-.677 3.923-1.353 7.847-1.827 11.838-.27 1.962-.473 3.923-.744 5.953-.203 1.962-.406 3.991-.541 5.953a177.257 177.257 0 00-.609 11.973c-.068 3.991.135 7.983.474 11.974-1.353-7.915-1.556-15.965-1.15-24.015.405-8.05 1.488-16.032 2.84-23.879 1.421-7.915 3.113-15.762 5.142-23.474a260.447 260.447 0 017.103-23.068z" fill="#3B6648"/><path d="M43.159 33.62s-12.786 27.6-13.8 41.4c-1.015 13.8 16.573 30.036 16.573 30.036s31.05-11.77 33.147-21.782c2.097-10.012-.338-52.156-.338-52.156l-29.359-4.465-6.223 6.968z" fill="#FFCD97"/><path d="M76.982 55.741s8.997-8.253 10.689.677c1.758 8.997-7.239 13.461-11.027 8.253M38.356 53.644s-3.112-8.253-9.336-3.788c-6.223 4.465 2.098 15.897 5.21 13.8" fill="#FFCD97"/><path d="M3.112 198.138s-19.482-35.65 16.235-120.953l4.194.338S5.683 121.969 4.06 148.892c-1.624 26.924 5.209 51.885 5.209 51.885l-6.156-2.638zm56.079 14.274s11.974-19.144 18.468-71.03c6.494-51.885 7.576-55.74 7.576-55.74l4.736 1.285s-5.547 43.158-7.441 55.808c-1.962 12.65-9.065 55.809-18.468 70.083-3.856 2.164-4.87-.406-4.87-.406z" fill="#3B6648"/><path d="M7.306 145.306l.677-14.612s30.509-22.053 68.459 14.274c-.948 6.832-2.571 11.364-2.571 11.364S41.4 174.124 7.306 145.306z" fill="#49422F"/><path d="M66.497 71.976c.61 4.06-.811 7.712-3.585 9.2-1.826 1.015-3.585.745-4.059.677-3.315-.474-6.088-3.518-7.17-7.644l14.814-2.233z" fill="#333"/><path d="M65.415 69.474L59.124 71.3c-1.353.406-2.841.88-4.194 1.218l-1.624.473.609 3.585L65.28 75.36c.203-2.774.135-5.141.135-5.885z" fill="#fff"/><path d="M61.153 68.73s4.127-.812 9.877 2.908c-5.615 3.586-28.953 7.103-25.233-2.3 3.72 1.015 13.191 3.247 15.356-.608z" fill="#BFBFBF"/><path d="M56.553 49.788a220.25 220.25 0 00-4.127 2.841c-.676.474-1.285 1.015-1.961 1.556-.61.541-1.218 1.15-1.624 1.76-.068.134-.135.337-.203.473 0 .067-.067.135-.067.203v.203c0 .338.067.744.203 1.15.135.811.405 1.623.608 2.367.474 1.624.947 3.18 1.556 4.735l.27.812-.879.203c-1.285.27-2.638.609-3.855 1.015a9.785 9.785 0 00-1.692.744c-.203.135-.473.338-.473.406-.068 0 0 .067 0 0-.068-.135-.068-.135 0-.068.338.27 1.015.474 1.556.677.608.203 1.285.27 1.962.406 1.285.203 2.638.405 3.99.473 1.354.068 2.706.135 4.06.135.676 0 1.352-.067 1.961-.135.677-.068 1.285-.203 1.827-.473.54-.271 1.082-.61 1.353-1.083.338-.473.405-1.15.338-1.759-.068-.608-.406-1.217-.812-1.69a2.498 2.498 0 00-1.826-.745c.676-.135 1.42.068 1.961.474a3.687 3.687 0 011.15 1.826c.203.744.136 1.488-.203 2.232-.338.677-.947 1.218-1.623 1.556a7.605 7.605 0 01-2.097.677c-.677.135-1.42.203-2.097.27-1.42.136-2.774.136-4.194.068s-2.774-.135-4.194-.406c-.677-.135-1.353-.27-2.097-.406-.339-.067-.677-.203-1.083-.338-.338-.135-.744-.27-1.15-.609L42.753 69c-.135-.135-.203-.338-.27-.609-.068-.473.067-.744.202-1.015a3.251 3.251 0 011.015-.947 8.783 8.783 0 012.03-.879c1.352-.474 2.705-.744 4.126-1.015l-.609 1.015a66.096 66.096 0 01-1.42-4.87c-.203-.812-.339-1.692-.474-2.504a8.332 8.332 0 01-.135-1.352v-.406c0-.136.067-.271.135-.406.135-.27.203-.474.406-.677.541-.744 1.218-1.285 1.894-1.826.676-.541 1.42-.947 2.097-1.42 1.759-.813 3.247-1.557 4.803-2.3zm28.615 6.156c-.745-.473-1.624-.676-2.165-.338-.609.338-1.015 1.015-1.353 1.691l-.27.541-.204.541-.27.542-.203.608-.812 2.436-.812-.88c.406-.067.812-.067 1.353 0 .203.068.61.136.88.541.135.203.135.406.135.61 0 .202-.068.27-.135.405-.203.474-.541.744-.812 1.015-.338.27-.609.473-1.015.676l.609-1.014c.203-.339.338-.677.406-.947 0-.136-.068-.203 0-.136.067.068 0 0-.135.068-.271 0-.61.068-.947.203l-1.015.27.27-1.082c.203-.88.339-1.759.677-2.57.135-.406.338-.88.541-1.286l.27-.609.406-.608.406-.61c.136-.202.339-.405.542-.54.203-.136.406-.339.608-.474.271-.135.474-.27.745-.27.54-.136 1.082 0 1.555.202.271.203.542.61.745 1.015zM35.65 52.02c0 1.015-.136 1.962-.27 2.842-.204.947-.407 1.826-.677 2.706-.27.879-.61 1.758-1.015 2.638a13.6 13.6 0 01-1.488 2.503c0-1.015.067-1.962.27-2.841.203-.948.406-1.827.677-2.706.27-.88.609-1.76 1.014-2.639.406-.879.88-1.69 1.489-2.503z" fill="#EAA968"/><path d="M29.9 52.697c.338-.609.88-1.082 1.691-1.353.406-.068.812-.135 1.285 0 .136.068.203.068.339.135.067.068.202.136.27.203.068.068.203.136.27.203l.204.27c.27.34.406.677.54 1.083.069.339.136.744.136 1.083 0 .676-.135 1.352-.473 2.029-.339-.609-.541-1.218-.744-1.759-.068-.27-.271-.541-.339-.812-.135-.203-.203-.473-.338-.608-.27-.339-.473-.474-1.015-.542-.473-.067-1.15 0-1.826.068z" fill="#EAA968"/><path d="M64.874 54.93c0 1.082-.541 2.029-1.285 2.029-.745 0-1.286-.88-1.286-2.03s.541-2.029 1.286-2.029c.744 0 1.285.947 1.285 2.03zm-17.048-2.504c0 1.083-.54 2.03-1.285 2.03-.676 0-1.285-.88-1.285-2.03s.541-2.029 1.285-2.029c.677.068 1.285.947 1.285 2.03z" fill="#333"/><path d="M51.683 46.135s-4.939-8.117-9.606-1.759l9.606 1.76zm8.387 1.353s6.698-8.388 10.96.27l-10.96-.27z" fill="#BFBFBF"/><path d="M63.182 89.159a7.332 7.332 0 01-1.759 2.03 6.137 6.137 0 01-2.435 1.352c-.474.136-.947.203-1.42.136-.474-.068-.948-.136-1.421-.406a4.068 4.068 0 01-1.827-2.03c.677.609 1.353 1.15 2.097 1.353.744.27 1.556.203 2.3 0 .745-.203 1.489-.609 2.233-1.015a20.46 20.46 0 002.232-1.42zm-29.426.811c.947.88 1.894 1.76 2.909 2.571a52.807 52.807 0 003.111 2.3 42.61 42.61 0 003.247 2.03c1.083.676 2.233 1.217 3.45 1.826-1.285-.27-2.57-.609-3.72-1.15-1.218-.474-2.368-1.15-3.45-1.894a21.368 21.368 0 01-3.044-2.503c-1.015-1.015-1.827-2.03-2.503-3.18z" fill="#EAA968"/><path d="M38.423 26.585s-6.155 2.503-9.47 7.17c-3.315 4.668 8.456 1.827 15.153-.473-8.32 4.33-4.803 4.465 2.165 1.962-.136-.473-4.803 7.644 10.147 4.127 14.95-3.518 19.28-6.156 19.28-6.156l3.652 30.44 1.488-30.71c-2.232-5.48-5.48-8.39-7.441-9.742-8.862-6.427-22.865-5.141-34.974 3.382z" fill="#BFBFBF"/></g></svg>