<svg width="113" height="113" fill="none" xmlns="http://www.w3.org/2000/svg"><mask id="a" style="mask-type:luminance" maskUnits="userSpaceOnUse" x="-1" y="-1" width="114" height="114"><path d="M56 112.5c31.204 0 56.5-25.296 56.5-56.5S87.204-.5 56-.5-.5 24.796-.5 56s25.296 56.5 56.5 56.5z" fill="#fff" stroke="#fff"/></mask><g mask="url(#a)"><path d="M0 134.795l32.085-15.943s-4.744-2.767 3.03-4.085c7.774-1.318 22.07-4.282 22.07-4.282l.396-5.205 4.744 2.833 8.3-.395 7.116-5.205-.33 6.259s31.361-6.259 43.483-2.174c3.426 25.298 10.673 68.847 10.673 68.847" fill="#fff"/><path d="M78.005 216.951l6.522-109.431 8.63-1.449-11.001 110.946m-28.396 4.282l-7.115-109.365-7.38 1.318L50.4 222.353" fill="#49422F"/><path d="M77.214 110.089c-.724 2.438-1.581 4.744-2.503 7.116a53.34 53.34 0 01-1.45 3.426c-.461 1.12-1.054 2.306-1.515 3.426l-.593 1.12-.593-.989c-.79-1.317-1.647-2.701-2.372-4.084a50.935 50.935 0 01-2.174-4.217c1.054 1.186 1.977 2.504 2.899 3.755a81.973 81.973 0 012.701 3.887l-1.12.066c.527-1.12.988-2.306 1.515-3.426a168.44 168.44 0 001.582-3.425c1.12-2.24 2.306-4.48 3.623-6.655zm-16.866 6.852c-.659 1.581-1.383 3.097-2.108 4.678-.79 1.515-1.581 3.03-2.372 4.48l-1.713 3.03.527-3.491c.198-1.12.33-2.24.527-3.36.198-1.12.396-2.24.66-3.36.46-2.24.987-4.48 1.646-6.654-.066 2.305-.263 4.611-.527 6.851-.132 1.12-.263 2.24-.461 3.426-.198 1.12-.33 2.24-.527 3.36l-1.186-.395c.857-1.45 1.779-2.899 2.701-4.348.79-1.45 1.78-2.833 2.833-4.217z" fill="#DDD"/><path d="M39.003 34.39s-3.756 46.052-3.492 62.918c13.11.593 28.593.527 28.593.527l-1.713 10.278-.132 9.619 8.433-10.08 1.581-74.974c-.132 0-25.167-1.977-33.27 1.713z" fill="#FFCD97"/><path d="M66.212 37.817s-7.181 11.66-15.878 14.362c-8.762 2.701-4.744-2.965-.132-6.457-17.393 8.5-27.011 10.805-19.237 4.81l7.115-5.337s-11.99 2.043-1.977-6.588c10.937-8.828 21.215-7.379 21.215-7.379l14.955 1.384 2.372 3.69L72.8 61.6c-.066 0-7.577-3.228-6.588-23.783z" fill="#49422F"/><path d="M68.65 63.906s7.312-9.224 10.409-1.647c3.096 7.576-6.39 15.087-9.685 10.541" fill="#FFCD97"/><path d="M49.741 62.39c-1.186 2.965-2.503 5.864-3.887 8.763a86.087 86.087 0 01-2.108 4.282 85.285 85.285 0 01-2.24 4.217l-.725-.922c1.91-.528 3.821-1.055 5.798-1.582 1.91-.46 3.887-.988 5.863-1.317a82.015 82.015 0 01-5.6 2.174c-1.91.659-3.755 1.317-5.666 1.976l-1.449.461.725-1.383c.724-1.45 1.45-2.833 2.174-4.282.725-1.384 1.515-2.833 2.24-4.217 1.515-2.767 3.096-5.534 4.875-8.17zm12.452 11.398c-.33 2.109-.988 4.15-1.779 6.062-.79 1.976-1.845 3.887-3.228 5.534-.725.79-1.515 1.58-2.57 2.174-.988.527-2.24.856-3.36.659-1.185-.198-2.173-.857-2.964-1.582a10.362 10.362 0 01-1.977-2.503c.791.725 1.516 1.45 2.372 1.976.857.593 1.779.989 2.701 1.054.923.066 1.845-.197 2.636-.724.79-.461 1.515-1.186 2.174-1.91.659-.726 1.252-1.582 1.779-2.439a35.656 35.656 0 001.515-2.7c.988-1.78 1.845-3.69 2.701-5.6zm13.572-9.421a5.688 5.688 0 00-.659-1.054c-.132-.132-.263-.264-.395-.264-.132-.065-.198 0-.33 0a2.401 2.401 0 00-.659.725c-.197.33-.395.659-.527 1.054-.658 1.45-1.251 3.03-1.844 4.546l-.66-.79c.462-.066.857-.132 1.516.066.132.065.33.131.461.329.132.198.198.461.132.593-.066.33-.197.527-.33.724-.263.396-.592.66-.922.989-.329.263-.658.527-1.054.725.264-.33.461-.725.66-1.055.197-.33.394-.724.592-1.054.066-.132.066-.33.066-.395h-.066c-.198 0-.593 0-.988.132l-.923.197.264-.988c.198-.79.461-1.647.79-2.438.33-.79.66-1.58 1.12-2.305.198-.396.462-.725.791-1.12.33-.33.659-.725 1.252-.857.263-.066.659 0 .856.198.264.197.396.395.462.593.263.593.329 1.054.395 1.45z" fill="#EAA968"/><path d="M55.737 63.577c.131 1.185-.396 2.174-1.12 2.24-.725.065-1.384-.857-1.516-2.043-.132-1.186.396-2.174 1.12-2.24.725-.066 1.384.857 1.516 2.043zm-8.367.593c.131 1.185-.396 2.174-1.12 2.24-.725.065-1.384-.857-1.516-2.043-.132-1.186.395-2.174 1.12-2.24.725-.066 1.45.857 1.515 2.042z" fill="#333"/><path d="M52.179 55.078s5.139-6.325 8.367 1.515l-8.367-1.515zm-3.623.197s-6.391-4.414-6.655 2.175l6.654-2.175z" fill="#49422F"/><path d="M34.588 39.068l12.847-19.567s20.358-6.786 29.515-4.348c1.252 15.087-1.252 26.748-1.252 26.748l-41.11-2.833z" fill="#3E664C"/><path d="M34.588 39.068l41.11 2.833s1.252-5.995 1.516-14.955c-10.344-.066-29.12 2.174-36.763 3.162l-5.863 8.96z" fill="#F9B74D"/><path d="M82.023 46.118s-52.837-5.6-58.898-5.93c8.498-1.844 32.48-1.054 32.48-1.054s16.734-10.343 24.969-6.983c8.235 3.36 1.45 13.967 1.45 13.967z" fill="#3E664C"/></g></svg>