<svg width="115" height="116" fill="none" xmlns="http://www.w3.org/2000/svg"><mask id="a" style="mask-type:luminance" maskUnits="userSpaceOnUse" x="0" y="1" width="115" height="115"><path d="M57.5 116c31.756 0 57.5-25.744 57.5-57.5S89.256 1 57.5 1 0 26.744 0 58.5 25.744 116 57.5 116z" fill="#fff"/></mask><g clip-path="url(#clip0_5673_144934)" mask="url(#a)"><path d="M85.01 141.715v-40.112s12.794-9.257 19.396 2.262c6.603 11.52-1.444 29.211-1.444 29.211" fill="#fff"/><path d="M50.759 22.611s12.587 9.668 22.284 10.903c9.492 1.234 4.54-1.029-1.238-3.086l11.968 3.703S80.678 17.057 70.36 15.823c-10.317-1.234-35.077 2.057-52.41 10.491 7.016 18.308 25.174 39.907 11.968 50.398C16.713 86.997 5.984 97.488 13.412 110.86c7.428 13.371 43.744 8.023 43.744 8.023l27.442-6.994s3.92-24.068-13.824-35.382" fill="#5E4F2A"/><path d="M87.074 127.522l-2.063-25.919-8.46-4.115-23.935 5.349-14.856-5.554-9.698 2.88 1.65 79.608" fill="#C43925"/><path d="M80.059 147.681c7.84-.617 12.586-9.668 6.809-25.096C81.09 107.157 76.55 97.488 76.55 97.488l-38.791-.205-2.064.617s-5.364 32.09-1.857 40.113" fill="#fff"/><path d="M77.79 26.931s23.728 34.559 11.554 43.61C77.17 79.59 60.25 88.23 60.25 88.23l16.3 9.052 3.92 16.868s4.953 10.079-8.253 9.462c-13.412-.617-29.713.617-31.982-9.462-2.064-10.08-2.476-17.074-2.476-17.074l16.507-8.228s3.92-20.982-13.412-42.582c-5.364-18.101 6.604-25.712 14.856-23.86 8.46 1.851 22.078 4.525 22.078 4.525z" fill="#FFCC94"/><path d="M49.314 54.702s-9.079-4.732-9.491 2.057c-.207 6.788 9.078 10.902 12.793 6.582" fill="#FFCC94"/><path d="M50.759 22.611s3.508 28.594-5.365 30.856c-8.253-6.582-14.856-21.599-9.904-26.536 4.952-4.937 15.269-4.32 15.269-4.32z" fill="#5E4F2A"/><path d="M50.759 22.611s12.586 9.668 22.284 10.903c9.492 1.234 4.54-1.029-1.238-3.086l11.968 3.703S80.678 17.057 70.36 15.823c0-.206-9.492-3.291-19.602 6.788z" fill="#5E4F2A"/><path d="M28.887 139.864c0-2.469-.825-39.701-.825-39.701s-17.539-8.64-24.76 5.142c-7.222 13.782 0 26.331 0 26.331" fill="#fff"/><path d="M74.075 45.239c1.445 2.674 2.683 5.348 3.92 8.023l-.618-.206c1.238-.412 2.476-1.029 4.126-1.029.413 0 .826 0 1.238.412.413.205.62.823.62 1.234-.207 1.029-.62 1.44-1.239 1.851-1.031.823-2.476 1.44-3.714 1.646-1.444.206-2.889-.411-3.714-1.234 1.032.823 2.476 1.028 3.714.617 1.238-.206 2.476-.823 3.302-1.646.412-.411.825-1.028.825-1.234 0-.206-.413-.617-1.032-.617-1.238 0-2.476.411-3.714.823l-.412.205-.207-.411c-1.031-2.88-2.063-5.554-3.095-8.434zm6.397 17.897c-.826 1.85-1.857 3.496-3.095 4.936-1.445 1.44-3.095 2.675-5.365 2.675-2.27-.206-3.714-2.057-4.746-3.703a12.769 12.769 0 01-1.857-5.348c.825 1.645 1.65 3.497 2.683 5.142 1.031 1.44 2.476 2.88 4.126 3.086 1.651.205 3.302-1.029 4.746-2.263 1.032-1.44 2.27-2.88 3.508-4.526zm-37.76-4.732v-1.44c.206-.411.619-1.028 1.238-1.028 1.032-.206 2.063.411 2.889.823 1.65 1.028 2.888 2.468 4.126 3.908l.62.617h-1.652c.206.412.619.823.825 1.029-.206 0-.413-.206-.619-.412-.206-.206-.413-.206-.619-.617 0-.206-.206-.411 0-.617.206-.206.206-.206.413-.206.206 0 .619-.205.825-.205l-.206.617c-.826-.617-1.445-1.234-2.064-1.852-.619-.617-1.444-1.234-2.063-1.645-.825-.617-1.444-1.029-2.27-1.029-.825.206-1.238 1.029-1.444 2.057zm4.127 43.61c2.063.206 4.333.411 6.396.823 2.064.205 4.127.617 6.397 1.028h.206l.206.206c.207.411.413.617.62 1.029.206.205.412.617.618.617 0 0 .207 0 .413-.412.206-.411.206-.617.413-1.028v-.412h.206c3.095-.205 6.396-.411 9.492-.411-3.096.617-6.397 1.028-9.492 1.44l.413-.412c0 .412-.207.823-.413 1.235-.206.205-.206.411-.413.617-.206.205-.619.411-1.031.205-.62-.205-.826-.617-1.238-1.028l-.62-1.234.413.205-6.19-1.234c-2.27-.206-4.333-.823-6.396-1.234z" fill="#D89750"/><path d="M69.535 46.679c0 1.029-.412 2.057-1.031 2.057-.62 0-1.032-.823-1.032-2.057 0-1.029.413-2.057 1.032-2.057s1.031.823 1.031 2.057zm9.698-2.057c0 1.028-.412 2.057-1.031 2.057-.62 0-1.032-.823-1.032-2.057 0-1.029.413-2.057 1.032-2.057.619.206 1.031 1.028 1.031 2.057z" fill="#414141"/><path d="M69.535 38.45c-.206 0-6.19-4.32-7.634 3.703zm5.365-1.233s.826-4.32 5.572-1.235z" fill="#4C3A17"/></g><defs><clipPath id="clip0_5673_144934"><path fill="#fff" transform="translate(0 15.206)" d="M0 0h106.882v164.565H0z"/></clipPath></defs></svg>