<svg version="1.1" id="Layer_1" xmlns="http://www.w3.org/2000/svg" xmlns:xlink="http://www.w3.org/1999/xlink" x="0" y="0" viewBox="0 0 22 22" xml:space="preserve"><style>.st1{fill:#fff}</style><defs><path id="SVGID_1_" d="M0 0h22v22H0z"/></defs><clipPath id="SVGID_00000085239460013184156660000017005868655572330422_"><use xlink:href="#SVGID_1_" overflow="visible"/></clipPath><g clip-path="url(#SVGID_00000085239460013184156660000017005868655572330422_)"><path class="st1" d="M11 21.2c-5 0-9.1-4.1-9.1-9.2S6 2.8 11 2.8s9.1 4.1 9.1 9.2-4.1 9.2-9.1 9.2zm0-16.4C7.1 4.8 3.9 8 3.9 12s3.2 7.2 7.1 7.2c3.9 0 7.1-3.2 7.1-7.2S14.9 4.8 11 4.8z"/><path class="st1" d="M13 13.4h-2c-.6 0-1-.4-1-1V8.6c0-.6.4-1 1-1s1 .4 1 1v2.9h1c.6 0 1 .4 1 1 0 .5-.4.9-1 .9zM1.9 4.8c-.4 0-.7-.2-.9-.5-.3-.5-.1-1.1.3-1.4l3-1.9c.5-.3 1.1-.2 1.4.3.3.5.2 1.1-.3 1.4l-3 1.9c-.2.1-.3.2-.5.2zm18.2 0c-.2 0-.4-.1-.5-.2l-3-1.9c-.5-.3-.6-.9-.3-1.4.3-.5.9-.6 1.4-.3l3 1.9c.5.3.6.9.3 1.4-.2.3-.5.5-.9.5z"/></g></svg>