<svg width="21" height="30" fill="none" xmlns="http://www.w3.org/2000/svg"><g clip-path="url(#clip0_3532_114327)"><path opacity=".5" d="M17.747 16.442V.876H14.77V8.58H8.066V.876H5.09v15.566H2.054V29.36h6.871l2.428-7.541 2.582 7.54h6.739V16.443h-2.927zm-9.681 0v-5.184h6.705v5.184H8.066z" fill="#4090E7"/><path d="M7.012 1.251H4.12v17.5h2.892v-17.5zm9.408 0h-2.89v17.5h2.892v-17.5zM13.497 11.34H7.06m-.048-2.603h6.485m2.989 20.199h-3.76l-2.51-7.33-2.36 7.33H4.054m9.475-12.556H7.012" stroke="#4090E7" stroke-width=".5" stroke-linecap="round" stroke-linejoin="round"/><path d="M16.42 16.38h2.9v12.556h-.875m-16.321 0h-.903V16.379H4.12" stroke="#4090E7" stroke-width=".5" stroke-linecap="round" stroke-linejoin="round"/><path d="M12.351 1.251v5.417" stroke="#000" stroke-width=".5" stroke-linecap="round" stroke-linejoin="round"/></g><defs><clipPath id="clip0_3532_114327"><path fill="#fff" transform="translate(.826 .852)" d="M0 0h19.848v28.509H0z"/></clipPath></defs></svg>