<svg width="41" height="41" fill="none" xmlns="http://www.w3.org/2000/svg"><path d="M20.5 41C31.822 41 41 31.822 41 20.5S31.822 0 20.5 0 0 9.178 0 20.5 9.178 41 20.5 41z" fill="#E9EFF6"/><mask id="a" style="mask-type:luminance" maskUnits="userSpaceOnUse" x="0" y="0" width="41" height="41"><path d="M20.5 41C31.822 41 41 31.822 41 20.5S31.822 0 20.5 0 0 9.178 0 20.5 9.178 41 20.5 41z" fill="#fff"/></mask><g mask="url(#a)"><path d="M0 49.344l11.745-5.836s-1.736-1.013 1.11-1.495c2.846-.483 8.08-1.568 8.08-1.568l.144-1.905 1.736 1.037 3.04-.145 2.604-1.905-.12 2.291s11.48-2.291 15.917-.796c1.254 9.261 3.907 25.203 3.907 25.203" fill="#fff"/><path d="M28.555 79.42l2.387-40.06 3.16-.53-4.028 40.613M19.68 81.01l-2.604-40.034-2.701.482 4.076 39.939" fill="#49422F"/><path d="M28.264 40.3a33.367 33.367 0 01-.916 2.605c-.17.434-.338.844-.531 1.254-.169.41-.386.844-.555 1.254l-.217.41-.217-.361c-.29-.483-.603-.99-.868-1.496a18.636 18.636 0 01-.796-1.543c.386.434.724.916 1.061 1.374.338.459.675.94.99 1.423l-.41.024c.192-.41.36-.844.554-1.254.193-.41.386-.82.579-1.254.41-.82.844-1.64 1.326-2.436z" fill="#DDD"/><path d="M14.275 12.59s-1.374 16.857-1.278 23.032c4.8.217 10.467.193 10.467.193l-.627 3.762-.048 3.521 3.087-3.69.579-27.446c-.049 0-9.213-.723-12.18.627z" fill="#FFCD97"/><path d="M24.236 13.844s-2.628 4.268-5.812 5.257c-3.208.99-1.736-1.085-.048-2.363-6.367 3.11-9.888 3.955-7.043 1.76l2.605-1.953s-4.39.747-.723-2.412c4.003-3.232 7.765-2.701 7.765-2.701l5.475.506.868 1.35-.675 9.262c-.024 0-2.773-1.182-2.412-8.706z" fill="#49422F"/><path d="M25.133 23.394s2.677-3.377 3.81-.603c1.134 2.773-2.339 5.523-3.545 3.859" fill="#FFCD97"/><path d="M18.205 22.84a54.082 54.082 0 01-1.423 3.207 31.25 31.25 0 01-.772 1.568c-.265.53-.53 1.037-.82 1.543l-.265-.338c.7-.192 1.399-.385 2.122-.578.7-.17 1.423-.362 2.147-.483a30 30 0 01-2.05.796c-.7.241-1.375.483-2.074.724l-.53.169.264-.507c.266-.53.531-1.037.796-1.567.266-.507.555-1.038.82-1.544.555-1.013 1.134-2.026 1.785-2.99zm4.56 4.172c-.12.771-.361 1.52-.65 2.218-.29.724-.676 1.424-1.182 2.026-.266.29-.555.58-.941.796-.362.193-.82.314-1.23.242-.434-.073-.796-.314-1.085-.58a3.793 3.793 0 01-.724-.916c.29.266.555.53.868.724.314.217.651.362.99.386.337.024.674-.073.964-.266.29-.168.555-.434.796-.7a6.04 6.04 0 00.651-.892c.193-.313.386-.65.555-.988.361-.652.675-1.35.988-2.05zm4.968-3.449a2.085 2.085 0 00-.241-.386c-.048-.048-.097-.096-.145-.096-.048-.024-.072 0-.12 0a.88.88 0 00-.242.265c-.072.12-.144.241-.192.386-.242.53-.459 1.11-.676 1.664l-.241-.29c.169-.024.314-.048.555.025.048.024.12.048.169.12.048.072.072.169.048.217-.024.12-.073.193-.12.265-.097.145-.218.242-.338.362a2.238 2.238 0 01-.386.266c.096-.121.169-.266.24-.386.073-.12.146-.266.218-.386.024-.048.024-.12.024-.145h-.024c-.072 0-.217 0-.362.048l-.337.073.096-.362a6.26 6.26 0 01.29-.892c.12-.29.24-.58.41-.845.072-.144.168-.265.289-.41.12-.12.241-.265.458-.313.096-.024.241 0 .314.072a.446.446 0 01.168.217c.097.217.121.386.145.53z" fill="#EAA968"/><path d="M20.402 23.273c.048.434-.145.796-.41.82-.265.024-.507-.313-.555-.747-.048-.434.145-.796.41-.82.265-.024.507.313.555.747zm-3.062.217c.047.435-.145.796-.41.82-.266.025-.507-.313-.555-.747-.049-.434.144-.796.41-.82.265-.024.53.313.554.748z" fill="#333"/><path d="M19.102 20.162s1.88-2.315 3.063.555l-3.063-.555zm-1.33.073s-2.34-1.616-2.436.795l2.436-.796z" fill="#49422F"/><path d="M12.664 14.302l4.703-7.163s7.452-2.484 10.805-1.592c.458 5.523-.459 9.792-.459 9.792l-15.049-1.037z" fill="#3E664C"/><path d="M12.664 14.302l15.05 1.037s.458-2.195.554-5.475c-3.786-.024-10.66.796-13.458 1.157l-2.146 3.28z" fill="#F9B74D"/><path d="M30.03 16.882s-19.342-2.05-21.561-2.17c3.11-.676 11.89-.386 11.89-.386s6.126-3.787 9.14-2.557c3.015 1.23.53 5.113.53 5.113z" fill="#3E664C"/></g></svg>