<svg width="15" height="19" fill="none" xmlns="http://www.w3.org/2000/svg"><path d="M12.983 6.104c.336.04.602.331.615.681v9.567c-.006 1.063-.898 2.027-1.977 2.048-2.681.017-5.362 0-8.043 0-1.048-.007-1.994-.922-2.001-2.048V6.785c.012-.327.25-.624.563-.675.346-.056.708.21.764.568.007.048.007.06.009.107 0 3.191-.02 6.383 0 9.574.006.353.3.667.658.675 2.678.017 5.355.017 8.032 0a.697.697 0 00.66-.686V6.785c.012-.329.249-.624.563-.675.1-.016.124-.007.157-.006zM8.947 7.47a.567.567 0 01.219.052c.218.093.38.311.408.554.004.034.003.042.004.076v5.467a.605.605 0 01-.066.296c-.197.418-.857.516-1.147.099a.733.733 0 01-.123-.395V8.15a.683.683 0 01.593-.679c.072-.007.089-.003.112-.003zm-2.644 0a.562.562 0 01.218.052.694.694 0 01.408.554c.003.034.003.042.004.076v5.467a.598.598 0 01-.066.296c-.198.418-.858.516-1.147.099a.732.732 0 01-.123-.395V8.15a.683.683 0 01.593-.679c.073-.007.09-.003.113-.003zm-2.055-4.1V1.32a.684.684 0 01.593-.68l.075-.003h5.343a.563.563 0 01.256.052c.219.093.38.312.408.555.004.034.003.043.004.077v2.05h3.339l.059.002c.05.007.064.007.114.02.496.136.656.96.161 1.252-.092.054-.144.083-.334.091H.909c-.051-.002-.065 0-.116-.01C.27 4.631.057 3.767.575 3.461c.093-.055.144-.083.334-.092h3.34zm5.343 0V2.003H5.584v1.366H9.59z" fill="#fff"/></svg>