<svg width="14" height="8" fill="none" xmlns="http://www.w3.org/2000/svg"><path d="M.609.053C.464.127.206.373.094.544L0 .688v.303c0 .296.002.307.073.432.055.098.821.878 3.19 3.251 1.916 1.917 3.171 3.157 3.255 3.214l.137.092h.69l.137-.092c.084-.057 1.339-1.297 3.255-3.214 2.369-2.373 3.135-3.153 3.19-3.251.071-.125.073-.136.073-.432V.688l-.094-.143c-.115-.177-.36-.409-.513-.487C13.289.005 13.251 0 12.992 0c-.277 0-.291.003-.415.073-.098.054-.79.733-2.853 2.793L7 5.588 4.276 2.866C2.213.806 1.521.127 1.423.073 1.299.003 1.286 0 1.003.001.748.001.699.007.609.053" fill-rule="evenodd" fill="#000"/></svg>