<svg width="16" height="16" fill="none" xmlns="http://www.w3.org/2000/svg"><path fill-rule="evenodd" clip-rule="evenodd" d="M15.68 8.18a9.16 9.16 0 00-.145-1.636H8V9.64h4.306a3.68 3.68 0 01-1.597 2.415v2.007h2.586c1.512-1.393 2.385-3.444 2.385-5.88z" fill="#fff"/><path fill-rule="evenodd" clip-rule="evenodd" d="M7.997 16c2.16 0 3.97-.716 5.294-1.938l-2.585-2.007c-.716.48-1.633.763-2.71.763-2.083 0-3.846-1.407-4.476-3.298H.848v2.073A7.997 7.997 0 007.997 16z" fill="#fff"/><path fill-rule="evenodd" clip-rule="evenodd" d="M3.524 9.52A4.81 4.81 0 013.273 8c0-.527.09-1.04.25-1.52V4.407H.852A7.997 7.997 0 000 8c0 1.29.31 2.513.85 3.593L3.525 9.52z" fill="#fff"/><path fill-rule="evenodd" clip-rule="evenodd" d="M7.997 3.181c1.174 0 2.229.404 3.058 1.197l2.295-2.295C11.964.793 10.153 0 7.997 0a7.997 7.997 0 00-7.15 4.407L3.52 6.48c.63-1.891 2.393-3.3 4.477-3.3z" fill="#fff"/></svg>