<svg width="24" height="24" fill="none" xmlns="http://www.w3.org/2000/svg"><path fill-rule="evenodd" clip-rule="evenodd" d="M22.93 12.733c0-.815-.073-1.6-.209-2.352h-10.83v4.448h6.189a5.29 5.29 0 01-2.295 3.471v2.886H19.5c2.175-2.002 3.43-4.95 3.43-8.453z" fill="#4285F4"/><path fill-rule="evenodd" clip-rule="evenodd" d="M11.886 23.973c3.105 0 5.708-1.03 7.611-2.786l-3.716-2.885c-1.03.69-2.348 1.097-3.895 1.097-2.995 0-5.53-2.023-6.435-4.74H1.61v2.979a11.496 11.496 0 0010.277 6.335z" fill="#34A853"/><path fill-rule="evenodd" clip-rule="evenodd" d="M5.456 14.658a6.913 6.913 0 01-.36-2.185c0-.758.13-1.495.36-2.185v-2.98H1.614A11.496 11.496 0 00.39 12.474c0 1.856.444 3.612 1.223 5.165l3.842-2.98z" fill="#FBBC05"/><path fill-rule="evenodd" clip-rule="evenodd" d="M11.886 5.547c1.689 0 3.205.58 4.396 1.72l3.299-3.3C17.589 2.113 14.986.974 11.886.974A11.496 11.496 0 001.61 7.308l3.842 2.98c.905-2.719 3.44-4.741 6.435-4.741z" fill="#EA4335"/></svg>