<svg width="20" height="20" fill="none" xmlns="http://www.w3.org/2000/svg"><path d="M19.564 7.143c-.142-.5-.356-1-.57-1.429C17.502 2.643 14.585.5 11.17.071L10.813 0H9.248l-.426.071C5.407.43 2.49 2.571.996 5.714a8.533 8.533 0 00-.57 1.429 9.776 9.776 0 000 5.714c.143.5.357 1 .57 1.429 1.494 3.071 4.41 5.214 7.826 5.643l.426.071h1.566l.426-.071c3.415-.429 6.332-2.572 7.826-5.643a8.53 8.53 0 00.569-1.429c.498-1.928.498-3.857-.071-5.714zM17.43 5.714h-3.7a14.559 14.559 0 00-1.707-4.071c2.276.571 4.197 2 5.407 4.071zM12.877 10c0 .929-.072 1.929-.285 2.857H7.399a15.433 15.433 0 010-5.714h5.193c.213.928.284 1.928.284 2.857zm-.57 4.286c-.426 1.571-1.138 3-2.134 4.285H9.96a12.118 12.118 0 01-2.134-4.285h4.481zM7.754 5.714c.427-1.571 1.139-3 2.135-4.285h.213a12.118 12.118 0 012.134 4.285H7.754zm.285-4.071a14.558 14.558 0 00-1.707 4.071h-3.7A8.643 8.643 0 018.04 1.643zM1.494 10c0-1 .142-1.929.498-2.857h4.055a15.433 15.433 0 000 5.714H1.992C1.636 11.93 1.494 11 1.494 10zm1.138 4.286h3.7a14.557 14.557 0 001.707 4.071 8.643 8.643 0 01-5.407-4.071zm9.39 4.071a14.558 14.558 0 001.708-4.071h3.7a8.643 8.643 0 01-5.407 4.071zm2.064-5.5a19.307 19.307 0 000-5.714h3.984a8.74 8.74 0 010 5.714h-3.984z" fill="#4090E7"/></svg>