<svg width="21" height="22" fill="none" xmlns="http://www.w3.org/2000/svg"><path fill-rule="evenodd" clip-rule="evenodd" d="M7.925 7.7h3.835v2.062c.512-1.237 1.918-2.2 4.091-2.2 4.092 0 4.987 2.338 4.987 6.6V22h-4.092v-6.875c0-2.475-.511-3.85-1.917-3.85-1.918 0-2.685 1.512-2.685 3.85V22H8.053V7.7h-.128zM.893 21.863h4.091V7.425H.894v14.438zM5.623 2.75c0 .413-.127.688-.255 1.1-.128.275-.384.687-.512.962-.51.55-1.15.825-1.917.825-.64 0-1.407-.274-1.918-.824-.256-.276-.384-.55-.511-.963a2.747 2.747 0 01-.256-1.1c0-.688.256-1.512.767-1.925C1.532.275 2.299 0 2.939 0c.639 0 1.406.275 1.917.825.384.55.768 1.238.768 1.925z" fill="#000"/></svg>