<svg version="1.1" id="Layer_1" xmlns="http://www.w3.org/2000/svg" x="0" y="0" viewBox="0 0 22 22" xml:space="preserve"><style>.st0{fill:#9499a3}</style><path class="st0" d="M11 21c-.4 0-.7-.1-1-.4l-.3-.3c-.9-1.2-1.8-2.2-2.5-3.1l-.1-.1C4.4 13.8 3 12 3 9.1c0-2.1.8-4.2 2.3-5.7C6.9 1.8 8.9 1 11 1s4.2.8 5.7 2.4C18.2 4.9 19 7 19 9.1c0 2.9-1.4 4.6-4.2 8.1-.8 1-1.6 2-2.6 3.2-.3.3-.6.5-1.1.6H11zm-2.2-5c.6.8 1.4 1.7 2.2 2.7.8-1 1.6-2 2.2-2.8C15.9 12.6 17 11.2 17 9c0-1.6-.6-3.2-1.8-4.3C14.1 3.6 12.6 3 11 3s-3.1.6-4.2 1.8C5.6 5.9 5 7.5 5 9.1c0 2.2 1.1 3.6 3.8 6.9l-.8.6.8-.6z"/><path class="st0" d="M11 13c-1.1 0-2.1-.4-2.8-1.2C7.4 11.1 7 10.1 7 9c0-1.1.4-2.1 1.2-2.8C8.9 5.4 9.9 5 11 5c1.1 0 2.1.4 2.8 1.2.8.7 1.2 1.7 1.2 2.8s-.4 2.1-1.2 2.8c-.7.8-1.7 1.2-2.8 1.2zm-1.4-2.6c.8.8 2.1.8 2.8 0 .4-.4.6-.9.6-1.4 0-.5-.2-1-.6-1.4-.8-.8-2.1-.8-2.8 0C9.2 8 9 8.5 9 9c0 .5.2 1 .6 1.4z"/></svg>