<svg xmlns="http://www.w3.org/2000/svg" viewBox="0 0 16 22"><path d="M9.4 21.5H1.8C.6 21.5 0 21 0 19.8V10c0-1.2.5-1.7 1.7-1.7h12c1.2 0 1.7.5 1.7 1.7v9.9c0 1.1-.5 1.6-1.7 1.6H9.4zm5-1.7zm-6.7-.3h5.6v-9.1H2v9.1h5.7z"/><path d="M12.1 10.3c-.6 0-1-.5-1-1V5.5c0-1.5-.9-2.8-2.3-3.3-.3-.1-.7-.2-1.1-.2-.4 0-.9.1-1.4.3-1.2.5-2.1 1.8-2.1 3.2v3.9c0 .6-.4 1-1 1s-1-.4-1-1V5.5c0-2.2 1.3-4.2 3.3-5.1C6.3.1 7.1 0 7.8 0c.6 0 1.2.2 1.8.4 2.2.8 3.6 2.9 3.6 5.2v3.8c-.1.5-.5.9-1.1.9zm-2.8 2.9c-.3-.7-.8-1-1.5-1s-1.3.3-1.6.9c-.3.6-.3 1.2.1 1.7.3.4.4.8.4 1.2v.6c0 .6.4 1 1 1s1-.4 1-1v-1.1c0-.2.1-.4.2-.6.5-.5.7-1.1.4-1.7z"/></svg>