<svg xmlns="http://www.w3.org/2000/svg" viewBox="0 0 22 22"><path d="M6.5 10.1c-.9 0-1.8-.5-2.4-1.3-.7-.8-1-2-1-3.2s.4-2.4 1-3.2C5.4.7 7.7.7 9 2.4c.7.8 1 2 1 3.2S9.6 8 9 8.8c-.8.8-1.6 1.3-2.5 1.3zm0-7.1c-.3 0-.6.2-.9.5-.4.5-.6 1.3-.6 2s.2 1.5.6 2c.2.2.5.5.9.5s.7-.3.9-.5c.4-.5.6-1.2.6-2s-.3-1.5-.7-2c-.2-.2-.5-.5-.8-.5zm9 7.1c-.3 0-.7 0-1.1-.2-.4-.1-1.1-.4-1.7-1.1-.6-.7-.7-1.5-.7-1.8 0-1 0-2.4.1-5 0-.6.5-1 1-1 .6 0 1 .5 1 1-.1 2.6 0 3.9 0 4.9 0 .2 0 .5.2.7.3.3.6.4.7.4.5.1.9 0 1.1 0 .5-.2.9-.6.9-1V2c0-.6.4-1 1-1 .5 0 1 .4 1 1v5c0 1.4-.9 2.5-2.3 3-.3 0-.7.1-1.2.1z"/><path d="M15.5 10.1c-.6 0-1-.4-1-1V2c0-.6.4-1 1-1s1 .4 1 1v7.1c0 .5-.4 1-1 1zM6.5 22c-.6 0-1-.4-1-1V9.1c0-.6.4-1 1-1s1 .4 1 1V21c0 .6-.5 1-1 1z"/><path d="M15.5 22c-.6 0-1-.4-1-1V9.1c0-.6.4-1 1-1s1 .4 1 1V21c0 .6-.4 1-1 1z"/></svg>