<svg xmlns="http://www.w3.org/2000/svg" viewBox="0 0 17 22"><path d="M6.1 21.1c-.4 0-.7 0-1.1-.1-2.2-.4-3.9-1.9-4.6-4-.3-.9-.3-1.7-.4-2.5V9.9c0-1.7.8-3.3 2.2-4.1.8-.5 1.7-.8 2.6-.7 1.5.1 2.8 1 3.5 2.4.2.5.3 1.1.3 1.7v.3h1.6v-.8c-.1-2.4-1.8-4.3-3.8-4.3-.6 0-1-.4-1-1V1.9c0-.6.4-1 1-1h9.5c.3 0 .5.1.7.3.3.2.4.4.4.7v1.5c0 .6-.4 1-1 1-2 0-3.7 1.9-3.8 4.3v.9h3.3c.6 0 1 .4 1 1s-.4 1-1 1h-3.3v3.7c0 1.9-.9 3.6-2.5 4.7-1 .7-2.3 1.1-3.6 1.1zm-1.6-14c-.4 0-.8.1-1.2.4C2.5 8 2 8.9 2 9.9v.9c0 1.1 0 2.3.1 3.4v.2c0 .7 0 1.3.2 1.9.5 1.5 1.7 2.5 3.1 2.7 1.1.2 2.2-.1 3.2-.7 1-.7 1.6-1.8 1.6-3.1v-3.7H8.6v3.3c0 .6-.2 1.1-.6 1.5-.5.6-1.2.9-2 .9h-.2c-1 0-1.8-.5-2.2-1.3-.2-.3-.3-.7-.3-1.1v-3c0-.9.5-1.7 1.4-2.1.3-.1.6-.2.9-.2h.9v-.3c0-.3-.1-.6-.2-.9-.3-.7-1-1.2-1.8-1.2.1 0 0 0 0 0zm1.3 4.4h-.1c-.1 0-.2.2-.2.3V15c.1.2.2.2.4.2h.2c.2 0 .4-.1.5-.2 0 0 .1-.1.1-.2v-3.3h-.9zm2.9-8.6c1 .5 1.9 1.3 2.5 2.3.6-1 1.5-1.8 2.5-2.3h-5z" fill="#9499a3"/></svg>