<svg width="92" height="88" fill="none" xmlns="http://www.w3.org/2000/svg"><g clip-path="url(#clip0_5555_145059)"><path d="M45.234 0h12.438l-2.79 3.034 2.79 2.51H45.234V0z" fill="#4090E7"/><path d="M46.141 0h-.907v19.96h.907V0z" fill="#4C537A"/><path d="M87.827 41.153H4.18v46.994h83.647V41.153z" fill="#fff"/><path d="M16.43 41.153H3.992v46.994H16.43V41.153zm18.994 0H23.172v46.994h12.252V41.153zm14.925 0h-8.997v46.811h8.997v-46.81zm18.221 0H56.992V88.17H68.57V41.153zm19.23 0H75.64V88.17H87.8V41.153z" fill="#9EC3E5"/><path d="M87.824 41.154c-.488-.662-42.103-29.246-42.103-29.246L4.734 41.154h83.09z" fill="#9EC3E5"/><path d="M45.698 11.908l-4.44 29.246h8.997l-4.557-29.246z" fill="#4090E7"/><path d="M16.22 41.154l29.503-29.246-41.73 29.246H16.22z" fill="#4090E7"/><path d="M23.492 41.245l22.226-29.337-10.741 29.52-11.485-.183zm52.148 0L45.718 11.908 87.82 41.154l-12.182.09z" fill="#4090E7"/><path d="M68.572 41.222L45.719 11.908l11.368 29.474 11.485-.16zM10.153 46.08c3.371 0 6.091-2.098 6.091-4.927H3.992c0 2.83 2.79 4.928 6.161 4.928zm19.128.183c3.185 0 5.789-2.28 5.789-5.11H23.492c0 2.83 2.604 5.11 5.789 5.11zm16.581 0c2.488 0 4.51-2.28 4.51-5.11h-8.997c-.023 2.83 2 5.11 4.487 5.11zm35.87.092c-3.371 0-6.091-2.304-6.068-5.133l12.16-.091c0 2.851-2.744 5.247-6.092 5.224z" fill="#4090E7"/><path d="M62.79 46.286c-3.186 0-5.79-2.304-5.766-5.133l11.577.023c-.023 2.829-2.627 5.11-5.812 5.11z" fill="#4090E7"/><path d="M57.115 74.54c0-13.238-18.256-13.726-18.256 0v15.03h18.256V74.54z" fill="#EBEBEB"/></g><defs><clipPath id="clip0_5555_145059"><path fill="#fff" d="M0 0h92v88H0z"/></clipPath></defs></svg>