<svg width="102" height="99" fill="none" xmlns="http://www.w3.org/2000/svg"><g clip-path="url(#clip0_3775_117645)"><path d="M13.957 51.7a1.008 1.008 0 01.625-1.077c6.914-2.611 13.894-6.593 22.949-12.762a114.341 114.341 0 0017.746-14.949 1 1 0 011.416 0 133.59 133.59 0 0019.524 16.091c8.363 5.647 17.944 7.67 24.628 10.477.428.196.691.62.592 1.077-.329 1.73-.625 5.516-.823 7.377-1.35 11.064-.362 20.986 1.383 29.179.132.62-.329 1.174-.988 1.174h-88.04c-.659 0-1.12-.587-.955-1.24a89.53 89.53 0 002.634-16.384 92.126 92.126 0 00-.691-18.963z" fill="#9EC3E5"/><path d="M10.34 49.905a1.008 1.008 0 01.625-1.077c6.914-2.611 13.894-6.593 22.948-12.762A114.341 114.341 0 0051.66 21.117a1 1 0 011.416 0A133.602 133.602 0 0072.6 37.209c8.363 5.647 17.944 7.67 24.628 10.477.428.196.69.62.592 1.077-.33 1.73-.625 5.516-.823 7.377-1.35 11.064-.362 20.986 1.383 29.179.132.62-.33 1.175-.988 1.175H9.352c-.659 0-1.12-.588-.955-1.24a89.531 89.531 0 002.634-16.385 92.12 92.12 0 00-.692-18.963z" stroke="#4090E7" stroke-width="2" stroke-miterlimit="10" stroke-linecap="round" stroke-linejoin="round"/><path d="M5.434 90.736h59.593m9.543 0h17.78" stroke="#000" stroke-width="2" stroke-miterlimit="10" stroke-linecap="round" stroke-linejoin="round"/><path d="M52.023 23.01c-.264 1.273-5.136 14.818-12.182 20.889-10.01 8.65-21.335 9.106-24.364 9.139M52.676 23.01C53.3 26.11 55.672 36 64.858 43.9c10.009 8.65 21.335 9.106 24.364 9.139" stroke="#4090E7" stroke-width="2" stroke-miterlimit="10" stroke-linecap="round" stroke-linejoin="round"/><path d="M62.82 73.534c0-10.607-14.75-10.999-14.75 0v12.044h14.75V73.534z" fill="#FDFEFF" stroke="#4090E7" stroke-width="2" stroke-miterlimit="10" stroke-linecap="round" stroke-linejoin="round"/><path d="M56.432 1.142c-.493 2.024-.098 3.133.363 3.754.494.685 1.12.88 1.317 1.631.23.914-.33 1.796-.659 2.285-1.317 1.991-3.622 2.71-4.61 2.938" stroke="#0689FF" stroke-width="2" stroke-miterlimit="10" stroke-linecap="round" stroke-linejoin="round"/><path d="M52.844 20.236V1.404c.46.065 1.12.065 1.877-.098.921-.228 1.481-.62 1.745-.424" stroke="#0689FF" stroke-width="2" stroke-miterlimit="10" stroke-linecap="round" stroke-linejoin="round"/></g><defs><clipPath id="clip0_3775_117645"><path fill="#fff" d="M0 0h102v99H0z"/></clipPath></defs></svg>