<svg width="16" height="16" fill="none" xmlns="http://www.w3.org/2000/svg"><path d="M8 10a2 2 0 100-4 2 2 0 000 4z" fill="#333"/><path d="M15.34 7.456c-.828-1.279-1.9-2.365-3.103-3.141C10.907 3.455 9.438 3 7.99 3c-1.329 0-2.635.38-3.883 1.128-1.273.764-2.426 1.88-3.428 3.315a.998.998 0 00-.02 1.11c.825 1.292 1.888 2.38 3.071 3.146C5.063 12.563 6.497 13 7.99 13c1.46 0 2.932-.45 4.256-1.304 1.202-.774 2.273-1.864 3.096-3.153a1.005 1.005 0 00-.003-1.087zM8 11a3 3 0 110-6 3 3 0 010 6z" fill="#333"/></svg>