<svg version="1.1" id="Layer_1" xmlns="http://www.w3.org/2000/svg" xmlns:xlink="http://www.w3.org/1999/xlink" x="0" y="0" viewBox="0 0 22 22" xml:space="preserve"><style/><defs><path id="SVGID_1_" d="M0 0h22v22H0z"/></defs><clipPath id="SVGID_00000114758818213718491130000003003512963193035940_"><use xlink:href="#SVGID_1_" overflow="visible"/></clipPath><g clip-path="url(#SVGID_00000114758818213718491130000003003512963193035940_)"><path d="M7.2 12.1c-2.6 0-4.8-2.1-4.8-4.8s2.1-4.8 4.8-4.8S12 4.7 12 7.4s-2.1 4.7-4.8 4.7zm0-7.5c-1.5 0-2.8 1.2-2.8 2.8s1.2 2.8 2.8 2.8S10 8.9 10 7.4 8.8 4.6 7.2 4.6zm5.6 15.3c-.6 0-1-.4-1-1v-1.7c0-.6-.3-1.2-.8-1.7s-1.2-.7-2-.7H5.4c-.7 0-1.5.3-2 .7-.5.5-.8 1-.8 1.7v1.7c0 .6-.4 1-1 1s-1-.4-1-1v-1.7c0-1.2.5-2.3 1.4-3.1.9-.8 2.1-1.3 3.3-1.3H9c1.2 0 2.4.4 3.3 1.3.9.8 1.4 2 1.4 3.1v1.7c.1.6-.3 1-.9 1zm3.4-10.4c-2.2 0-4-1.8-4-4s1.8-4 4-4 4 1.8 4 4-1.8 4-4 4zm0-6c-1.1 0-2 .9-2 2s.9 2 2 2 2-.9 2-2-.9-2-2-2z"/><path d="M20.6 15.6c-.6 0-1-.4-1-1v-1.3c0-.4-.2-.8-.5-1.2-.4-.3-.9-.5-1.4-.5h-3c-.5 0-1.1.2-1.4.5-.3.3-.5.7-.5 1.2v1.3c0 .6-.4 1-1 1s-1-.4-1-1v-1.3c0-1 .4-2 1.2-2.6.7-.7 1.7-1 2.8-1h3c1 0 2 .4 2.8 1 .8.7 1.2 1.7 1.2 2.6v1.3c-.2.6-.7 1-1.2 1z"/></g></svg>