<svg width="22" height="22" fill="none" xmlns="http://www.w3.org/2000/svg"><path d="M11.055 1.03c-2.55.194-4.615 2.141-5.002 4.715-.055.368-.048 1.216.013 1.59.357 2.174 1.891 3.891 3.993 4.468.877.24 1.94.249 2.804.024a5.518 5.518 0 002.568-1.496c1.664-1.688 2.039-4.279.925-6.395a5.172 5.172 0 00-.976-1.313C14.224 1.468 12.698.905 11.055 1.03m1.32 2.084a3.541 3.541 0 011.894 1.262 3.477 3.477 0 01-.24 4.523 3.46 3.46 0 01-1.746 1.009c-.403.1-1.14.107-1.521.015-1.24-.3-2.175-1.14-2.577-2.315-.188-.55-.223-1.328-.087-1.898.305-1.268 1.286-2.277 2.517-2.588.423-.106.464-.11.99-.097.332.009.566.036.77.089m-4.327 9.962a6.192 6.192 0 00-2.658 1.079c-1.293.921-2.074 2.175-2.331 3.738-.059.363-.074 3.219-.017 3.463.086.373.401.606.858.636.477.03.814-.122.987-.446.079-.147.082-.195.103-1.709.018-1.284.033-1.61.086-1.852.351-1.614 1.742-2.781 3.522-2.954.262-.026 1.38-.034 3.19-.025 2.672.014 2.801.017 3.117.091 1.514.352 2.64 1.392 2.993 2.764.073.284.081.43.101 1.902.022 1.579.024 1.597.109 1.77.149.304.459.467.885.467.468 0 .804-.199.936-.556.068-.184.073-.29.072-1.717-.001-1.574-.012-1.722-.169-2.365-.546-2.227-2.497-3.923-4.936-4.289-.527-.079-6.336-.076-6.848.003" fill-rule="evenodd" fill="#000"/></svg>