<svg width="17" height="16" fill="none" xmlns="http://www.w3.org/2000/svg"><path d="M15.557 11.282l-1.928-1.923c-.38-.394-.84-.6-1.328-.6-.485 0-.948.206-1.34.595l-1.004 1.001-.144-.072a3.656 3.656 0 01-.33-.178C8.466 9.46 7.538 8.617 6.645 7.527c-.394-.496-.666-.912-.863-1.322.254-.237.494-.48.72-.712l.294-.294c.401-.4.614-.866.614-1.348 0-.484-.213-.95-.614-1.347l-.958-.954a20.185 20.185 0 01-.319-.325l-.005-.005a17.91 17.91 0 00-.659-.65C4.472.197 4.015 0 3.532 0c-.48 0-.94.199-1.335.573L.991 1.776a2.708 2.708 0 00-.82 1.746C.106 4.33.254 5.182.634 6.2c.574 1.553 1.437 2.99 2.717 4.522a16.74 16.74 0 005.563 4.342l.001.001c.828.391 1.936.85 3.162.928h.015c.071.004.144.007.222.007.88 0 1.589-.303 2.167-.928.01-.011.023-.024.036-.042a7.34 7.34 0 01.544-.562l.046-.043c.184-.176.33-.322.46-.456.387-.402.59-.868.59-1.35 0-.485-.208-.947-.6-1.337zM1.507 3.635a1.41 1.41 0 01.431-.918l1.194-1.19c.132-.126.27-.194.397-.194.156 0 .293.107.38.196l.01.01c.182.167.357.345.542.532l.084.086.168.17.166.169.96.957c.1.1.22.252.22.403 0 .152-.12.304-.22.404l-.15.152-.15.15-.068.068c-.27.272-.528.53-.805.778l-.027.027c-.42.418-.276.85-.229.993l.01.029.007.016c.262.626.622 1.21 1.166 1.894l.002.001c.98 1.204 2.013 2.142 3.162 2.87.126.082.254.147.379.208.022.012.047.023.07.036v.002c.12.058.233.116.33.177l.029.016c.01.005.02.012.03.016a.96.96 0 00.436.11c.25 0 .477-.1.674-.299l1.202-1.197c.094-.094.237-.204.392-.204.16 0 .297.123.366.197l.004.004 1.94 1.93c.279.278.274.523-.013.82l-.003.003c-.136.146-.28.284-.416.415l-.04.037c-.216.21-.44.426-.649.675-.317.34-.678.49-1.17.49-.046 0-.098-.004-.15-.007-1.006-.065-1.954-.46-2.668-.8a15.35 15.35 0 01-5.115-3.993C3.207 8.462 2.416 7.15 1.893 5.744c-.31-.83-.434-1.502-.385-2.109z" fill="#fff"/></svg>