<svg version="1.1" id="Layer_1" xmlns="http://www.w3.org/2000/svg" xmlns:xlink="http://www.w3.org/1999/xlink" x="0" y="0" viewBox="0 0 24 24" xml:space="preserve"><style/><defs><path id="SVGID_1_" d="M0 0h24v24H0z"/></defs><clipPath id="SVGID_00000143575409249850039860000009414302493327659450_"><use xlink:href="#SVGID_1_" overflow="visible"/></clipPath><g clip-path="url(#SVGID_00000143575409249850039860000009414302493327659450_)"><path d="M12.5 23.2c-.4 0-.8-.2-.9-.6l-.1-.6v-1c-1.2-.1-2.3-.3-3.3-.8-1.4-.7-2.5-1.8-3.2-3.2-.5-.9-.8-1.9-1-3-.1-.4 0-.8.3-1.1-.1-.4-.1-.8-.1-1.3 0-.9.1-1.7.4-2.6.1-.4.3-.7.5-1.1.1-.3.3-.5.6-.6v-.6C5.8 5.2 6.4 4 7.5 3c.3-.3.7-.4 1.1-.4.5-.9 1.2-1.7 2.2-2.4.5-.3 1.1-.4 1.6-.1 1 .5 1.8 1.3 2.4 2.2h.6c.2.1.4.2.6.4.7.7 1.2 1.5 1.6 2.4.2.5.3 1.1.3 1.6.3.1.5.3.7.6.3.5.5 1 .7 1.6.3.8.4 1.6.4 2.5 0 .3 0 .5-.1.8.3.3.4.7.4 1.1-.1 1.1-.3 2.1-.7 3-.3.7-.7 1.3-1.2 1.9-.5.6-1.1 1-1.5 1.3-.9.6-1.8.9-2.9 1.1h-.3v.8l-.9.4 1-.2c.2.5-.1 1.2-.6 1.3-.2.3-.3.3-.4.3zm-6.4-8.8c.1.6.3 1.2.6 1.7.6 1.1 1.3 1.8 2.3 2.3.7.4 1.6.6 2.5.6h.9c.3 0 .6-.1.9-.1.8-.1 1.5-.4 2.2-.8.5-.3.8-.6 1-.9.4-.4.7-.9.9-1.4.2-.5.4-1 .5-1.6l-2.1.5h-.2c-.2.1-.5.1-.9.1-.7 0-1.2-.5-1.5-.8l-.1-.1c-.2-.2-.5-.4-.7-.6l-.9-.1c-.2.1-.4.3-.6.6-.2.3-.4.5-.6.7-.3.3-.8.7-1.7.5h-.2c-.5-.1-1-.3-1.4-.3-.2-.3-.5-.3-.9-.3zm-.6-.1zm.7-1.9c.4 0 .8.1 1.2.1.6.1 1.1.2 1.6.4l.3-.3c.1-.1.2-.2.3-.4-.2-.6-.9-1.9-1.2-2.3-.3-.2-.6-.4-1-.5-.2-.1-.4-.2-.7-.2-.1.2-.2.4-.2.5-.2.6-.3 1.3-.3 1.9v.8zm8-.4l.3.3.2.2.2.2s.1 0 .1-.1c.1 0 .2-.1.3-.1l2.2-.5c0-.2.1-.4.1-.6 0-.6-.1-1.2-.3-1.8-.1-.3-.2-.6-.4-.9-.7.2-1.2.4-1.6.8-.3.5-.5 1-.8 1.6 0 .3-.1.6-.3.9zm-4-3c.4.6.9 1.4 1.1 2.1.4-.1.8-.1 1.1 0 .1-.3.3-.5.3-.7.2-.5.5-1 .8-1.5-.4-.8-1-1.5-1.8-2.1-.1.2-.4.5-.7.8-.3.4-.6.9-.8 1.4zm7.2-.2zM7.7 7.3c.2.1.4.1.6.2.1.1.2.1.3.2.2-.5.5-.9.9-1.4.4-.5.9-1 1.4-1.3.3-.2.7-.2 1-.1.3-.1.7-.1 1 .2.8.6 1.6 1.4 2.2 2.3.3-.1.5-.3.8-.4 0-.4-.1-.8-.2-1.2-.2-.5-.4-1-.8-1.4-.2.1-.5.1-.8.1-.3-.1-.5-.3-.7-.5l-.2-.3c-.4-.7-.9-1.3-1.6-1.7-.8.6-1.3 1.2-1.6 2 0 .4-.2.6-.5.8-.3.1-.6.1-.9 0h-.1c-.4.5-.7 1.2-.8 2.1v.4zm.6-2.7zm6.3-.4z"/><path d="M11.3 6.9h-.2c-.4-.1-.6-.4-.7-.6-.4-.7-1-1.2-1.7-1.5h.1c-.5-.2-.8-.8-.6-1.3.1-.5.7-.8 1.2-.6.1 0 .2.1.3.1.8.4 1.5 1 2.1 1.8.1-.1.1-.2.2-.2.5-.6 1.1-1.2 1.9-1.7.5-.3 1.1-.1 1.4.3.3.5.1 1.1-.3 1.4-.6.4-1.1.7-1.4 1.2 0 .1-.1.1-.1.2-.1.1-.1.2-.2.4-.1.3-.4.5-.7.6-.2.1-.5 0-.7-.1h-.6zM12.7 5zm-3.9-.2zm0 0z"/></g></svg>