<svg xmlns="http://www.w3.org/2000/svg" viewBox="0 0 20 20"><path d="M10 19.9c-5.5 0-10-4.5-10-10C0 4.5 4.5 0 10 0s10 4.5 10 10c-.1 5.5-4.5 9.9-10 9.9zM10 2c-4.4 0-8 3.6-8 8s3.6 8 8 8 8-3.6 8-8-3.6-8-8-8z"/><path d="M10 20C4.5 20 0 15.5 0 10S4.5 0 10 0s10 4.5 10 10-4.5 10-10 10zm0-17.9c-4.4 0-8 3.6-8 8s3.6 8 8 8 8-3.6 8-8-3.6-8-8-8z"/><path d="M10 12.2c-.6 0-1-.4-1-1V5.1c0-.6.4-1 1-1s1 .4 1 1v6.1c0 .5-.5 1-1 1z"/><path d="M10 12.2c-.2 0-.4-.1-.6-.2-.5-.3-.6-.9-.3-1.4l2-3c.3-.5.9-.6 1.4-.3.5.3.6.9.3 1.4l-2 3c-.2.3-.5.5-.8.5z"/></svg>