<svg version="1.1" id="Layer_1" xmlns="http://www.w3.org/2000/svg" x="0" y="0" viewBox="0 0 22 23" xml:space="preserve"><style>.st0{fill:#9499a3}</style><path class="st0" d="M16 6c-.6 0-1-.4-1-1 0-.3-.1-.6-.3-.8-.1-.1-.2-.2-.5-.2-.2 0-.3.1-.5.2-.4.4-1 .5-1.4.1-.4-.4-.5-1-.1-1.4.5-.6 1.2-.9 2-.9s1.5.3 2 .9c.5.6.8 1.3.8 2.1 0 .6-.4 1-1 1z"/><path class="st0" d="M13 4c-.4 0-.9-.3-1-.8-.1-.5-.4-.9-.9-1.1-.4-.2-.9-.2-1.3 0s-.7.6-.8 1.1c-.2.5-.8.8-1.3.7-.5-.2-.8-.8-.7-1.3.3-1 1-1.9 2-2.3 1-.4 2.1-.4 3 .1 1 .4 1.7 1.3 2 2.4.1.5-.2 1.1-.7 1.2H13z"/><path class="st0" d="M5 6c-.6 0-1-.4-1-1 0-.8.4-1.6 1-2.2.7-.5 1.5-.8 2.4-.8.8 0 1.6.3 2.3.8.4.4.5 1 .1 1.4-.4.4-1 .5-1.4.1-.3-.2-.7-.3-1.1-.3-.3 0-.7.1-1 .3-.2.2-.3.5-.3.7 0 .6-.4 1-1 1zm9.7 17H6.4c-.9 0-1.7-.3-2.3-.9-.6-.6-1-1.4-1-2.2V7.7C3 7 3.6 6.4 4.4 6.4h4.4c-.1-.2-.1-.5 0-.7.2-.6.7-.8 1.3-.6.2.1 1.5.6 2 2.2v.2c0 .1.1.3.1.5 0 .1 0 .1.1.1.1.1.2.1.3.1.2-.1.5-.5.6-1.5.1-.5.6-.9 1.1-.9.3 0 .6.2.7.5h1.6c.8 0 1.4.6 1.4 1.3v.9c.7 0 1.4.3 2 .8.6.5.9 1.3.9 2v3.6c0 .8-.3 1.5-.9 2-.5.5-1.2.8-2 .8v2c0 .8-.4 1.7-1 2.2-.6.8-1.4 1.1-2.3 1.1zM5 19.5v.4c0 .3.1.5.4.7.2.3.6.4 1 .4h8.4c.4 0 .7-.1 1-.4.2-.2.4-.5.4-.7v-.4H5zm6.7-2H13v-5.7c0-.6.4-1 1-1s1 .4 1 1v5.7h1.1V8.4h-1.2c-.3.7-.6 1.3-1.1 1.6-.4.3-1 .4-1.5.3-.5-.1-1-.3-1.3-.6-.4-.3-.6-.8-.7-1.2H5v9.2h1.2V12c0-.6.4-1 1-1s1 .4 1 1v5.7h1.5V12c0-.6.4-1 1-1s1 .4 1 1v5.5zm6.4-6.9v5.2c.2 0 .5-.1.6-.3.2-.1.3-.3.3-.5v-3.6c0-.2-.1-.4-.3-.5-.1-.1-.4-.2-.6-.3zm-1.4-2.2z"/></svg>