<svg width="26" height="22" fill="none" xmlns="http://www.w3.org/2000/svg"><path d="M25.406 2.535c-.893.414-1.913.69-2.934.828 1.02-.69 1.914-1.795 2.296-3.037-1.02.69-2.169 1.104-3.317 1.38C20.686.878 19.665.188 18.517.05c-1.148-.138-2.297 0-3.317.552-1.021.552-1.787 1.519-2.297 2.623-.51 1.104-.638 2.347-.383 3.59-2.041-.139-4.082-.69-5.869-1.657-1.786-1.105-3.317-2.485-4.72-4.28-.383.828-.638 1.795-.638 2.761 0 .967.255 1.795.638 2.623.382.828 1.02 1.519 1.658 2.07-.765 0-1.658-.275-2.296-.69v.139c0 1.242.383 2.485 1.148 3.589.766.966 1.786 1.657 2.935 1.933-.766.276-1.532.276-2.297.138.383 1.104 1.02 2.07 1.786 2.76.893.691 1.914 1.105 2.935 1.105a9.917 9.917 0 01-6.38 2.347c-.382 0-.765 0-1.275-.138C2.44 21.172 5.248 22 8.055 22c9.441 0 14.672-8.56 14.672-15.876v-.69a13.93 13.93 0 002.68-2.9z" fill="#000"/></svg>