<svg width="22" height="17" fill="none" xmlns="http://www.w3.org/2000/svg"><path d="M19.69 4.55c.014.17.014.34.014.512 0 5.234-4.507 11.27-12.747 11.27v-.003c-2.434.003-4.818-.614-6.867-1.776.354.038.71.056 1.066.057 2.017.002 3.977-.597 5.564-1.699-1.917-.032-3.598-1.137-4.185-2.75a5.034 5.034 0 002.022-.068C2.467 9.719.964 8.096.964 6.21v-.05a4.9 4.9 0 002.033.496C1.028 5.493.422 3.177 1.61 1.367c2.275 2.475 5.63 3.979 9.233 4.138-.36-1.376.132-2.817 1.296-3.784 1.805-1.5 4.643-1.423 6.339.172A9.733 9.733 0 0021.323.93c-.335.917-1.035 1.696-1.97 2.19a9.836 9.836 0 002.573-.623A8.593 8.593 0 0119.69 4.55z" fill="#fff"/></svg>