<svg width="155" height="149" viewBox="0 0 155 149" fill="none" xmlns="http://www.w3.org/2000/svg">
<path fill-rule="evenodd" clip-rule="evenodd" d="M93.3216 17.7224C110.851 22.69 131.747 24.4342 140.818 40.2968C149.892 56.1642 144.884 76.7735 136.371 93.0048C129.35 106.391 113.74 110.515 100.356 117.446C88.0117 123.839 76.497 132.426 62.6886 131.163C46.3226 129.665 29.273 123.852 20.1899 110.11C10.7037 95.7572 12.5816 77.4296 15.9892 60.5078C19.7092 42.0349 23.5625 20.8228 40.0018 11.7275C56.3153 2.70183 75.4357 12.654 93.3216 17.7224Z" fill="#91C3FA" fill-opacity="0.4"/>
<g clip-path="url(#clip0_2070_98760)">
<path d="M48.8475 76.3795L30.8058 102.69H113.658V46.25L48.8475 76.3795Z" fill="#4090E7"/>
<path d="M82.5887 74.4709L59.7726 61.7266V76.3807L72.2313 89.34L84.69 76.3807L82.5887 74.4709Z" fill="#4090E7"/>
<path d="M59.7731 76.3795L30.8058 102.69V46.25L59.7731 61.8145V76.3795Z" fill="#91C3FA"/>
<path d="M61.8762 74.4698L59.7731 76.3795L30.8058 46.25L61.8762 74.4698Z" fill="#4090E7"/>
<path d="M108.195 51.9336V97.7297L84.6906 76.3809L108.195 51.9336Z" fill="#91C3FA"/>
<path d="M30.8058 46.25L72.2318 83.8769L113.658 46.25H30.8058Z" fill="white"/>
<path d="M113.658 44.8848H30.8062C30.0518 44.8848 29.4406 45.4961 29.4406 46.2502V102.69C29.4406 103.444 30.0518 104.055 30.8062 104.055H113.658C114.413 104.055 115.024 103.444 115.024 102.69V46.2502C115.024 45.4961 114.413 44.8848 113.658 44.8848ZM112.293 101.324H32.1719V47.6156H112.293V101.324Z" fill="black"/>
<path d="M35.8094 98.1464C36.0789 98.4431 36.4493 98.5938 36.8207 98.5938C37.1485 98.5938 37.477 98.4765 37.7386 98.239L61.8757 76.3157L71.314 84.8882C71.5744 85.1246 71.9032 85.243 72.2323 85.243C72.5613 85.243 72.8903 85.1248 73.1507 84.8882L82.5891 76.3155L106.727 98.2395C106.989 98.4772 107.317 98.5943 107.645 98.5943C108.016 98.5943 108.386 98.4436 108.656 98.1469C109.163 97.5887 109.122 96.7252 108.563 96.2181L84.6197 74.4709L108.563 52.7237C109.121 52.2166 109.163 51.3531 108.656 50.7949C108.148 50.2366 107.285 50.1955 106.726 50.7024L72.2322 82.0328L37.7384 50.7029C37.1804 50.196 36.3166 50.237 35.8091 50.7954C35.302 51.3536 35.3432 52.2171 35.9017 52.7242L59.8446 74.4709L35.9019 96.2176C35.3436 96.7247 35.3021 97.5882 35.8094 98.1464Z" fill="black"/>
</g>
<defs>
<clipPath id="clip0_2070_98760">
<rect width="85.5833" height="85.5696" fill="white" transform="translate(29.4406 31.6855)"/>
</clipPath>
</defs>
</svg>
