<svg width="243" height="163" viewBox="0 0 243 163" fill="none" xmlns="http://www.w3.org/2000/svg">
<g clip-path="url(#clip0_4287_123418)">
<path d="M97.8704 51.1173C109.317 39.9385 136.09 17.018 151.538 3.92537C157.711 -1.3072 168.404 -1.30866 174.58 3.92222C190.074 17.0453 216.984 40.0629 228.304 51.1173C231.721 54.4547 235.315 56.9089 238.867 58.7051V121.888H88.0742V58.3068C91.3753 56.5507 94.6987 54.2147 97.8704 51.1173Z" fill="#3479B7"/>
<path d="M0.851562 136.053H63.7318" stroke="#1D1D1B" stroke-width="2" stroke-miterlimit="10" stroke-linecap="round"/>
<path d="M21.1484 146.898H73.909" stroke="#1D1D1B" stroke-width="2" stroke-miterlimit="10" stroke-linecap="round"/>
<path d="M12.2305 157.203H64.991" stroke="#1D1D1B" stroke-width="2" stroke-miterlimit="10" stroke-linecap="round"/>
<path d="M232.61 56.9531H93.7744C88.0353 56.9531 83.3828 61.6112 83.3828 67.3573V152.547C83.3828 158.293 88.0353 162.951 93.7744 162.951H232.61C238.349 162.951 243.001 158.293 243.001 152.547V67.3573C243.001 61.6112 238.349 56.9531 232.61 56.9531Z" fill="#3379B8"/>
<path d="M236.715 65.5586H89.6377C86.1746 65.5586 83.3672 68.3694 83.3672 71.8367V156.722C83.3672 160.189 86.1746 163 89.6377 163H236.715C240.178 163 242.986 160.189 242.986 156.722V71.8367C242.986 68.3694 240.178 65.5586 236.715 65.5586Z" fill="#4090E7"/>
<path d="M150.863 128.161L86 158.541L145.294 122L150.863 128.161Z" fill="#3479B7"/>
<path d="M175 129.036L239.863 159.416L180.57 122.875L175 129.036Z" fill="#3479B7"/>
<path d="M101.106 71.3448C111.994 84.5978 137.459 111.771 152.151 127.293C158.022 133.496 168.193 133.498 174.067 127.297C188.804 111.739 214.398 84.4503 225.165 71.3448C228.415 67.3882 231.833 64.4787 235.212 62.3493V28.5H91.7891V62.8214C94.9288 64.9034 98.0898 67.6728 101.106 71.3448V71.3448Z" fill="white" stroke="#9EC3E5" stroke-width="2" stroke-miterlimit="10"/>
<path opacity="0.38" d="M162.261 101.208C175.546 101.208 186.316 90.4257 186.316 77.1247C186.316 63.8236 175.546 53.041 162.261 53.041C148.977 53.041 138.207 63.8236 138.207 77.1247C138.207 90.4257 148.977 101.208 162.261 101.208Z" fill="#9EC3E5"/>
<path d="M169.993 98.4278C178.826 95.6133 185.24 87.173 185.24 77.1979C185.24 67.098 178.664 58.5712 169.659 55.8649C167.718 55.2817 165.665 54.9688 163.54 54.9688C151.555 54.9688 141.84 64.9211 141.84 77.1979C141.84 81.6957 143.144 85.8815 145.386 89.3802C149.263 95.4313 155.946 99.4272 163.54 99.4272" stroke="#4090E7" stroke-width="2" stroke-linecap="round" stroke-linejoin="round"/>
<path d="M146.469 49.8301L138.332 55.0605" stroke="#1D1D1B" stroke-width="2" stroke-linecap="round" stroke-linejoin="round"/>
<path d="M179.02 49.8301L187.157 55.0605" stroke="#1D1D1B" stroke-width="2" stroke-linecap="round" stroke-linejoin="round"/>
<path d="M139.528 83.4055C140.849 88.7847 143.847 93.4813 147.92 96.8775C152.18 100.43 157.617 102.56 163.538 102.56C177.211 102.56 188.296 91.2056 188.296 77.1989C188.296 63.1922 177.211 51.8379 163.538 51.8379C149.865 51.8379 138.781 63.1924 138.781 77.1989" stroke="#4090E7" stroke-width="2" stroke-linecap="round" stroke-linejoin="round"/>
<path d="M162.746 68.1426V78.6035H168.171" stroke="#1D1D1B" stroke-width="2" stroke-linecap="round" stroke-linejoin="round"/>
</g>
<defs>
<clipPath id="clip0_4287_123418">
<rect width="243" height="163" fill="white"/>
</clipPath>
</defs>
</svg>
