<svg width="126" height="136" viewBox="0 0 126 136" fill="none" xmlns="http://www.w3.org/2000/svg">
<g clip-path="url(#clip0_1507_25385)">
<path d="M0.5 55.5697H35.1159C35.1159 55.5697 53.7965 32.2438 62.9995 0C42.3713 32.2438 0.5 55.5697 0.5 55.5697Z" fill="url(#paint0_linear_1507_25385)"/>
<path d="M0.507812 74.5971V57.2529H17.5802L0.507812 74.5971Z" fill="#FDC525"/>
<path d="M125.502 74.5971V57.2529H108.43L125.502 74.5971Z" fill="#FDC525"/>
<path d="M85.4772 78.8926C81.5171 78.8926 78.4559 80.1694 76.3788 82.6876C74.3352 85.1654 73.2988 88.8062 73.2988 93.5088V121.384C73.2988 126.086 74.3352 129.727 76.3788 132.205C78.4559 134.723 81.5169 136 85.4772 136C89.5063 136 92.6121 134.724 94.7084 132.208C96.7665 129.737 97.8102 126.096 97.8102 121.384V93.5088C97.8102 88.7969 96.7665 85.1551 94.7084 82.6846C92.6121 80.1684 89.5063 78.8926 85.4772 78.8926ZM94.617 121.462C94.617 129.065 91.5419 132.92 85.4772 132.92C82.5215 132.92 80.2708 131.977 78.7878 130.118C77.2643 128.208 76.4919 125.296 76.4919 121.462V93.4305C76.4919 89.5969 77.2643 86.6848 78.7878 84.7748C80.2708 82.9156 82.5215 81.9729 85.4772 81.9729C91.5419 81.9729 94.617 85.8278 94.617 93.4305V121.462Z" fill="white"/>
<path d="M114.245 106.259C109.212 102.843 104.458 99.6164 104.458 93.1173C104.458 89.7225 105.115 87.0459 106.409 85.1623C107.864 83.0459 110.153 81.9729 113.212 81.9729C120.383 81.9729 121.888 88.0759 121.888 93.1957V95.049H125.081V93.2739C125.081 89.0497 124.182 85.6593 122.408 83.1965C120.351 80.3407 117.231 78.8926 113.127 78.8926C105.478 78.9693 101.265 84.0489 101.265 93.1957C101.265 101.32 106.866 105.109 112.283 108.773C117.262 112.141 121.965 115.322 121.965 121.697C121.965 125.123 121.285 127.816 119.944 129.701C118.46 131.785 116.143 132.841 113.057 132.841C109.971 132.841 107.654 131.785 106.171 129.701C104.829 127.816 104.149 125.123 104.149 121.697V118.199H101.033V121.619C101.033 125.863 101.947 129.265 103.748 131.73C105.82 134.563 108.952 136 113.057 136C117.196 136 120.351 134.564 122.432 131.731C124.241 129.27 125.158 125.868 125.158 121.619C125.158 113.665 119.611 109.9 114.245 106.259Z" fill="white"/>
<path d="M63.6511 79.9502H62.3066V134.966H63.6511V79.9502Z" fill="white"/>
<path d="M5.27183 94.652H10.3464V90.2721H5.27183V83.9649H11.7401V79.585H0.59375V105.701H5.27183V94.652Z" fill="white"/>
<path d="M24.9524 101.153H18.1625V94.1209H23.5586V89.7409H18.1625V83.7959H24.9524V79.416H13.4844V105.532H24.9524V101.153Z" fill="white"/>
<path d="M37.2939 104.107C38.3674 102.929 38.9119 101.234 38.9119 99.0677C38.9119 97.4191 38.5847 95.9577 37.9391 94.7239C37.2999 93.504 36.1292 92.139 34.4596 90.6672C33.2066 89.5619 32.3351 88.6156 31.869 87.8546C31.4266 87.1446 31.1922 86.322 31.1928 85.4822C31.1928 84.5285 31.3737 83.4338 32.7848 83.4338C33.3175 83.4338 33.7037 83.5856 33.9653 83.8978C34.2384 84.2242 34.3768 84.7817 34.3768 85.5547V87.2375H38.8404V85.8083C38.8404 83.6699 38.3216 81.9945 37.2986 80.8289C36.2641 79.651 34.7334 79.0537 32.7491 79.0537C30.7438 79.0537 29.1846 79.6492 28.1146 80.8239C27.0531 81.9902 26.5148 83.6429 26.5148 85.736C26.4944 87.1849 26.8429 88.6146 27.5268 89.887C28.1877 91.0908 29.3565 92.4467 31.0029 93.9191C32.2532 95.0227 33.1177 95.9733 33.5719 96.744C34.0234 97.5377 34.2523 98.4415 34.2339 99.3575C34.2339 100.152 34.0908 100.72 33.8089 101.046C33.535 101.361 33.1298 101.515 32.5704 101.515C31.096 101.515 30.9069 100.401 30.9069 99.4299V97.3124H26.4434V99.1401C26.4434 101.281 26.9687 102.957 28.0046 104.121C29.05 105.298 30.5982 105.895 32.6061 105.895C34.6352 105.895 36.2125 105.293 37.2939 104.107Z" fill="white"/>
<path d="M39.8281 83.7959H43.9378V105.532H48.6159V83.7959H52.7254V79.416H39.8281V83.7959Z" fill="white"/>
<path d="M0.597036 113.759H7.70259L0.621236 131.424L0.59375 131.493V135.495H12.8479V131.115H5.7391L12.8206 113.45L12.8479 113.382V109.379H0.597036V113.759Z" fill="white"/>
<path d="M15.5547 135.495H27.0228V131.115H20.2328V124.084H25.6291V119.704H20.2328V113.759H27.0228V109.379H15.5547V135.495Z" fill="white"/>
<path d="M34.5199 109.379H29.8418V135.495H40.9882V131.115H34.5199V109.379Z" fill="white"/>
<path d="M39.8281 113.759H43.9378V135.495H48.6159V113.759H52.7254V109.379H39.8281V113.759Z" fill="white"/>
<path d="M35.1172 55.5697H90.8844C90.8844 55.5697 72.2407 32.2438 63.0008 0C53.7977 32.2438 35.1172 55.5697 35.1172 55.5697Z" fill="url(#paint1_linear_1507_25385)"/>
<path d="M63.0039 0.00683594V0.0154782C72.2453 32.251 90.8829 55.5694 90.8829 55.5694H63.0039V55.5694H125.499C125.499 55.5694 83.7161 32.2469 63.0039 0.00683594Z" fill="url(#paint2_linear_1507_25385)"/>
</g>
<defs>
<linearGradient id="paint0_linear_1507_25385" x1="19.3083" y1="53.8805" x2="61.5375" y2="7.6154" gradientUnits="userSpaceOnUse">
<stop stop-color="#FDC525"/>
<stop offset="0.95061" stop-color="#FECD52"/>
</linearGradient>
<linearGradient id="paint1_linear_1507_25385" x1="63.0008" y1="53.1564" x2="63.0008" y2="3.21028" gradientUnits="userSpaceOnUse">
<stop offset="0.00614" stop-color="#F6AF2B"/>
<stop offset="1" stop-color="#FDC525"/>
</linearGradient>
<linearGradient id="paint2_linear_1507_25385" x1="93.858" y1="54.9057" x2="62.5205" y2="3.45771" gradientUnits="userSpaceOnUse">
<stop offset="0.15985" stop-color="#EB7D1F"/>
<stop offset="1" stop-color="#F09445"/>
</linearGradient>
<clipPath id="clip0_1507_25385">
<rect width="125" height="136" fill="white" transform="translate(0.5)"/>
</clipPath>
</defs>
</svg>
