<svg width="503" height="317" viewBox="0 0 503 317" fill="none" xmlns="http://www.w3.org/2000/svg">
<g clip-path="url(#clip0_4287_123239)">
<path d="M283.374 31.063C292.083 31.063 299.143 24.3918 299.143 16.1624C299.143 7.93297 292.083 1.26172 283.374 1.26172C274.665 1.26172 267.605 7.93297 267.605 16.1624C267.605 24.3918 274.665 31.063 283.374 31.063Z" fill="white"/>
<path d="M252.727 0.343763C243.18 2.19521 237.029 11.0092 238.989 20.0302C240.948 29.0511 250.276 34.8635 259.822 33.0121C269.369 31.1606 275.52 22.3466 273.56 13.3255C271.601 4.30455 262.274 -1.50769 252.727 0.343763Z" fill="white"/>
<path d="M295.157 17.4677L246.609 26.8828L262.736 101.134L311.284 91.7189L295.157 17.4677Z" fill="#FCE29A"/>
<path d="M287.393 80.5583C287.935 83.0534 290.515 84.6611 293.155 84.149C295.796 83.6369 297.497 81.1989 296.955 78.7038L288.265 38.6897C287.723 36.1944 285.143 34.5869 282.502 35.099C279.862 35.6111 278.16 38.0489 278.702 40.5442L287.393 80.5583Z" fill="#E3BE2C"/>
<path d="M270.846 83.7653C271.388 86.2604 273.968 87.8681 276.609 87.356C279.249 86.8439 280.95 84.4059 280.409 81.9108L271.718 41.8968C271.176 39.4014 268.596 37.7939 265.955 38.306C263.315 38.8181 261.613 41.2559 262.155 43.7512L270.846 83.7653Z" fill="#E3BE2C"/>
<path d="M142.814 138.779L146.384 143.45L131.28 151.235L129.633 143.969L142.814 138.779Z" fill="white"/>
<path d="M369.869 299.869C369.869 299.869 317.751 419.466 311.594 431.103C314.673 435.176 317.751 438.085 323.909 436.921C330.067 435.758 332.53 432.266 323.909 431.685C334.377 418.884 376.249 353.133 376.249 353.133C376.249 353.133 368.86 412.483 369.475 426.448C375.633 431.684 387.332 429.357 387.948 426.448C388.564 423.539 379.328 424.12 379.328 424.12C379.328 424.12 414.426 354.879 418.737 341.496C423.047 328.113 418.121 308.33 418.121 308.33L369.869 299.869Z" fill="#495C33"/>
<path d="M451.216 182.772L462.089 180.199L458.689 187.026C469.494 189.379 480.3 191.731 491.105 194.084C488.658 198.96 486.21 203.836 483.763 208.712L427.665 297.462C427.665 297.462 438.715 307.904 423.415 308.707C425.54 311.518 417.466 310.313 417.466 310.313L369.867 299.872C369.867 299.872 391.541 219.956 397.066 203.09C397.207 201.28 397.374 199.447 397.567 197.592C398.285 190.692 399.306 184.137 400.536 177.95C400.513 177.896 400.489 177.843 400.466 177.789C400.466 177.789 396.216 172.569 405.991 174.577C415.766 176.585 434.04 179.797 434.04 179.797L437.015 174.175L441.236 179.492L451.216 182.772V182.772Z" fill="white"/>
<path d="M407.586 307.833L467.701 188.885L478.594 191.172L412.427 309.739L407.586 307.833Z" fill="#495C33"/>
<path d="M376.922 301.733L420.899 176.685L411.62 174.779L372.484 301.352" fill="#495C33"/>
<path d="M457.787 188.471C456.791 189.662 455.74 190.799 454.671 191.918C453.605 193.041 452.509 194.134 451.403 195.217C450.294 196.297 449.171 197.363 448.026 198.408C446.9 199.471 445.72 200.481 444.567 201.518L443.458 202.515L443.218 201.109C442.899 199.234 442.602 197.355 442.353 195.468C442.117 193.579 441.903 191.686 441.805 189.773C442.442 191.591 442.962 193.431 443.461 195.274C443.947 197.119 444.385 198.973 444.8 200.83L443.452 200.421C444.595 199.374 445.711 198.301 446.881 197.281C448.033 196.243 449.206 195.226 450.394 194.224C451.584 193.223 452.784 192.233 454.015 191.273C455.242 190.309 456.487 189.363 457.787 188.471Z" fill="#DDDDDD"/>
<path d="M434.638 188.47C433.123 189.952 431.523 191.33 429.907 192.689C428.281 194.036 426.632 195.355 424.946 196.629L421.484 199.244L423.746 195.62C424.484 194.437 425.238 193.263 426.017 192.103C426.776 190.932 427.589 189.792 428.382 188.641C430.015 186.365 431.675 184.105 433.536 181.961C432.365 184.504 430.994 186.931 429.596 189.342C428.873 190.534 428.17 191.737 427.414 192.91C426.678 194.094 425.916 195.264 425.139 196.424L423.939 195.415C425.651 194.172 427.4 192.974 429.173 191.804C430.955 190.645 432.754 189.506 434.638 188.47Z" fill="#DDDDDD"/>
<path d="M436.842 192.377L425.324 217.901C421.539 226.426 417.717 234.937 414.167 243.534C412.382 247.827 410.802 252.175 409.234 256.559L404.617 269.717L395.536 296.098L395.484 296.248L395.333 296.296C394.417 296.585 393.503 296.994 392.692 297.51C391.888 298.028 391.146 298.687 390.797 299.535C390.439 300.379 390.613 301.362 391.105 302.173C391.578 303.001 392.281 303.707 393.028 304.345C392.24 303.751 391.487 303.089 390.941 302.263C390.372 301.465 390.111 300.389 390.467 299.424C390.812 298.459 391.585 297.717 392.406 297.132C393.245 296.546 394.15 296.088 395.133 295.729L394.93 295.927C396.209 291.459 397.604 287.025 398.974 282.584C400.358 278.146 401.733 273.705 403.201 269.291C404.651 264.871 406.129 260.459 407.68 256.067C409.217 251.68 410.796 247.27 412.631 242.968C414.434 238.657 416.296 234.373 418.255 230.13L421.192 223.766L424.225 217.444C428.278 209.02 432.459 200.652 436.842 192.377Z" fill="#DDDDDD"/>
<path d="M449.045 86.8236C449.045 86.8236 422.576 136.436 414.766 155.298C429.953 161.858 448.177 168.828 448.177 168.828L441.235 179.489L436.461 190.15L451.215 182.769L488.965 99.9443C488.965 99.9443 460.327 86.4136 449.045 86.8236Z" fill="#FFCD97"/>
<path d="M479.471 102.951C479.471 102.951 465.417 112.716 453.843 111.74C442.269 110.763 449.709 106.272 456.736 104.514C432.142 106.076 419.741 104.318 431.728 101.194L442.682 98.4597C442.682 98.4597 427.595 95.3349 443.509 90.2572C460.663 85.3747 472.03 91.6242 472.03 91.6242L488.969 99.946L490.011 105.1L475.75 132.441C475.75 132.441 468.517 125.411 479.471 102.951Z" fill="#49422F"/>
<path d="M469.878 133.155C469.878 133.155 482.895 126.185 482.895 136.025C482.895 145.866 468.142 149.966 466.406 143.406" fill="#FFCD97"/>
<path d="M448.281 122.852C446.885 124.257 445.436 125.605 443.97 126.934C442.508 128.267 441.018 129.568 439.516 130.858C438.014 132.147 436.497 133.42 434.96 134.67C433.441 135.941 431.87 137.153 430.326 138.396L429.872 137.062L433.659 137.459L437.441 137.914C439.959 138.247 442.475 138.602 444.982 139.066C442.428 139.115 439.885 139.054 437.343 138.971L433.535 138.802L429.733 138.576L427.785 138.46L429.279 137.242C430.815 135.99 432.323 134.708 433.884 133.484C435.427 132.24 436.99 131.018 438.567 129.812C440.146 128.607 441.735 127.414 443.353 126.253C444.967 125.087 446.598 123.941 448.281 122.852Z" fill="#EAA968"/>
<path d="M457.521 141.248C456.105 143.414 454.386 145.391 452.488 147.211C450.589 149.032 448.455 150.673 445.997 151.926C444.75 152.514 443.408 153.007 441.952 153.183C440.512 153.345 438.912 153.149 437.644 152.373C436.358 151.627 435.507 150.469 434.909 149.302C434.295 148.124 433.984 146.863 433.762 145.614C434.341 146.763 434.857 147.923 435.623 148.912C436.341 149.916 437.228 150.798 438.289 151.295C439.352 151.782 440.543 151.902 441.731 151.695C442.921 151.511 444.102 151.076 445.226 150.518C446.361 149.972 447.443 149.298 448.502 148.583C449.572 147.882 450.585 147.094 451.603 146.303C453.619 144.698 455.57 142.995 457.521 141.248Z" fill="#EAA968"/>
<path d="M477.978 136.883C477.935 136.372 477.849 135.864 477.681 135.43C477.599 135.216 477.481 135.022 477.346 134.917C477.213 134.809 477.099 134.79 476.947 134.803C476.637 134.838 476.208 135.052 475.823 135.313C475.437 135.593 475.048 135.888 474.671 136.215C473.931 136.876 473.185 137.566 472.477 138.295C471.735 138.994 471.044 139.75 470.3 140.462L469.886 139.307C470.435 139.459 470.99 139.576 471.602 140.068C471.751 140.211 471.924 140.388 471.996 140.673C472.076 140.945 472.007 141.241 471.902 141.417C471.688 141.792 471.417 141.955 471.173 142.119C470.675 142.428 470.164 142.612 469.649 142.774C469.134 142.932 468.61 143.046 468.078 143.12C468.526 142.841 468.964 142.561 469.387 142.277C469.807 141.995 470.219 141.694 470.541 141.385C470.698 141.236 470.821 141.05 470.829 140.972C470.839 140.927 470.81 140.961 470.809 140.997C470.82 141.036 470.798 141.027 470.759 141.004C470.533 140.89 470.034 140.763 469.571 140.696L468.368 140.521L469.156 139.541C469.811 138.727 470.522 137.958 471.262 137.201C472.031 136.472 472.804 135.736 473.712 135.112C474.157 134.793 474.633 134.492 475.158 134.245C475.691 134.016 476.27 133.75 477.043 133.853C477.424 133.905 477.818 134.144 478.001 134.445C478.19 134.744 478.242 135.044 478.263 135.322C478.291 135.881 478.167 136.398 477.978 136.883V136.883Z" fill="#EAA968"/>
<path d="M454.797 126.947C454.356 128.32 453.281 129.227 452.397 128.973C451.513 128.719 451.154 127.401 451.595 126.028C452.036 124.655 453.11 123.748 453.995 124.002C454.879 124.255 455.238 125.574 454.797 126.947Z" fill="#333333"/>
<path d="M444.684 123.797C444.243 125.169 443.168 126.077 442.284 125.823C441.4 125.569 441.04 124.25 441.482 122.878C441.923 121.505 442.997 120.597 443.882 120.851C444.766 121.105 445.125 122.424 444.684 123.797Z" fill="#333333"/>
<path d="M454.668 115.842C454.668 115.842 463.762 111.154 463.762 121.31L454.668 115.842Z" fill="#49422F"/>
<path d="M450.328 114.473C450.328 114.473 444.955 106.661 441.441 113.887L450.328 114.473Z" fill="#49422F"/>
<path d="M441.602 90.0995L466.108 74.123C466.108 74.123 493.378 75.7697 502.999 82.6527C497.217 100.009 488.711 111.86 488.711 111.86L441.602 90.0995Z" fill="#3E664C"/>
<path d="M441.602 90.0984L488.711 111.859C488.711 111.859 493.087 105.743 497.694 95.8937C485.518 91.0909 462.336 85.1328 452.84 82.7715L441.602 90.0984Z" fill="#F9B74D"/>
<path d="M494.156 119.391C494.156 119.391 434.575 89.2037 427.539 86.1504C438.433 87.9793 466.3 99.6752 466.3 99.6752C466.3 99.6752 490.973 95.75 499.092 103.207C507.212 110.664 494.156 119.391 494.156 119.391Z" fill="#3E664C"/>
<path d="M354.997 181.001L348.781 110.223L338.294 109.811L336.547 203.944L348.344 203.118L354.997 181.001Z" fill="#FFCD97"/>
<path d="M471.017 280.194L400.774 278.261C400.774 278.261 399.026 265.463 392.909 262.985C386.792 260.508 382.423 257.205 387.666 267.94C370.626 267.527 366.257 272.894 361.451 280.739C356.644 288.583 359.266 295.602 369.752 291.473C380.238 287.344 399.9 285.693 399.9 285.693L484.663 303.033L490.566 285.816L471.017 280.194Z" fill="#FFCD97"/>
<path d="M466.828 278.816L487.006 302.786C487.006 302.786 494.789 298.156 490.177 292.98C494.789 290.256 493.348 283.991 493.348 283.991L469.999 277.182L466.828 278.816H466.828Z" fill="#EDEAE2"/>
<path d="M356.138 177.488L342.301 205.544C342.301 205.544 340.572 210.992 346.914 209.086C349.22 211.265 356.714 209.358 356.714 209.358L362.192 178.306L356.138 177.488V177.488Z" fill="#EDEAE2"/>
<path d="M446.835 250.653C445.518 254.233 441.636 256.21 438.163 255.07C434.69 253.93 432.942 250.103 434.259 246.523C435.576 242.943 439.458 240.965 442.931 242.106C446.404 243.246 448.152 247.073 446.835 250.653Z" stroke="#CCCCCC" stroke-width="3.28912" stroke-miterlimit="10"/>
<path d="M404.319 237.186C403.003 240.766 399.12 242.744 395.647 241.603C392.174 240.463 390.427 236.636 391.743 233.056C393.06 229.476 396.943 227.499 400.415 228.639C403.888 229.78 405.636 233.606 404.319 237.186Z" stroke="#CCCCCC" stroke-width="3.28912" stroke-miterlimit="10"/>
<path d="M399.938 242.687L403.561 229.904C403.561 229.904 426.993 221.687 438.105 241.774C437.139 245.883 433.998 251.818 433.998 251.818C433.998 251.818 405.494 259.351 399.938 242.687Z" fill="#495C33"/>
<path d="M6.52304 244.098C6.52304 244.098 -9.34175 261.231 8.41173 283.361C26.1652 305.491 77.5371 314.057 77.5371 314.057L76.7818 289.072L41.8722 266.295L6.52304 244.098H6.52304Z" fill="#FFCD97"/>
<path d="M187.461 156.292C187.461 156.292 235.811 108.105 249.032 80.6211C248.276 70.6268 248.276 63.1311 248.276 63.1311L255.831 73.1255C255.831 73.1255 274.718 57.4202 281.517 53.1368C288.316 48.8535 301.159 49.2106 296.626 64.9159C292.094 80.6211 273.962 88.1168 265.274 89.5444C266.408 111.675 233.388 184.174 223.645 192.185C213.902 200.195 187.461 156.292 187.461 156.292L187.461 156.292Z" fill="#FFCD97"/>
<path d="M116.476 106.102L141.322 130.646L152.333 127.712L144.709 134.915L148.945 138.917L133.981 146.12C133.981 146.12 141.886 165.329 156.85 157.592C160.238 161.327 165.038 166.13 143.298 169.331C136.522 177.602 129.464 192.275 129.464 192.275L92.4774 182.404L82.0312 124.243L116.476 106.102H116.476Z" fill="#FFCD97"/>
<path d="M116.476 106.102C116.476 106.102 122.478 117.831 122.219 124.681C121.96 131.531 121.183 133.733 119.112 125.415C118.594 143.274 106.944 172.877 106.944 172.877L90.3738 174.1L82.0312 124.243L116.476 106.102Z" fill="#FEE299"/>
<path d="M122.404 139.716C122.404 139.716 113.087 134.114 110.264 141.851C107.441 149.588 126.357 159.992 126.075 151.989" fill="#FFCD97"/>
<path d="M126.674 111.889L103.392 96.7109C103.392 96.7109 77.4841 98.2753 68.3438 104.814C73.8363 121.304 81.9179 132.563 81.9179 132.563L126.674 111.889V111.889Z" fill="#49422F"/>
<path d="M126.674 111.889L81.9174 132.562C81.9174 132.562 77.7598 126.752 73.3828 117.394C84.9507 112.832 106.975 107.171 115.996 104.928L126.674 111.889H126.674Z" fill="#F9B74D"/>
<path d="M76.7442 139.719C76.7442 139.719 133.35 111.039 140.034 108.139C129.684 109.876 103.21 120.988 103.21 120.988C103.21 120.988 79.7691 117.259 72.0551 124.343C64.341 131.427 76.7442 139.719 76.7442 139.719V139.719Z" fill="#49422F"/>
<path d="M123.913 184.968C123.913 184.968 96.9605 173.083 86.1793 173.083C85.2809 180.723 85.2809 181.997 85.2809 181.997C85.2809 181.997 47.0975 191.76 12.5078 235.482C21.9412 246.519 40.8086 260.951 40.8086 260.951L53.3864 254.159L79.441 331.84C79.441 331.84 127.058 338.631 150.417 351.79C167.038 356.035 193.093 350.517 201.628 310.615C210.163 270.714 183.659 226.568 183.659 226.568C183.659 226.568 208.815 210.437 223.64 192.185C211.96 181.148 184.108 158.65 184.108 158.65C184.108 158.65 147.722 181.148 123.913 184.968H123.913Z" fill="#4090E7"/>
<path d="M179.305 159.947L214.147 206.197C214.147 206.197 228.803 196.268 231.845 187.645C212.488 171.967 185.388 154.982 185.388 154.982L179.305 159.947Z" fill="#3479B7"/>
<path d="M47.9559 259.762L16.1555 228.406C16.1555 228.406 5.09457 239.381 3.98828 244.346C23.0687 256.365 41.8722 266.295 41.8722 266.295L47.9559 259.762Z" fill="#3479B7"/>
<path d="M117.108 337.564C117.108 337.564 100.958 220.702 122.632 184.961C129.007 183.355 131.132 182.953 131.132 182.953C131.132 182.953 110.733 188.174 122.632 339.17C116.683 344.792 115.408 337.564 115.408 337.564" fill="#49422F"/>
<path d="M79.4436 331.838C79.4436 331.838 46.5601 215.882 77.584 184.96C83.9586 181.747 85.2835 181.995 85.2835 181.995C85.2835 181.995 72.4839 199.417 70.3593 229.536C68.2343 259.655 79.4436 331.838 79.4436 331.838Z" fill="#49422F"/>
<path d="M123.914 184.967C124.76 185.879 85.2812 181.996 85.2812 181.996L86.4332 172.121C86.4332 172.121 119.177 179.861 123.914 184.967H123.914Z" fill="#3479B7"/>
<path d="M183.665 226.568C183.665 226.568 175.628 233.283 170.719 241.014L183.665 226.568Z" fill="#3479B7"/>
<path d="M134.573 126.581C133.623 126.793 132.84 126.912 132.199 127.079C131.545 127.24 131.192 127.457 131.015 127.634C130.809 127.803 130.564 128.226 130.283 128.815C130.189 129.133 130.033 129.456 129.889 129.82C129.746 130.188 129.611 130.568 129.355 130.993C128.998 130.67 128.763 130.302 128.519 129.922C128.307 129.536 128.197 129.103 128.087 128.667C128.062 128.438 128.059 128.198 128.065 127.958C128.067 127.838 128.068 127.716 128.08 127.596C128.104 127.471 128.144 127.341 128.179 127.212C128.301 126.708 128.612 126.162 129.068 125.735C129.542 125.304 130.152 125.03 130.725 124.937C131.012 124.9 131.301 124.853 131.56 124.891C131.828 124.903 132.086 124.938 132.321 125.009C133.273 125.272 134.055 125.781 134.573 126.581V126.581Z" fill="#333333"/>
<path d="M136.343 132.437C137.503 131.342 137.738 129.787 136.868 128.965C135.998 128.143 134.353 128.365 133.193 129.461C132.034 130.557 131.799 132.112 132.669 132.933C133.538 133.755 135.183 133.533 136.343 132.437Z" fill="#3D3726"/>
<path d="M358.675 49.4474C361.799 43.1663 358.969 35.6929 352.353 32.7551C345.738 29.8173 337.843 32.5276 334.719 38.8087C331.595 45.0898 334.425 52.5632 341.04 55.501C347.656 58.4388 355.551 55.7286 358.675 49.4474Z" fill="white"/>
<path d="M382.107 55.5361C385.604 48.5081 382.44 40.1442 375.038 36.8548C367.636 33.5654 358.8 36.5961 355.302 43.6242C351.804 50.6522 354.969 59.0162 362.371 62.3056C369.773 65.595 378.609 62.5642 382.107 55.5361Z" fill="white"/>
<path d="M336.805 43.0155L308.031 100.869L345.676 117.587L374.45 59.7336L336.805 43.0155Z" fill="#FCE29A"/>
<path d="M329.875 96.1505C328.908 98.0947 326.464 98.9336 324.417 98.0243C322.369 97.115 321.493 94.8017 322.46 92.8576L337.966 61.6801C338.933 59.7359 341.377 58.8971 343.425 59.8064C345.472 60.7157 346.348 63.0289 345.381 64.9731L329.875 96.1505Z" fill="#E3BE2C"/>
<path d="M342.707 101.85C341.74 103.794 339.296 104.633 337.249 103.724C335.201 102.814 334.325 100.501 335.292 98.5568L350.798 67.3794C351.765 65.4351 354.209 64.5963 356.257 65.5056C358.304 66.4149 359.18 68.7281 358.213 70.6723L342.707 101.85Z" fill="#E3BE2C"/>
</g>
<defs>
<clipPath id="clip0_4287_123239">
<rect width="503" height="550" fill="white"/>
</clipPath>
</defs>
</svg>
