<svg width="19" height="24" viewBox="0 0 19 24" fill="none" xmlns="http://www.w3.org/2000/svg">
<path d="M4.50545 6.55114C4.50545 3.04849 8.91619 -0.00011769 8.91619 -0.00011769C8.91619 -0.00011769 13.3594 2.6593 13.3594 6.42141C13.3594 9.56732 11.608 11.3511 8.91619 11.3511C6.19191 11.3186 4.50545 9.69704 4.50545 6.55114Z" fill="#FDC525"/>
<path d="M9.66406 21.5673L9.66406 23.5132L8.75597 23.5132L8.75597 21.5673L9.66406 21.5673Z" fill="#FDC525"/>
<path d="M8.13647 11.2861C8.65538 7.52402 6.35271 6.06459 4.63381 5.51324C4.53652 5.86999 4.50409 6.19431 4.50409 6.55106C4.50409 9.37265 5.89866 10.9942 8.13647 11.2861Z" fill="white"/>
<path d="M13.3906 6.42146C13.3906 6.19444 13.3582 5.96742 13.3582 5.77282C11.7366 6.42146 9.85554 7.8809 10.2447 11.189C12.1906 10.6701 13.3906 9.01602 13.3906 6.42146Z" fill="white"/>
<path d="M2.39816 13.0701C1.81439 12.2593 0.38738 10.8971 2.39816 5.67557C2.39816 5.67557 9.07915 5.93502 7.48998 12.6484C6.48459 16.8646 2.98194 13.9133 2.39816 13.0701Z" fill="#FDC525"/>
<path d="M2.39394 13.07C2.91285 13.7835 5.41011 15.9564 6.80469 14.2051C6.25334 13.6213 5.63714 13.1673 5.15066 12.8105C4.1777 12.1619 2.94528 12.1943 1.90746 12.3565C2.06962 12.6484 2.23178 12.8754 2.39394 13.07Z" fill="white"/>
<path d="M15.9229 13.0701C16.5067 12.2593 17.9337 10.8971 15.9229 5.67557C15.9229 5.67557 9.24189 5.93502 10.8311 12.6484C11.804 16.8646 15.3067 13.9133 15.9229 13.0701Z" fill="#FDC525"/>
<path d="M15.9198 13.07C16.0495 12.8754 16.2441 12.6484 16.4063 12.3565C15.3684 12.1943 14.1036 12.1619 13.1631 12.8105C12.6441 13.1348 12.0604 13.6213 11.4766 14.2051C12.9036 15.9564 15.4009 13.7835 15.9198 13.07Z" fill="white"/>
<path d="M7.26283 21.5676C7.26283 21.5676 0.744003 21.8594 -0.00193145 13.6542C-0.00193145 13.6542 3.20883 12.2596 5.15475 13.5569C7.10067 14.8541 10.6033 18.2919 7.26283 21.5676Z" fill="#FDC525"/>
<path d="M11.0556 21.5676C11.0556 21.5676 17.5744 21.8594 18.3203 13.6542C18.3203 13.6542 15.1095 12.2596 13.1636 13.5569C11.1853 14.8541 7.71506 18.2919 11.0556 21.5676Z" fill="#FDC525"/>
<path d="M3.79292 14.6269C3.79292 10.6053 8.94961 6.68107 8.94961 6.68107C8.94961 6.68107 13.9766 10.1513 13.9766 14.4647C13.9766 18.0647 13.9766 20.1079 8.85231 20.1079C5.1875 20.1079 3.79292 18.2269 3.79292 14.6269Z" fill="white"/>
<path d="M4.215 16.2807C4.215 12.2591 9.04736 8.33488 9.04736 8.33488C9.04736 8.33488 13.75 11.8051 13.75 16.1186C13.75 19.7185 13.75 21.7617 8.95007 21.7617C5.51228 21.7617 4.215 19.8807 4.215 16.2807Z" fill="#FDC525"/>
<path d="M9.46154 22.0211C9.46154 22.0211 13.3858 23.513 16.3047 20.9833C16.3047 20.9833 15.429 19.9454 13.7426 19.913C12.8345 19.913 9.13722 20.1076 9.46154 22.0211Z" fill="#FDC525"/>
<path d="M8.9096 22.0211C8.9096 22.0211 4.98533 23.513 2.06645 20.9833C2.06645 20.9833 2.94212 19.9454 4.62858 19.913C5.53667 19.913 9.23392 20.1076 8.9096 22.0211Z" fill="#FDC525"/>
</svg>
