<svg width="164" height="196" viewBox="0 0 164 196" fill="none" xmlns="http://www.w3.org/2000/svg">
<g clip-path="url(#clip0_3465_112031)">
<path d="M81.589 90.4671C101.749 90.4671 118.092 74.154 118.092 54.0304C118.092 33.9067 101.749 17.5938 81.589 17.5938C61.4288 17.5938 45.0859 33.907 45.0859 54.0304C45.0859 74.1537 61.4289 90.4671 81.589 90.4671V90.4671Z" fill="#9EC3E5"/>
<path d="M79.5312 39.1758V56.3227H88.657" stroke="black" stroke-width="3" stroke-linecap="round" stroke-linejoin="round"/>
<path d="M52.1496 9.16992L38.4609 17.7432" stroke="black" stroke-width="3" stroke-linecap="round" stroke-linejoin="round"/>
<path d="M106.906 9.16992L120.595 17.7432" stroke="black" stroke-width="3" stroke-linecap="round" stroke-linejoin="round"/>
<path d="M40.4749 64.2026C42.6969 73.0199 47.7406 80.7181 54.5917 86.285C61.7585 92.1084 70.9032 95.5995 80.8648 95.5995C103.865 95.5995 122.511 76.988 122.511 54.0291C122.511 31.0703 103.865 12.459 80.8648 12.459C57.8642 12.459 39.2188 31.0706 39.2188 54.0291" stroke="#4090E7" stroke-width="3" stroke-linecap="round" stroke-linejoin="round"/>
</g>
<path d="M155.634 108.998H1.98828" stroke="#4090E7" stroke-width="3" stroke-linecap="round" stroke-linejoin="round"/>
<path d="M136.935 181.696L117.828 110.178" stroke="black" stroke-width="3" stroke-linecap="round" stroke-linejoin="round"/>
<path d="M39.806 110.178L20.6992 181.696" stroke="black" stroke-width="3" stroke-linecap="round" stroke-linejoin="round"/>
<path d="M162.012 108.998H8.36719" stroke="#4090E7" stroke-width="3" stroke-linecap="round" stroke-linejoin="round"/>
<path d="M143.302 181.696L124.195 110.178" stroke="#4090E7" stroke-width="3" stroke-linecap="round" stroke-linejoin="round"/>
<path d="M46.1771 110.178L27.0703 181.696" stroke="#4090E7" stroke-width="3" stroke-linecap="round" stroke-linejoin="round"/>
<defs>
<clipPath id="clip0_3465_112031">
<rect width="95" height="100" fill="white" transform="translate(34)"/>
</clipPath>
</defs>
</svg>
