<svg width="102" height="109" viewBox="0 0 102 109" fill="none" xmlns="http://www.w3.org/2000/svg">
<g clip-path="url(#clip0_2404_30506)">
<g opacity="0.5">
<path d="M81.927 73.9717C81.6559 77.3891 80.7997 80.6728 79.2252 83.7968C78.1074 86.019 76.6709 88.0642 74.9394 89.924C73.4791 91.4903 71.6859 92.7286 69.7879 93.8419C66.6105 95.7102 63.1238 96.8451 59.4041 97.4103C58.0579 97.6131 56.7071 97.7512 55.3561 97.8763L51.2654 97.8677C47.0938 97.6994 43.0744 96.9486 39.3071 95.2615C34.4267 93.0738 30.8259 89.6823 28.2145 85.3933C26.3927 82.3944 25.3082 79.1755 24.7849 75.7926C24.7754 75.7063 24.7469 75.62 24.7374 75.5337C24.6042 74.6448 25.0941 73.9846 26.0597 73.8164C26.3737 73.7603 26.3974 73.6697 26.3166 73.4237C25.6934 71.4863 25.3652 69.5058 25.3319 67.4907C25.2891 64.6989 25.8314 61.9892 26.8731 59.3657C27.3821 58.0756 28.01 56.8372 28.6997 55.6204C29.0993 54.9127 29.7081 54.6193 30.5643 54.6754C31.5204 54.7401 31.5299 54.7358 31.5061 53.8599C31.4633 52.5266 31.4253 51.1933 31.5775 49.86C32.0722 45.489 33.9273 41.7263 37.5947 38.7749C38.2368 38.2572 38.9551 38.1277 39.759 38.4211C40.3107 38.6239 40.8673 38.8138 41.4143 39.0252C41.6188 39.1029 41.714 39.0856 41.7901 38.8871C43.4026 34.5808 46.6657 31.5173 50.7469 29.0621C51.5318 28.5874 52.2453 28.609 53.0539 29.006C56.9306 30.9002 59.9035 33.6143 62.0155 37.1137C62.2677 37.5279 62.5482 37.9292 62.7956 38.3435C62.8907 38.5074 62.9716 38.5419 63.1476 38.4427C63.5234 38.2399 63.9134 38.0543 64.294 37.8645C64.8362 37.597 65.3975 37.4675 66.0111 37.6185C66.2632 37.6789 66.482 37.7739 66.6724 37.9465C69.0697 40.1039 70.9248 42.5807 72.1092 45.4587C72.9559 47.5299 73.3127 49.6701 73.2365 51.875C73.2176 52.4014 73.1604 52.9279 73.1081 53.4543C73.0891 53.6571 73.1319 53.7261 73.3792 53.683C73.8692 53.5967 74.3686 53.5578 74.8586 53.4931C75.672 53.3852 76.2618 53.6657 76.6756 54.3043C77.7317 55.9224 78.6021 57.6139 79.2728 59.3959C80.2146 61.8899 80.6998 64.4487 80.6236 67.0937C80.5714 68.8326 80.2194 70.5284 79.7151 72.2026C79.7056 72.2457 79.6961 72.2846 79.6771 72.3666C79.8531 72.3493 79.9816 72.3277 80.11 72.3191C81.242 72.2673 82.0079 72.9448 81.927 73.9717H81.927Z" fill="#F8E1A4"/>
</g>
<path d="M50.9996 107.039C50.9596 106.918 50.9211 106.797 50.8856 106.675C50.8752 106.64 50.8648 106.605 50.8545 106.57C50.8426 106.534 50.8337 106.498 50.8234 106.464C50.8189 106.448 50.8145 106.432 50.8101 106.416C50.7819 106.316 50.7553 106.217 50.7301 106.118C50.7005 106.008 50.6738 105.897 50.6472 105.786C50.6472 105.781 50.6457 105.775 50.6442 105.771C50.5968 105.563 50.5524 105.356 50.5139 105.147C50.5065 105.108 50.4991 105.067 50.4917 105.028C50.4784 104.961 50.4666 104.893 50.4577 104.826C50.4414 104.737 50.4266 104.648 50.4147 104.56C50.4103 104.537 50.4073 104.515 50.4044 104.493C50.3836 104.358 50.3644 104.223 50.3496 104.087C50.3318 103.945 50.3155 103.801 50.3007 103.657C50.1438 102.083 50.2341 100.506 50.2193 98.9309C50.2163 98.6139 50.3525 98.536 50.6516 98.5092C52.0226 98.3816 53.3922 98.2446 54.7528 98.0378C58.5254 97.4629 62.061 96.3146 65.2813 94.4222C67.2016 93.294 69.0227 92.0382 70.5018 90.4494C72.2563 88.565 73.7132 86.4927 74.8458 84.2403C76.4389 81.0734 77.3095 77.7452 77.5834 74.2828C77.6649 73.2419 76.8905 72.5529 75.7431 72.6066M75.3418 72.4871C75.8541 70.7908 76.208 69.0717 76.2598 67.3082C76.3397 64.6301 75.8482 62.0366 74.8947 59.5063C74.2151 57.7025 73.3312 55.9874 72.2607 54.3475C71.8388 53.7001 71.2436 53.4154 70.4189 53.5255C69.9199 53.5914 69.4165 53.6316 68.9205 53.7163C68.6688 53.7592 68.6244 53.6921 68.6437 53.4866C68.6955 52.9534 68.7532 52.4189 68.7725 51.8843C68.8524 49.6521 68.4912 47.4804 67.6309 45.3825C66.4332 42.464 64.5513 39.9524 62.1217 37.7659C61.9307 37.5926 61.7057 37.4973 61.4525 37.4342C60.8306 37.2797 60.2591 37.4113 59.7113 37.6826C59.3234 37.876 58.931 38.0641 58.5505 38.2709C58.3684 38.3703 58.2885 38.3367 58.1907 38.1715C57.9405 37.7484 57.6577 37.3415 57.4031 36.9211C55.2592 33.3767 52.2492 30.6275 48.3182 28.7042C47.498 28.3026 46.7769 28.2824 45.9819 28.7606C41.8436 31.252 38.5345 34.3572 36.9 38.7222C36.8245 38.9236 36.7282 38.9411 36.5224 38.8605C35.9687 38.6443 35.4031 38.4549 34.8449 38.2494C34.0291 37.9499 33.3022 38.0815 32.6507 38.6053C28.9344 41.6004 27.0511 45.4107 26.5507 49.8442C26.3982 51.194 26.4367 52.5451 26.4767 53.8976C26.5018 54.7827 26.4915 54.7894 25.5217 54.7249C24.6555 54.6672 24.0381 54.964 23.634 55.6798C22.9336 56.9128 22.2999 58.1713 21.7817 59.4767C20.7246 62.1374 20.1768 64.8813 20.2212 67.7111C20.2523 69.7539 20.5884 71.7605 21.2191 73.7241C21.3005 73.9739 21.2783 74.0666 20.9585 74.123C19.9799 74.2962 19.4839 74.9637 19.6156 75.8636C19.629 75.9522 19.6541 76.0395 19.6675 76.1282C20.196 79.5557 21.2961 82.818 23.1439 85.8561C25.7897 90.2063 29.4364 93.6419 34.3859 95.8593C38.2029 97.569 42.2789 98.3319 46.5075 98.4998C46.8347 98.5119 51.4169 98.4047 51.0795 98.516M52.0046 69.7921L42.9097 69.3282C42.2508 66.732 38.4905 60.0759 36.1181 58.3256M75.3295 72.5166C72.7557 73.0206 70.1818 73.5247 67.608 74.0287L63.6715 74.7996C62.6014 75.0091 61.5039 75.4532 60.4072 75.3918C58.5738 75.2892 57.5086 73.9415 56.2661 72.8921C54.7902 71.6456 53.264 70.3686 51.3577 69.6917C49.4925 69.0294 47.3594 69.0109 45.4807 69.6408C43.5547 70.2864 42.1918 71.725 40.929 73.1541C40.2714 73.8984 39.6206 74.6534 38.8597 75.3148C37.8902 76.1576 37.2987 76.4215 35.957 76.0926C33.5872 75.5116 31.2744 74.9117 28.8527 74.5916C26.3025 74.2545 23.7282 74.0913 21.1543 73.9992M59.6736 57.7485C58.2814 60.0528 56.9325 62.3816 55.6842 64.7531C55.035 65.9863 53.714 68.3117 52.8147 69.759M69.4393 53.6047C65.8562 54.2105 62.4839 55.5219 59.8431 57.8382C59.6447 58.0114 59.5751 57.998 59.4937 57.7589C57.8541 52.9766 53.9053 49.5381 49.7186 46.4943M46.2453 46.2899C44.4203 47.4162 42.864 48.8223 41.4542 50.3551C39.2867 52.7118 37.5336 55.3836 36.6956 58.3741C36.629 58.6091 36.5432 58.5943 36.3507 58.4829C34.7783 57.5722 33.1482 56.6132 31.4079 55.93C29.5687 55.208 27.6753 54.9651 25.7019 54.7558" stroke="#FDC525" stroke-width="3" stroke-linecap="round" stroke-linejoin="round"/>
<path d="M58.4643 38.3574C55.9129 39.725 53.442 41.4525 51.6515 43.6073C51.398 43.9124 51.1556 44.225 50.9251 44.5448C50.5268 45.097 50.1635 45.6699 49.8359 46.259C49.7322 46.443 49.6449 46.5115 49.4317 46.3866C49.3569 46.3429 49.2771 46.3058 49.1961 46.2706C48.1811 45.8286 47.0029 45.9052 46.0363 46.429C45.7004 46.6109 45.6316 46.5225 45.3394 46.0737C43.3834 43.0699 40.4403 40.6394 37.0376 39.0307C36.8986 38.965 36.7593 38.8924 36.6094 38.8485" stroke="#FDC525" stroke-width="3" stroke-linecap="round" stroke-linejoin="round"/>
<path d="M96.6279 38.262C97.1173 37.9387 97.5701 37.5703 98.0361 37.2165C98.8819 36.5739 99.7277 35.9299 100.572 35.2832" stroke="#FDC525" stroke-width="3" stroke-linecap="round" stroke-linejoin="round"/>
<path d="M82.4053 49.0359C84.4723 47.4803 86.5422 45.9272 88.6121 44.3729C90.0071 43.3261 91.4021 42.2793 92.7986 41.2324" stroke="#FDC525" stroke-width="3" stroke-linecap="round" stroke-linejoin="round"/>
<path d="M96.6289 38.2623C97.1183 37.939 97.5711 37.5697 98.0362 37.2166C98.8832 36.5739 99.7284 35.9293 100.572 35.2832" stroke="#FDC525" stroke-width="3" stroke-linecap="round" stroke-linejoin="round"/>
<path d="M72.2373 30.3461C73.8052 28.368 75.3767 26.3918 76.9478 24.4144C78.0069 23.0824 79.066 21.7503 80.1265 20.418" stroke="#FDC525" stroke-width="3" stroke-linecap="round" stroke-linejoin="round"/>
<path d="M83.0078 16.6694C83.3916 16.2446 83.7271 15.7837 84.0791 15.3357C84.7201 14.52 85.3589 13.703 85.9959 12.8848" stroke="#FDC525" stroke-width="3" stroke-linecap="round" stroke-linejoin="round"/>
<path d="M49.0732 10.7637C49.0835 12.407 49.0928 14.0493 49.1021 15.6916C49.115 18.1291 49.129 20.5658 49.1389 23.0021" stroke="#FDC525" stroke-width="3" stroke-linecap="round" stroke-linejoin="round"/>
<path d="M49.1279 6.19421C49.0875 5.64624 49.1095 5.09427 49.1097 4.54407C49.1102 3.5424 49.1133 2.54072 49.1186 1.53906" stroke="#FDC525" stroke-width="3" stroke-linecap="round" stroke-linejoin="round"/>
<path d="M1.83691 31.5996L4.4072 33.5592L5.83449 34.6188M9.71657 37.6287C11.132 38.6897 12.546 39.7507 13.9599 40.8118C16.0579 42.3872 18.1559 43.9613 20.2509 45.538" stroke="#FDC525" stroke-width="3" stroke-linecap="round" stroke-linejoin="round"/>
<path d="M21.8721 19.8457C22.9326 21.1781 23.9916 22.5101 25.0507 23.8421C26.6218 25.8196 28.1933 27.7958 29.7613 29.7739" stroke="#FDC525" stroke-width="3" stroke-linecap="round" stroke-linejoin="round"/>
<path d="M18.991 16.0971C18.6072 15.6724 18.2718 15.2114 17.9197 14.7634C17.2787 13.9477 16.64 13.1307 16.0029 12.3125" stroke="#FDC525" stroke-width="3" stroke-linecap="round" stroke-linejoin="round"/>
</g>
<defs>
<clipPath id="clip0_2404_30506">
<rect width="102" height="108.089" fill="white" transform="translate(0 0.244141)"/>
</clipPath>
</defs>
</svg>
