<svg width="10" height="10" viewBox="0 0 10 10" fill="none" xmlns="http://www.w3.org/2000/svg">
<path d="M9.18939 8.94177C9.44974 8.68143 9.44974 8.25932 9.18939 7.99897L5.89002 4.69959L9.1903 1.3993C9.45065 1.13895 9.45065 0.716844 9.1903 0.456494C8.92995 0.196145 8.50784 0.196145 8.24749 0.456494L4.94721 3.75678L1.64692 0.456493C1.38657 0.196143 0.964462 0.196143 0.704112 0.456493C0.443763 0.716842 0.443763 1.13895 0.704112 1.3993L4.0044 4.69959L0.705018 7.99897C0.444668 8.25932 0.444668 8.68143 0.705018 8.94178C0.965367 9.20212 1.38748 9.20213 1.64783 8.94178L4.94721 5.6424L8.24658 8.94177C8.50693 9.20212 8.92904 9.20212 9.18939 8.94177Z" fill="white"/>
</svg>
