<svg width="231" height="231" viewBox="0 0 231 231" fill="none" xmlns="http://www.w3.org/2000/svg">
<path d="M181.61 54.194L177.641 50.5816L209.954 14.5911C210.187 14.3252 210.471 14.1089 210.788 13.9549C211.106 13.8009 211.45 13.7123 211.802 13.6943C212.154 13.6763 212.506 13.7293 212.837 13.8501C213.168 13.9709 213.472 14.1571 213.731 14.3978C213.995 14.6329 214.21 14.9187 214.363 15.2385C214.515 15.5583 214.603 15.9056 214.621 16.26C214.639 16.6145 214.586 16.969 214.467 17.3027C214.347 17.6365 214.162 17.9427 213.923 18.2035L181.61 54.194Z" fill="#90EE90"/>
<path opacity="0.1" d="M178.711 49.3953L182.276 53.4542L181.608 54.194L177.646 50.5817L178.711 49.3953Z" fill="black"/>
<path opacity="0.1" d="M183.322 52.2878L179.757 48.2356L180.425 47.4891L184.387 51.1015L183.322 52.2878Z" fill="black"/>
<path d="M213.359 77.4346L151.517 21.0827C155.189 16.9914 159.626 13.6689 164.572 11.3049C169.519 8.941 174.879 7.58191 180.347 7.30526C185.815 7.02862 191.284 7.83983 196.441 9.69259C201.597 11.5454 206.342 14.4034 210.402 18.1035C214.463 21.8036 217.76 26.2734 220.107 31.2575C222.453 36.2417 223.802 41.6426 224.076 47.152C224.351 52.6614 223.546 58.1714 221.707 63.3672C219.868 68.5631 217.031 73.3432 213.359 77.4346Z" fill="#90EE90"/>
<path opacity="0.5" d="M213.359 77.4346L151.517 21.0827C155.189 16.9914 159.626 13.6689 164.572 11.3049C169.519 8.941 174.879 7.58191 180.347 7.30526C185.815 7.02862 191.284 7.83983 196.441 9.69259C201.597 11.5454 206.342 14.4034 210.402 18.1035C214.463 21.8036 217.76 26.2734 220.107 31.2575C222.453 36.2417 223.802 41.6426 224.076 47.152C224.351 52.6614 223.546 58.1714 221.707 63.3672C219.868 68.5631 217.031 73.3432 213.359 77.4346Z" fill="white"/>
<path d="M49.5378 55.2271L53.4472 51.5548L20.5914 16.0441C20.354 15.7823 20.0671 15.5709 19.7476 15.4222C19.4281 15.2735 19.0824 15.1905 18.7306 15.1781C18.3789 15.1657 18.0282 15.2241 17.6992 15.3499C17.3701 15.4757 17.0693 15.6664 16.8143 15.9108C16.5545 16.15 16.3446 16.4391 16.197 16.761C16.0494 17.0829 15.9671 17.4313 15.9547 17.7857C15.9424 18.1401 16.0004 18.4934 16.1253 18.8249C16.2501 19.1565 16.4394 19.4596 16.682 19.7165L49.5378 55.2271Z" fill="#90EE90"/>
<path opacity="0.1" d="M52.3608 50.3884L48.855 54.5006L49.5363 55.2338L53.4457 51.5614L52.3608 50.3884Z" fill="black"/>
<path opacity="0.1" d="M47.7987 53.3543L51.3046 49.2421L50.6232 48.5089L46.7139 52.1813L47.7987 53.3543Z" fill="black"/>
<path d="M18.1449 78.9475L79.1335 21.6293C75.3982 17.5944 70.9108 14.3403 65.9273 12.0528C60.9439 9.76528 55.5621 8.48918 50.0892 8.29732C44.6163 8.10546 39.1595 9.00161 34.0303 10.9346C28.9011 12.8676 24.2 15.7996 20.1955 19.5632C16.1909 23.3267 12.9612 27.8482 10.6909 32.8693C8.42062 37.8905 7.15411 43.3131 6.96369 48.8274C6.77328 54.3418 7.66269 59.8399 9.58116 65.0079C11.4996 70.1759 14.4096 74.9126 18.1449 78.9475Z" fill="#90EE90"/>
<path opacity="0.5" d="M18.1449 78.9475L79.1335 21.6293C75.3982 17.5944 70.9108 14.3403 65.9273 12.0528C60.9439 9.76528 55.5621 8.48918 50.0892 8.29732C44.6163 8.10546 39.1595 9.00161 34.0303 10.9346C28.9011 12.8676 24.2 15.7996 20.1955 19.5632C16.1909 23.3267 12.9612 27.8482 10.6909 32.8693C8.42062 37.8905 7.15411 43.3131 6.96369 48.8274C6.77328 54.3418 7.66269 59.8399 9.58116 65.0079C11.4996 70.1759 14.4096 74.9126 18.1449 78.9475Z" fill="white"/>
<path d="M54.803 195.883L47.0107 222.276L56.3906 222.21L73.642 207.62L54.803 195.883Z" fill="#90EE90"/>
<path opacity="0.1" d="M54.803 195.883L47.0107 222.276L56.3906 222.21L73.642 207.62L54.803 195.883Z" fill="black"/>
<path d="M177.284 194.95L185.467 221.223L176.087 221.29L158.617 206.967L177.284 194.95Z" fill="#90EE90"/>
<path opacity="0.1" d="M177.284 194.95L185.467 221.223L176.087 221.29L158.617 206.967L177.284 194.95Z" fill="black"/>
<path d="M125.452 11.9559L104.914 12.1112L104.979 20.8486L125.518 20.6933L125.452 11.9559Z" fill="#37474F"/>
<path d="M120.291 20.7324L110.224 20.8085L110.285 29.0128L120.352 28.9367L120.291 20.7324Z" fill="#37474F"/>
<path d="M183.758 190.277C220.895 152.293 220.44 91.1684 182.742 53.7507C145.043 16.333 84.378 16.7918 47.2415 54.7754C10.1051 92.7589 10.5604 153.884 48.2585 191.301C85.9566 228.719 146.622 228.26 183.758 190.277Z" fill="#90EE90"/>
<path d="M116.102 208.204C163.298 207.847 201.27 169.009 200.916 121.456C200.561 73.9034 162.015 35.6437 114.82 36.0006C67.6245 36.3575 29.6524 75.1958 30.0066 122.748C30.3608 170.301 68.9072 208.561 116.102 208.204Z" fill="white"/>
<path d="M117.229 205.392C116.597 205.409 115.955 205.416 115.328 205.404L115.267 199.093L117.176 199.085L117.229 205.392Z" fill="#263238"/>
<path d="M157.018 50.1607L153.943 55.6284L152.288 54.6918L155.364 49.2241C155.642 49.3702 155.925 49.5291 156.175 49.6966C156.425 49.8642 156.754 49.9901 157.018 50.1607Z" fill="#263238"/>
<path d="M115.721 45.0594L113.785 45.0675L113.73 38.7549C114.362 38.7373 115.004 38.7309 115.631 38.7424L115.721 45.0594Z" fill="#263238"/>
<path d="M77.4405 55.1096L75.8035 56.0796L72.6167 50.6268C73.158 50.2955 73.7009 49.9706 74.2537 49.6569L77.4405 55.1096Z" fill="#263238"/>
<path d="M49.333 83.1136L48.4088 84.7757L42.9471 81.6438C43.0911 81.3637 43.248 81.0801 43.4135 80.8288C43.579 80.5774 43.7243 80.2763 43.8799 80.0138L49.333 83.1136Z" fill="#263238"/>
<path d="M38.9869 123.47L32.7237 123.506C32.6957 122.865 32.6904 122.231 32.6978 121.595L38.9674 121.557L38.9869 123.47Z" fill="#263238"/>
<path d="M50.0822 161.787L44.6769 164.974C44.3411 164.436 44.0209 163.88 43.7072 163.322L49.106 160.137L50.0822 161.787Z" fill="#263238"/>
<path d="M78.6906 189.456L75.6171 194.93C75.3383 194.784 75.0641 194.63 74.8056 194.458C74.5472 194.286 74.2475 194.138 73.9942 193.985L77.0677 188.511L78.6906 189.456Z" fill="#263238"/>
<path d="M158.364 193.548C157.823 193.88 157.28 194.204 156.724 194.505L153.541 189.065L155.178 188.096L158.364 193.548Z" fill="#263238"/>
<path d="M187.573 163.324C187.417 163.608 187.258 163.885 187.107 164.139L181.657 161.025L182.581 159.362L188.031 162.477C187.889 162.763 187.73 163.04 187.573 163.324Z" fill="#263238"/>
<path d="M198.283 122.553L192.013 122.591L191.994 120.678L198.263 120.64C198.29 121.275 198.29 121.916 198.283 122.553Z" fill="#263238"/>
<path d="M187.274 80.8248L181.875 84.0103L180.903 82.3524L186.309 79.1652C186.64 79.7113 186.968 80.2719 187.274 80.8248Z" fill="#263238"/>
<path d="M187.674 137.932L110.651 125.575L112.265 117.551L188.111 135.753L187.674 137.932Z" fill="#C7F7C7"/>
<path d="M130.619 179.709L111 119.001L118.893 117.052L132.758 179.18L130.619 179.709Z" fill="#263238"/>
<path d="M116.635 70.0385L119.849 120.889L111.5 120.889L114.426 70.0179L116.635 70.0385Z" fill="#263238"/>
<path d="M115.482 124.901C117.012 124.89 118.244 123.63 118.232 122.088C118.221 120.546 116.971 119.305 115.44 119.316C113.909 119.328 112.678 120.587 112.689 122.13C112.701 123.672 113.951 124.913 115.482 124.901Z" fill="#FBFBFD"/>
</svg>
