<svg width="23" height="29" viewBox="0 0 23 29" fill="none" xmlns="http://www.w3.org/2000/svg">
<g clip-path="url(#clip0_5309_144830)">
<g opacity="0.5">
<path d="M4.52912 19.0271C4.59025 19.813 4.78333 20.5682 5.13836 21.2866C5.39041 21.7976 5.71434 22.268 6.10476 22.6956C6.43404 23.0558 6.8384 23.3406 7.26637 23.5966C7.98286 24.0263 8.76906 24.2873 9.60782 24.4173C9.91137 24.4639 10.216 24.4957 10.5206 24.5244L11.443 24.5224C12.3837 24.4837 13.29 24.3111 14.1395 23.9231C15.24 23.42 16.0519 22.6401 16.6408 21.6537C17.0516 20.9641 17.2961 20.2238 17.4141 19.4459C17.4162 19.426 17.4227 19.4062 17.4248 19.3863C17.4549 19.1819 17.3444 19.0301 17.1267 18.9914C17.0559 18.9785 17.0505 18.9577 17.0687 18.9011C17.2092 18.4556 17.2833 18.0001 17.2908 17.5367C17.3004 16.8947 17.1781 16.2715 16.9432 15.6682C16.8285 15.3715 16.6869 15.0867 16.5314 14.8069C16.4413 14.6442 16.304 14.5767 16.1109 14.5896C15.8953 14.6045 15.8932 14.6035 15.8985 14.402C15.9082 14.0954 15.9168 13.7888 15.8825 13.4822C15.7709 12.477 15.3526 11.6117 14.5256 10.933C14.3808 10.8139 14.2189 10.7841 14.0376 10.8516C13.9132 10.8982 13.7877 10.9419 13.6643 10.9905C13.6182 11.0084 13.5968 11.0044 13.5796 10.9588C13.216 9.96846 12.4802 9.26394 11.5599 8.69932C11.383 8.59017 11.2221 8.59513 11.0397 8.68642C10.1656 9.12204 9.4952 9.74619 9.01897 10.5509C8.96212 10.6462 8.89885 10.7385 8.84307 10.8337C8.82162 10.8715 8.80338 10.8794 8.7637 10.8566C8.67897 10.8099 8.59101 10.7673 8.50519 10.7236C8.38293 10.6621 8.25636 10.6323 8.118 10.667C8.06115 10.6809 8.01182 10.7028 7.9689 10.7425C7.42833 11.2386 7.01002 11.8082 6.74294 12.47C6.55202 12.9463 6.47157 13.4385 6.48874 13.9456C6.49302 14.0666 6.5059 14.1877 6.5177 14.3088C6.52198 14.3554 6.51235 14.3713 6.45657 14.3614C6.34609 14.3415 6.23346 14.3326 6.12298 14.3177C5.93957 14.2929 5.80658 14.3574 5.71326 14.5042C5.47514 14.8764 5.27887 15.2653 5.12762 15.6751C4.91525 16.2487 4.80584 16.8371 4.82302 17.4454C4.83481 17.8453 4.91418 18.2353 5.02788 18.6203C5.03003 18.6302 5.03217 18.6391 5.03647 18.658C4.99677 18.654 4.9678 18.6491 4.93884 18.6471C4.68358 18.6352 4.51088 18.791 4.52912 19.0271H4.52912Z" fill="white"/>
</g>
<path d="M11.5045 26.6313C11.5135 26.6035 11.5221 26.5757 11.5302 26.5476C11.5325 26.5396 11.5348 26.5316 11.5372 26.5235C11.5398 26.5152 11.5418 26.5068 11.5442 26.4991C11.5452 26.4954 11.5462 26.4917 11.5472 26.488C11.5535 26.4651 11.5595 26.4423 11.5652 26.4194C11.5719 26.3941 11.5779 26.3688 11.5839 26.3431C11.5839 26.3419 11.5842 26.3407 11.5846 26.3397C11.5953 26.2919 11.6053 26.2443 11.614 26.1961C11.6156 26.1872 11.6173 26.1779 11.619 26.1689C11.622 26.1535 11.6246 26.1377 11.6266 26.1223C11.6303 26.1019 11.6337 26.0815 11.6363 26.0612C11.6373 26.0559 11.638 26.051 11.6387 26.0457C11.6433 26.0148 11.6477 25.9836 11.651 25.9524C11.655 25.9197 11.6587 25.8866 11.662 25.8536C11.6974 25.4916 11.6771 25.129 11.6804 24.7667C11.6811 24.6938 11.6504 24.6759 11.5829 24.6697C11.2738 24.6404 10.9649 24.6089 10.6581 24.5613C9.80746 24.4291 9.01021 24.165 8.28407 23.7298C7.85106 23.4704 7.44041 23.1816 7.10689 22.8162C6.71127 22.3829 6.38276 21.9063 6.12735 21.3883C5.76813 20.66 5.57182 19.8947 5.51005 19.0984C5.49169 18.859 5.6663 18.7006 5.92504 18.7129M6.01551 18.6855C5.9 18.2954 5.82021 17.9 5.80852 17.4945C5.79049 16.8786 5.90133 16.2822 6.11634 15.7003C6.26958 15.2855 6.46889 14.8911 6.71027 14.5139C6.80542 14.3651 6.93963 14.2996 7.12559 14.3249C7.2381 14.34 7.35161 14.3493 7.46345 14.3688C7.52021 14.3786 7.53022 14.3632 7.52588 14.3159C7.5142 14.1933 7.50118 14.0704 7.49684 13.9475C7.47881 13.4341 7.56027 12.9347 7.75424 12.4523C8.02433 11.7811 8.44866 11.2035 8.99652 10.7007C9.03959 10.6608 9.09034 10.6389 9.14743 10.6244C9.28765 10.5889 9.41651 10.6191 9.54004 10.6815C9.62751 10.726 9.71598 10.7693 9.80179 10.8168C9.84285 10.8397 9.86088 10.832 9.88291 10.794C9.93933 10.6967 10.0031 10.6031 10.0605 10.5064C10.5439 9.69131 11.2227 9.05907 12.1091 8.61677C12.294 8.52442 12.4566 8.51979 12.6359 8.62975C13.569 9.20269 14.3152 9.91679 14.6838 10.9206C14.7008 10.9669 14.7225 10.9709 14.7689 10.9524C14.8938 10.9027 15.0213 10.8591 15.1472 10.8119C15.3311 10.743 15.495 10.7733 15.6419 10.8937C16.4799 11.5825 16.9046 12.4587 17.0174 13.4783C17.0518 13.7887 17.0431 14.0994 17.0341 14.4105C17.0285 14.614 17.0308 14.6155 17.2495 14.6007C17.4448 14.5874 17.584 14.6557 17.6751 14.8203C17.833 15.1039 17.9759 15.3933 18.0928 15.6935C18.3312 16.3053 18.4547 16.9364 18.4447 17.5871C18.4377 18.0569 18.3619 18.5184 18.2197 18.9699C18.2013 19.0274 18.2063 19.0487 18.2784 19.0617C18.4991 19.1015 18.6109 19.255 18.5812 19.4619C18.5782 19.4823 18.5725 19.5024 18.5695 19.5228C18.4504 20.311 18.2023 21.0612 17.7856 21.7599C17.189 22.7603 16.3667 23.5504 15.2507 24.0603C14.39 24.4535 13.4709 24.6289 12.5174 24.6676C12.4436 24.6703 11.4104 24.6457 11.4864 24.6713M11.2778 18.0657L13.3286 17.959C13.4772 17.362 14.3251 15.8313 14.8601 15.4288M6.01829 18.6922C6.59866 18.8082 7.17904 18.9241 7.75942 19.04L8.64706 19.2173C8.88836 19.2654 9.13583 19.3676 9.38313 19.3535C9.79654 19.3299 10.0367 19.0199 10.3169 18.7786C10.6497 18.4919 10.9938 18.1983 11.4237 18.0426C11.8443 17.8903 12.3253 17.8861 12.7489 18.0309C13.1832 18.1794 13.4905 18.5102 13.7753 18.8389C13.9235 19.01 14.0703 19.1836 14.2419 19.3357C14.4605 19.5295 14.5939 19.5903 14.8964 19.5146C15.4308 19.381 15.9523 19.2431 16.4983 19.1694C17.0734 19.0919 17.6539 19.0544 18.2343 19.0332M9.54855 15.296C9.86247 15.826 10.1666 16.3615 10.4481 16.9069C10.5945 17.1905 10.8924 17.7252 11.0952 18.0581M7.34648 14.3431C8.15442 14.4824 8.91484 14.784 9.51033 15.3167C9.55507 15.3565 9.57076 15.3534 9.58912 15.2984C9.95883 14.1987 10.8492 13.4079 11.7933 12.7079M12.5765 12.6609C12.988 12.92 13.3389 13.2433 13.6568 13.5958C14.1456 14.1378 14.5409 14.7522 14.7298 15.4399C14.7449 15.494 14.7642 15.4906 14.8076 15.4649C15.1622 15.2555 15.5298 15.035 15.9222 14.8779C16.3369 14.7118 16.7639 14.6559 17.2088 14.6078" stroke="white" stroke-linecap="round" stroke-linejoin="round"/>
<path d="M9.81803 10.8374C10.3933 11.1519 10.9505 11.5492 11.3543 12.0447C11.4114 12.1149 11.4661 12.1868 11.518 12.2603C11.6078 12.3873 11.6898 12.519 11.7636 12.6545C11.787 12.6968 11.8067 12.7126 11.8548 12.6839C11.8717 12.6738 11.8896 12.6653 11.9079 12.6572C12.1368 12.5555 12.4024 12.5732 12.6204 12.6936C12.6962 12.7355 12.7117 12.7151 12.7776 12.6119C13.2186 11.9211 13.8823 11.3622 14.6495 10.9922C14.6809 10.9771 14.7123 10.9604 14.7461 10.9503" stroke="white" stroke-linecap="round" stroke-linejoin="round"/>
<path d="M1.20312 10.813C1.09278 10.7386 0.990669 10.6539 0.885595 10.5725C0.694877 10.4247 0.504163 10.2766 0.313777 10.1279" stroke="white" stroke-linecap="round" stroke-linejoin="round"/>
<path d="M4.41406 13.2902C3.94798 12.9324 3.48123 12.5753 3.01449 12.2178C2.69992 11.9771 2.38536 11.7363 2.07046 11.4956" stroke="white" stroke-linecap="round" stroke-linejoin="round"/>
<path d="M1.20312 10.813C1.09277 10.7387 0.99068 10.6538 0.885783 10.5726C0.694811 10.4247 0.504224 10.2765 0.313952 10.1279" stroke="white" stroke-linecap="round" stroke-linejoin="round"/>
<path d="M6.70703 8.99117C6.35348 8.53627 5.99912 8.08181 5.64485 7.62706C5.40604 7.32073 5.16723 7.01441 4.9281 6.70801" stroke="white" stroke-linecap="round" stroke-linejoin="round"/>
<path d="M4.28125 5.8469C4.19471 5.74922 4.11906 5.64322 4.03968 5.54019C3.89515 5.35262 3.75111 5.16472 3.60746 4.97656" stroke="white" stroke-linecap="round" stroke-linejoin="round"/>
<path d="M11.9375 4.49072C11.9353 4.86864 11.9333 5.24632 11.9313 5.624C11.9286 6.18455 11.9256 6.7449 11.9234 7.30518" stroke="white" stroke-linecap="round" stroke-linejoin="round"/>
<path d="M11.9206 3.4387C11.9292 3.31269 11.9245 3.18575 11.9245 3.05922C11.9244 2.82887 11.9237 2.59851 11.9226 2.36816" stroke="white" stroke-linecap="round" stroke-linejoin="round"/>
<path d="M22.5859 9.28076L22.0064 9.7314L21.6845 9.97509M20.8092 10.6673C20.49 10.9113 20.1712 11.1553 19.8523 11.3993C19.3792 11.7616 18.9062 12.1236 18.4338 12.4862" stroke="white" stroke-linecap="round" stroke-linejoin="round"/>
<path d="M18.0703 6.57861C17.8312 6.88501 17.5924 7.19134 17.3536 7.49766C16.9993 7.95242 16.6449 8.40688 16.2914 8.86178" stroke="white" stroke-linecap="round" stroke-linejoin="round"/>
<path d="M18.7247 5.71702C18.8112 5.61934 18.8868 5.51334 18.9662 5.41031C19.1108 5.22274 19.2548 5.03484 19.3984 4.84668" stroke="white" stroke-linecap="round" stroke-linejoin="round"/>
</g>
<defs>
<clipPath id="clip0_5309_144830">
<rect width="23" height="29" fill="white" transform="matrix(-1 0 0 1 23 0)"/>
</clipPath>
</defs>
</svg>
