<svg width="82" height="81" viewBox="0 0 82 81" fill="none" xmlns="http://www.w3.org/2000/svg">
<g clip-path="url(#clip0_5389_146685)">
<path d="M65.9438 17.683L64.4453 16.3222L76.6455 2.76443C76.7336 2.66425 76.8407 2.58277 76.9605 2.52476C77.0804 2.46675 77.2105 2.43337 77.3433 2.42659C77.4762 2.4198 77.609 2.43976 77.7341 2.48527C77.8591 2.53078 77.9739 2.60093 78.0716 2.69162C78.1712 2.78017 78.2523 2.88784 78.31 3.00829C78.3677 3.12875 78.4009 3.25958 78.4077 3.39311C78.4144 3.52664 78.3946 3.66018 78.3493 3.7859C78.304 3.91162 78.2342 4.02698 78.144 4.12523L65.9438 17.683Z" fill="#4090E7"/>
<path opacity="0.1" d="M64.8552 15.875L66.2014 17.404L65.9491 17.6827L64.4531 16.3219L64.8552 15.875Z" fill="black"/>
<path opacity="0.1" d="M66.5961 16.9649L65.25 15.4384L65.5022 15.1572L66.9982 16.518L66.5961 16.9649Z" fill="black"/>
<path d="M77.9349 26.4378L54.5859 5.20993C55.9725 3.6687 57.6474 2.41711 59.515 1.5266C61.3827 0.6361 63.4066 0.124126 65.471 0.0199124C67.5355 -0.084301 69.6002 0.221284 71.5472 0.919228C73.4942 1.61717 75.2854 2.6938 76.8186 4.08765C78.3517 5.48149 79.5967 7.16526 80.4825 9.0428C81.3683 10.9203 81.8776 12.9549 81.9813 15.0303C82.085 17.1057 81.781 19.1813 81.0867 21.1386C80.3924 23.0959 79.3215 24.8966 77.9349 26.4378Z" fill="#4090E7"/>
<path opacity="0.5" d="M77.9349 26.4378L54.5859 5.20993C55.9725 3.6687 57.6474 2.41711 59.515 1.5266C61.3827 0.6361 63.4066 0.124126 65.471 0.0199124C67.5355 -0.084301 69.6002 0.221284 71.5472 0.919228C73.4942 1.61717 75.2854 2.6938 76.8186 4.08765C78.3517 5.48149 79.5967 7.16526 80.4825 9.0428C81.3683 10.9203 81.8776 12.9549 81.9813 15.0303C82.085 17.1057 81.781 19.1813 81.0867 21.1386C80.3924 23.0959 79.3215 24.8966 77.9349 26.4378Z" fill="white"/>
<path opacity="0.5" d="M77.2687 4.55456C71.7218 0.311492 63.0929 1.68986 57.5235 7.88123L56.0625 6.55307C61.8941 0.0704631 71.0749 -1.13467 76.5669 3.8591C76.8116 4.08255 77.0464 4.31354 77.2687 4.55456Z" fill="white"/>
<path d="M16.0786 18.0721L17.5547 16.6887L5.14965 3.31173C5.06001 3.21311 4.95171 3.13346 4.83108 3.07744C4.71045 3.02142 4.57991 2.99015 4.44711 2.98548C4.31431 2.9808 4.18191 3.00281 4.05767 3.05021C3.93344 3.09761 3.81986 3.16945 3.72358 3.26152C3.62548 3.35162 3.54625 3.4605 3.49053 3.58177C3.4348 3.70304 3.4037 3.83427 3.39905 3.96777C3.3944 4.10128 3.41628 4.23436 3.46343 4.35926C3.51058 4.48415 3.58204 4.59834 3.67363 4.69512L16.0786 18.0721Z" fill="#4090E7"/>
<path opacity="0.1" d="M17.144 16.249L15.8203 17.7981L16.0776 18.0743L17.5536 16.6909L17.144 16.249Z" fill="black"/>
<path opacity="0.1" d="M15.4252 17.3663L16.7489 15.8172L16.4916 15.541L15.0156 16.9244L15.4252 17.3663Z" fill="black"/>
<path d="M4.23108 27.0075L27.2579 5.41555C25.8476 3.89559 24.1533 2.66976 22.2718 1.80805C20.3903 0.946345 18.3583 0.465634 16.2919 0.393361C14.2256 0.321087 12.1653 0.658669 10.2288 1.38683C8.2922 2.115 6.51726 3.21949 5.0053 4.63724C3.49333 6.05499 2.27395 7.75823 1.41677 9.64972C0.559597 11.5412 0.0814144 13.5839 0.00952133 15.6612C-0.0623717 17.7385 0.273434 19.8096 0.99777 21.7564C1.72211 23.7032 2.82079 25.4876 4.23108 27.0075Z" fill="#4090E7"/>
<path opacity="0.5" d="M4.23108 27.0075L27.2579 5.41555C25.8476 3.89559 24.1533 2.66976 22.2718 1.80805C20.3903 0.946345 18.3583 0.465634 16.2919 0.393361C14.2256 0.321087 12.1653 0.658669 10.2288 1.38683C8.2922 2.115 6.51726 3.21949 5.0053 4.63724C3.49333 6.05499 2.27395 7.75823 1.41677 9.64972C0.559597 11.5412 0.0814144 13.5839 0.00952133 15.6612C-0.0623717 17.7385 0.273434 19.8096 0.99777 21.7564C1.72211 23.7032 2.82079 25.4876 4.23108 27.0075Z" fill="white"/>
<path opacity="0.5" d="M4.5625 5.11952C10.057 0.793598 18.6933 2.0389 24.3551 8.14491L25.7961 6.79415C19.8671 0.401925 10.6714 -0.665117 5.2543 4.41151C5.01288 4.63914 4.78228 4.87515 4.5625 5.11952Z" fill="white"/>
<path d="M18.067 71.0576L15.125 81L18.6664 80.9749L25.1799 75.479L18.067 71.0576Z" fill="#4090E7"/>
<path opacity="0.1" d="M18.067 71.0576L15.125 81L18.6664 80.9749L25.1799 75.479L18.067 71.0576Z" fill="black"/>
<path d="M64.3135 70.7061L67.4029 80.6032L63.8615 80.6283L57.2656 75.2328L64.3135 70.7061Z" fill="#4090E7"/>
<path opacity="0.1" d="M64.3135 70.7061L67.4029 80.6032L63.8615 80.6283L57.2656 75.2328L64.3135 70.7061Z" fill="black"/>
<path d="M44.5357 1.77157L36.7812 1.83008L36.8058 5.12151L44.5603 5.063L44.5357 1.77157Z" fill="#37474F"/>
<path d="M42.5901 5.07777L38.7891 5.10645L38.8121 8.19702L42.6132 8.16834L42.5901 5.07777Z" fill="#37474F"/>
<path d="M42.603 5.62127L38.8044 5.90247L38.7969 5.09402L42.5981 5.06641L42.603 5.62127Z" fill="#263238"/>
<path d="M66.759 68.9455C80.7803 54.637 80.6084 31.611 66.3751 17.5157C52.1418 3.42032 29.237 3.59313 15.2158 17.9017C1.19457 32.2102 1.36648 55.2361 15.5998 69.3315C29.833 83.4269 52.7378 83.254 66.759 68.9455Z" fill="#4090E7"/>
<path opacity="0.1" d="M41.2302 77.524C60.2933 77.3801 75.631 61.7281 75.488 42.5642C75.3449 23.4003 59.7752 7.9815 40.7121 8.12532C21.649 8.26915 6.31129 23.9212 6.45436 43.0851C6.59743 62.249 22.1671 77.6678 41.2302 77.524Z" fill="black"/>
<path d="M41.2172 75.6988C59.0362 75.5644 73.3729 60.9339 73.2392 43.0206C73.1054 25.1074 58.5519 10.6949 40.7329 10.8293C22.9139 10.9638 8.57716 25.5943 8.71089 43.5075C8.84463 61.4207 23.3982 75.8332 41.2172 75.6988Z" fill="white"/>
<path d="M63.1522 21.135L61.4964 22.8246L60.9844 22.3225L62.6402 20.6328C62.7276 20.7132 62.815 20.7985 62.89 20.8839C62.9649 20.9692 63.0723 21.0471 63.1522 21.135Z" fill="#263238"/>
<path d="M48.5896 15.2523L47.8828 15.0665L48.4797 12.7642C48.712 12.8194 48.9467 12.8797 49.174 12.9449L48.5896 15.2523Z" fill="#263238"/>
<path d="M33.6493 15.1771L32.9575 15.3704L32.3281 13.0757C32.5579 13.0079 32.7877 12.9426 33.0199 12.8823L33.6493 15.1771Z" fill="#263238"/>
<path d="M20.6619 22.6264L20.1624 23.1411L18.4766 21.4689C18.5565 21.3811 18.6414 21.2932 18.7263 21.2179C18.8112 21.1425 18.8936 21.0471 18.9761 20.9668L20.6619 22.6264Z" fill="#263238"/>
<path d="M12.9439 36.3024L10.6562 35.7048C10.7087 35.4688 10.7686 35.2378 10.8336 35.0068L13.1238 35.6044L12.9439 36.3024Z" fill="#263238"/>
<path d="M13.2484 51.3263L10.9657 51.959C10.8958 51.7305 10.8334 51.497 10.7734 51.2635L13.0536 50.6309L13.2484 51.3263Z" fill="#263238"/>
<path d="M20.9756 64.1833L19.3198 65.8755C19.2324 65.7952 19.1475 65.7123 19.0701 65.6244C18.9926 65.5366 18.8977 65.4537 18.8203 65.3734L20.4761 63.6812L20.9756 64.1833Z" fill="#263238"/>
<path d="M33.4755 73.7389C33.2433 73.6837 33.0085 73.6234 32.7812 73.5582L33.3757 71.2559L34.0724 71.4392L33.4755 73.7389Z" fill="#263238"/>
<path d="M49.6337 73.4403C49.4039 73.5081 49.1741 73.5734 48.9419 73.6286L48.3125 71.3388L49.0043 71.1455L49.6337 73.4403Z" fill="#263238"/>
<path d="M63.2377 65.2905C63.1528 65.3784 63.0679 65.4638 62.988 65.5416L61.3047 63.877L61.8042 63.3623L63.4875 65.0269C63.4076 65.1173 63.3227 65.2026 63.2377 65.2905Z" fill="#263238"/>
<path d="M71.1261 51.4991L68.8359 50.9016L69.0157 50.2036L71.3059 50.8012C71.2535 51.0347 71.1911 51.2681 71.1261 51.4991Z" fill="#263238"/>
<path d="M71.1913 35.2424L68.9111 35.8751L68.7188 35.1771L71.0015 34.5444C71.0689 34.7754 71.1338 35.0114 71.1913 35.2424Z" fill="#263238"/>
<path d="M68.237 49.227L39.1562 44.5722L39.7656 41.5493L68.4018 48.406L68.237 49.227Z" fill="#FBFBFD"/>
<path d="M41.0544 21.0797L42.5928 45.0644L39.5234 45.0443L40.2227 21.0747L41.0544 21.0797Z" fill="#263238"/>
<path d="M30.8359 57.6858L40.5736 41.1328L43.1061 42.8727L31.5227 58.1578L30.8359 57.6858Z" fill="#263238"/>
<path d="M40.9762 44.3187C41.5541 44.3143 42.0191 43.8398 42.0148 43.2588C42.0104 42.6778 41.5384 42.2104 40.9605 42.2148C40.3826 42.2191 39.9176 42.6936 39.9219 43.2746C39.9263 43.8556 40.3983 44.323 40.9762 44.3187Z" fill="#FBFBFD"/>
</g>
<defs>
<clipPath id="clip0_5389_146685">
<rect width="82" height="81" fill="white"/>
</clipPath>
</defs>
</svg>
