<svg width="149" height="121" viewBox="0 0 149 121" fill="none" xmlns="http://www.w3.org/2000/svg">
<g opacity="0.8">
<path d="M28.8955 70.6969C24.9505 71.4366 21.0054 70.2038 17.8 67.4915C13.3618 63.5465 11.1427 56.396 11.8824 48.999C12.3755 44.5607 13.8549 41.3554 16.8137 39.3828C21.2519 36.1774 27.1696 37.6568 27.4161 37.9034L26.1833 42.8348C26.1833 42.8348 22.4848 41.8485 19.7725 43.5745C18.2931 44.8073 17.5534 46.7798 17.3069 49.4921C16.8137 55.4097 18.2931 60.8342 21.4985 63.793C22.7313 65.0259 24.9505 66.2587 28.1558 65.7656L28.8955 70.6969Z" fill="#E4E4E4"/>
</g>
<path d="M57.9975 38.5014C66.3591 40.1647 74.4024 35.1541 75.9627 27.3101C77.523 19.466 72.0094 11.7588 63.6478 10.0956C55.2862 8.43231 47.2429 13.4429 45.6826 21.2869C44.1223 29.131 49.6359 36.8382 57.9975 38.5014Z" fill="#FFF9EA"/>
<path d="M34.3963 3.36806C24.8792 3.30955 17.3026 10.5361 17.4734 19.5089C17.6442 28.4816 25.4977 35.8033 35.0147 35.8618C44.5318 35.9203 52.1084 28.6937 51.9376 19.7208C51.7668 10.748 43.9134 3.42657 34.3963 3.36806Z" fill="#FFF9EA"/>
<path d="M71.8811 27.7946L23.4844 27.4971L24.89 101.351L73.2867 101.649L71.8811 27.7946Z" fill="#FCE29A"/>
<path d="M52.4678 86.447C52.515 88.9288 54.6873 90.9539 57.3196 90.9701C59.952 90.9863 62.0477 88.9874 62.0005 86.5056L61.243 46.7054C61.1957 44.2234 59.0234 42.1984 56.3911 42.1823C53.7587 42.1661 51.663 44.1648 51.7102 46.6468L52.4678 86.447Z" fill="#E3BE2C"/>
<path d="M35.9756 86.3434C36.0228 88.8253 38.1951 90.8504 40.8275 90.8666C43.4598 90.8828 45.5555 88.8839 45.5083 86.4021L44.7508 46.6019C44.7035 44.1199 42.5312 42.0949 39.8989 42.0787C37.2666 42.0626 35.1708 44.0613 35.218 46.5433L35.9756 86.3434Z" fill="#E3BE2C"/>
<g opacity="0.8">
<path d="M122.744 74.7536C125.631 75.2949 128.518 74.3927 130.864 72.4078C134.112 69.5208 135.736 64.2879 135.194 58.8746C134.833 55.6266 133.751 53.2808 131.585 51.8373C128.337 49.4915 124.007 50.5742 123.826 50.7546L124.729 54.3635C124.729 54.3635 127.435 53.6417 129.42 54.9048C130.503 55.807 131.044 57.2506 131.225 59.2355C131.585 63.5661 130.503 67.5359 128.157 69.7012C127.255 70.6034 125.631 71.5056 123.285 71.1447L122.744 74.7536Z" fill="#E4E4E4"/>
</g>
<path d="M115.303 53.7065C121.002 54.8401 126.484 51.4253 127.547 46.0794C128.61 40.7335 124.853 35.4809 119.154 34.3474C113.456 33.2138 107.974 36.6286 106.911 41.9745C105.847 47.3204 109.605 52.573 115.303 53.7065Z" fill="#FFF9EA"/>
<path d="M99.2143 29.7619C92.7282 29.7221 87.5647 34.6471 87.6811 40.7622C87.7975 46.8773 93.1497 51.8672 99.6358 51.907C106.122 51.9469 111.285 47.0218 111.169 40.9066C111.053 34.7915 105.7 29.8018 99.2143 29.7619Z" fill="#FFF9EA"/>
<path d="M124.765 46.4088L91.7812 46.2061L92.7392 96.5393L125.723 96.742L124.765 46.4088Z" fill="#FCE29A"/>
<path d="M111.53 86.3822C111.562 88.0737 113.043 89.4538 114.837 89.4649C116.631 89.4759 118.059 88.1136 118.027 86.4222L117.511 59.2976C117.479 57.6061 115.998 56.226 114.204 56.215C112.41 56.2039 110.982 57.5661 111.014 59.2576L111.53 86.3822Z" fill="#E3BE2C"/>
<path d="M100.288 86.311C100.32 88.0024 101.801 89.3825 103.595 89.3936C105.389 89.4046 106.817 88.0423 106.785 86.3509L106.269 59.2263C106.236 57.5348 104.756 56.1547 102.962 56.1437C101.168 56.1327 99.7396 57.4948 99.7718 59.1863L100.288 86.311Z" fill="#E3BE2C"/>
<g clip-path="url(#clip0_5389_146888)">
<path d="M2.2173 110.644L23.3516 65.4546L21.2713 110.644H2.2173Z" fill="#116ABA"/>
<path d="M148.203 118.318L18.8833 120.02L23.3501 65.4416L138.848 65.0195L148.203 118.318Z" fill="#4090E7"/>
<path d="M47.6551 98.4929C47.8584 98.8769 48.0843 99.2485 48.3316 99.6057C48.574 99.9511 48.8676 100.322 49.2122 100.744C48.5488 100.841 47.8787 100.883 47.2085 100.872C46.6623 100.859 46.1225 100.75 45.6132 100.552C45.1174 100.36 44.7059 99.9971 44.4519 99.529L43.5713 97.6615L42.1801 94.7453C41.6952 93.7305 41.3123 92.9204 41.0315 92.315H40.5849L38.9513 100.757H35.3906L38.7216 83.5534H44.1583C45.6566 83.3934 47.16 83.8043 48.3698 84.7046C48.7579 85.0974 49.0382 85.5841 49.1836 86.1174C49.3289 86.6508 49.3343 87.2127 49.1994 87.7487C49.0387 88.801 48.5676 89.781 47.8466 90.5627C46.9746 91.4715 45.8158 92.05 44.5667 92.1999C45.0942 93.3085 45.6813 94.5108 46.3279 95.8069C46.9745 97.103 47.4169 97.9984 47.6551 98.4929ZM41.9887 85.229L40.8656 91.0359C41.964 91.0637 43.0479 90.78 43.9924 90.2174C44.8123 89.7483 45.4305 88.9921 45.7281 88.0941C45.8641 87.7558 45.9166 87.3896 45.8811 87.0266C45.8455 86.6636 45.7229 86.3145 45.5238 86.0092C45.3321 85.753 45.0806 85.5479 44.7913 85.4119C44.5021 85.2759 44.1839 85.2131 43.8648 85.229H41.9887Z" fill="white"/>
<path d="M57.4757 99.1324C58.2762 99.1957 59.0814 99.1656 59.875 99.0428V99.2731C59.2159 99.807 58.4801 100.238 57.6926 100.552C56.8218 100.846 55.9053 100.98 54.987 100.949C52.8855 100.949 51.5158 100.39 50.8776 99.2731C50.1894 97.6537 50.0857 95.8446 50.5841 94.1568C50.8378 92.2688 51.6261 90.4932 52.8558 89.0405C53.4884 88.4419 54.2382 87.9816 55.0576 87.6888C55.8771 87.3959 56.7483 87.277 57.6161 87.3394C59.8707 87.3394 61.2874 87.9831 61.8659 89.2707L53.2514 96.2545C53.2971 96.6638 53.4138 97.062 53.596 97.4312C54.003 98.0797 54.6502 98.5398 55.3954 98.7103C56.0744 98.915 56.7708 99.0563 57.4757 99.1324ZM54.4894 89.5266C53.9833 90.0666 53.6692 90.7591 53.596 91.4964C53.4034 92.4188 53.2881 93.3557 53.2514 94.2975C53.2514 94.63 53.2514 94.937 53.2514 95.2056L58.7902 90.5115C58.3604 90.0828 57.8291 89.7703 57.246 89.6033C56.7609 89.4494 56.26 89.3507 55.7528 89.3091C55.3221 89.2332 54.8784 89.3005 54.4894 89.501V89.5266Z" fill="white"/>
<path d="M67.9697 92.7364L69.4884 94.5015C70.0159 95.1154 70.4413 95.6484 70.7647 96.1003C71.0535 96.4232 71.2499 96.8183 71.3331 97.2439C71.4162 97.6694 71.383 98.1096 71.2369 98.5178C71.022 99.1931 70.5681 99.7664 69.9606 100.129C69.3434 100.485 68.6701 100.731 67.9697 100.858C67.1838 101.014 66.3843 101.091 65.5832 101.089C64.839 101.181 64.0835 101.09 63.3828 100.822C62.682 100.554 62.0573 100.119 61.5631 99.5538L61.4609 99.4003L63.7199 96.9829C64.389 97.7867 65.237 98.422 66.1958 98.8376L67.1529 99.1061C67.5078 99.1968 67.8716 99.2483 68.2377 99.2596C68.3771 99.2749 68.5183 99.2612 68.6522 99.2194C68.7862 99.1776 68.9101 99.1085 69.0162 99.0166C69.1524 98.829 69.0418 98.5433 68.6844 98.1596C68.2633 97.7026 67.8113 97.2752 67.3316 96.8805C66.9402 96.548 66.5871 96.2282 66.2723 95.9212C65.316 94.9651 64.4369 93.9343 63.6433 92.8387C63.3873 92.4558 63.223 92.0187 63.1632 91.5617C63.1035 91.1046 63.1498 90.64 63.2987 90.2038C63.495 89.4825 63.9492 88.8587 64.5749 88.4515C65.7712 87.7752 67.1338 87.4515 68.5057 87.5177C69.2474 87.5067 69.9828 87.655 70.6625 87.9527C71.2877 88.2303 71.8484 88.6354 72.3088 89.1422L70.2925 91.4573C70.0154 91.1578 69.7122 90.8838 69.3863 90.6387C68.9846 90.3379 68.5576 90.0725 68.1101 89.8457C67.6675 89.603 67.1957 89.4182 66.7062 89.2957C66.4558 89.2252 66.1909 89.2252 65.9405 89.2957C65.8703 89.3204 65.8075 89.3628 65.7584 89.4188C65.7092 89.4748 65.6753 89.5425 65.6598 89.6154C65.6598 89.8457 65.8384 90.2166 66.2723 90.7538C66.7062 91.291 67.1912 91.8282 67.7145 92.4038L67.9697 92.7364Z" fill="white"/>
<path d="M80.7413 99.1324C81.5419 99.1957 82.347 99.1656 83.1406 99.0428V99.2731C82.4815 99.807 81.7458 100.238 80.9583 100.552C80.0875 100.846 79.171 100.98 78.2528 100.949C76.1512 100.949 74.7814 100.39 74.1433 99.2731C73.4551 97.6537 73.3513 95.8446 73.8498 94.1568C74.1034 92.2688 74.8917 90.4932 76.1214 89.0405C76.754 88.4419 77.5038 87.9816 78.3232 87.6888C79.1427 87.3959 80.014 87.277 80.8818 87.3394C83.1364 87.3394 84.553 87.9831 85.1315 89.2707L76.517 96.2545C76.5628 96.6638 76.6794 97.062 76.8616 97.4312C77.2686 98.0797 77.9159 98.5398 78.6612 98.7103C79.3401 98.915 80.0364 99.0563 80.7413 99.1324ZM77.755 89.5266C77.2489 90.0666 76.9349 90.7591 76.8616 91.4964C76.669 92.4188 76.5537 93.3557 76.517 94.2975C76.517 94.63 76.517 94.937 76.517 95.2056L82.0559 90.5115C81.626 90.0828 81.0947 89.7703 80.5116 89.6033C80.0265 89.4494 79.5256 89.3507 79.0185 89.3091C78.5877 89.2332 78.144 89.3005 77.755 89.501V89.5266Z" fill="white"/>
<path d="M90.3521 89.3087C92.3175 87.3986 94.3424 87.0958 96.4269 88.4005L93.951 90.5621C93.8522 90.3323 93.7018 90.1284 93.5114 89.9665C93.321 89.8045 93.0959 89.6888 92.8535 89.6284C92.5931 89.5497 92.3184 89.5296 92.0493 89.5694C91.7802 89.6092 91.5232 89.7079 91.2965 89.8587C90.8593 90.1513 90.5001 90.5465 90.25 91.0098C89.941 91.6356 89.7259 92.3036 89.6119 92.9924L88.1059 100.731H84.8516L87.3274 87.94L90.6711 87.4668L90.3521 89.3087Z" fill="white"/>
<path d="M101.842 97.6991L106.538 87.9526H108.338L102.199 100.743H98.8937L97.7578 87.9526H100.961L101.842 97.6991Z" fill="white"/>
<path d="M115.249 99.1324C116.05 99.1957 116.855 99.1656 117.648 99.0428V99.2731C116.989 99.807 116.254 100.238 115.466 100.552C114.595 100.846 113.679 100.98 112.761 100.949C110.659 100.949 109.289 100.39 108.651 99.2731C107.963 97.6537 107.859 95.8446 108.358 94.1568C108.611 92.2688 109.4 90.4932 110.629 89.0405C111.262 88.4419 112.012 87.9816 112.831 87.6888C113.651 87.3959 114.522 87.277 115.39 87.3394C117.644 87.3394 119.061 87.9831 119.639 89.2707L111.025 96.2545C111.071 96.6638 111.187 97.062 111.369 97.4312C111.776 98.0797 112.424 98.5398 113.169 98.7103C113.848 98.915 114.544 99.0563 115.249 99.1324ZM112.263 89.5266C111.757 90.0666 111.443 90.7591 111.369 91.4964C111.177 92.4188 111.062 93.3557 111.025 94.2975C111.025 94.63 111.025 94.937 111.025 95.2056L116.564 90.5115C116.134 90.0828 115.603 89.7703 115.019 89.6033C114.534 89.4494 114.033 89.3507 113.526 89.3091C113.095 89.2332 112.652 89.3005 112.263 89.501V89.5266Z" fill="white"/>
<path d="M129.142 83.5021L132.486 83.0288L129.053 100.731H125.798L125.964 99.8997C124.898 100.669 123.616 101.081 122.301 101.077C121.821 101.028 121.36 100.861 120.959 100.591C120.559 100.321 120.23 99.9562 120.004 99.5288C119.598 98.6493 119.418 97.6819 119.481 96.7148C119.518 95.7661 119.625 94.8213 119.8 93.8881C120.003 92.9361 120.343 92.0184 120.808 91.1637C121.29 90.2142 121.924 89.3501 122.684 88.6056C122.986 88.28 123.348 88.0174 123.751 87.833C124.154 87.6486 124.59 87.546 125.032 87.5311C125.578 87.5406 126.118 87.6444 126.628 87.8381C127.16 88.0262 127.677 88.2572 128.172 88.5288L129.142 83.5021ZM124.037 99.7334C124.752 99.6541 125.447 99.4508 126.092 99.1323L127.917 89.7184C127.52 89.4252 127.044 89.2601 126.551 89.2451C126.251 89.262 125.958 89.3412 125.69 89.4777C125.422 89.6142 125.185 89.805 124.994 90.0381C124.472 90.5977 124.041 91.2366 123.718 91.9311C123.399 92.5764 123.163 93.2598 123.016 93.9649L122.914 94.5149C122.761 95.2141 122.633 95.9687 122.531 96.7788C122.417 97.4788 122.46 98.1956 122.659 98.8765C122.739 99.1611 122.922 99.406 123.172 99.5641C123.421 99.7222 123.72 99.7825 124.011 99.7334H124.037Z" fill="white"/>
</g>
<defs>
<clipPath id="clip0_5389_146888">
<rect width="146" height="55" fill="white" transform="matrix(-1 0 0 1 148.203 65.0195)"/>
</clipPath>
</defs>
</svg>
