<svg width="148" height="50" viewBox="0 0 148 50" fill="none" xmlns="http://www.w3.org/2000/svg">
<path d="M40.8592 13.7924C41.1669 13.3213 41.0313 12.6917 40.5563 12.3861C40.1328 12.1138 39.6898 11.8566 39.2396 11.6218C38.1177 11.0363 36.9259 10.5859 35.6976 10.2667C35.4586 8.1425 33.5982 6.4834 31.3441 6.4834C29.0746 6.4834 27.2035 8.1649 26.9851 10.3098C23.997 11.1224 21.3392 12.7319 19.2589 14.8958C17.2462 14.1423 14.9123 14.9255 13.8448 16.8076C12.769 18.7044 13.3528 21.0557 15.1188 22.2919C14.7931 23.5876 14.6028 25.013 14.6028 26.4056C14.6028 27.8279 14.7979 29.2652 15.137 30.585C14.3288 31.1427 13.7428 31.9423 13.4686 32.8808C13.1497 33.9721 13.2883 35.1185 13.8589 36.1087C14.4295 37.099 15.3639 37.8144 16.4898 38.1235C16.8862 38.2324 17.2893 38.2863 17.6902 38.2863C18.2467 38.2863 18.7981 38.1819 19.3196 37.9772C19.879 38.5532 20.4876 39.0797 21.1248 39.5712L22.4092 37.9947C21.9207 37.6196 21.4509 37.2216 21.0136 36.79C22.1656 35.4774 22.4252 33.558 21.5086 31.9673C20.938 30.977 20.0037 30.2616 18.8778 29.9525C18.2789 29.788 17.6656 29.7572 17.0681 29.8402C16.8035 28.7441 16.6519 27.581 16.6519 26.4056C16.6519 25.2643 16.8064 24.1214 17.0566 23.0542C17.2623 23.0832 17.4693 23.1018 17.6776 23.1018C18.0879 23.1018 18.5008 23.0452 18.906 22.9312C20.0296 22.6147 20.959 21.8931 21.5227 20.8991C22.0865 19.9054 22.2173 18.758 21.8908 17.669C21.7105 17.0671 21.3986 16.526 20.9861 16.0672C22.7202 14.3439 24.875 13.04 27.2921 12.3392C27.9478 13.8845 29.5161 14.976 31.3441 14.976C33.1883 14.976 34.7667 13.8645 35.4118 12.2974C36.4068 12.5734 37.3731 12.9453 38.2858 13.4215C38.6813 13.6281 39.0705 13.854 39.4422 14.093C39.9167 14.3984 40.551 14.2636 40.8592 13.7924ZM17.6797 31.3156C17.9366 31.3156 18.195 31.3501 18.4488 31.4199C19.1706 31.618 19.7691 32.0765 20.1348 32.711C20.8896 34.021 20.4043 35.682 19.0527 36.4136C18.3978 36.7688 17.6408 36.8547 16.9187 36.6561C16.197 36.458 15.5984 35.9995 15.2327 35.365C14.4779 34.055 14.9633 32.394 16.3148 31.6624C16.7392 31.4326 17.2066 31.3156 17.6797 31.3156ZM20.1438 20.1643C19.7824 20.8013 19.1869 21.2638 18.467 21.4666C17.7471 21.6692 16.9884 21.5885 16.3312 21.238C15.674 20.8877 15.1969 20.3105 14.9879 19.6125C14.7786 18.9147 14.8624 18.1794 15.2237 17.5424C15.7345 16.6422 16.697 16.1329 17.6887 16.1329C18.1453 16.1329 18.6086 16.2411 19.0363 16.469C19.6936 16.8192 20.1707 17.3964 20.3797 18.0942C20.5889 18.7923 20.5052 19.5273 20.1438 20.1643ZM31.3441 13.4508C29.7961 13.4508 28.5368 12.2302 28.5368 10.7298C28.5368 9.22946 29.7961 8.0086 31.3441 8.0086C32.8921 8.0086 34.1514 9.22946 34.1514 10.7298C34.1514 12.2302 32.8921 13.4508 31.3441 13.4508Z" fill="black"/>
<path d="M31.4196 18.168C26.8697 18.168 23.168 21.8417 23.168 26.3573C23.168 29.0548 24.4948 31.4446 26.5286 32.9376L27.8158 31.3575C26.2455 30.2395 25.2171 28.4172 25.2171 26.3573C25.2171 22.963 27.9995 20.2016 31.4196 20.2016C34.8397 20.2016 37.6221 22.963 37.6221 26.3573C37.6221 28.4294 36.582 30.2617 34.996 31.3779L36.2832 32.9579C38.3326 31.4665 39.6712 29.067 39.6712 26.3573C39.6712 21.8417 35.9695 18.168 31.4196 18.168Z" fill="black"/>
<path d="M26.988 10.31C27.1394 8.82245 28.0866 7.55912 29.4095 6.92368C27.4747 6.10286 25.348 5.64209 23.1104 5.64209C14.2366 5.64209 7.04297 12.7814 7.04297 21.5881C7.04297 26.7334 9.49983 31.3074 13.3113 34.2229L13.3113 34.2212C13.3022 34.0109 13.3098 33.7999 13.3334 33.5888C13.3369 33.5561 13.3424 33.5237 13.3466 33.4909C13.37 33.3191 13.4029 33.148 13.4483 32.9778C13.4567 32.9457 13.4584 32.913 13.4675 32.881C13.7395 31.9279 14.3314 31.1438 15.1398 30.5852C14.796 29.2572 14.6056 27.8387 14.6056 26.4058C14.6056 24.9969 14.7889 23.5998 15.1216 22.2921C13.3662 21.0637 12.7961 18.7716 13.8547 16.8605C14.651 15.4229 16.0906 14.6355 17.6987 14.6128C18.2231 14.6055 18.7527 14.7054 19.2618 14.896C21.3421 12.7321 23.9998 11.1226 26.988 10.31Z" fill="#4090E7"/>
<path d="M32.1972 27.9388C31.8084 27.4612 30.9925 27.4612 30.6038 27.9388L19.1888 41.9506C18.8331 42.3873 18.9014 43.0275 19.3413 43.3805C19.7816 43.7337 20.4267 43.6652 20.7821 43.2291L31.4005 30.1953L42.0189 43.2291C42.2212 43.4776 42.5174 43.6066 42.8163 43.6066C43.0424 43.6066 43.27 43.5327 43.4596 43.3805C43.8996 43.0275 43.9679 42.3873 43.6122 41.9506L32.1972 27.9388Z" fill="#4090E7"/>
<path d="M43.1618 22.5616C43.7861 22.9107 44.484 23.0852 45.2569 23.0852C46.0388 23.0852 46.7547 22.9107 47.4036 22.5616C48.0519 22.2128 48.5647 21.7188 48.9409 21.0799C49.3171 20.4411 49.5057 19.7088 49.5057 18.8832C49.5057 18.0575 49.3221 17.3254 48.9559 16.6862C48.5892 16.0475 48.0889 15.5562 47.4556 15.2119C46.8213 14.8681 46.1134 14.6958 45.331 14.6958C44.5485 14.6958 43.8402 14.8681 43.2063 15.2119C42.5725 15.5562 42.0722 16.0475 41.706 16.6862C41.3398 17.3254 41.1562 18.0575 41.1562 18.8832C41.1562 19.7188 41.3348 20.4533 41.6915 21.0873C42.0477 21.7213 42.538 22.2128 43.1618 22.5616ZM43.2063 17.3868C43.4245 16.9789 43.7191 16.6716 44.0903 16.4653C44.462 16.2587 44.8652 16.1555 45.3014 16.1555C45.7372 16.1555 46.1429 16.2587 46.5196 16.4653C46.8958 16.6716 47.198 16.9789 47.4256 17.3868C47.6532 17.7946 47.7673 18.2933 47.7673 18.8832C47.7673 19.4727 47.6487 19.9742 47.4106 20.387C47.1729 20.7998 46.8633 21.1094 46.4821 21.3157C46.1009 21.5222 45.6922 21.6255 45.2569 21.6255C44.5736 21.6255 44.0063 21.3872 43.5555 20.9103C43.1048 20.4337 42.8797 19.758 42.8797 18.8832C42.8797 18.2933 42.9887 17.7946 43.2063 17.3868Z" fill="black"/>
<path d="M52.8775 19.4585L55.9081 22.9528H58.1958L54.4223 18.8982L58.1958 14.829H55.8486L52.8775 18.3821V12.0425H51.1836V22.9528H52.8775V19.4585Z" fill="black"/>
<path d="M63.3798 22.9528V21.5522H62.3398C61.9931 21.5522 61.748 21.4857 61.6044 21.3531C61.4608 21.2203 61.3893 21.0018 61.3893 20.697V16.2001H63.3798V14.829H61.3893V12.8091H59.6809V14.829H58.7148V16.2001H59.6809V20.697C59.6809 21.4931 59.8835 22.068 60.2897 22.422C60.6959 22.7758 61.2802 22.9528 62.0426 22.9528H63.3798Z" fill="black"/>
<path d="M72.1753 21.0799C72.5515 20.4411 72.7401 19.7088 72.7401 18.8832C72.7401 18.0575 72.5565 17.3254 72.1903 16.6862C71.8236 16.0475 71.3233 15.5562 70.69 15.2119C70.0556 14.8681 69.3478 14.6958 68.5653 14.6958C67.7829 14.6958 67.0745 14.8681 66.4407 15.2119C65.8069 15.5562 65.3066 16.0475 64.9404 16.6862C64.5742 17.3254 64.3906 18.0575 64.3906 18.8832C64.3906 19.7188 64.5692 20.4533 64.9259 21.0873C65.2821 21.7213 65.7724 22.2128 66.3962 22.5616C67.0205 22.9107 67.7184 23.0852 68.4913 23.0852C69.2732 23.0852 69.9891 22.9107 70.6379 22.5616C71.2863 22.2128 71.7991 21.7188 72.1753 21.0799ZM70.6449 20.387C70.4073 20.7998 70.0977 21.1094 69.7164 21.3157C69.3352 21.5222 68.9265 21.6255 68.4913 21.6255C67.8079 21.6255 67.2406 21.3872 66.7899 20.9103C66.3392 20.4337 66.114 19.758 66.114 18.8832C66.114 18.2933 66.2231 17.7946 66.4407 17.3868C66.6588 16.9789 66.9535 16.6716 67.3247 16.4653C67.6964 16.2587 68.0996 16.1555 68.5358 16.1555C68.9716 16.1555 69.3773 16.2587 69.754 16.4653C70.1302 16.6716 70.4323 16.9789 70.66 17.3868C70.8876 17.7946 71.0016 18.2933 71.0016 18.8832C71.0016 19.4727 70.8831 19.9742 70.6449 20.387Z" fill="black"/>
<path d="M80.9249 15.2123C80.3406 14.8685 79.6868 14.6962 78.9639 14.6962C78.3496 14.6962 77.7928 14.8216 77.2925 15.0723C76.7922 15.323 76.399 15.645 76.1119 16.038V12.0425H74.418V22.9528H76.1119V21.7734C76.399 22.1566 76.7877 22.4712 77.278 22.7169C77.7682 22.9624 78.33 23.0856 78.9639 23.0856C79.6773 23.0856 80.3281 22.9063 80.9174 22.5474C81.5067 22.1887 81.97 21.6872 82.3067 21.0435C82.6433 20.3998 82.8114 19.67 82.8114 18.854C82.8114 18.0383 82.6433 17.3134 82.3067 16.6794C81.97 16.0454 81.5092 15.5566 80.9249 15.2123ZM80.7393 20.3283C80.5062 20.7511 80.1995 21.0731 79.8183 21.294C79.4366 21.5152 79.0284 21.6259 78.5927 21.6259C78.1665 21.6259 77.7627 21.5177 77.382 21.3014C77.0003 21.0855 76.6932 20.7685 76.4606 20.3504C76.2279 19.9329 76.1119 19.4438 76.1119 18.8836C76.1119 18.3233 76.2279 17.8367 76.4606 17.4239C76.6932 17.0111 77.0003 16.6965 77.382 16.4803C77.7627 16.2641 78.1665 16.1559 78.5927 16.1559C79.0284 16.1559 79.4366 16.2616 79.8183 16.4729C80.1995 16.6844 80.5062 16.9939 80.7393 17.4018C80.9719 17.8097 81.0885 18.2937 81.0885 18.854C81.0885 19.4143 80.9719 19.9058 80.7393 20.3283Z" fill="black"/>
<path d="M90.076 15.1973C89.4717 14.8631 88.7834 14.6958 88.0109 14.6958C87.209 14.6958 86.4981 14.8681 85.8793 15.2119C85.26 15.5562 84.7797 16.045 84.4381 16.679C84.0964 17.313 83.9258 18.0478 83.9258 18.8832C83.9258 19.7188 84.1014 20.4533 84.4531 21.0873C84.8042 21.7213 85.29 22.2128 85.9088 22.5616C86.5277 22.9107 87.2285 23.0852 88.0109 23.0852C88.9715 23.0852 89.7764 22.8469 90.4252 22.37C91.0736 21.8934 91.5218 21.2814 91.7694 20.5345H89.9425C89.5658 21.2914 88.9219 21.6697 88.0109 21.6697C87.3771 21.6697 86.8423 21.4731 86.4066 21.0799C85.9709 20.6869 85.7282 20.1658 85.6787 19.5172H91.933C91.9725 19.2714 91.9926 18.9961 91.9926 18.6915C91.9926 17.9051 91.824 17.2098 91.4873 16.6053C91.1506 16.0008 90.6799 15.5314 90.076 15.1973ZM85.6937 18.1608C85.7728 17.5317 86.0204 17.0328 86.4361 16.6641C86.8523 16.2957 87.3521 16.1113 87.9369 16.1113C88.5802 16.1113 89.12 16.2982 89.5563 16.6716C89.9915 17.0452 90.2146 17.5414 90.2246 18.1608H85.6937Z" fill="black"/>
<path d="M95.3501 18.6766C95.3501 17.851 95.5207 17.2713 95.8624 16.9369C96.2041 16.6028 96.7069 16.4357 97.3702 16.4357H97.8009V14.6958C97.2366 14.6958 96.7489 14.8115 96.3377 15.0423C95.927 15.2735 95.5973 15.5952 95.3501 16.008V14.8286H93.6562V22.9524H95.3501V18.6766Z" fill="black"/>
<path d="M101.275 14.2538C101.275 13.7819 101.38 13.4503 101.588 13.2586C101.795 13.067 102.157 12.9711 102.672 12.9711V11.5703C101.602 11.5703 100.817 11.7843 100.317 12.2118C99.8172 12.6392 99.5671 13.3202 99.5671 14.2538V14.8287H98.6016V16.1998H99.5671V22.9525H101.275V16.1998H102.791V14.8287H101.275V14.2538Z" fill="black"/>
<path d="M109.877 15.1973C109.273 14.8631 108.584 14.6958 107.812 14.6958C107.01 14.6958 106.299 14.8681 105.68 15.2119C105.061 15.5562 104.581 16.045 104.239 16.679C103.897 17.313 103.727 18.0478 103.727 18.8832C103.727 19.7188 103.902 20.4533 104.254 21.0873C104.605 21.7213 105.091 22.2128 105.71 22.5616C106.328 22.9107 107.029 23.0852 107.812 23.0852C108.772 23.0852 109.577 22.8469 110.226 22.37C110.874 21.8934 111.323 21.2814 111.57 20.5345H109.743C109.367 21.2914 108.723 21.6697 107.812 21.6697C107.178 21.6697 106.643 21.4731 106.207 21.0799C105.772 20.6869 105.529 20.1658 105.479 19.5172H111.734C111.773 19.2714 111.793 18.9961 111.793 18.6915C111.793 17.9051 111.625 17.2098 111.288 16.6053C110.951 16.0008 110.481 15.5314 109.877 15.1973ZM105.495 18.1608C105.574 17.5317 105.821 17.0328 106.237 16.6641C106.653 16.2957 107.153 16.1113 107.738 16.1113C108.381 16.1113 108.921 16.2982 109.357 16.6716C109.792 17.0452 110.015 17.5414 110.025 18.1608H105.495Z" fill="black"/>
<path d="M118.144 18.7136C117.763 18.5513 117.275 18.3916 116.681 18.2345C116.235 18.1067 115.899 18.0009 115.671 17.9175C115.443 17.8341 115.25 17.7184 115.092 17.571C114.933 17.4235 114.854 17.2418 114.854 17.0253C114.854 16.7503 114.973 16.5293 115.21 16.362C115.448 16.1949 115.79 16.1113 116.235 16.1113C116.691 16.1113 117.053 16.2195 117.32 16.4357C117.588 16.652 117.736 16.9419 117.766 17.3056H119.459C119.42 16.4998 119.115 15.8633 118.546 15.3963C117.976 14.9294 117.226 14.6958 116.295 14.6958C115.671 14.6958 115.119 14.7991 114.639 15.0056C114.158 15.2119 113.789 15.4946 113.532 15.8534C113.274 16.2123 113.146 16.6078 113.146 17.0402C113.146 17.571 113.287 17.9984 113.569 18.3229C113.851 18.6473 114.185 18.8881 114.572 19.0453C114.958 19.2027 115.458 19.3648 116.072 19.5318C116.706 19.7088 117.169 19.8709 117.461 20.0184C117.753 20.1658 117.899 20.392 117.899 20.6966C117.899 20.9818 117.768 21.2152 117.506 21.3969C117.243 21.5788 116.874 21.6697 116.399 21.6697C115.943 21.6697 115.565 21.5543 115.262 21.3231C114.96 21.0923 114.795 20.8048 114.765 20.4607H113.012C113.032 20.9523 113.19 21.3969 113.487 21.7951C113.785 22.193 114.188 22.5078 114.698 22.7386C115.208 22.9695 115.785 23.0852 116.429 23.0852C117.062 23.0852 117.615 22.9819 118.085 22.7754C118.556 22.5691 118.919 22.2841 119.177 21.9204C119.435 21.5567 119.563 21.1439 119.563 20.6819C119.553 20.1609 119.41 19.7433 119.132 19.4286C118.855 19.1143 118.526 18.8757 118.144 18.7136Z" fill="black"/>
<path d="M125.356 16.2001V14.829H123.366V12.8091H121.657V14.829H120.691V16.2001H121.657V20.697C121.657 21.4931 121.86 22.068 122.266 22.422C122.672 22.7758 123.257 22.9528 124.019 22.9528H125.356V21.5522H124.316C123.97 21.5522 123.725 21.4857 123.581 21.3531C123.437 21.2203 123.366 21.0018 123.366 20.697V16.2001H125.356Z" fill="black"/>
<path d="M48.5109 28.4306C47.9265 28.0867 47.2727 27.9145 46.5498 27.9145C45.9355 27.9145 45.3787 28.0398 44.8784 28.2905C44.3782 28.5413 43.985 28.8632 43.6978 29.2562V25.2607H42.0039V36.171H43.6978V34.9916C43.985 35.3749 44.3737 35.6894 44.8639 35.9352C45.3542 36.1807 45.916 36.3038 46.5498 36.3038C47.2632 36.3038 47.914 36.1246 48.5034 35.7656C49.0927 35.4069 49.5559 34.9055 49.8926 34.2618C50.2293 33.6181 50.3974 32.8883 50.3974 32.0723C50.3974 31.2566 50.2293 30.5317 49.8926 29.8977C49.5559 29.2637 49.0952 28.7749 48.5109 28.4306ZM48.3253 33.5466C48.0921 33.9694 47.7855 34.2913 47.4043 34.5123C47.0226 34.7334 46.6144 34.8442 46.1786 34.8442C45.7524 34.8442 45.3487 34.7359 44.968 34.5197C44.5863 34.3037 44.2791 33.9867 44.0465 33.5687C43.8139 33.1511 43.6978 32.6621 43.6978 32.1018C43.6978 31.5415 43.8139 31.055 44.0465 30.6422C44.2791 30.2293 44.5863 29.9148 44.968 29.6986C45.3487 29.4824 45.7524 29.3741 46.1786 29.3741C46.6144 29.3741 47.0226 29.4799 47.4043 29.6911C47.7855 29.9026 48.0921 30.2122 48.3253 30.6201C48.5579 31.0279 48.6744 31.512 48.6744 32.0723C48.6744 32.6326 48.5579 33.1241 48.3253 33.5466Z" fill="black"/>
<path d="M57.8267 28.4306C57.1923 28.0868 56.4845 27.9146 55.7021 27.9146C54.9196 27.9146 54.2113 28.0868 53.5774 28.4306C52.9436 28.775 52.4433 29.2662 52.0771 29.905C51.7109 30.5442 51.5273 31.2763 51.5273 32.1019C51.5273 32.9375 51.7059 33.672 52.0626 34.3061C52.4188 34.9401 52.9091 35.4316 53.5329 35.7804C54.1572 36.1294 54.8551 36.3039 55.628 36.3039C56.4099 36.3039 57.1258 36.1294 57.7747 35.7804C58.423 35.4316 58.9358 34.9376 59.312 34.2986C59.6882 33.6599 59.8768 32.9276 59.8768 32.1019C59.8768 31.2763 59.6932 30.5442 59.327 29.905C58.9603 29.2662 58.46 28.775 57.8267 28.4306ZM57.7817 33.6058C57.544 34.0186 57.2344 34.3282 56.8532 34.5344C56.472 34.741 56.0632 34.8443 55.628 34.8443C54.9447 34.8443 54.3774 34.6059 53.9266 34.1291C53.4759 33.6524 53.2508 32.9767 53.2508 32.1019C53.2508 31.5121 53.3598 31.0134 53.5774 30.6055C53.7955 30.1976 54.0902 29.8903 54.4614 29.684C54.8331 29.4775 55.2363 29.3742 55.6725 29.3742C56.1083 29.3742 56.514 29.4775 56.8907 29.684C57.2669 29.8903 57.569 30.1976 57.7967 30.6055C58.0243 31.0134 58.1384 31.5121 58.1384 32.1019C58.1384 32.6915 58.0198 33.1929 57.7817 33.6058Z" fill="black"/>
<path d="M67.3032 28.4306C66.6689 28.0868 65.961 27.9146 65.1786 27.9146C64.3962 27.9146 63.6878 28.0868 63.054 28.4306C62.4202 28.775 61.9199 29.2662 61.5537 29.905C61.1875 30.5442 61.0039 31.2763 61.0039 32.1019C61.0039 32.9375 61.1825 33.672 61.5392 34.3061C61.8954 34.9401 62.3856 35.4316 63.0095 35.7804C63.6338 36.1294 64.3317 36.3039 65.1046 36.3039C65.8865 36.3039 66.6024 36.1294 67.2512 35.7804C67.8996 35.4316 68.4123 34.9376 68.7885 34.2986C69.1647 33.6599 69.3533 32.9276 69.3533 32.1019C69.3533 31.2763 69.1697 30.5442 68.8035 29.905C68.4368 29.2662 67.9366 28.775 67.3032 28.4306ZM67.2582 33.6058C67.0206 34.0186 66.7109 34.3282 66.3297 34.5344C65.9485 34.741 65.5398 34.8443 65.1046 34.8443C64.4212 34.8443 63.8539 34.6059 63.4032 34.1291C62.9524 33.6524 62.7273 32.9767 62.7273 32.1019C62.7273 31.5121 62.8364 31.0134 63.054 30.6055C63.2721 30.1976 63.5668 29.8903 63.938 29.684C64.3097 29.4775 64.7129 29.3742 65.1491 29.3742C65.5848 29.3742 65.9906 29.4775 66.3673 29.684C66.7435 29.8903 67.0456 30.1976 67.2732 30.6055C67.5009 31.0134 67.6149 31.5121 67.6149 32.1019C67.6149 32.6915 67.4963 33.1929 67.2582 33.6058Z" fill="black"/>
<path d="M75.6962 28.0473L72.7251 31.6004V25.2607H71.0312V36.171H72.7251V32.6768L75.7558 36.171H78.0435L74.27 32.1165L78.0435 28.0473H75.6962Z" fill="black"/>
<path d="M80.9556 28.0474H79.2617V36.1711H80.9556V28.0474Z" fill="black"/>
<path d="M80.1236 24.8184C79.8165 24.8184 79.5588 24.9216 79.3507 25.1279C79.1431 25.3345 79.0391 25.5901 79.0391 25.8947C79.0391 26.1996 79.1431 26.455 79.3507 26.6613C79.5588 26.8679 79.8165 26.9709 80.1236 26.9709C80.4203 26.9709 80.6729 26.8679 80.881 26.6613C81.0891 26.455 81.1932 26.1996 81.1932 25.8947C81.1932 25.5901 81.0891 25.3345 80.881 25.1279C80.6729 24.9216 80.4203 24.8184 80.1236 24.8184Z" fill="black"/>
<path d="M89.0442 28.3127C88.5339 28.0474 87.9571 27.9146 87.3138 27.9146C86.828 27.9146 86.3703 28.0081 85.9396 28.1948C85.5088 28.3817 85.1546 28.6422 84.8775 28.9763V28.0474H83.1836V36.1711H84.8775V31.63C84.8775 30.9029 85.0631 30.3451 85.4343 29.9566C85.806 29.5686 86.3083 29.3742 86.9421 29.3742C87.5759 29.3742 88.0762 29.5686 88.4429 29.9566C88.8091 30.3451 88.9922 30.9029 88.9922 31.63V36.1711H90.6711V31.3795C90.6711 30.6422 90.5275 30.0134 90.2403 29.4921C89.9527 28.9713 89.5545 28.5781 89.0442 28.3127Z" fill="black"/>
<path d="M98.9579 29.2268C98.6802 28.8534 98.2965 28.5414 97.8063 28.2906C97.316 28.0399 96.7537 27.9146 96.1204 27.9146C95.407 27.9146 94.7556 28.0893 94.1668 28.4381C93.5775 28.7871 93.1118 29.2762 92.7701 29.905C92.4284 30.5343 92.2578 31.2566 92.2578 32.0724C92.2578 32.8883 92.4284 33.6182 92.7701 34.2619C93.1118 34.9056 93.5775 35.407 94.1668 35.7657C94.7556 36.1247 95.407 36.3039 96.1204 36.3039C96.7442 36.3039 97.3015 36.1733 97.7917 35.9132C98.2815 35.6528 98.6702 35.3308 98.9579 34.9473V36.3039C98.9579 37.0901 98.7473 37.6896 98.3265 38.1024C97.9053 38.5153 97.353 38.7218 96.6697 38.7218C96.0853 38.7218 95.5831 38.5915 95.1619 38.3311C94.7411 38.0704 94.466 37.7288 94.3374 37.3063H92.659C92.7576 38.1911 93.1738 38.8914 93.9067 39.4075C94.6396 39.9233 95.5606 40.1815 96.6697 40.1815C97.5016 40.1815 98.217 40.0142 98.8168 39.68C99.4156 39.3459 99.8739 38.8861 100.191 38.3015C100.508 37.7167 100.666 37.0506 100.666 36.3039V28.0474H98.9579V29.2268ZM98.6087 33.5688C98.3756 33.9868 98.0714 34.3038 97.6947 34.5198C97.3185 34.736 96.9123 34.8443 96.4766 34.8443C96.0508 34.8443 95.6471 34.7335 95.2659 34.5124C94.8847 34.2914 94.5775 33.9694 94.3449 33.5467C94.1123 33.1242 93.9957 32.6327 93.9957 32.0724C93.9957 31.5121 94.1123 31.028 94.3449 30.6202C94.5775 30.2123 94.8822 29.9027 95.2584 29.6912C95.6346 29.48 96.0408 29.3742 96.4766 29.3742C96.9123 29.3742 97.3185 29.4825 97.6947 29.6987C98.0714 29.9149 98.3756 30.2294 98.6087 30.6422C98.8413 31.0551 98.9579 31.5416 98.9579 32.1019C98.9579 32.6622 98.8413 33.1512 98.6087 33.5688Z" fill="black"/>
<path d="M103.581 34.1216C103.274 34.1216 103.016 34.2246 102.808 34.4311C102.6 34.6374 102.496 34.8931 102.496 35.1977C102.496 35.5026 102.6 35.758 102.808 35.9645C103.016 36.1708 103.274 36.2741 103.581 36.2741C103.878 36.2741 104.13 36.1708 104.339 35.9645C104.546 35.758 104.65 35.5026 104.65 35.1977C104.65 34.8931 104.546 34.6374 104.339 34.4311C104.13 34.2246 103.878 34.1216 103.581 34.1216Z" fill="#4090E7"/>
<path d="M109.921 29.33C110.416 29.33 110.827 29.4432 111.154 29.6691C111.481 29.8953 111.719 30.2098 111.867 30.6127H113.694C113.467 29.7481 113.028 29.082 112.38 28.6151C111.731 28.1481 110.911 27.9146 109.921 27.9146C109.139 27.9146 108.446 28.0868 107.841 28.4306C107.237 28.775 106.764 29.2638 106.422 29.8978C106.081 30.5318 105.91 31.2666 105.91 32.1019C105.91 32.9375 106.081 33.672 106.422 34.3061C106.764 34.9401 107.237 35.4316 107.841 35.7804C108.446 36.1294 109.139 36.3039 109.921 36.3039C110.892 36.3039 111.704 36.0606 112.358 35.5741C113.011 35.0875 113.457 34.4314 113.694 33.6058H111.867C111.55 34.461 110.902 34.8884 109.921 34.8884C109.228 34.8884 108.676 34.6429 108.265 34.1512C107.854 33.6599 107.648 32.9767 107.648 32.1019C107.648 31.2271 107.854 30.5464 108.265 30.0599C108.676 29.5733 109.228 29.33 109.921 29.33Z" fill="#4090E7"/>
<path d="M121.139 28.4306C120.505 28.0868 119.797 27.9146 119.015 27.9146C118.232 27.9146 117.524 28.0868 116.89 28.4306C116.256 28.775 115.756 29.2662 115.39 29.905C115.023 30.5442 114.84 31.2763 114.84 32.1019C114.84 32.9375 115.018 33.672 115.375 34.3061C115.731 34.9401 116.222 35.4316 116.845 35.7804C117.47 36.1294 118.168 36.3039 118.941 36.3039C119.722 36.3039 120.438 36.1294 121.087 35.7804C121.736 35.4316 122.248 34.9376 122.624 34.2986C123.001 33.6599 123.189 32.9276 123.189 32.1019C123.189 31.2763 123.006 30.5442 122.639 29.905C122.273 29.2662 121.773 28.775 121.139 28.4306ZM121.094 33.6058C120.857 34.0186 120.547 34.3282 120.166 34.5344C119.784 34.741 119.376 34.8443 118.941 34.8443C118.257 34.8443 117.69 34.6059 117.239 34.1291C116.788 33.6524 116.563 32.9767 116.563 32.1019C116.563 31.5121 116.672 31.0134 116.89 30.6055C117.108 30.1976 117.403 29.8903 117.774 29.684C118.146 29.4775 118.549 29.3742 118.985 29.3742C119.421 29.3742 119.826 29.4775 120.203 29.684C120.579 29.8903 120.882 30.1976 121.109 30.6055C121.337 31.0134 121.451 31.5121 121.451 32.1019C121.451 32.6915 121.332 33.1929 121.094 33.6058Z" fill="#4090E7"/>
<path d="M137.71 29.4921C137.418 28.9713 137.017 28.5781 136.507 28.3127C135.997 28.0474 135.42 27.9146 134.776 27.9146C134.172 27.9146 133.607 28.0598 133.083 28.3497C132.558 28.6397 132.171 29.0304 131.924 29.5217C131.646 29.0009 131.25 28.6027 130.735 28.3274C130.221 28.0523 129.636 27.9146 128.982 27.9146C128.497 27.9146 128.041 28.0081 127.616 28.1948C127.19 28.3817 126.838 28.6422 126.561 28.9763V28.0474H124.867V36.1711H126.561V31.63C126.561 30.9029 126.747 30.3451 127.118 29.9566C127.49 29.5686 127.992 29.3742 128.626 29.3742C129.26 29.3742 129.76 29.5686 130.126 29.9566C130.493 30.3451 130.676 30.9029 130.676 31.63V36.1711H132.355V31.63C132.355 30.9029 132.54 30.3451 132.912 29.9566C133.283 29.5686 133.786 29.3742 134.42 29.3742C135.053 29.3742 135.553 29.5686 135.92 29.9566C136.286 30.3451 136.47 30.9029 136.47 31.63V36.1711H138.148V31.3795C138.148 30.6422 138.002 30.0134 137.71 29.4921Z" fill="#4090E7"/>
</svg>
