<svg width="156" height="35" viewBox="0 0 156 35" fill="none" xmlns="http://www.w3.org/2000/svg">
<path d="M13.6743 0H0.934993C0.350622 0 0 0.461539 0 0.923077V32.0769C0 32.5385 0.467496 33 0.934993 33H13.6743C14.2586 33 14.6093 32.6538 14.6093 32.0769V0.923077C14.7261 0.461539 14.2586 0 13.6743 0Z" fill="#4090E7"/>
<path d="M18.8164 1.03846V13.6154C18.8164 14.1923 19.167 14.5385 19.7514 14.5385H51.3074C51.7749 14.5385 52.2424 14.0769 52.2424 13.6154V1.03846C52.1255 0.461539 51.7749 0 51.1905 0H19.6345C19.167 0 18.8164 0.461539 18.8164 1.03846Z" fill="#4090E7"/>
<path d="M18.8164 19.3845V31.9614C18.8164 32.5383 19.167 32.8845 19.7514 32.8845H51.3074C51.7749 32.8845 52.2424 32.423 52.2424 31.9614V19.3845C52.2424 18.8076 51.8918 18.4614 51.3074 18.4614H19.7514C19.167 18.4614 18.8164 18.923 18.8164 19.3845Z" fill="#4090E7"/>
<path d="M65.683 14.0775C64.9818 14.0775 64.3974 13.9621 63.813 13.616C63.2287 13.2698 62.7612 12.8083 62.4105 12.116C62.0599 11.4237 61.8262 10.7314 61.8262 9.80829C61.8262 8.88522 62.0599 8.07752 62.4105 7.5006C62.7612 6.80829 63.2287 6.34675 63.813 6.0006C64.3974 5.65445 65.0986 5.53906 65.683 5.53906C66.3843 5.53906 66.9686 5.65445 67.6699 6.0006C68.3711 6.34675 68.7217 6.80829 69.0724 7.5006C69.423 8.19291 69.6567 8.88522 69.6567 9.80829C69.6567 10.7314 69.423 11.4237 69.0724 12.116C68.7217 12.8083 68.2542 13.2698 67.6699 13.616C67.0855 13.8468 66.3843 14.0775 65.683 14.0775ZM65.683 12.4621C66.0336 12.4621 66.3843 12.3468 66.7349 12.116C66.9686 11.8852 67.2024 11.5391 67.4361 11.1929C67.553 10.7314 67.6699 10.2698 67.6699 9.80829C67.6699 9.34675 67.553 8.76983 67.4361 8.42368C67.3193 7.96214 67.0855 7.73137 66.7349 7.5006C66.3843 7.26983 66.1505 7.15445 65.683 7.15445C65.3324 7.15445 64.9818 7.26983 64.6312 7.5006C64.3974 7.73137 64.1637 8.07752 63.9299 8.42368C63.813 8.76983 63.813 9.23137 63.813 9.80829C63.813 10.3852 63.9299 10.8468 64.0468 11.1929C64.1637 11.6544 64.3974 11.8852 64.748 12.116C64.9818 12.3468 65.3324 12.4621 65.683 12.4621Z" fill="black"/>
<path d="M71.5266 13.8464V2.07715H73.3966V9.34638L76.4353 5.65407H78.5391L75.7341 9.00023L79.0066 13.8464H76.9028L74.7991 10.2695L73.5135 11.7695V13.8464H71.5266Z" fill="black"/>
<path d="M83.331 14.0773C82.396 14.0773 81.6948 13.8465 81.3442 13.2696C80.9936 12.6926 80.7598 12.0003 80.7598 11.0773V7.26957H79.5911V5.76957L80.8767 5.65418L81.1104 3.11572H82.7467V5.65418H84.8504V7.15418H82.7467V10.9619C82.7467 11.4234 82.8635 11.7696 82.9804 12.0003C83.2142 12.2311 83.4479 12.3465 83.9154 12.3465C84.0323 12.3465 84.1492 12.3465 84.3829 12.3465C84.4998 12.3465 84.6167 12.2311 84.8504 12.2311L85.201 13.6157C84.9673 13.7311 84.7335 13.8465 84.4998 13.8465C84.266 13.8465 83.5648 14.0773 83.331 14.0773Z" fill="black"/>
<path d="M89.8759 14.0775C89.1746 14.0775 88.5903 13.9621 88.0059 13.616C87.4215 13.2698 86.954 12.8083 86.6034 12.116C86.2528 11.4237 86.019 10.7314 86.019 9.80829C86.019 8.88522 86.2528 8.07752 86.6034 7.5006C86.954 6.80829 87.4215 6.34675 88.0059 6.0006C88.5903 5.65445 89.2915 5.53906 89.8759 5.53906C90.5771 5.53906 91.1615 5.65445 91.8627 6.0006C92.564 6.34675 92.9146 6.80829 93.2652 7.5006C93.6159 8.19291 93.8496 8.88522 93.8496 9.80829C93.8496 10.7314 93.6159 11.4237 93.2652 12.116C92.9146 12.8083 92.4471 13.2698 91.8627 13.616C91.1615 13.8468 90.5771 14.0775 89.8759 14.0775ZM89.8759 12.4621C90.2265 12.4621 90.5771 12.3468 90.9278 12.116C91.1615 11.8852 91.3953 11.5391 91.629 11.1929C91.7459 10.7314 91.8627 10.2698 91.8627 9.80829C91.8627 9.34675 91.7459 8.76983 91.629 8.42368C91.5121 7.96214 91.2784 7.73137 90.9278 7.5006C90.5771 7.26983 90.3434 7.15445 89.8759 7.15445C89.5253 7.15445 89.1746 7.26983 88.824 7.5006C88.5903 7.73137 88.3565 8.07752 88.1228 8.42368C88.0059 8.88522 87.889 9.34675 87.889 9.80829C87.889 10.2698 88.0059 10.8468 88.1228 11.1929C88.2397 11.6544 88.4734 11.8852 88.824 12.116C89.0578 12.3468 89.4084 12.4621 89.8759 12.4621Z" fill="black"/>
<path d="M99.6934 14.0771C99.3428 14.0771 98.9922 13.9618 98.5247 13.8464C98.1741 13.6156 97.7066 13.3848 97.356 13.0387L97.2391 13.8464H95.7197V2.07715H97.7066V5.07715V6.46176C98.0572 6.11561 98.4078 5.88484 98.8753 5.76946C99.3428 5.53869 99.6934 5.53869 100.161 5.53869C100.862 5.53869 101.447 5.65407 101.914 6.00022C102.382 6.34638 102.732 6.80792 103.083 7.38484C103.317 7.96176 103.433 8.76946 103.433 9.57715C103.433 10.5002 103.317 11.3079 102.966 12.0002C102.615 12.6925 102.148 13.1541 101.68 13.5002C101.213 13.8464 100.278 14.0771 99.6934 14.0771ZM99.3428 12.4618C99.6934 12.4618 100.044 12.3464 100.395 12.1156C100.745 11.8848 100.862 11.5387 101.096 11.1925C101.213 10.731 101.33 10.2695 101.33 9.69253C101.33 9.11561 101.213 8.65407 101.096 8.30792C100.979 7.96176 100.745 7.61561 100.512 7.38484C100.278 7.15407 99.9272 7.03869 99.4597 7.03869C99.1091 7.03869 98.8753 7.15407 98.5247 7.26946C98.1741 7.38484 97.9403 7.61561 97.5897 7.96176V11.7695C97.8235 12.0002 98.1741 12.231 98.5247 12.3464C98.8753 12.4618 99.1091 12.4618 99.3428 12.4618Z" fill="black"/>
<path d="M108.693 14.0775C107.875 14.0775 107.173 13.9621 106.589 13.616C106.005 13.2698 105.42 12.8083 105.07 12.116C104.719 11.4237 104.485 10.7314 104.485 9.80829C104.485 8.88522 104.719 8.19291 105.07 7.5006C105.42 6.80829 105.888 6.34675 106.472 6.0006C107.057 5.65445 107.641 5.53906 108.342 5.53906C109.043 5.53906 109.745 5.65445 110.212 6.0006C110.68 6.34675 111.147 6.80829 111.381 7.38522C111.615 7.96214 111.732 8.65445 111.732 9.34676C111.732 9.57752 111.732 9.69291 111.732 9.80829C111.732 9.92368 111.732 10.1544 111.615 10.2698H105.888V8.76983H109.978C109.978 8.19291 109.862 7.73137 109.628 7.38522C109.394 7.03906 108.927 6.92368 108.342 6.92368C107.992 6.92368 107.758 7.03906 107.407 7.15445C107.057 7.26983 107.057 7.73137 106.823 8.07752C106.589 8.42368 106.472 9.0006 106.472 9.69291C106.472 10.3852 106.589 10.8468 106.823 11.3083C107.057 11.7698 107.29 12.0006 107.758 12.2314C108.108 12.4621 108.576 12.5775 108.927 12.5775C109.277 12.5775 109.628 12.5775 109.978 12.4621C110.329 12.3468 110.563 12.2314 110.913 12.0006L111.615 13.2698C111.264 13.5006 110.797 13.7314 110.329 13.8468C109.745 13.9621 109.277 14.0775 108.693 14.0775Z" fill="black"/>
<path d="M113.718 13.8464V5.65411H115.355L115.471 7.15411H115.588C115.822 6.57719 116.173 6.23103 116.64 5.88488C117.108 5.65411 117.458 5.42334 117.926 5.42334C118.159 5.42334 118.276 5.42334 118.51 5.42334C118.627 5.42334 118.744 5.53872 118.861 5.53872L118.51 7.15411C118.393 7.15411 118.276 7.03873 118.159 7.03873C118.043 7.03873 117.926 7.03873 117.692 7.03873C117.341 7.03873 116.991 7.15411 116.64 7.38488C116.289 7.61565 115.939 8.07719 115.705 8.65411V13.8464H113.718Z" fill="black"/>
<path d="M119.094 7.26961V5.76961L120.497 5.65422H123.886V7.15422H119.094V7.26961ZM120.38 13.8465V4.84653C120.38 4.26961 120.497 3.80807 120.614 3.34653C120.848 2.88499 121.081 2.53884 121.549 2.30807C121.899 2.0773 122.484 1.96191 123.185 1.96191C123.536 1.96191 123.769 1.96191 124.003 2.0773C124.237 2.0773 124.471 2.19268 124.704 2.30807L124.354 3.69268C123.886 3.46191 123.653 3.46191 123.302 3.46191C122.951 3.46191 122.718 3.5773 122.484 3.80807C122.25 4.03884 122.25 4.38499 122.25 4.84653V13.8465H120.38Z" fill="black"/>
<path d="M128.912 14.0775C128.094 14.0775 127.392 13.9621 126.808 13.616C126.224 13.2698 125.639 12.8083 125.289 12.116C124.938 11.4237 124.704 10.7314 124.704 9.80829C124.704 8.88522 124.938 8.19291 125.289 7.5006C125.639 6.80829 126.107 6.34675 126.691 6.0006C127.276 5.65445 127.86 5.53906 128.561 5.53906C129.262 5.53906 129.964 5.65445 130.431 6.0006C130.899 6.34675 131.366 6.80829 131.6 7.38522C131.834 7.96214 131.951 8.65445 131.951 9.34676C131.951 9.57752 131.951 9.69291 131.951 9.80829C131.951 9.92368 131.951 10.1544 131.834 10.2698H126.107V8.76983H130.197C130.197 8.19291 130.081 7.73137 129.847 7.38522C129.613 7.03906 129.146 6.92368 128.561 6.92368C128.211 6.92368 127.977 7.03906 127.626 7.15445C127.276 7.26983 127.042 7.61599 126.925 7.96214C126.691 8.30829 126.574 8.88522 126.574 9.57752C126.574 10.2698 126.691 10.7314 126.925 11.1929C127.159 11.6544 127.392 11.8852 127.86 12.116C128.211 12.3468 128.678 12.4621 129.029 12.4621C129.379 12.4621 129.73 12.4621 130.081 12.3468C130.431 12.2314 130.665 12.116 131.016 11.8852L131.717 13.1544C131.366 13.3852 130.899 13.616 130.431 13.7314C129.964 13.9621 129.496 14.0775 128.912 14.0775Z" fill="black"/>
<path d="M136.275 14.0772C135.691 14.0772 135.106 13.9618 134.522 13.731C133.938 13.5003 133.47 13.2695 133.119 12.808L133.938 11.6541C134.288 12.0003 134.639 12.1156 135.106 12.3464C135.574 12.5772 135.924 12.5772 136.275 12.5772C136.742 12.5772 137.093 12.4618 137.327 12.3464C137.561 12.1156 137.677 11.8849 137.677 11.6541C137.677 11.4233 137.561 11.1926 137.444 11.0772C137.327 10.9618 137.093 10.8464 136.859 10.731C136.626 10.6156 136.275 10.5003 136.041 10.3849C135.691 10.2695 135.223 10.0387 134.872 9.80796C134.522 9.57719 134.288 9.34642 134.054 9.00026C133.821 8.65411 133.704 8.30796 133.704 7.84642C133.704 7.15411 133.938 6.57719 134.522 6.11565C135.106 5.65411 135.807 5.42334 136.742 5.42334C137.327 5.42334 137.794 5.53872 138.262 5.65411C138.729 5.88488 139.197 6.11565 139.431 6.34642L138.612 7.38488C138.379 7.15411 138.028 7.03872 137.677 6.92334C137.327 6.80796 137.093 6.80796 136.742 6.80796C136.275 6.80796 136.041 6.92334 135.807 7.03873C135.574 7.26949 135.457 7.38488 135.457 7.61565C135.457 7.84642 135.574 7.9618 135.691 8.07719C135.807 8.19257 136.041 8.30796 136.275 8.42334C136.509 8.53873 136.859 8.65411 137.21 8.76949C137.677 8.88488 138.028 9.11565 138.379 9.34642C138.729 9.57719 139.08 9.80796 139.314 10.1541C139.547 10.5003 139.664 10.8464 139.664 11.308C139.664 11.7695 139.547 12.231 139.314 12.5772C139.08 12.9233 138.729 13.2695 138.262 13.5003C137.561 13.9618 136.976 14.0772 136.275 14.0772Z" fill="black"/>
<path d="M144.105 14.0773C143.17 14.0773 142.469 13.8465 142.119 13.2696C141.768 12.6926 141.534 12.0003 141.534 11.0773V7.26957H140.365V5.76957L141.651 5.65418L141.885 3.11572H143.521V5.65418H145.625V7.15418H143.521V10.9619C143.521 11.4234 143.638 11.7696 143.755 12.0003C143.989 12.2311 144.222 12.3465 144.69 12.3465C144.807 12.3465 144.924 12.3465 145.157 12.3465C145.274 12.3465 145.391 12.2311 145.625 12.2311L145.975 13.6157C145.742 13.7311 145.508 13.8465 145.274 13.8465C145.04 13.8465 144.456 14.0773 144.105 14.0773Z" fill="black"/>
<path d="M66.2674 31.0389C65.9168 31.0389 65.5662 30.9235 65.0987 30.8081C64.7481 30.5774 64.2806 30.3466 63.9299 30.0005L63.8131 30.9235H62.2937V19.1543H64.2806V22.1543V23.5389C64.6312 23.1928 64.9818 22.962 65.4493 22.8466C65.9168 22.6158 66.2674 22.6158 66.7349 22.6158C67.4362 22.6158 68.0205 22.7312 68.488 23.0774C68.9555 23.4235 69.3061 23.8851 69.6568 24.462C69.8905 25.0389 70.0074 25.8466 70.0074 26.6543C70.0074 27.5774 69.8905 28.3851 69.5399 29.0774C69.1893 29.7697 68.7218 30.2312 68.2543 30.5774C67.7868 30.9235 66.9687 31.0389 66.2674 31.0389ZM65.9168 29.5389C66.2674 29.5389 66.618 29.4235 66.9687 29.1928C67.3193 28.962 67.4362 28.6158 67.6699 28.2697C67.9037 27.9235 67.9037 27.3466 67.9037 26.7697C67.9037 26.1928 67.7868 25.7312 67.6699 25.3851C67.553 25.0389 67.3193 24.6928 67.0855 24.462C66.8518 24.2312 66.5012 24.1158 66.0337 24.1158C65.6831 24.1158 65.4493 24.2312 65.0987 24.3466C64.7481 24.462 64.5143 24.6928 64.1637 25.0389V28.8466C64.3974 29.0774 64.7481 29.3081 65.0987 29.4235C65.4493 29.5389 65.683 29.5389 65.9168 29.5389Z" fill="black"/>
<path d="M75.1498 31.0389C74.4486 31.0389 73.8642 30.9236 73.2798 30.5774C72.6955 30.2313 72.228 29.7697 71.8773 29.0774C71.5267 28.3851 71.293 27.6928 71.293 26.7697C71.293 25.8466 71.5267 25.039 71.8773 24.462C72.228 23.8851 72.6955 23.3082 73.2798 22.962C73.8642 22.6159 74.5654 22.5005 75.1498 22.5005C75.8511 22.5005 76.4354 22.6159 77.1367 22.962C77.721 23.3082 78.1885 23.7697 78.5392 24.462C78.8898 25.1543 79.1235 25.8466 79.1235 26.7697C79.1235 27.6928 78.8898 28.3851 78.5392 29.0774C78.1885 29.7697 77.721 30.2313 77.1367 30.5774C76.5523 30.9236 75.8511 31.0389 75.1498 31.0389ZM75.1498 29.539C75.5004 29.539 75.8511 29.4236 76.2017 29.1928C76.4354 28.962 76.6692 28.6159 76.9029 28.2697C77.0198 27.8082 77.1367 27.3466 77.1367 26.8851C77.1367 26.3082 77.0198 25.8466 76.9029 25.5005C76.786 25.039 76.5523 24.8082 76.2017 24.5774C75.8511 24.3466 75.6173 24.2313 75.1498 24.2313C74.7992 24.2313 74.4486 24.3466 74.0979 24.5774C73.8642 24.8082 73.6304 25.1543 73.3967 25.5005C73.2798 25.962 73.163 26.4236 73.163 26.8851C73.163 27.462 73.2798 27.9236 73.3967 28.2697C73.5136 28.7313 73.7473 28.962 74.0979 29.1928C74.4486 29.4236 74.7992 29.539 75.1498 29.539Z" fill="black"/>
<path d="M84.4997 31.0389C83.7984 31.0389 83.214 30.9236 82.6297 30.5774C82.0453 30.2313 81.5778 29.7697 81.2272 29.0774C80.8766 28.3851 80.6428 27.6928 80.6428 26.7697C80.6428 25.8466 80.8766 25.039 81.2272 24.462C81.5778 23.8851 82.0453 23.3082 82.6297 22.962C83.214 22.6159 83.9153 22.5005 84.4997 22.5005C85.2009 22.5005 85.7853 22.6159 86.4865 22.962C87.0709 23.3082 87.5384 23.7697 87.889 24.462C88.2396 25.1543 88.4734 25.8466 88.4734 26.7697C88.4734 27.6928 88.2396 28.3851 87.889 29.0774C87.5384 29.7697 87.0709 30.2313 86.4865 30.5774C85.9022 30.9236 85.084 31.0389 84.4997 31.0389ZM84.4997 29.539C84.8503 29.539 85.2009 29.4236 85.5515 29.1928C85.7853 28.962 86.019 28.6159 86.2528 28.2697C86.3696 27.8082 86.4865 27.3466 86.4865 26.8851C86.4865 26.3082 86.3696 25.8466 86.2528 25.5005C86.1359 25.039 85.9022 24.8082 85.5515 24.5774C85.2009 24.3466 84.9672 24.2313 84.4997 24.2313C84.149 24.2313 83.7984 24.3466 83.4478 24.5774C83.2141 24.8082 82.9803 25.1543 82.7466 25.5005C82.6297 25.962 82.5128 26.4236 82.5128 26.8851C82.5128 27.462 82.6297 27.9236 82.7466 28.2697C82.8634 28.7313 83.0972 28.962 83.4478 29.1928C83.6816 29.4236 84.0322 29.539 84.4997 29.539Z" fill="black"/>
<path d="M90.3435 30.9235V19.1543H92.2135V26.4235L95.2522 22.7312H97.356L94.551 26.0774L97.7066 30.9235H95.6028L93.4991 27.3466L92.2135 28.8466V30.9235H90.3435Z" fill="black"/>
<path d="M100.044 21.2314C99.6934 21.2314 99.4596 21.116 99.2259 20.8852C98.9921 20.6544 98.8752 20.5391 98.8752 20.1929C98.8752 19.8468 98.9921 19.616 99.2259 19.3852C99.4596 19.1544 99.6934 19.0391 100.044 19.0391C100.395 19.0391 100.628 19.1544 100.862 19.3852C101.096 19.616 101.213 19.8468 101.213 20.1929C101.213 20.5391 101.096 20.7698 100.862 21.0006C100.745 21.2314 100.395 21.2314 100.044 21.2314ZM99.109 30.9237V22.7314H101.096V30.9237H99.109V30.9237Z" fill="black"/>
<path d="M103.55 30.9234V22.7311H105.187L105.303 23.885H105.42C105.771 23.5388 106.238 23.1926 106.589 22.9619C107.057 22.7311 107.524 22.6157 108.108 22.6157C109.043 22.6157 109.628 22.8465 110.095 23.4234C110.446 24.0003 110.68 24.808 110.68 25.8465V30.9234H108.693V26.0773C108.693 25.385 108.576 24.9234 108.342 24.6926C108.108 24.4619 107.758 24.2311 107.29 24.2311C106.94 24.2311 106.589 24.3465 106.355 24.4619C106.122 24.5773 105.771 24.9234 105.42 25.2696V30.9234H103.55V30.9234Z" fill="black"/>
<path d="M115.822 34.5003C115.121 34.5003 114.536 34.3849 114.069 34.2695C113.601 34.1541 113.134 33.9234 112.9 33.5772C112.549 33.2311 112.433 32.8849 112.433 32.4234C112.433 32.0772 112.549 31.7311 112.783 31.5003C113.017 31.2695 113.251 30.9234 113.601 30.6926V30.5772C113.368 30.4618 113.251 30.2311 113.134 30.0003C113.017 29.7695 112.9 29.5388 112.9 29.1926C112.9 28.8465 113.017 28.6157 113.134 28.2695C113.368 28.0388 113.484 27.808 113.718 27.5772V27.4618C113.484 27.2311 113.134 27.0003 113.017 26.5388C112.783 26.1926 112.666 25.7311 112.666 25.2695C112.666 24.6926 112.783 24.1157 113.134 23.6541C113.484 23.1926 113.835 22.8465 114.303 22.6157C114.77 22.3849 115.354 22.2695 115.939 22.2695C116.173 22.2695 116.406 22.2695 116.64 22.2695C116.874 22.2695 116.991 22.3849 117.224 22.3849H120.146V23.7695H118.627V24.2311C118.744 24.3465 118.861 24.5772 118.978 24.808C119.094 25.0388 119.094 25.2695 119.094 25.6157C119.094 26.1926 118.978 26.7695 118.627 27.1157C118.393 27.5772 117.926 27.808 117.458 28.0388C116.991 28.2695 116.406 28.3849 115.822 28.3849C115.588 28.3849 115.471 28.3849 115.238 28.3849C115.004 28.3849 114.887 28.2695 114.653 28.2695C114.536 28.3849 114.419 28.5003 114.419 28.6157C114.303 28.7311 114.303 28.8465 114.303 29.0772C114.303 29.308 114.419 29.5388 114.653 29.6541C114.887 29.7695 115.238 29.8849 115.705 29.8849H117.224C118.276 29.8849 118.978 30.0003 119.445 30.3465C119.913 30.6926 120.263 31.1541 120.263 31.8465C120.263 32.4234 120.029 32.8849 119.679 33.3465C119.328 33.808 118.861 34.1541 118.159 34.3849C117.575 34.3849 116.757 34.5003 115.822 34.5003ZM116.173 33.2311C116.64 33.2311 116.991 33.2311 117.341 33.0003C117.692 32.8849 117.926 32.7695 118.159 32.5388C118.393 32.308 118.393 32.0772 118.393 31.8465C118.393 31.5003 118.276 31.2695 118.043 31.1541C117.809 31.0388 117.458 31.0388 116.991 31.0388H115.822C115.588 31.0388 115.354 31.0388 115.238 31.0388C115.004 31.0388 114.887 31.0388 114.77 30.9234C114.536 31.0388 114.419 31.2695 114.303 31.3849C114.186 31.6157 114.186 31.7311 114.186 31.9618C114.186 32.308 114.419 32.6541 114.77 32.7695C115.004 33.1157 115.471 33.2311 116.173 33.2311ZM115.939 27.1157C116.173 27.1157 116.406 27.0003 116.64 26.8849C116.874 26.7695 116.991 26.5388 117.108 26.308C117.224 26.0772 117.341 25.7311 117.341 25.3849C117.341 24.808 117.224 24.4618 116.874 24.2311C116.523 24.0003 116.289 23.7695 115.822 23.7695C115.471 23.7695 115.121 23.8849 114.77 24.2311C114.419 24.5772 114.303 24.9234 114.303 25.3849C114.303 25.7311 114.419 26.0772 114.536 26.308C114.653 26.5388 114.887 26.7695 115.004 26.8849C115.121 27.0003 115.705 27.1157 115.939 27.1157Z" fill="black"/>
<path d="M122.834 31.0389C122.484 31.0389 122.133 30.9236 121.899 30.6928C121.666 30.462 121.549 30.1159 121.549 29.7697C121.549 29.4236 121.666 29.0774 121.899 28.8466C122.133 28.6159 122.484 28.5005 122.834 28.5005C123.185 28.5005 123.536 28.6159 123.769 28.8466C124.003 29.0774 124.12 29.4236 124.12 29.7697C124.12 30.1159 124.003 30.462 123.769 30.6928C123.536 30.9236 123.185 31.0389 122.834 31.0389Z" fill="black"/>
<path d="M129.847 31.0389C129.029 31.0389 128.444 30.9236 127.743 30.5774C127.159 30.2313 126.691 29.7697 126.341 29.0774C125.99 28.3851 125.756 27.6928 125.756 26.7697C125.756 25.8466 125.99 25.039 126.341 24.462C126.691 23.7697 127.276 23.3082 127.86 22.962C128.444 22.6159 129.146 22.5005 129.964 22.5005C130.548 22.5005 130.899 22.6159 131.366 22.7313C131.717 22.8466 132.068 23.0774 132.418 23.4236L131.483 24.5774C131.249 24.462 131.133 24.2313 130.899 24.2313C130.665 24.1159 130.431 24.1159 130.081 24.1159C129.613 24.1159 129.263 24.2313 128.912 24.462C128.561 24.6928 128.328 25.0389 128.094 25.3851C127.86 25.8466 127.743 26.3082 127.743 26.7697C127.743 27.3466 127.86 27.8082 127.977 28.1543C128.211 28.6159 128.444 28.8466 128.795 29.0774C129.146 29.3082 129.496 29.4236 129.964 29.4236C130.314 29.4236 130.548 29.3082 130.899 29.1928C131.133 29.0774 131.483 28.962 131.717 28.7313L132.535 29.8851C132.184 30.2313 131.834 30.462 131.366 30.5774C130.899 30.6928 130.314 31.0389 129.847 31.0389Z" fill="black"/>
<path d="M137.561 31.0389C136.859 31.0389 136.275 30.9236 135.691 30.5774C135.106 30.2313 134.639 29.7697 134.288 29.0774C133.938 28.3851 133.704 27.6928 133.704 26.7697C133.704 25.8466 133.938 25.039 134.288 24.462C134.639 23.8851 135.106 23.3082 135.691 22.962C136.275 22.6159 136.976 22.5005 137.561 22.5005C138.262 22.5005 138.846 22.6159 139.548 22.962C140.132 23.3082 140.599 23.7697 140.95 24.462C141.301 25.1543 141.534 25.8466 141.534 26.7697C141.534 27.6928 141.301 28.3851 140.95 29.0774C140.599 29.7697 140.132 30.2313 139.548 30.5774C138.963 30.9236 138.262 31.0389 137.561 31.0389ZM137.561 29.539C137.911 29.539 138.262 29.4236 138.613 29.1928C138.846 28.962 139.08 28.6159 139.314 28.2697C139.431 27.8082 139.548 27.3466 139.548 26.8851C139.548 26.3082 139.431 25.8466 139.314 25.5005C139.197 25.039 138.963 24.8082 138.613 24.5774C138.262 24.3466 138.028 24.2313 137.561 24.2313C137.21 24.2313 136.859 24.3466 136.509 24.5774C136.275 24.8082 136.041 25.1543 135.808 25.5005C135.691 25.962 135.574 26.4236 135.574 26.8851C135.574 27.462 135.691 27.9236 135.808 28.2697C135.924 28.7313 136.158 28.962 136.509 29.1928C136.743 29.4236 137.093 29.539 137.561 29.539Z" fill="black"/>
<path d="M143.404 30.9236V22.7313H145.041L145.157 23.8851H145.274C145.625 23.539 145.976 23.1928 146.443 22.962C146.911 22.7313 147.261 22.6159 147.846 22.6159C148.43 22.6159 148.897 22.7313 149.365 22.962C149.715 23.1928 149.949 23.5389 150.183 24.0005C150.534 23.5389 151.001 23.1928 151.469 22.962C151.936 22.7313 152.404 22.5005 152.871 22.5005C153.806 22.5005 154.39 22.7313 154.858 23.3082C155.325 23.8851 155.442 24.6928 155.442 25.7313V30.8082H153.455V25.962C153.455 25.2697 153.339 24.8082 153.105 24.5774C152.871 24.3466 152.637 24.1159 152.17 24.1159C151.936 24.1159 151.585 24.2313 151.352 24.3466C151.118 24.462 150.767 24.8082 150.417 25.1543V30.8082H148.43V25.962C148.43 25.2697 148.313 24.8082 148.079 24.5774C147.846 24.3466 147.495 24.1159 147.144 24.1159C146.677 24.1159 146.092 24.462 145.391 25.1543V30.8082H143.404V30.9236Z" fill="black"/>
</svg>
