<?xml version="1.0" standalone="no"?>
<!DOCTYPE svg PUBLIC "-//W3C//DTD SVG 20010904//EN"
 "http://www.w3.org/TR/2001/REC-SVG-20010904/DTD/svg10.dtd">
<svg version="1.0" xmlns="http://www.w3.org/2000/svg"
 width="256.000000pt" height="256.000000pt" viewBox="0 0 256.000000 256.000000"
 preserveAspectRatio="xMidYMid meet">
<metadata>
Created by potrace 1.14, written by Peter Selinger 2001-2017
</metadata>
<g transform="translate(0.000000,256.000000) scale(0.100000,-0.100000)"
fill="#000000" stroke="none">
<path d="M798 2384 c-43 -8 -119 -30 -170 -50 -295 -116 -507 -363 -579 -672
-18 -79 -21 -112 -16 -235 5 -152 17 -211 68 -333 46 -110 121 -219 212 -308
52 -51 83 -89 85 -105 6 -44 35 -94 79 -137 63 -61 154 -82 258 -60 14 3 33
-8 60 -35 22 -21 43 -39 47 -39 18 0 5 -22 -52 -92 -64 -78 -74 -112 -42 -141
35 -32 71 -20 115 37 18 23 51 64 74 92 37 45 87 106 313 384 41 51 106 130
144 176 l68 83 185 -227 c102 -125 197 -241 212 -259 14 -18 73 -91 131 -162
58 -72 113 -133 123 -137 50 -17 99 34 75 79 -6 12 -38 56 -72 96 -33 41 -56
72 -50 68 6 -3 35 14 64 39 40 34 57 43 74 38 69 -23 165 -4 233 46 114 84
126 266 24 368 l-32 32 14 82 c17 95 15 279 -3 350 l-12 47 41 47 c46 52 61
95 61 170 0 62 -19 111 -62 159 -53 61 -99 79 -206 80 -91 1 -93 2 -129 36
-21 19 -40 37 -43 40 -13 14 -130 89 -175 111 -27 14 -85 38 -127 53 -54 19
-78 33 -78 44 -1 28 -36 95 -66 125 -64 63 -160 88 -253 66 -45 -10 -57 -9
-113 9 -149 49 -325 62 -480 35z m751 -152 c61 -46 87 -115 66 -177 -35 -100
-141 -142 -235 -92 -115 61 -112 218 5 278 48 24 125 20 164 -9z m311 -287
c48 -25 116 -71 173 -118 l47 -39 -19 -26 c-92 -132 -26 -324 128 -377 24 -8
61 -15 82 -15 21 0 40 -4 43 -9 17 -28 25 -216 13 -308 -10 -76 -12 -78 -65
-80 -130 -4 -240 -114 -244 -244 -1 -46 18 -111 42 -141 l19 -25 -27 -25 c-63
-57 -48 -64 -165 82 -7 8 -40 50 -75 92 l-62 77 27 21 c39 30 100 108 122 155
91 195 56 403 -93 550 -69 68 -136 107 -221 130 -303 78 -606 -152 -607 -460
0 -136 42 -241 136 -340 l55 -58 -32 -41 c-107 -138 -200 -246 -210 -246 -6 0
-26 14 -44 32 -32 31 -32 31 -14 57 107 154 -5 370 -199 384 -28 2 -52 6 -54
8 -18 19 -27 222 -13 317 l10 72 42 0 c97 0 188 57 231 146 23 47 26 63 22
119 -4 44 -14 78 -32 109 l-26 45 68 56 c68 57 220 139 280 151 25 5 32 3 32
-9 0 -27 87 -104 137 -121 121 -41 264 10 318 113 l14 29 63 -22 c35 -13 79
-31 98 -41z m-1132 -186 c163 -79 82 -320 -100 -296 -133 18 -185 182 -86 274
50 47 117 55 186 22z m1649 -15 c104 -79 73 -239 -52 -274 -142 -40 -263 102
-192 225 49 86 165 110 244 49z m-766 -236 c188 -86 267 -298 181 -482 -28
-59 -94 -136 -118 -136 -6 0 -20 12 -30 28 -10 15 -23 33 -30 40 -7 7 -35 40
-61 73 -53 68 -81 84 -116 68 -12 -6 -58 -55 -101 -110 -44 -54 -85 -99 -92
-99 -20 0 -84 80 -113 140 -22 48 -26 68 -26 150 0 78 4 104 23 143 44 93 137
172 235 202 68 21 182 13 248 -17z m-879 -644 c15 -8 38 -29 52 -47 65 -85 30
-199 -74 -240 -140 -56 -272 97 -197 226 45 77 138 103 219 61z m1623 0 c17
-8 43 -33 58 -56 106 -163 -126 -332 -257 -187 -121 133 33 321 199 243z"/>
</g>
</svg>
