<svg width="113" height="113" viewBox="0 0 113 113" fill="none" xmlns="http://www.w3.org/2000/svg">
<mask id="mask0_5406_146841" style="mask-type:luminance" maskUnits="userSpaceOnUse" x="-1" y="-1" width="114" height="114">
<path d="M56 112.5C87.2041 112.5 112.5 87.2041 112.5 56C112.5 24.7959 87.2041 -0.5 56 -0.5C24.7959 -0.5 -0.5 24.7959 -0.5 56C-0.5 87.2041 24.7959 112.5 56 112.5Z" fill="white" stroke="white"/>
</mask>
<g mask="url(#mask0_5406_146841)">
<path d="M0 134.795L32.0847 118.852C32.0847 118.852 27.3412 116.085 35.1153 114.767C42.8894 113.449 57.1859 110.485 57.1859 110.485L57.5812 105.28L62.3247 108.113L70.6259 107.718L77.7412 102.513L77.4118 108.772C77.4118 108.772 108.772 102.513 120.894 106.598C124.32 131.896 131.567 175.445 131.567 175.445" fill="white"/>
<path d="M78.0049 216.951L84.5272 107.52L93.1578 106.071L82.1555 217.017" fill="#49422F"/>
<path d="M53.7597 221.299L46.6445 111.934L39.2656 113.252L50.3998 222.353" fill="#49422F"/>
<path d="M77.2142 110.089C76.4895 112.527 75.633 114.833 74.7106 117.205C74.2495 118.391 73.7883 119.511 73.2612 120.631C72.8 121.751 72.2071 122.937 71.7459 124.057L71.153 125.177L70.56 124.188C69.7694 122.871 68.913 121.487 68.1883 120.104C67.3977 118.72 66.673 117.337 66.0142 115.887C67.0683 117.073 67.9906 118.391 68.913 119.642C69.8353 120.894 70.7577 122.212 71.6142 123.529L70.4942 123.595C71.0212 122.475 71.4824 121.289 72.0094 120.169C72.5365 119.049 73.0636 117.929 73.5906 116.744C74.7106 114.504 75.8965 112.264 77.2142 110.089Z" fill="#DDDDDD"/>
<path d="M60.3482 116.941C59.6894 118.522 58.9647 120.038 58.24 121.619C57.4494 123.134 56.6588 124.649 55.8682 126.099L54.1553 129.129L54.6823 125.638C54.88 124.518 55.0117 123.398 55.2094 122.278C55.407 121.158 55.6047 120.038 55.8682 118.918C56.3294 116.678 56.8564 114.438 57.5153 112.264C57.4494 114.569 57.2517 116.875 56.9882 119.115C56.8564 120.235 56.7247 121.355 56.527 122.541C56.3294 123.661 56.1976 124.781 56 125.901L54.8141 125.506C55.6706 124.056 56.5929 122.607 57.5153 121.158C58.3058 119.708 59.2941 118.325 60.3482 116.941Z" fill="#DDDDDD"/>
<path d="M39.0026 34.3906C39.0026 34.3906 35.2473 80.4424 35.5108 97.3083C48.6214 97.9012 64.1037 97.8354 64.1037 97.8354L62.3908 108.113L62.259 117.732L70.692 107.652L72.2732 32.6777C72.1414 32.6777 47.1061 30.7012 39.0026 34.3906Z" fill="#FFCD97"/>
<path d="M66.2117 37.8166C66.2117 37.8166 59.0305 49.4777 50.334 52.1789C41.5717 54.8801 45.5905 49.2142 50.2023 45.7225C32.8093 54.2213 23.1905 56.5272 30.9646 50.5319C38.0799 45.1954 38.0799 45.1954 38.0799 45.1954C38.0799 45.1954 26.0893 47.2378 36.1034 38.6072C47.0399 29.7789 57.3175 31.2283 57.3175 31.2283L72.2728 32.6119L74.6446 36.3013L72.7999 61.6001C72.734 61.6001 65.2234 58.3719 66.2117 37.8166Z" fill="#49422F"/>
<path d="M68.6494 63.9059C68.6494 63.9059 75.9623 54.6824 79.0588 62.2589C82.1553 69.8353 72.6682 77.3459 69.3741 72.8" fill="#FFCD97"/>
<path d="M49.7412 62.3906C48.5553 65.3553 47.2376 68.2542 45.8541 71.153C45.1953 72.6024 44.4706 74.0518 43.7459 75.4353C43.0212 76.8847 42.2965 78.2683 41.5059 79.6518L40.7812 78.7295C42.6918 78.2024 44.6024 77.6753 46.5788 77.1483C48.4894 76.6871 50.4659 76.16 52.4423 75.8306C50.5976 76.6212 48.7529 77.3459 46.8423 78.0047C44.9317 78.6636 43.0871 79.3224 41.1765 79.9812L39.7271 80.4424L40.4518 79.0589C41.1765 77.6094 41.9012 76.2259 42.6259 74.7765C43.3506 73.393 44.1412 71.9436 44.8659 70.56C46.3812 67.793 47.9624 65.0259 49.7412 62.3906Z" fill="#EAA968"/>
<path d="M62.1931 73.7883C61.8637 75.8966 61.2049 77.9389 60.4143 79.8495C59.6237 81.826 58.5695 83.7366 57.186 85.3836C56.4613 86.1742 55.6707 86.9648 54.6166 87.5577C53.6284 88.0848 52.3766 88.4142 51.2566 88.2166C50.0707 88.0189 49.0825 87.3601 48.2919 86.6354C47.5013 85.9107 46.8425 85.0542 46.3154 84.1319C47.106 84.8566 47.8307 85.5813 48.6872 86.1083C49.5437 86.7013 50.466 87.0966 51.3884 87.1624C52.3107 87.2283 53.2331 86.9648 54.0237 86.4377C54.8143 85.9766 55.539 85.2519 56.1978 84.5272C56.8566 83.8024 57.4496 82.946 57.9766 82.0895C58.5037 81.233 59.0307 80.3107 59.4919 79.3883C60.4801 77.6095 61.3366 75.6989 62.1931 73.7883Z" fill="#EAA968"/>
<path d="M75.7649 64.3671C75.5672 63.9718 75.3696 63.6424 75.106 63.313C74.9743 63.1812 74.8425 63.0495 74.7108 63.0495C74.579 62.9836 74.5131 63.0495 74.3813 63.0495C74.1837 63.1812 73.9202 63.4448 73.7225 63.7742C73.5249 64.1036 73.3272 64.433 73.1954 64.8283C72.5366 66.2777 71.9437 67.8589 71.3507 69.3742L70.6919 68.5836C71.1531 68.5177 71.5484 68.4518 72.2072 68.6495C72.339 68.7154 72.5366 68.7812 72.6684 68.9789C72.8001 69.1765 72.866 69.4401 72.8002 69.5718C72.7343 69.9012 72.6025 70.0989 72.4707 70.2965C72.2072 70.6918 71.8778 70.9554 71.5484 71.2848C71.219 71.5483 70.8896 71.8118 70.4943 72.0095C70.7578 71.6801 70.9554 71.2848 71.1531 70.9554C71.3507 70.6259 71.5484 70.2307 71.7461 69.9012C71.8119 69.7695 71.8119 69.5718 71.8119 69.5059C71.8119 69.5059 71.8119 69.5059 71.7461 69.5059C71.5484 69.5059 71.1531 69.5059 70.7578 69.6377L69.8354 69.8354L70.099 68.8471C70.2966 68.0565 70.5601 67.2001 70.8896 66.4095C71.219 65.6189 71.5484 64.8283 72.0096 64.1036C72.2072 63.7083 72.4707 63.3789 72.8002 62.9836C73.1296 62.6542 73.459 62.2589 74.0519 62.1271C74.3155 62.0612 74.7108 62.1271 74.9084 62.3248C75.1719 62.5224 75.3037 62.7201 75.3696 62.9177C75.6331 63.5106 75.699 63.9718 75.7649 64.3671Z" fill="#EAA968"/>
<path d="M55.7366 63.5766C55.8684 64.7624 55.3413 65.7507 54.6166 65.8166C53.8919 65.8824 53.2331 64.9601 53.1013 63.7742C52.9695 62.5883 53.4966 61.6001 54.2213 61.5342C54.946 61.4683 55.6048 62.3907 55.7366 63.5766Z" fill="#333333"/>
<path d="M47.3694 64.1694C47.5012 65.3553 46.9741 66.3436 46.2494 66.4095C45.5247 66.4753 44.8659 65.553 44.7341 64.3671C44.6024 63.1812 45.1294 62.193 45.8541 62.1271C46.5788 62.0612 47.3035 62.9836 47.3694 64.1694Z" fill="#333333"/>
<path d="M52.1787 55.0777C52.1787 55.0777 57.3175 48.753 60.5458 56.593L52.1787 55.0777Z" fill="#49422F"/>
<path d="M48.5555 55.2754C48.5555 55.2754 42.1649 50.8613 41.9014 57.4495L48.5555 55.2754Z" fill="#49422F"/>
<path d="M34.5879 39.0683L47.4349 19.5012C47.4349 19.5012 67.7926 12.7154 76.9502 15.153C78.202 30.2401 75.6985 41.9012 75.6985 41.9012L34.5879 39.0683Z" fill="#3E664C"/>
<path d="M34.5879 39.0684L75.6985 41.9013C75.6985 41.9013 76.9502 35.906 77.2138 26.946C66.8703 26.8801 48.0938 29.1201 40.4514 30.1084L34.5879 39.0684Z" fill="#F9B74D"/>
<path d="M82.0234 46.1177C82.0234 46.1177 29.1857 40.5177 23.1245 40.1883C31.6233 38.3436 55.6045 39.1342 55.6045 39.1342C55.6045 39.1342 72.3386 28.7907 80.5739 32.1507C88.8092 35.5107 82.0234 46.1177 82.0234 46.1177Z" fill="#3E664C"/>
</g>
</svg>
