<svg width="115" height="115" viewBox="0 0 115 115" fill="none" xmlns="http://www.w3.org/2000/svg">
<mask id="mask0_5406_146777" style="mask-type:luminance" maskUnits="userSpaceOnUse" x="0" y="0" width="115" height="115">
<path d="M57.5 115C89.2564 115 115 89.2564 115 57.5C115 25.7436 89.2564 0 57.5 0C25.7436 0 0 25.7436 0 57.5C0 89.2564 25.7436 115 57.5 115Z" fill="white"/>
</mask>
<g mask="url(#mask0_5406_146777)">
<path d="M20.8355 151.868L49.7884 115.135C49.7884 115.135 39.9119 102.621 27.3972 105.326C14.8825 108.032 13.6649 133.062 13.6649 133.062C13.6649 133.062 4.12665 135.768 9.809 136.376C8.59136 138.744 11.9061 138.474 13.1237 138.744C11.0266 142.329 13.1237 144.088 15.2208 143.818C14.9502 147.132 16.709 149.365 18.5355 148.891C20.2266 148.418 20.8355 151.868 20.8355 151.868Z" fill="#F7F4ED"/>
<path d="M66.7681 156.603L85.1681 106.612C85.1681 106.612 97.818 98.6971 105.597 113.038C113.377 127.379 100.795 150.65 100.795 150.65" fill="white"/>
<path d="M28.3442 162.015L31.8619 134.55L49.7884 115.135L51.6148 116.15L54.7266 130.694L81.3795 107.694L85.1678 106.612L69.609 156.129" fill="#AF3849"/>
<path d="M42.1442 59.5294C52.156 74.3441 41.8736 73.7353 41.8736 73.7353C41.8736 73.7353 49.3148 84.3559 43.8354 87.1294C52.9677 100.929 44.5795 103.5 44.5795 103.5C44.5795 103.5 52.2236 114.932 46.0677 115.203C53.5089 126.5 46.0677 126.771 46.0677 126.771L50.4648 138.676L48.4354 139.285L46.6765 134.482L47.1501 139.015L42.8883 139.826C42.8883 139.826 43.0236 135.362 43.7001 126.838C39.1677 127.921 39.1001 120.615 42.3471 115.676C38.0177 116.082 37.5442 110.738 40.9942 103.703C34.9736 101.741 36.1913 93.0824 40.9265 86.9265C37.2736 84.0853 34.8383 80.3647 37.2736 74.6147C30.4413 68.4588 39.9118 59.5294 39.9118 59.5294H42.1442Z" fill="#EFBB70"/>
<path d="M59.5295 168.847C67.3766 159.106 81.4472 107.694 81.4472 107.694L76.6442 109.047L59.1236 124.673L55.2001 117.841C54.5913 117.841 51.6824 116.218 51.6824 116.218C51.6824 116.218 25.4354 140.638 20.2942 148.485C15.153 156.332 20.7001 166.682 28.5472 169.794" fill="white"/>
<path d="M48.8414 23.744C48.8414 23.744 37.6796 32.3352 31.1179 49.6529C24.6237 66.9705 21.9855 79.8235 36.3267 84.2882C50.6679 88.7529 56.2826 87.8058 57.3649 101.403C58.4473 115 56.959 115.541 56.959 115.541C56.959 115.541 35.1767 133.062 30.3061 139.556C25.4355 146.05 61.762 146.659 64.7385 145.171C67.7149 143.682 76.4414 109.047 76.4414 109.047L66.362 112.768C66.362 112.768 70.2855 80.9058 74.7502 67.1058C79.2149 53.3058 84.4237 29.2911 84.4237 29.2911C84.4237 29.2911 66.362 14.2058 48.8414 23.744Z" fill="#FFCD97"/>
<path d="M61.6943 22.3235C61.6943 22.3235 49.0443 34.9735 40.4531 38.0853C31.862 41.197 36.7326 36.5294 40.6561 34.1617C34.6355 36.5294 39.1002 29.9 43.9708 25.0294C48.8414 20.1588 62.709 15.4911 73.6002 14.8823C84.4914 14.2735 91.3237 17.7911 91.7296 18.8058C92.1355 19.7529 87.2649 43.1588 82.9355 52.697C78.6737 62.2352 77.2532 63.25 77.2532 63.25C77.2532 63.25 63.0473 34.4323 61.6943 22.3235Z" fill="#EFBB70"/>
<path d="M79.4178 144.359L77.9972 139.488L78.1325 144.021L73.8707 144.494C73.8707 144.494 74.3442 140.029 75.5619 131.574C70.9619 132.318 71.4354 125.079 75.0207 120.344C70.6913 120.479 70.556 115.135 74.4795 108.303C68.5942 105.935 70.4207 97.4117 75.5619 91.5264C72.1119 88.4823 69.9472 84.5588 72.7207 79.0117C66.3619 72.3823 76.3737 64.1294 76.3737 64.1294L78.606 64.2647C87.6031 79.6882 77.3884 78.4706 77.3884 78.4706C77.3884 78.4706 84.0854 89.6323 78.4707 92C86.656 106.409 78.1325 108.371 78.1325 108.371C78.1325 108.371 85.0325 120.276 78.8089 120.141C85.4383 131.912 78.0648 131.641 78.0648 131.641L81.6501 143.818" fill="#EFBB70"/>
<path d="M72.5854 60.5441C72.5854 60.5441 82.1236 58.0411 83.6795 61.4911C85.2354 65.0088 81.1765 74.7499 73.7354 71.4352C66.3618 68.1205 70.6236 65.6176 70.6236 65.6176" fill="#FFCD97"/>
<path d="M69.1353 154.844L85.1676 106.612C85.1676 106.612 97.8176 98.6971 105.597 113.038C113.376 127.379 100.794 150.65 100.794 150.65" fill="white"/>
<path d="M49.1795 53.847C48.3677 55.2676 47.4883 56.6882 46.6089 58.1088C45.7294 59.5294 44.7824 60.8823 43.8353 62.2353L43.5647 62.6412L43.1589 62.4382L41.0618 61.3559C40.3853 61.0176 39.7089 60.6118 39.0324 60.2735L39.7765 59.7323C39.9118 60.5441 40.1147 61.4235 40.3177 62.1676C40.5883 62.9794 40.7912 63.7912 41.1971 64.4676C41.4 64.8059 41.6706 65.1441 41.9412 65.2794C42.0765 65.347 42.2118 65.4147 42.4148 65.4147C42.6177 65.4147 42.8206 65.4147 43.0236 65.4147C43.8353 65.347 44.7148 65.2118 45.4589 64.6706C44.85 65.347 43.9706 65.6853 43.0912 65.8206C42.8883 65.8882 42.6177 65.8882 42.4148 65.8882C42.2118 65.8882 41.8736 65.8882 41.6706 65.7529C41.1971 65.55 40.8589 65.1441 40.5883 64.8059C40.0471 64.0617 39.7089 63.1823 39.3706 62.3706C39.1 61.4912 38.8295 60.6794 38.6942 59.8L38.4912 58.7176L39.4383 59.1912C40.1147 59.5294 40.7912 59.8676 41.4677 60.2735L43.4971 61.3559L42.8206 61.4912C43.8353 60.1382 44.7824 58.8529 45.7971 57.5676C47.0824 56.35 48.0971 55.0647 49.1795 53.847Z" fill="#EAA968"/>
<path d="M58.4471 72.9235C57.2294 73.8029 55.8089 74.547 54.3206 74.8853C52.8324 75.2911 51.2089 75.3588 49.653 75.1558C48.0971 74.8853 46.6089 74.4117 45.2559 73.6C44.5794 73.2617 43.9706 72.7205 43.3618 72.3147C42.753 71.8411 42.2118 71.3 41.7383 70.7588C42.4148 71.097 43.0236 71.5706 43.7 71.9088L44.7147 72.45C44.85 72.5176 45.053 72.6529 45.1883 72.7205L45.7295 72.9235L46.7442 73.3294L47.7589 73.6676C48.0971 73.8029 48.4353 73.8706 48.8412 73.9382C49.1795 74.0058 49.5177 74.0735 49.9236 74.1411C51.3441 74.3441 52.8324 74.3441 54.253 74.1411C55.5383 73.8706 56.9589 73.397 58.4471 72.9235Z" fill="#EAA968"/>
<path d="M81.1087 63.5206C80.7028 63.5206 80.2969 63.3176 79.891 63.25C79.4852 63.1823 79.0793 63.1147 78.7411 63.1147C77.997 63.1147 77.2528 63.3176 76.5764 63.6559C75.8999 63.9941 75.2911 64.5353 74.7499 65.0088C74.4793 65.2794 74.2087 65.55 73.9381 65.8882L73.1263 66.7676L72.8558 66.0235C73.194 66.1588 73.5322 66.2264 73.8705 66.3617C74.2087 66.497 74.5469 66.6323 74.8852 67.0382C74.9528 67.1735 75.0205 67.3088 75.0205 67.4441C75.0205 67.5794 74.8852 67.7147 74.8175 67.7823C74.6822 67.9176 74.4793 68.0529 74.2763 68.1206C73.9381 68.2559 73.5999 68.3235 73.2616 68.3235C73.5999 68.1882 73.8704 67.9853 74.141 67.7823C74.2763 67.7147 74.4116 67.5794 74.4116 67.4441C74.4793 67.3088 74.4116 67.3764 74.4116 67.3088C74.2763 67.1735 73.9381 67.1059 73.5999 66.9706C73.2616 66.9029 72.9911 66.8353 72.6528 66.7676L71.9087 66.6323L72.3822 66.0235L73.1263 65.0088C73.3969 64.6706 73.7352 64.4 74.0058 64.0617C74.6822 63.5206 75.3587 62.9117 76.1704 62.5735C76.9822 62.2353 77.9293 62.0323 78.8087 62.2353C79.6881 62.5735 80.4322 63.1147 81.1087 63.5206Z" fill="#EAA968"/>
<path d="M56.6208 54.4559C56.6208 55.7412 56.0796 56.7559 55.4708 56.7559C54.862 56.7559 54.3208 55.7412 54.3208 54.4559C54.3208 53.1706 54.862 52.1559 55.4708 52.1559C56.0796 52.1559 56.6208 53.2382 56.6208 54.4559Z" fill="#333333"/>
<path d="M46.8796 52.697C46.8796 53.9823 46.3384 54.997 45.7296 54.997C45.1208 54.997 44.5796 53.9823 44.5796 52.697C44.5796 51.4117 45.1208 50.397 45.7296 50.397C46.4061 50.397 46.8796 51.4117 46.8796 52.697Z" fill="#333333"/>
<path d="M54.9971 43.9706C54.9971 43.9706 61.7618 39.8441 62.7089 49.5853L54.9971 43.9706Z" fill="#EFBB70"/>
<path d="M49.3825 43.1588C49.3825 43.1588 47.0825 36.7323 41.4678 44.1735L49.3825 43.1588Z" fill="#EFBB70"/>
</g>
</svg>
