<svg width="115" height="115" viewBox="0 0 115 115" fill="none" xmlns="http://www.w3.org/2000/svg">
<mask id="mask0_5406_146685" style="mask-type:luminance" maskUnits="userSpaceOnUse" x="0" y="0" width="115" height="115">
<path d="M57.5 115C89.2564 115 115 89.2564 115 57.5C115 25.7436 89.2564 0 57.5 0C25.7436 0 0 25.7436 0 57.5C0 89.2564 25.7436 115 57.5 115Z" fill="white"/>
</mask>
<g mask="url(#mask0_5406_146685)">
<path d="M31.9971 74.6147L26.2471 71.9764L25.1648 76.9823L-33.147 86.1823L-25.2999 122.915L-2.7058 120.547C-2.7058 120.547 -25.8411 159.174 -19.7529 176.762C-13.7323 194.35 18.3324 206.188 45.8648 210.924C73.3971 215.659 96.2618 210.924 95.2471 182.038C94.1648 153.153 90.7824 129.003 90.7824 129.003C90.7824 129.003 125.147 136.376 141.721 132.926C139.894 113.512 135.7 97.2088 135.7 97.2088L85.303 85.6412L84.7618 80.6353L75.8324 83.2735L31.9971 74.6147Z" fill="#344E3D"/>
<path d="M43.2942 105.732C41.1972 107.356 39.0325 108.912 36.8678 110.468C34.7031 112.024 32.5384 113.512 30.3737 115.068L29.4942 115.677L29.359 114.527C28.9531 111.685 28.5472 108.844 28.209 106.003C27.8707 103.162 27.5325 100.321 27.1942 97.4795C26.856 94.6383 26.5854 91.7971 26.3825 88.9559C26.1119 86.1147 25.909 83.2736 25.8413 80.3647C26.3825 83.2059 26.9237 85.9794 27.3972 88.8206C27.8707 91.6618 28.2766 94.503 28.6825 97.2765C29.0884 100.118 29.4266 102.959 29.8325 105.8C30.1707 108.641 30.5089 111.482 30.7795 114.324L29.6972 113.85C31.9296 112.429 34.2296 111.009 36.4619 109.656C38.6943 108.371 40.9942 107.018 43.2942 105.732Z" fill="#3B6648"/>
<path d="M47.5562 107.018C48.7738 108.979 49.9914 111.009 51.1414 112.971C52.2914 115 53.4415 117.029 54.5915 119.059L53.5768 118.924C54.7268 117.571 55.8768 116.285 57.0944 114.932C58.2444 113.579 59.462 112.294 60.612 111.009C62.9797 108.371 65.3473 105.8 67.7826 103.229L71.4356 99.3736L75.0885 95.5853C77.5238 93.0824 80.0267 90.5795 82.5973 88.1442C80.4326 90.9177 78.1326 93.6236 75.8326 96.2618L72.3826 100.253L68.865 104.177C66.4973 106.815 64.1297 109.385 61.762 111.956C60.5444 113.241 59.3944 114.527 58.1767 115.812C56.9591 117.097 55.7414 118.382 54.5238 119.6L53.915 120.209L53.5091 119.465C52.4944 117.368 51.4797 115.271 50.465 113.174C49.4503 111.279 48.4356 109.115 47.5562 107.018Z" fill="#3B6648"/>
<path d="M43.9709 108.979C42.8885 112.835 41.8738 116.691 40.9268 120.615C39.912 124.471 39.0326 128.394 38.0856 132.25C37.2062 136.174 36.3268 140.029 35.515 143.953C34.7032 147.877 33.9591 151.8 33.2826 155.724C32.6062 159.647 31.9297 163.571 31.4562 167.562C31.1856 169.524 30.9826 171.485 30.7121 173.515C30.5091 175.477 30.3061 177.506 30.1709 179.468C29.8326 183.459 29.6297 187.45 29.5621 191.441C29.4944 195.432 29.6974 199.424 30.0356 203.415C28.6826 195.5 28.4797 187.45 28.8856 179.4C29.2915 171.35 30.3738 163.368 31.7268 155.521C33.1474 147.606 34.8385 139.759 36.8679 132.047C38.8973 124.2 41.265 116.488 43.9709 108.979Z" fill="#3B6648"/>
<path d="M43.1587 33.6206C43.1587 33.6206 30.3734 61.2206 29.3587 75.0206C28.344 88.8206 45.9322 105.056 45.9322 105.056C45.9322 105.056 76.9822 93.2853 79.0793 83.2735C81.1763 73.2618 78.741 31.1177 78.741 31.1177L49.3822 26.653L43.1587 33.6206Z" fill="#FFCD97"/>
<path d="M76.9823 55.7412C76.9823 55.7412 85.9793 47.4883 87.6705 56.4177C89.4293 65.4147 80.4323 69.8795 76.644 64.6706" fill="#FFCD97"/>
<path d="M38.3558 53.6441C38.3558 53.6441 35.2441 45.3912 29.0205 49.8559C22.797 54.3206 31.1176 65.753 34.2293 63.6559" fill="#FFCD97"/>
<path d="M3.11192 198.138C3.11192 198.138 -16.3704 162.488 19.3472 77.1853L23.5413 77.5235C23.5413 77.5235 5.68252 121.968 4.05899 148.891C2.43546 175.815 9.26783 200.776 9.26783 200.776L3.11192 198.138Z" fill="#3B6648"/>
<path d="M59.1914 212.412C59.1914 212.412 71.1649 193.268 77.659 141.382C84.1532 89.4971 85.2355 85.6412 85.2355 85.6412L89.9708 86.9265C89.9708 86.9265 84.4238 130.085 82.5296 142.735C80.5679 155.385 73.4649 198.544 64.062 212.818C60.2061 214.982 59.1914 212.412 59.1914 212.412Z" fill="#3B6648"/>
<path d="M7.30615 145.306L7.98262 130.694C7.98262 130.694 38.4915 108.641 76.4415 144.968C75.4944 151.8 73.8709 156.332 73.8709 156.332C73.8709 156.332 41.4003 174.124 7.30615 145.306Z" fill="#49422F"/>
<path d="M66.4973 71.9764C67.1061 76.0353 65.6855 79.6882 62.912 81.1764C61.0855 82.1911 59.3267 81.9206 58.8532 81.8529C55.5385 81.3794 52.765 78.3353 51.6826 74.2088C56.6209 73.4647 61.5591 72.7206 66.4973 71.9764Z" fill="#333333"/>
<path d="M65.415 69.4735L59.1238 71.3C57.7709 71.7059 56.2826 72.1794 54.9297 72.5176L53.3062 72.9912L53.915 76.5765L65.2797 75.3588C65.4826 72.5853 65.415 70.2176 65.415 69.4735Z" fill="white"/>
<path d="M61.153 68.7295C61.153 68.7295 65.2795 67.9177 71.0295 71.6383C65.4147 75.2236 42.0765 78.7412 45.7971 69.3383C49.5177 70.353 58.9883 72.5853 61.153 68.7295Z" fill="#BFBFBF"/>
<path d="M56.5529 49.7882C55.1323 50.7353 53.7794 51.6823 52.4265 52.6294C51.75 53.1029 51.1412 53.6441 50.4647 54.1853C49.8559 54.7264 49.2471 55.3353 48.8412 55.9441C48.7735 56.0794 48.7059 56.2823 48.6383 56.4176C48.6383 56.4853 48.5706 56.5529 48.5706 56.6206V56.6882V56.8235C48.5706 57.1617 48.6382 57.5676 48.7735 57.9735C48.9088 58.7853 49.1794 59.597 49.3824 60.3411C49.8559 61.9647 50.3294 63.5206 50.9382 65.0764L51.2088 65.8882L50.3294 66.0911C49.0441 66.3617 47.6912 66.7 46.4735 67.1058C45.8647 67.3088 45.2559 67.5794 44.7824 67.85C44.5794 67.9853 44.3088 68.1882 44.3088 68.2558C44.2412 68.2558 44.3088 68.3235 44.3088 68.2558C44.2412 68.1206 44.2412 68.1206 44.3088 68.1882C44.6471 68.4588 45.3235 68.6617 45.8647 68.8647C46.4735 69.0676 47.15 69.1353 47.8265 69.2706C49.1118 69.4735 50.4647 69.6764 51.8176 69.7441C53.1706 69.8117 54.5235 69.8794 55.8765 69.8794C56.5529 69.8794 57.2294 69.8117 57.8382 69.7441C58.5147 69.6764 59.1235 69.5411 59.6647 69.2706C60.2059 69 60.7471 68.6617 61.0177 68.1882C61.3559 67.7147 61.4235 67.0382 61.3559 66.4294C61.2882 65.8206 60.95 65.2117 60.5441 64.7382C60.0706 64.2647 59.4618 63.9941 58.7176 63.9941C59.3941 63.8588 60.1382 64.0617 60.6794 64.4676C61.2206 64.9411 61.6265 65.55 61.8294 66.2941C62.0324 67.0382 61.9647 67.7823 61.6265 68.5264C61.2882 69.2029 60.6794 69.7441 60.003 70.0823C59.3265 70.4206 58.65 70.6235 57.9059 70.7588C57.2294 70.8941 56.4853 70.9617 55.8088 71.0294C54.3882 71.1647 53.0353 71.1647 51.6147 71.097C50.1941 71.0294 48.8412 70.9617 47.4206 70.6911C46.7441 70.5559 46.0677 70.4206 45.3235 70.2853C44.9853 70.2176 44.6471 70.0823 44.2412 69.947C43.903 69.8117 43.4971 69.6764 43.0912 69.3382C42.9559 69.2029 42.8882 69.1353 42.753 69C42.6177 68.8647 42.55 68.6617 42.4823 68.3911C42.4147 67.9176 42.55 67.647 42.6853 67.3764C43.0235 66.9029 43.3618 66.6323 43.7 66.4294C44.3765 66.0235 45.0529 65.7529 45.7294 65.55C47.0823 65.0764 48.4353 64.8058 49.8559 64.5353L49.2471 65.55C48.7059 63.9264 48.2324 62.3029 47.8265 60.6794C47.6235 59.8676 47.4882 58.9882 47.3529 58.1764C47.2853 57.7706 47.2176 57.297 47.2176 56.8235V56.6206V56.4176C47.2176 56.2823 47.2853 56.147 47.3529 56.0117C47.4882 55.7411 47.5559 55.5382 47.7588 55.3353C48.3 54.5911 48.9765 54.05 49.653 53.5088C50.3294 52.9676 51.0735 52.5617 51.75 52.0882C53.5088 51.2764 54.997 50.5323 56.5529 49.7882Z" fill="#EAA968"/>
<path d="M85.1675 55.9441C84.4234 55.4706 83.544 55.2676 83.0028 55.6059C82.394 55.9441 81.9881 56.6206 81.6499 57.297L81.3793 57.8382L81.1763 58.3794L80.9057 58.9206L80.7028 59.5294C80.4322 60.3412 80.1616 61.1529 79.891 61.9647L79.0793 61.0853C79.4852 61.0176 79.8911 61.0176 80.4322 61.0853C80.6352 61.1529 81.0411 61.2206 81.3116 61.6265C81.4469 61.8294 81.4469 62.0323 81.4469 62.2353C81.4469 62.4382 81.3793 62.5059 81.3116 62.6412C81.1087 63.1147 80.7705 63.3853 80.4999 63.6559C80.1616 63.9265 79.8911 64.1294 79.4852 64.3323C79.6881 63.9941 79.8911 63.6559 80.094 63.3176C80.2969 62.9794 80.4322 62.6412 80.4999 62.3706C80.4999 62.2353 80.4322 62.1676 80.4999 62.2353C80.5675 62.3029 80.4999 62.2353 80.3646 62.3029C80.094 62.3029 79.7558 62.3706 79.4175 62.5059L78.4028 62.7765L78.6734 61.6941C78.8763 60.8147 79.0116 59.9353 79.3499 59.1235C79.4852 58.7176 79.6881 58.2441 79.891 57.8382L80.1616 57.2294L80.5675 56.6206C80.7028 56.4176 80.8381 56.2147 80.9734 56.0118C81.1087 55.8088 81.3116 55.6059 81.5146 55.4706C81.7175 55.3353 81.9205 55.1323 82.1234 54.9971C82.394 54.8618 82.5969 54.7265 82.8675 54.7265C83.4087 54.5912 83.9499 54.7265 84.4234 54.9294C84.694 55.1323 84.9646 55.5382 85.1675 55.9441Z" fill="#EAA968"/>
<path d="M35.6497 52.0205C35.6497 53.0352 35.5144 53.9823 35.3791 54.8617C35.1762 55.8088 34.9732 56.6882 34.7027 57.5676C34.4321 58.447 34.0938 59.3264 33.688 60.2058C33.2821 61.0852 32.8085 61.897 32.1997 62.7087C32.1997 61.694 32.2674 60.747 32.4703 59.8676C32.6733 58.9205 32.8762 58.0411 33.1468 57.1617C33.4174 56.2823 33.7556 55.4029 34.1615 54.5235C34.5674 53.644 35.0409 52.8323 35.6497 52.0205Z" fill="#EAA968"/>
<path d="M29.8999 52.697C30.2381 52.0882 30.7793 51.6147 31.5911 51.3441C31.997 51.2765 32.4028 51.2088 32.8763 51.3441C33.0116 51.4118 33.0793 51.4118 33.2146 51.4794C33.2822 51.5471 33.4175 51.6147 33.4852 51.6823C33.5528 51.75 33.6881 51.8176 33.7558 51.8853L33.9587 52.1559C34.2293 52.4941 34.3646 52.8323 34.4999 53.2382C34.5675 53.5765 34.6352 53.9823 34.6352 54.3206C34.6352 54.9971 34.4999 55.6735 34.1617 56.35C33.8234 55.7412 33.6205 55.1323 33.4176 54.5912C33.3499 54.3206 33.147 54.05 33.0793 53.7794C32.944 53.5765 32.8764 53.3059 32.7411 53.1706C32.4705 52.8323 32.2676 52.6971 31.7264 52.6294C31.2529 52.5618 30.5764 52.6294 29.8999 52.697Z" fill="#EAA968"/>
<path d="M64.8738 54.9294C64.8738 56.0118 64.3327 56.9588 63.5885 56.9588C62.8444 56.9588 62.3032 56.0794 62.3032 54.9294C62.3032 53.7794 62.8444 52.9 63.5885 52.9C64.3327 52.9 64.8738 53.8471 64.8738 54.9294Z" fill="#333333"/>
<path d="M47.8264 52.4265C47.8264 53.5089 47.2852 54.4559 46.5411 54.4559C45.8647 54.4559 45.2559 53.5765 45.2559 52.4265C45.2559 51.2765 45.797 50.3971 46.5411 50.3971C47.2176 50.4647 47.8264 51.3442 47.8264 52.4265Z" fill="#333333"/>
<path d="M51.6826 46.1352C51.6826 46.1352 46.7443 38.0176 42.0767 44.3764L51.6826 46.1352Z" fill="#BFBFBF"/>
<path d="M60.0708 47.4883C60.0708 47.4883 66.7679 39.1001 71.0296 47.7589L60.0708 47.4883Z" fill="#BFBFBF"/>
<path d="M63.1821 89.1588C62.7086 89.9706 62.0997 90.647 61.4233 91.1882C60.7468 91.797 59.935 92.2706 58.988 92.5412C58.5144 92.6765 58.0409 92.7441 57.5674 92.6765C57.0938 92.6088 56.6203 92.5412 56.1468 92.2706C55.2674 91.7971 54.6585 91.0529 54.3203 90.2412C54.9968 90.85 55.6733 91.3912 56.4174 91.5941C57.1615 91.8647 57.9733 91.7971 58.7174 91.5941C59.4615 91.3912 60.2056 90.9853 60.9497 90.5794C61.6938 90.1735 62.438 89.7 63.1821 89.1588Z" fill="#EAA968"/>
<path d="M33.7559 89.9706C34.7029 90.85 35.65 91.7294 36.6647 92.5412C37.6794 93.3529 38.6941 94.0971 39.7764 94.8412C40.8588 95.5853 41.9411 96.2618 43.0235 96.8706C44.1058 97.5471 45.2558 98.0882 46.4735 98.697C45.1882 98.4265 43.9029 98.0882 42.7529 97.5471C41.5353 97.0735 40.3852 96.397 39.3029 95.6529C38.2205 94.9088 37.2058 94.0971 36.2588 93.15C35.2441 92.1353 34.4323 91.1206 33.7559 89.9706Z" fill="#EAA968"/>
<path d="M38.4235 26.5853C38.4235 26.5853 32.2676 29.0882 28.9529 33.7559C25.6382 38.4235 37.4088 35.5824 44.1059 33.2824C35.7853 37.6118 39.3029 37.7471 46.2706 35.2441C46.1353 34.7706 41.4677 42.8883 56.4177 39.3706C71.3676 35.853 75.6971 33.2147 75.6971 33.2147L79.35 63.6559L80.8382 32.9441C78.6059 27.4647 75.3588 24.5559 73.397 23.203C64.5353 16.7765 50.5323 18.0618 38.4235 26.5853Z" fill="#BFBFBF"/>
</g>
</svg>
