<svg width="115" height="116" viewBox="0 0 115 116" fill="none" xmlns="http://www.w3.org/2000/svg">
<mask id="mask0_5673_144934" style="mask-type:luminance" maskUnits="userSpaceOnUse" x="0" y="1" width="115" height="115">
<path d="M57.5 116C89.2564 116 115 90.2564 115 58.5C115 26.7436 89.2564 1 57.5 1C25.7436 1 0 26.7436 0 58.5C0 90.2564 25.7436 116 57.5 116Z" fill="white"/>
</mask>
<g mask="url(#mask0_5673_144934)">
<g clip-path="url(#clip0_5673_144934)">
<path d="M85.0107 141.715V101.603C85.0107 101.603 97.8036 92.3457 104.406 103.865C111.009 115.385 102.962 133.076 102.962 133.076" fill="white"/>
<path d="M50.759 22.6114C50.759 22.6114 63.3456 32.2795 73.0434 33.5138C82.5349 34.748 77.5828 32.4853 71.8054 30.4282C83.7729 34.1309 83.7729 34.1309 83.7729 34.1309C83.7729 34.1309 80.6778 17.0573 70.361 15.8231C60.0442 14.5888 35.2838 17.8801 17.9515 26.3141C24.9669 44.6219 43.1246 66.2211 29.919 76.7121C16.7135 86.9974 5.98398 97.4884 13.4121 110.859C20.8402 124.23 57.1555 118.882 57.1555 118.882L84.5982 111.888C84.5982 111.888 88.5186 87.8202 70.7737 76.5064" fill="#5E4F2A"/>
<path d="M87.0743 127.522L85.0109 101.603L76.5511 97.4884L52.6161 102.837L37.7598 97.2827L28.062 100.163L29.7127 179.771" fill="#C43925"/>
<path d="M80.0587 147.681C87.8995 147.064 92.6452 138.013 86.8678 122.585C81.0904 107.157 76.551 97.4884 76.551 97.4884L37.7597 97.2827L35.6963 97.8998C35.6963 97.8998 30.3316 129.99 33.8393 138.013" fill="white"/>
<path d="M77.7891 26.9311C77.7891 26.9311 101.518 61.4898 89.3439 70.5408C77.1701 79.5919 60.2505 88.2315 60.2505 88.2315L76.551 97.2826L80.4714 114.151C80.4714 114.151 85.4235 124.23 72.218 123.613C58.8061 122.996 42.5055 124.23 40.2358 114.151C38.1724 104.071 37.7598 97.0769 37.7598 97.0769L54.2667 88.8487C54.2667 88.8487 58.1871 67.8666 40.8548 46.2675C35.4901 28.1654 47.4576 20.5542 55.7111 22.4056C64.1709 24.257 77.7891 26.9311 77.7891 26.9311Z" fill="#FFCC94"/>
<path d="M49.3142 54.7015C49.3142 54.7015 40.2354 49.9703 39.8227 56.7586C39.6164 63.5469 48.9015 67.661 52.6156 63.3412" fill="#FFCC94"/>
<path d="M50.7589 22.6114C50.7589 22.6114 54.2666 51.2045 45.3941 53.4673C37.1407 46.8847 30.5379 31.8681 35.49 26.9312C40.442 21.9942 50.7589 22.6114 50.7589 22.6114Z" fill="#5E4F2A"/>
<path d="M50.7588 22.6114C50.7588 22.6114 63.3453 32.2795 73.0431 33.5138C82.5346 34.748 77.5825 32.4852 71.8051 30.4282C83.7726 34.1309 83.7726 34.1309 83.7726 34.1309C83.7726 34.1309 80.6776 17.0573 70.3608 15.8231C70.3608 15.6173 60.8693 12.5318 50.7588 22.6114Z" fill="#5E4F2A"/>
<path d="M28.8872 139.864C28.8872 137.395 28.0619 100.163 28.0619 100.163C28.0619 100.163 10.5233 91.5229 3.30148 105.305C-3.9203 119.087 3.30148 131.636 3.30148 131.636" fill="white"/>
<path d="M74.0752 45.239C75.5196 47.9132 76.7576 50.5874 77.9956 53.2616L77.3766 53.0558C78.6146 52.6444 79.8526 52.0273 81.5033 52.0273C81.916 52.0273 82.3287 52.0273 82.7413 52.4387C83.154 52.6444 83.3603 53.2616 83.3603 53.673C83.154 54.7015 82.7413 55.1129 82.1223 55.5243C81.0906 56.3471 79.6463 56.9643 78.4083 57.17C76.9639 57.3757 75.5195 56.7586 74.6942 55.9357C75.7259 56.7586 77.1702 56.9643 78.4083 56.5529C79.6463 56.3471 80.8843 55.73 81.7096 54.9072C82.1223 54.4958 82.535 53.8787 82.535 53.673C82.535 53.4673 82.1223 53.0558 81.5033 53.0558C80.2653 53.0558 79.0273 53.4673 77.7893 53.8787L77.3766 54.0844L77.1702 53.673C76.1386 50.7931 75.1069 48.1189 74.0752 45.239Z" fill="#D89750"/>
<path d="M80.4717 63.1355C79.6464 64.9869 78.6147 66.6325 77.3767 68.0724C75.9323 69.5124 74.2817 70.7466 72.012 70.7466C69.7422 70.5409 68.2979 68.6896 67.2662 67.0439C66.2345 65.3983 65.6155 63.5469 65.4092 61.6956C66.2345 63.3412 67.0599 65.1926 68.0916 66.8382C69.1232 68.2782 70.5676 69.7181 72.2183 69.9238C73.869 70.1295 75.5197 68.8953 76.964 67.661C77.9957 66.2211 79.2337 64.7811 80.4717 63.1355Z" fill="#D89750"/>
<path d="M42.7119 58.4042C42.7119 57.9928 42.7119 57.3757 42.7119 56.9643C42.9183 56.5529 43.3309 55.9358 43.9499 55.9358C44.9816 55.7301 46.0133 56.3472 46.8386 56.7586C48.4893 57.7871 49.7274 59.2271 50.9654 60.667L51.5844 61.2841H50.759C50.5527 61.2841 50.3464 61.2841 50.14 61.2841H49.9337C50.14 61.6955 50.5527 62.1069 50.759 62.3126C50.5527 62.3126 50.3464 62.1069 50.14 61.9012C49.9337 61.6955 49.7274 61.6955 49.521 61.2841C49.521 61.0784 49.3147 60.8727 49.521 60.667C49.7274 60.4613 49.7274 60.4613 49.9337 60.4613C50.14 60.4613 50.5527 60.2556 50.759 60.2556L50.5527 60.8727C49.7274 60.2556 49.1083 59.6385 48.4893 59.0213C47.8703 58.4042 47.045 57.7871 46.426 57.3757C45.6006 56.7586 44.9816 56.3472 44.1563 56.3472C43.3309 56.5529 42.9183 57.3757 42.7119 58.4042Z" fill="#D89750"/>
<path d="M46.8389 102.014C48.9022 102.22 51.1719 102.425 53.2353 102.837C55.2987 103.042 57.362 103.454 59.6317 103.865H59.8381L60.0444 104.071C60.2507 104.482 60.4571 104.688 60.6634 105.1C60.8698 105.305 61.0761 105.717 61.2824 105.717C61.2824 105.717 61.4888 105.717 61.6951 105.305C61.9014 104.894 61.9014 104.688 62.1078 104.277V103.865H62.3141C65.4092 103.66 68.7105 103.454 71.8056 103.454C68.7105 104.071 65.4092 104.482 62.3141 104.894L62.7268 104.482C62.7268 104.894 62.5204 105.305 62.3141 105.717C62.1078 105.922 62.1078 106.128 61.9014 106.334C61.6951 106.539 61.2824 106.745 60.8698 106.539C60.2507 106.334 60.0444 105.922 59.6317 105.511C59.4254 105.1 59.2191 104.688 59.0127 104.277L59.4254 104.482C57.362 104.071 55.2987 103.66 53.2353 103.248C50.9656 103.042 48.9022 102.425 46.8389 102.014Z" fill="#D89750"/>
<path d="M69.5355 46.679C69.5355 47.7075 69.1229 48.7361 68.5039 48.7361C67.8848 48.7361 67.4722 47.9132 67.4722 46.679C67.4722 45.6505 67.8848 44.6219 68.5039 44.6219C69.1229 44.6219 69.5355 45.4448 69.5355 46.679Z" fill="#414141"/>
<path d="M79.2333 44.6219C79.2333 45.6504 78.8206 46.6789 78.2016 46.6789C77.5826 46.6789 77.1699 45.8561 77.1699 44.6219C77.1699 43.5933 77.5826 42.5648 78.2016 42.5648C78.8206 42.7705 79.2333 43.5933 79.2333 44.6219Z" fill="#414141"/>
<path d="M69.5353 38.4507C69.329 38.4507 63.3452 34.1309 61.9009 42.1535Z" fill="#4C3A17"/>
<path d="M74.9004 37.2165C74.9004 37.2165 75.7257 32.8967 80.4715 35.9822Z" fill="#4C3A17"/>
</g>
</g>
<defs>
<clipPath id="clip0_5673_144934">
<rect width="106.882" height="164.565" fill="white" transform="translate(0 15.2059)"/>
</clipPath>
</defs>
</svg>
