<svg width="55" height="79" viewBox="0 0 55 79" fill="none" xmlns="http://www.w3.org/2000/svg">
<g clip-path="url(#clip0_3734_116837)">
<path opacity="0.5" d="M46.8909 43.2011V0.0683594H38.6444V21.4131H20.0648V0.0683594H11.8199V43.2011H3.40625V79.0006H22.4461L29.1726 58.1036L36.3298 79.0006H55.0026V43.2011H46.8909ZM20.0648 43.2011V28.836H38.6444V43.2011H20.0648H20.0648Z" fill="#4090E7"/>
<path d="M17.1392 1.10547H9.125V49.6021H17.1392V1.10547Z" stroke="#4090E7" stroke-width="1.5" stroke-linecap="round" stroke-linejoin="round"/>
<path d="M43.2095 1.10547H35.1953V49.6021H43.2095V1.10547Z" stroke="#4090E7" stroke-width="1.5" stroke-linecap="round" stroke-linejoin="round"/>
<path d="M35.1077 29.0664H17.2734" stroke="#4090E7" stroke-width="1.5" stroke-linecap="round" stroke-linejoin="round"/>
<path d="M17.1406 21.8516H35.1105" stroke="#4090E7" stroke-width="1.5" stroke-linecap="round" stroke-linejoin="round"/>
<path d="M43.3943 77.8225H32.975L26.0173 57.5117L19.4801 77.8225H19.1229H8.94531" stroke="#4090E7" stroke-width="1.5" stroke-linecap="round" stroke-linejoin="round"/>
<path d="M35.1991 43.0273H17.1406" stroke="#4090E7" stroke-width="1.5" stroke-linecap="round" stroke-linejoin="round"/>
<path d="M43.2109 43.0273H51.2433V77.8225H48.8209" stroke="#4090E7" stroke-width="1.5" stroke-linecap="round" stroke-linejoin="round"/>
<path d="M3.59523 77.8225H1.09375V43.0273H9.12467" stroke="#4090E7" stroke-width="1.5" stroke-linecap="round" stroke-linejoin="round"/>
<path d="M31.9375 1.10547V16.1168" stroke="black" stroke-width="1.5" stroke-linecap="round" stroke-linejoin="round"/>
</g>
<defs>
<clipPath id="clip0_3734_116837">
<rect width="55" height="79" fill="white"/>
</clipPath>
</defs>
</svg>
