<svg width="85" height="45" viewBox="0 0 85 45" fill="none" xmlns="http://www.w3.org/2000/svg">
<path d="M14.0252 30.7863C11.6263 31.2866 9.32995 32.2014 7.22208 33.3952C6.14701 34.004 5.07535 34.6264 4.08885 35.3616C3.58116 35.74 3.09476 36.1478 2.66047 36.6024C2.28868 36.9915 1.7684 37.5244 1.62141 38.045C1.58269 38.1821 1.59717 38.3411 1.69561 38.4477C1.82402 38.5867 2.04417 38.5959 2.23859 38.5948C5.86812 38.5725 9.49836 38.5878 13.1281 38.5877C16.8077 38.5875 20.4872 38.5874 24.1668 38.5874C27.8466 38.5873 31.5264 38.5873 35.2061 38.5873C35.2613 38.5873 35.3165 38.5873 35.3717 38.5873H74.9532C75.5794 38.5873 75.6138 38.5666 75.8558 38.0181C75.8661 37.993 75.8753 37.9657 75.8891 37.9427C78.2013 34.0903 80.354 30.1535 82.5768 26.2544C82.7878 25.884 82.8165 25.5027 82.6456 25.1279C82.5367 24.8919 82.36 24.6822 82.2028 24.4679C81.0175 22.8526 79.231 21.7047 77.3295 20.9791C76.388 20.6198 75.404 20.3588 74.4034 20.201C73.3592 20.0363 72.2129 20.1895 71.2457 19.7141C70.0726 19.1375 69.856 17.8032 69.5745 16.7033C69.03 14.5752 68.4872 12.4479 67.9074 10.3285C67.4558 8.67772 67.0836 6.97698 66.2303 5.46041C64.8019 2.92162 62.5281 1.57422 59.5569 1.57422C51.7637 1.57422 43.9699 1.61891 36.1769 1.57968C35.4933 1.5764 34.8533 1.69986 34.2214 1.90308C32.9035 2.327 31.822 3.0776 30.9755 4.12537C30.6877 4.48155 30.409 4.85412 30.1945 5.25182C26.4522 12.1532 22.8751 19.1377 19.2321 26.087C18.635 27.2261 18.0458 28.369 17.4384 29.5026C16.967 30.3843 16.4945 31.2649 16.03 32.1488C15.8935 32.4077 15.7616 32.671 15.6653 32.9453C15.5632 33.2381 15.6963 33.4468 16.0117 33.5211C16.1756 33.5604 16.3511 33.5659 16.5209 33.5659C23.321 33.5691 33.3709 33.5691 40.171 33.5713M71.858 24.4539C71.6263 23.6607 70.1005 18.7242 69.8975 17.9244M30.2726 38.5873C31.1672 38.1055 34.4416 36.2962 35.3556 35.8493C37.7791 34.6628 40.2221 33.5156 42.7327 32.5017C44.3005 31.868 45.8512 31.1906 47.4431 30.617C49.4995 29.8773 51.5732 29.1737 53.6674 28.5433C55.7617 27.914 57.887 27.3742 60.0088 26.8345C61.0467 26.5712 62.1053 26.3713 63.1639 26.1943C64.4772 25.9747 65.7939 25.7572 67.1186 25.6294C69.8609 25.3661 72.5997 25.0656 75.3718 25.1891C77.1783 25.2699 78.964 25.4502 80.7428 25.7365C80.931 25.766 82.1797 26.0195 82.369 26.0392" stroke="#4090E7" stroke-width="1.5" stroke-linecap="round" stroke-linejoin="round"/>
<path d="M56.1071 11.2871C54.8506 11.6755 53.5826 12.1532 52.3723 12.711C46.3096 15.5048 41.5342 21.0578 39.6621 27.2081C38.998 29.3898 38.6993 31.6467 38.838 33.8822C47.5305 31.7397 54.573 23.7182 55.8316 15.1103C56.0171 13.8417 56.105 12.5455 56.1071 11.2871H56.1071Z" stroke="#4090E7" stroke-width="1.5" stroke-linecap="round" stroke-linejoin="round"/>
<path d="M56.105 11.2871L38.8359 33.8822" stroke="#4090E7" stroke-width="1.5" stroke-linecap="round" stroke-linejoin="round"/>
<path d="M46.1094 24.3672L51.8763 24.7506" stroke="#4090E7" stroke-width="1.5" stroke-linecap="round" stroke-linejoin="round"/>
<path d="M50.0391 13.957L51.0445 17.9063" stroke="#4090E7" stroke-width="1.5" stroke-linecap="round" stroke-linejoin="round"/>
<path d="M41.4097 30.5123L39.8828 26.5156" stroke="#4090E7" stroke-width="1.5" stroke-linecap="round" stroke-linejoin="round"/>
<path d="M15.1848 43.9551H1.60156" stroke="black" stroke-width="1.5" stroke-linecap="round" stroke-linejoin="round"/>
<path d="M55.777 43.9551H19.5312" stroke="black" stroke-width="1.5" stroke-linecap="round" stroke-linejoin="round"/>
<g opacity="0.5">
<path d="M46.67 38.4906C56.7595 38.4906 66.849 38.4907 76.9385 38.4898C77.1506 38.4898 77.3627 38.477 77.5748 38.4732C77.7797 38.4695 77.9193 38.3748 78.006 38.2025C78.079 38.0572 78.1444 37.908 78.2252 37.7667C80.4076 33.9496 82.5881 30.1316 84.7789 26.3189C85.1061 25.7494 85.0513 25.2415 84.678 24.7145C83.7484 23.4024 82.5427 22.3873 81.0925 21.6286C79.6039 20.8497 78.0207 20.3376 76.3318 20.1429C75.729 20.0734 75.1187 20.0599 74.5171 19.9834C73.5027 19.8542 72.7833 19.338 72.407 18.4189C72.3149 18.1941 72.2275 17.9655 72.1661 17.7319C71.5255 15.2959 70.9052 12.855 70.2481 10.4231C69.9145 9.18804 69.5522 7.95778 69.1382 6.74542C68.8042 5.76727 68.2585 4.88046 67.5602 4.08856C66.0734 2.40239 64.1475 1.65612 61.8607 1.65821C54.1344 1.66526 46.4081 1.66421 38.6817 1.66703C38.4979 1.6671 38.3122 1.6617 38.1305 1.68349C36.2859 1.9048 34.7726 2.6968 33.5879 4.06659C32.9975 4.74927 32.5822 5.52774 32.1708 6.31038C28.5485 13.2016 24.9274 20.0934 21.3046 26.9845C20.6313 28.2652 19.9533 29.5437 19.272 30.8206C19.238 30.8843 19.1469 30.9702 19.09 30.9653C18.5626 30.9203 18.0376 30.8491 17.5102 30.803C17.1481 30.7713 16.782 30.7423 16.4202 30.7596C16.1783 30.7711 15.9398 30.8629 15.7014 30.9243C12.3479 31.7869 9.38479 33.3788 6.6287 35.35C5.85029 35.9067 5.16648 36.5641 4.60649 37.3251C4.45312 37.5336 4.35114 37.7885 4.28045 38.0363C4.21641 38.2608 4.3661 38.4277 4.60895 38.4678C4.74733 38.4906 4.88995 38.4994 5.03061 38.4989C8.16452 38.4892 11.2984 38.4761 14.4324 38.4673C14.9195 38.4659 15.4068 38.4897 15.894 38.4902C21.6105 38.4957 27.3271 38.5001 33.0437 38.502C34.7768 38.5026 36.51 38.4923 38.2432 38.4911C41.0522 38.4891 43.8611 38.4906 46.67 38.4906H46.67Z" fill="#4090E7"/>
<path d="M46.67 38.4906C43.8611 38.4906 41.0521 38.4891 38.2432 38.4911C36.51 38.4923 34.7768 38.5026 33.0437 38.502C27.3271 38.5001 21.6105 38.4957 15.894 38.4902C15.4068 38.4897 14.9195 38.4659 14.4324 38.4673C11.2984 38.4761 8.16452 38.4892 5.03061 38.4989C4.88995 38.4994 4.74733 38.4906 4.60895 38.4678C4.3661 38.4277 4.21641 38.2608 4.28045 38.0363C4.35114 37.7885 4.45312 37.5336 4.60649 37.3251C5.16648 36.5641 5.85029 35.9067 6.6287 35.35C9.38479 33.3788 12.3479 31.7869 15.7014 30.9243C15.9398 30.8629 16.1783 30.7711 16.4202 30.7596C16.782 30.7423 17.1481 30.7713 17.5102 30.803C18.0376 30.8491 18.5626 30.9203 19.09 30.9653C19.1469 30.9701 19.238 30.8843 19.272 30.8206C19.9533 29.5437 20.6313 28.2652 21.3046 26.9845C24.9274 20.0934 28.5485 13.2017 32.1708 6.31038C32.5822 5.52774 32.9975 4.74927 33.5879 4.06659C34.7726 2.69679 36.2859 1.90479 38.1305 1.68349C38.3121 1.6617 38.4979 1.6671 38.6817 1.66703C46.4081 1.66421 54.1344 1.66526 61.8607 1.65821C64.1475 1.65612 66.0734 2.40239 67.5602 4.08856C68.2585 4.88046 68.8041 5.76727 69.1382 6.74542C69.5522 7.95778 69.9144 9.18804 70.2481 10.4231C70.9052 12.855 71.5255 15.2959 72.1661 17.7319C72.2275 17.9655 72.3149 18.1941 72.407 18.4189C72.7833 19.338 73.5027 19.8542 74.5171 19.9834C75.1187 20.0599 75.729 20.0734 76.3318 20.1429C78.0207 20.3376 79.6039 20.8497 81.0925 21.6286C82.5427 22.3873 83.7484 23.4024 84.6779 24.7145C85.0513 25.2415 85.1061 25.7494 84.7789 26.3189C82.5881 30.1316 80.4076 33.9496 78.2252 37.7667C78.1444 37.908 78.079 38.0572 78.006 38.2025C77.9193 38.3748 77.7797 38.4695 77.5748 38.4732C77.3627 38.477 77.1506 38.4898 76.9385 38.4898C66.849 38.4907 56.7595 38.4906 46.67 38.4906L46.67 38.4906Z" fill="#4090E7"/>
</g>
</svg>
